<?xml version='1.0' encoding='iso-8859-1'?>
<!DOCTYPE svg PUBLIC '-//W3C//DTD SVG 1.1//EN' 'http://www.w3.org/Graphics/SVG/1.1/DTD/svg11.dtd'>
<svg version="1.1" xmlns="http://www.w3.org/2000/svg" viewBox="0 0 205.347 205.347" xmlns:xlink="http://www.w3.org/1999/xlink" enable-background="new 0 0 205.347 205.347">
  <g>
    <g>
      <g>
        <path d="m183.994,73.825h-129.685c-8.639,0-15.667-7.028-15.667-15.667v-8c0-8.639 7.028-15.667 15.667-15.667h129.685c8.639,0 15.667,7.028 15.667,15.667v8c0,8.638-7.028,15.667-15.667,15.667zm-129.685-27.334c-2.021,0-3.667,1.645-3.667,3.667v8c0,2.022 1.645,3.667 3.667,3.667h129.685c2.022,0 3.667-1.645 3.667-3.667v-8c0-2.022-1.645-3.667-3.667-3.667h-129.685z"/>
      </g>
      <g>
        <path d="m124.309,119.825h-70c-8.639,0-15.667-7.028-15.667-15.667v-8c0-8.639 7.028-15.667 15.667-15.667h70c8.639,0 15.667,7.028 15.667,15.667v8c0,8.638-7.028,15.667-15.667,15.667zm-70-27.334c-2.021,0-3.667,1.645-3.667,3.667v8c0,2.022 1.645,3.667 3.667,3.667h70c2.022,0 3.667-1.645 3.667-3.667v-8c0-2.021-1.645-3.667-3.667-3.667h-70z"/>
      </g>
      <g>
        <path d="m157.642,165.825h-103.333c-8.639,0-15.667-7.028-15.667-15.667v-8c0-8.639 7.028-15.667 15.667-15.667h103.333c8.639,0 15.667,7.028 15.667,15.667v8c0,8.638-7.028,15.667-15.667,15.667zm-103.333-27.334c-2.021,0-3.667,1.645-3.667,3.667v8c0,2.022 1.645,3.667 3.667,3.667h103.333c2.022,0 3.667-1.645 3.667-3.667v-8c0-2.021-1.645-3.667-3.667-3.667h-103.333z"/>
      </g>
    </g>
    <g>
      <g>
        <g>
          <path d="m188.349,191.657h-166.526c-3.313,0-6-2.687-6-6v-170.264c0-3.313 2.687-6 6-6s6,2.687 6,6v164.264h160.525c3.313,0 6,2.687 6,6s-2.686,6-5.999,6z"/>
        </g>
      </g>
      <path d="m182.893,205.347c-1.63,0-3.254-0.66-4.438-1.96-2.231-2.451-2.053-6.245 0.397-8.476l9.895-9.009-9.009-9.895c-2.231-2.45-2.053-6.245 0.397-8.476 2.451-2.23 6.246-2.053 8.476,0.397l13.048,14.331c1.071,1.177 1.631,2.731 1.557,4.32-0.075,1.59-0.778,3.084-1.954,4.156l-14.332,13.048c-1.149,1.047-2.596,1.564-4.037,1.564z"/>
      <path d="m35.523,26.098c-1.594,0-3.185-0.631-4.365-1.883l-9.183-9.734-9.734,9.183c-2.411,2.274-6.208,2.164-8.481-0.247-2.274-2.41-2.164-6.208 0.247-8.481l14.098-13.3c2.41-2.274 6.208-2.164 8.481,0.247l13.3,14.098c2.274,2.41 2.164,6.208-0.247,8.481-1.159,1.094-2.639,1.636-4.116,1.636z"/>
    </g>
  </g>
</svg>
