<svg xmlns="http://www.w3.org/2000/svg" width="171" height="55" viewBox="0 0 171 55"><g fill="#FB385F"><path d="M15.374 17.884c.197-.275.502-.659.916-1.152.413-.492.698-.856.856-1.093.196-.236.492-.629.886-1.182.709-1.102 1.752-1.851 3.131-2.245.354-.118.748-.039 1.182.236.629.276 1.201.354 1.713.236.748-.118 1.201.02 1.359.414 0 .079-.01.177-.03.295a1.72 1.72 0 0 0-.029.266v.207c.079.473-.021.907-.295 1.3-.04.04-.059.138-.059.295 0 .394.02.65.059.768l-.059.118c-.08.198-.177.414-.295.65s-.227.552-.325.945c-.099.394-.188.67-.266.827-1.221 3.033-1.497 4.411-.827 4.135.511-.196 1.614-1.417 3.308-3.663.197-.551.591-1.122 1.182-1.713.236-.354.669-.916 1.3-1.684.629-.768 1.083-1.368 1.358-1.802 1.418-1.851 2.993-3.386 4.726-4.607.078-.079.266-.226.561-.443.295-.216.532-.363.709-.443a.91.91 0 0 1 .561-.059c.629.08 1.161.295 1.595.65.433.394.768.808 1.004 1.241l.235.119c.551.118.827.709.827 1.772 0 .04-.03.118-.089.236s-.088.197-.088.236c-1.024 2.324-1.615 3.958-1.772 4.903-.158 1.063-.256 1.89-.295 2.481-.04.158-.088.532-.147 1.123s-.128 1.063-.207 1.417c-.158 1.143-.414 1.911-.768 2.304v.236c.079.158.118.276.118.354 0 .08-.069.217-.207.414a4.027 4.027 0 0 0-.266.414c-.118.316-.139.512-.059.591.197.67.059 1.339-.414 2.008l-.059.118v.236c-.118.354-.256.848-.414 1.477l.059-.059.236-.118c-.04.197-.227.561-.561 1.093-.335.531-.443.936-.325 1.211.314 0 .393.315.236.945-.552 2.126-.867 3.308-.945 3.544.039 0 .059.021.059.06v.118c.118.197.098.552-.059 1.063-.158.513-.217.887-.177 1.123 0 .079-.03.335-.089.768-.059.434-.029.729.089.886 0 .354-.217.749-.65 1.182l-.65.65c-.197.434-.345.689-.443.768-.099.079-.345.139-.738.178h-.148a.332.332 0 0 0-.147.029.948.948 0 0 1-.177.059.965.965 0 0 1-.236.029c-.473.079-.768 0-.886-.235-.04-.079-.197-.157-.473-.236-.867-.197-1.083-.748-.649-1.654.354-1.221.728-3.229 1.122-6.025.039-.157.177-.669.414-1.536 0-.039.089-.363.266-.975.177-.61.345-1.072.502-1.388 0 .079-.021.206-.059.384-.04.177-.059.324-.059.442.118-.078.196-.118.236-.118.236-.787.354-1.22.354-1.299 0-.118.108-.581.325-1.389.216-.807.305-1.407.266-1.802-.079-.078-.079-.157 0-.236.197-.196.295-.492.295-.886s.079-.688.236-.886a.4.4 0 0 0 .118-.295l.059-.236c-.118-.591.059-1.24.532-1.949v-.295l-.059-.059c-.276.591-.65 1.477-1.123 2.658h-.177c.473-2.678.61-4.066.414-4.165-.197-.098-.729.443-1.595 1.625-.394.512-.965 1.28-1.713 2.304-.079-.078-.118-.137-.118-.177l-.177.059c0 .08-.04.198-.118.354a.455.455 0 0 0-.059.177c-.236.63-.689 1.143-1.359 1.537-.197.078-.295.197-.295.354-.197.158-.375.395-.532.709-.197.552-.66 1.418-1.388 2.6a111.136 111.136 0 0 1-2.51 3.869c-.945 1.398-1.517 2.274-1.713 2.629-.158.275-.827.965-2.008 2.067 0-.434.039-.709.118-.827h-.118c-.04.079-.316.473-.827 1.182l-.118-.118c-.276.591-.808 1.004-1.595 1.24-1.143.395-2.167.453-3.072.177-1.103-.314-1.713-.531-1.832-.649-.276-.196-.375-.354-.295-.473 0-.078.078-.236.236-.473.945-1.496 1.536-2.401 1.772-2.717.709-1.063 1.023-1.91.945-2.54.118-.63.827-3.328 2.126-8.093.393-1.418.511-2.156.354-2.215-.158-.059-.591.384-1.3 1.329-.276.434-.63.985-1.063 1.654-.945 1.497-1.616 2.462-2.009 2.895-.197.394-1.388 2.472-3.574 6.232s-3.417 6.508-3.692 8.24c-.08.473-.217.905-.414 1.3-.316.473-.629.591-.945.354l-.295-.118c-.195-.476-.747-.793-1.653-.949-.039 0-.414-.178-1.123-.532-.078-.079-.059-.236.059-.473.749-1.378 1.438-3.327 2.067-5.848.04-.157.099-.492.177-1.004.08-.512.177-.925.295-1.241.08-.314.394-1.211.945-2.688.551-1.477.866-2.333.945-2.569l.708-2.836c.118-.394.266-.964.443-1.713.177-.748.344-1.427.502-2.038.157-.61.315-1.19.473-1.743 0-.039.039-.207.118-.502.082-.294.121-.52.121-.678.039-.984.393-2.363 1.063-4.135.039-.118.108-.334.207-.65.098-.314.187-.551.266-.709.118-.393.275-.827.473-1.299.197-.433.433-.591.709-.473.118.08.295.207.532.384.236.177.393.325.473.443 0 .04.059.354.177.945-.158 1.063-.434 2.245-.827 3.544-.473 2.245-.236 3.072.709 2.481.825-.511 2.066-2.008 3.72-4.489zm-1.595 21.325h.118c.078-.157.177-.334.295-.532v-.295c-.04.079-.158.217-.354.413 0 .198-.02.336-.059.414zm7.798-11.105c.157-.118.295-.256.414-.414.197-.275.492-.768.886-1.477.433-1.023 1.004-1.811 1.713-2.363.236-.315.354-.61.354-.886-.434.394-1.024 1.162-1.772 2.304-.749 1.143-1.28 2.087-1.595 2.836zm5.316-7.621c.473-.157.768-.414.886-.768 0-.157.079-.314.236-.473.354-.354.718-.886 1.093-1.595.374-.709.64-1.161.797-1.358-.354.276-.896.936-1.625 1.979-.728 1.044-1.19 1.782-1.387 2.215zm17.13 9.452c0 .079-.05.217-.147.413-.099.198-.148.354-.148.473s-.079.217-.236.296c-.118.118-.177.217-.177.295-.04.197-.138.315-.295.354-.079.04-.138.197-.177.473.118 0 .197.021.236.06v.059h-.414c.039-.118.059-.275.059-.473h-.118l-.177 1.24.236.118c.039.276.059.671.059 1.182 0 .315.079.67.236 1.063.039.079.167.375.384.886.216.513.364.808.443.887 1.26 1.261 2.186 1.91 2.776 1.949.275.04 1.043-.06 2.304-.296 1.338-.393 2.697-1.122 4.076-2.186.393-.274.935-.718 1.625-1.329a45.354 45.354 0 0 1 1.329-1.151l.177-.178c.118-.118.295-.314.532-.591.236-.274.414-.473.532-.591.748-.747 1.338-1.437 1.772-2.067.236-.393.473-.629.709-.709-.158.631-.316 1.123-.473 1.478-.08.197-.177.354-.295.473-.434.512-.729.926-.886 1.24a8.098 8.098 0 0 0-.325.354 1.897 1.897 0 0 0-.266.354.644.644 0 0 0-.118.177.737.737 0 0 1-.118.178c.078 0 .167-.02.266-.06a.63.63 0 0 0 .207-.118c-.04.118-.118.247-.236.384-.118.139-.177.247-.177.325l.177.178c-.118.197-.316.434-.591.708-.354.316-.689.65-1.004 1.005-.354.394-.926.906-1.713 1.536-.512.394-.789.61-.827.649-.08.04-.198.118-.354.236a2.723 2.723 0 0 1-.354.236c-.473.236-.827.434-1.063.591-.67.394-1.3.649-1.891.768l-.532.178a10.66 10.66 0 0 1-2.126.413c-.394.04-1.231-.049-2.511-.266-1.28-.216-2.137-.403-2.569-.562-.63-.236-1.143-.502-1.536-.797a7.098 7.098 0 0 1-1.122-1.063c-.354-.414-.611-.68-.768-.798-.354-.275-.629-.688-.827-1.24-.196-.512-.334-1.339-.414-2.481 0-1.732.414-3.485 1.241-5.258.118-.236.157-.531.118-.885-.315.197-.511.412-.591.648a11.99 11.99 0 0 1-.709 1.536c0-.236.139-.669.414-1.3.512-1.141 1.063-2.146 1.654-3.012a16.04 16.04 0 0 1 2.186-2.717c.866-.945 1.752-1.693 2.658-2.245l.591-.295c.393-.157.65-.118.768.118.078.08.177.128.295.147.118.021.197.05.236.089.079.04.148.118.207.236s.108.197.147.236c.157.079.709.276 1.654.591.945.315 1.516.531 1.713.649.118.08.256.276.414.591.473.867.787 1.359.945 1.477.078.04.157.217.236.531.118.827.118 1.536 0 2.127-.118.708-.414 1.476-.886 2.303-.354.631-.571 1.044-.65 1.241-.04.197-.236.591-.591 1.182a1.822 1.822 0 0 1-1.063.886 1.592 1.592 0 0 1-1.123.177c-.276-.078-.434-.156-.473-.236l-.059-.059c-.197.04-.423-.06-.679-.296-.257-.235-.404-.354-.443-.354a.398.398 0 0 1-.118-.296c.039-.078.019-.256-.059-.531-.395-.827-.65-1.319-.768-1.478-.081-.234-.218-.253-.415-.056zm-5.789 6.143l-.118.059c0 .04.021.109.059.207.04.099.079.188.118.266 0 .04.029.129.088.267s.049.227-.029.266l-.118-.118c-.197-.394-.374-1.103-.532-2.127v-.178c0-1.143.08-2.009.236-2.6.08-.236.118-.413.118-.531v-.414c-.197.395-.315.67-.354.827a6.324 6.324 0 0 0-.118.414 1.748 1.748 0 0 0-.059.413c-.275 1.693-.118 3.092.473 4.194 0 .039.158.256.473.649.079.079.216.158.414.236h.177a24.794 24.794 0 0 1-.473-.827 9.153 9.153 0 0 1-.148-.502 1.752 1.752 0 0 0-.207-.501zm0-3.898c-.079.079-.118.138-.118.177-.236.709-.275 1.615-.118 2.718l.118.118c.04-.434.099-1.043.177-1.832.079-.551.06-.945-.059-1.181zm8.979-6.44c-.158.118-.709.749-1.654 1.891a9.976 9.976 0 0 0-.414.649c-.236.395-.198.689.118.886.314.198.492.336.531.414.236.276.669.375 1.3.295.315-.078.629-.393.945-.945a15.6 15.6 0 0 1 .502-1.033 7.93 7.93 0 0 0 .502-1.152c.315-.748.364-1.22.148-1.418-.217-.196-.522-.245-.916-.147a2.526 2.526 0 0 0-1.062.56z"/><path d="M64.699 34.778c-.236.236-1.359 1.004-3.367 2.304-.394.197-.975.354-1.743.473s-1.172.178-1.211.178c-.906 0-1.674-.178-2.304-.532-.709-.433-1.152-.816-1.329-1.151-.177-.334-.344-1.034-.502-2.098-.196-.551-.098-1.378.295-2.48.118-.512.788-1.832 2.009-3.958 1.22-2.127 1.89-3.308 2.008-3.544.393-.866.748-1.536 1.063-2.008.079-.236.334-.473.768-.709.039 0 .207-.049.502-.148.295-.098.502-.207.62-.325.314-.157.492-.354.532-.591.039-.236.137-.354.295-.354.551 0 .984.217 1.299.65.079.04.157.128.236.266.079.139.157.247.236.325.079.04.118.236.118.591-.118.512-.453 1.467-1.004 2.865-.552 1.398-.886 2.333-1.004 2.806-.118.158-.236.591-.354 1.299a28.595 28.595 0 0 0-.177 1.122c-.158.709-.335 1.28-.532 1.714-.236.945-.276 1.477-.118 1.595.039.079.098.227.177.443.079.217.157.404.236.561.079.158.177.217.295.178.354-.197 1.053-.452 2.097-.769 1.043-.314 1.703-.649 1.979-1.004.157-.236.364-.403.621-.502.255-.098.462-.246.62-.443.118-.118.354-.473.709-1.063a2.48 2.48 0 0 1 .384-.649c.138-.157.246-.334.325-.531.236-.473.689-1.182 1.359-2.127.118-.393.374-.847.768-1.359.314-.078.57-.098.768-.059h.473c-.04.118.02.217.177.295.039.08.059.188.059.325 0 .138.039.227.118.266-.118.315-.266.877-.443 1.684-.177.807-.365 1.446-.561 1.919a.66.66 0 0 1-.118.236c-.08 0-.177.099-.295.296.039.275-.099.729-.414 1.358-.04.118-.109.375-.207.768-.099.395-.207.689-.325.887-.473 2.008-.709 3.111-.709 3.308-.04.236.127.453.502.65.374.197.866.295 1.477.295.61 0 1.27-.098 1.979-.295.669-.315 1.516-.955 2.54-1.92 1.023-.965 1.811-1.899 2.363-2.807.788-1.338 1.26-2.126 1.418-2.362.314-.551.57-.492.768.177.157.435.177.749.059.945-.197.315-.315.552-.354.709-.158.118-.404.552-.739 1.3-.335.748-.561 1.182-.679 1.3l-.059.177a.568.568 0 0 1-.295.236c-1.063 1.418-2.225 2.619-3.485 3.604-.197.04-.404.128-.62.266a2.437 2.437 0 0 1-.502.266c-.276.276-.63.532-1.063.769a2.05 2.05 0 0 0-.65.413c-.236-.078-.493-.02-.768.178-.552.434-1.694.581-3.426.442-1.733-.138-2.679-.659-2.835-1.565-.354-2.087-.375-3.701-.059-4.844v-.242z"/><path d="M76.808 51.909l.354-.473c.118-.158.245-.324.384-.502.138-.177.246-.325.325-.443-.158 0-.414.118-.768.354v-.177a.377.377 0 0 1-.177-.178.71.71 0 0 1-.177.118.373.373 0 0 0-.177.178c-.158.118-.473.256-.945.413-.079.039-.216.02-.414-.059 0-.04.021-.089.059-.147a.286.286 0 0 0 .059-.148.52.52 0 0 0-.236.06.525.525 0 0 1-.236.059c-.078.118-.177.178-.295.178-.393.236-.708.138-.945-.296-.197-.512-.334-.826-.414-.944-.197-.276-.374-.848-.532-1.714 0-.315.059-.63.177-.945.158-.63.493-1.339 1.004-2.126.985-1.418 2.008-2.6 3.072-3.545 1.023-.944 1.584-1.722 1.684-2.333.098-.61-.069-1.309-.502-2.097-.236-.827-.749-1.969-1.536-3.427a8.795 8.795 0 0 0-.177-.324c-.08-.138-.118-.246-.118-.325-.276-.394-.62-1.378-1.034-2.954-.414-1.574-.621-2.638-.621-3.189.04-.039.069-.108.089-.207.02-.098.05-.186.088-.266-.039-.315.059-.669.295-1.063.118-.393.139-.669.059-.827.04-.079.099-.236.177-.473.08-.236.158-.414.236-.532.04-.079.099-.207.177-.384.08-.177.139-.325.177-.443l.118-.177c.079-.157.157-.275.236-.354l.532-1.063a5.18 5.18 0 0 1 .414-.65c.196-.275.334-.473.413-.591.039-.039.118-.098.236-.177a.744.744 0 0 0 .354-.414c.197-.236.334-.314.414-.236.393.197.748.434 1.063.708.039 0 .078.021.118.059.236.118.541.582.916 1.388.374.808.581 1.409.62 1.802 0 .236.039.394.118.473 0 .473-.04.827-.118 1.063-.197.788-.354 1.299-.473 1.536-.158.276-.295.434-.414.473-.197.118-.354.315-.472.591 0 .04-.04.099-.118.177-.118.197-.158.354-.118.473 0 .079-.021.138-.059.177-.198.315-.354.63-.473.944-.276.749-.295 1.458-.059 2.127.079.198.275.453.591.769.275.236.64.837 1.093 1.802.452.965.777 1.546.975 1.742.118.079.216.266.295.562.079.295.157.482.236.561.118.236.275.395.473.473.196.08.433.069.708-.029.275-.098.562-.216.857-.354.295-.138.62-.285.975-.443.354-.156.668-.274.945-.354a81.81 81.81 0 0 0 2.658-2.008c.63-.473 1.26-.984 1.891-1.536.275-.236.649-.63 1.122-1.182.197-.196.492-.531.887-1.004.078.158.156.354.236.591.156.434.137.788-.06 1.063 0 .039-.029.108-.089.206a.534.534 0 0 0-.088.267 4.176 4.176 0 0 1-.532 1.122c-.079.118-.197.315-.354.591s-.295.473-.413.591a10.08 10.08 0 0 0-.769.709l-1.24 1.063-.236.236c-.236.158-.591.414-1.063.769s-.748.571-.827.649a6.706 6.706 0 0 1-.649.531c-.276.198-.689.414-1.24.65-.552.236-.975.482-1.27.738-.295.257-.443.62-.443 1.093.157.709.118 1.497-.118 2.363v.472l-.059.236c-.079.118-.128.354-.147.708-.021.354-.05.571-.089.65a1.062 1.062 0 0 1-.295.295c0 .039-.021.06-.059.06-.04 0-.08.02-.118.059-.434.63-.67 1.005-.709 1.123-.236.511-1.024 1.437-2.363 2.776a7.412 7.412 0 0 1-.473.59c-.118.157-.493.394-1.123.709l-.118.118c-.315.354-.689.57-1.122.65-.04 0-.08.02-.118.059-.04.037-.079.077-.118.116zm-.65-6.675c-.198.196-.393.314-.591.354-.393.118-.688.413-.886.886-.157.354-.354.61-.59.768-.315.315-.512.571-.591.769-.079.591-.138.905-.177.945-.118.314-.079.57.118.768.079.118.197.256.354.414.158.156.276.295.354.413.236.157.453.138.649-.06a3.72 3.72 0 0 1 .354-.295 3.39 3.39 0 0 0 .354-.295c.08-.08.198-.207.354-.385.157-.177.275-.305.354-.384a4.655 4.655 0 0 0 1.299-1.595c.039-.04.118-.178.236-.413.275-.435.512-.945.709-1.536.118-.197.207-.493.266-.887s.127-.669.207-.826c.039 0 .059-.06.059-.178 0-1.063-.768-.747-2.304.945-.272.316-.449.513-.528.592zm27.645 1.831c-.354.196-.826.177-1.417-.059-.867-.276-1.359-.473-1.478-.591-.708-.591-1.2-1.241-1.477-1.95-.511-1.417-.787-2.795-.827-4.135-.078-1.496-.156-2.618-.236-3.367-.038-.511-.137-1.378-.295-2.599a10.176 10.176 0 0 0-.177-.65 11.095 11.095 0 0 1-.414-1.24c.67-.394 1.654-.551 2.954-.473.433.552.649 1.222.649 2.009v.059c.196.67.138 1.3-.178 1.891a.531.531 0 0 0-.059.236c-.078.709-.138 1.221-.177 1.536.157 4.45.728 6.557 1.713 6.32.905-.275 1.771-2.127 2.599-5.553.197-.866.374-1.732.532-2.6.196-.669.511-1.653.945-2.953.433-1.3.747-2.265.944-2.895.157-.512.256-.847.296-1.004.236-.828.58-2.068 1.033-3.722.453-1.654.798-2.895 1.034-3.721a87.249 87.249 0 0 1 1.122-3.84c.039-.354-.059-.591-.295-.709a1.21 1.21 0 0 0-.207-.147c-.099-.059-.168-.089-.207-.089-.512-.196-1.083-.531-1.713-1.004-1.063-.748-1.693-1.142-1.89-1.182-.236-.079-.532-.295-.887-.65a3.534 3.534 0 0 0-.413-.325 3.313 3.313 0 0 1-.443-.354 3.456 3.456 0 0 1-.325-.384 2.258 2.258 0 0 1-.295-.532c.157-.275.157-.57 0-.886-.197-.314-.118-.57.236-.768.865-.472 1.418-.748 1.654-.827 2.087-.473 3.918-.709 5.493-.709.748 0 1.319.021 1.713.059.67.04 2.068-.02 4.194-.177 1.614-.157 2.776-.256 3.485-.295h1.477c.552 0 .925-.118 1.123-.354.156.158.236.276.236.354.156 1.182.236 2.088.236 2.717-.04 1.103-.286 1.979-.739 2.629s-1.23 1.231-2.333 1.743c-.118.04-.531.059-1.24.059-.867 0-1.517.02-1.949.059-.276 0-.414.118-.414.354 0 .04-.01.118-.029.236a1.589 1.589 0 0 0-.029.236c0 .316.009.827.029 1.536.02.709.029 1.24.029 1.595.079 1.261.118 2.186.118 2.776 0 .276-.079.729-.236 1.359-.039.197-.089.482-.147.856-.06.375-.128.709-.207 1.004s-.197.582-.354.856a1.09 1.09 0 0 0-.088.325c-.021.139-.03.227-.03.266-.118.315-.689 1.891-1.713 4.726-.039.197-.108.493-.207.886a7.455 7.455 0 0 1-.266.887c-.275 1.024-.729 2.561-1.358 4.607-.079.236-.118.413-.118.531-.118.985-.591 2.009-1.418 3.072-.552.709-1.063 1.143-1.536 1.3-.118.039-.256.138-.413.295-.552.434-1.339 1.122-2.363 2.067a3.562 3.562 0 0 0-.531.414c-.276.196-.689.531-1.24 1.004a1.45 1.45 0 0 1-.354.236c-.354.2-.729.082-1.122-.351zm17.899-17.899c0-.078-.021-.137-.06-.177-.552-.866-.926-2.106-1.122-3.722-.158-.866.059-1.831.649-2.895.079-.157.216-.255.414-.295.354-.315.945-.709 1.771-1.182.512-.315 1.143-.414 1.891-.295.196 0 .886.473 2.067 1.418.63.512 1.005.808 1.123.886.511.434.905 1.025 1.181 1.772.275.708.453 1.143.532 1.299.038.04.156.611.354 1.713.078.867.138 1.339.177 1.417.039.039.06.099.06.178-.04-.275-.04-.256 0 .059v.531c0 .158.009.503.029 1.034.02.531-.01.856-.089.975-.079.158-.05.325.089.502a.672.672 0 0 0 .562.266c.669-.038 1.82-.038 3.455 0 1.634.04 2.767-.038 3.396-.235l.945-.473a.626.626 0 0 1 .207-.118.648.648 0 0 0 .207-.118c.118.157.118.335 0 .531-.04.079 0 .188.118.325.118.139.138.246.059.324-1.143 1.222-4.253 1.832-9.333 1.832h-.178c-.236 0-.354.059-.354.177 0 .04-.039.139-.118.296-.039.275-.413 1.261-1.122 2.953-.197.473-.571 1.063-1.122 1.772-.354.552-.631.886-.827 1.004-.04.04-.109.089-.207.147-.099.06-.168.109-.207.148-.197.079-.315.197-.354.354-.513.591-1.063.966-1.654 1.123-.158 0-.354.079-.591.236-.67.197-1.477.217-2.422.059-.906-.118-1.693-.747-2.363-1.89l-.531-1.596c-.118-1.22-.138-2.304-.06-3.249.118-1.063.453-2.146 1.005-3.249.473-1.142 1.2-2.304 2.186-3.484.079-.037.157-.155.237-.353zm7.029-1.121c.118-.552.098-1.024-.059-1.418a32.946 32.946 0 0 0-.414-1.89c-.197-.63-.473-1.102-.827-1.418-.434-.433-.689-.669-.768-.709-.395-.354-.749-.61-1.063-.768-.513-.394-1.32-.039-2.422 1.063-.552.709-.778 1.517-.68 2.422.099.907.334 1.733.709 2.481a8.454 8.454 0 0 0 1.389 2.008c.865 1.693 1.86 2.313 2.982 1.86 1.124-.451 1.508-1.662 1.153-3.631zm-4.194 7.56c-.354.513-.729 1.358-1.122 2.54-.04.197-.06.513-.06.945-.039.04-.02.139.06.295.157.354.374.591.649.709.039 0 .079-.02.118-.059s.118-.098.236-.178c.827-.865 1.595-2.126 2.304-3.78l.236-.473c.079-.157.148-.334.207-.531.06-.197.108-.335.147-.414-.709-.236-1.24-.275-1.595-.118-.353.159-.746.514-1.18 1.064z"/><path d="M137.474 45.943c.473-1.024 1.142-2.009 2.009-2.954a55.716 55.716 0 0 1 3.426-3.485c.315-.274.748-.659 1.3-1.151.551-.492.984-.876 1.3-1.152.274-.274.473-.591.591-.945.433-1.26.709-2.067.827-2.422.314-1.023.433-2.186.354-3.485-.08-.473-.178-.758-.296-.856-.118-.098-.395-.107-.827-.029-.434.118-.827.395-1.182.827a6.035 6.035 0 0 1-.531.591c-.276.197-.434.434-.473.709-.118.434-.295.748-.531.944-.198.198-.335.493-.414.887-.079.473-.275.788-.591.945-.157.079-.275.295-.354.649 0 .354-.138.729-.413 1.122l-.177.532c-.04.079-.089.197-.148.354a1.252 1.252 0 0 0-.088.295c-.158.513-.473.769-.945.769-.158 0-.435.079-.827.236l-.534.176h-.413c-.079 0-.236.021-.473.059-.236.04-.413.06-.531.06a.719.719 0 0 1-.267-.06 3.734 3.734 0 0 1-.324-.147l-.296-.147c-.67-.157-1.161-.63-1.477-1.418a7.092 7.092 0 0 1-.295-1.358 9.71 9.71 0 0 1-.118-1.3c0-.196.039-.531.118-1.004.039-.236.108-.63.206-1.182.099-.551.168-.945.207-1.182.118-.669.374-1.732.768-3.189.157-.275.256-.551.296-.827.157-.866.473-1.851.945-2.954a83.244 83.244 0 0 1 2.658-5.612c.393-.709.709-1.241.945-1.595.078-.196.216-.462.413-.797.196-.334.334-.581.413-.738.039-.079.374-.709 1.005-1.89.038-.079.196-.354.473-.827 1.456-1.929 2.638-3.406 3.544-4.431a6.83 6.83 0 0 1 .532-.649c.196-.197.334-.295.413-.295.039 0 .127-.039.266-.118.138-.079.246-.138.325-.177a.253.253 0 0 1 .236 0c.039.04.354.295.945.768.591.473.925.709 1.004.709l1.182.945c.156.197.423.641.797 1.329.374.689.64 1.132.798 1.329.236.434.177 1.202-.177 2.304-.04.08-.148.01-.325-.207l-.532-.65c-.177-.216-.286-.285-.324-.207-.118.236-.217.364-.296.384-.079.021-.177.168-.295.443 0 .04-.109.168-.325.384-.217.217-.443.423-.679.62l-.414.354c-.276.512-.808 1.122-1.595 1.831l-.709.886a4.41 4.41 0 0 0-.473.62c-.197.295-.354.502-.473.621-.118.118-.257.315-.413.59-.158.276-.276.453-.354.532-.709.945-1.143 1.595-1.3 1.949-.04.04-.276.395-.709 1.063-.434.67-.689 1.162-.768 1.477a3.375 3.375 0 0 1-.473 1.004c-.118.198-.257.532-.414 1.004-.118.236-.275.601-.473 1.093a20.79 20.79 0 0 0-.413 1.093c-.118.157-.246.67-.384 1.536-.139.866-.247 1.339-.325 1.418 0 .039-.021.138-.059.295-.395 1.693-.414 2.54-.06 2.54.118 0 .256-.059.414-.177.156-.236.314-.482.473-.738.156-.256.314-.482.472-.68a91.457 91.457 0 0 1 2.009-2.836c.236-.393.61-.768 1.122-1.122.275-.236.591-.354.945-.354h.296c.945-.118 1.752.257 2.422 1.122l.709.887c.433.788.6 1.645.502 2.569-.099.926-.109 1.635-.029 2.127.078.492.452.542 1.122.147l2.688-1.654c1.279-.787 2.058-1.26 2.334-1.418a7.38 7.38 0 0 0 .768-.472c.157-.118.413-.275.768-.473l.06.473c-.04.552 0 .847.118.886l-.296.295-.354.178c-.079.039-.128.079-.147.118a.521.521 0 0 1-.147.147c-.079.06-.178.147-.296.266s-.295.247-.531.384a2.712 2.712 0 0 0-.531.385c-.906.552-1.379.847-1.418.886-.04.04-.217.177-.532.413-.354.08-.768.354-1.24.827-.354.276-.689.562-1.004.856-.315.296-.571.503-.769.62-.394.316-.67.582-.826.798-.158.217-.276.513-.354.886-.08.375-.178.7-.296.976-.197.512-.315.788-.354.826l-.059.118a4.234 4.234 0 0 1-.207.532 2.673 2.673 0 0 1-.266.413l-.354.473c-.945 1.26-1.477 1.949-1.595 2.067-.08.079-.198.187-.354.325a6.609 6.609 0 0 0-.354.325l-.354.354a2.974 2.974 0 0 1-1.358 1.24 2.947 2.947 0 0 0-.887.531c-.315.275-.63.434-.945.473a2.418 2.418 0 0 1-1.181.06h-.118c-.08-.08-.493-.217-1.241-.414a.838.838 0 0 0-.029-.177.913.913 0 0 1-.029-.236c-.236-.04-.571-.315-1.004-.827-.398-.473-.654-.886-.772-1.241zm3.072-.472c.591-.315 1.161-.906 1.713-1.772.039-.039.098-.138.177-.295s.138-.256.178-.296c.078-.118.216-.274.413-.473.197-.196.334-.374.414-.531.314-.433.629-.925.945-1.477.156-.315.117-.453-.118-.414-.435.04-.789.257-1.063.65-.158.236-.404.522-.738.856a7.556 7.556 0 0 0-.798.915l-.295.296a49.91 49.91 0 0 0-.798.827c-.375.394-.68.688-.916.886l-.118.118c-.591.473-.788.827-.591 1.063.156.197.689.079 1.595-.353z"/><path d="M154.604 51.909l.354-.473c.118-.158.246-.324.384-.502.138-.177.246-.325.325-.443-.157 0-.413.118-.768.354v-.177a.389.389 0 0 1-.178-.178.692.692 0 0 1-.177.118.384.384 0 0 0-.178.178c-.157.118-.473.256-.944.413-.079.039-.217.02-.414-.059 0-.04.021-.089.06-.147a.295.295 0 0 0 .059-.148.52.52 0 0 0-.236.06.525.525 0 0 1-.236.059c-.078.118-.177.178-.295.178-.394.236-.709.138-.945-.296-.196-.512-.334-.826-.414-.944-.196-.276-.373-.848-.531-1.714 0-.315.06-.63.178-.945.157-.63.492-1.339 1.004-2.126.984-1.418 2.009-2.6 3.071-3.545 1.024-.944 1.585-1.722 1.684-2.333.098-.61-.069-1.309-.502-2.097-.236-.827-.748-1.969-1.536-3.427a7.493 7.493 0 0 0-.177-.324c-.079-.138-.118-.246-.118-.325-.276-.394-.62-1.378-1.034-2.954-.413-1.574-.62-2.638-.62-3.189.04-.039.069-.108.089-.207.021-.098.05-.186.089-.266-.039-.315.059-.669.295-1.063.118-.393.139-.669.06-.827.039-.079.099-.236.177-.473.079-.236.158-.414.236-.532.04-.079.099-.207.178-.384s.138-.325.177-.443l.118-.177a1.36 1.36 0 0 1 .236-.354l.531-1.063c.079-.157.217-.374.414-.65.196-.275.334-.473.413-.591.039-.039.118-.098.236-.177a.744.744 0 0 0 .354-.414c.196-.236.334-.314.414-.236.393.197.747.434 1.063.708.039 0 .079.021.118.059.236.118.541.582.916 1.388.374.808.58 1.409.62 1.802 0 .236.039.394.118.473 0 .473-.04.827-.118 1.063-.197.788-.354 1.299-.473 1.536-.157.276-.295.434-.413.473-.198.118-.354.315-.473.591 0 .04-.04.099-.118.177-.118.197-.158.354-.118.473 0 .079-.021.138-.06.177-.197.315-.354.63-.473.944-.275.749-.295 1.458-.059 2.127.078.198.275.453.591.769.275.236.64.837 1.093 1.802.452.965.777 1.546.975 1.742.118.079.216.266.295.562.079.295.157.482.236.561.118.236.275.395.473.473.197.08.434.069.709-.029.275-.098.562-.216.856-.354.296-.138.62-.285.975-.443.354-.156.67-.274.945-.354a82.95 82.95 0 0 0 2.658-2.008c.63-.473 1.26-.984 1.891-1.536.275-.236.649-.63 1.122-1.182.197-.196.492-.531.887-1.004.078.158.156.354.236.591.156.434.137.788-.06 1.063 0 .039-.029.108-.089.206a.534.534 0 0 0-.088.267 4.176 4.176 0 0 1-.532 1.122c-.079.118-.197.315-.354.591s-.295.473-.413.591a10.08 10.08 0 0 0-.769.709l-1.24 1.063-.236.236c-.236.158-.591.414-1.063.769s-.748.571-.826.649a6.753 6.753 0 0 1-.65.531c-.275.198-.689.414-1.24.65-.552.236-.975.482-1.271.738-.295.257-.442.62-.442 1.093.156.709.118 1.497-.118 2.363v.472l-.06.236c-.079.118-.128.354-.147.708-.021.354-.05.571-.089.65a1.062 1.062 0 0 1-.295.295c0 .039-.021.06-.06.06s-.079.02-.118.059c-.434.63-.67 1.005-.709 1.123-.236.511-1.024 1.437-2.362 2.776a7.412 7.412 0 0 1-.473.59c-.118.157-.493.394-1.122.709l-.118.118a1.95 1.95 0 0 1-1.123.65c-.039 0-.079.02-.118.059l-.12.116zm-.649-6.675c-.197.196-.394.314-.591.354-.394.118-.688.413-.886.886-.157.354-.354.61-.591.768-.314.315-.512.571-.591.769-.078.591-.138.905-.178.945-.118.314-.078.57.118.768.08.118.198.256.354.414.158.156.276.295.354.413.236.157.453.138.65-.06.079-.079.197-.177.354-.295s.275-.217.354-.295c.079-.08.197-.207.354-.385.156-.177.274-.305.354-.384a4.658 4.658 0 0 0 1.3-1.595c.039-.04.118-.178.236-.413.275-.435.512-.945.709-1.536.118-.197.207-.493.266-.887.06-.394.128-.669.207-.826.039 0 .059-.06.059-.178 0-1.063-.768-.747-2.304.945-.272.316-.45.513-.528.592z"/></g></svg>