<svg xmlns="http://www.w3.org/2000/svg" width="287" height="52" viewBox="0 0 287 52"><g fill="#FB385F"><path d="M56.206 25.269c1.636-3.647 2.829-6.196 3.577-7.646.514-1.449 2.01-3.834 4.489-7.155 2.478-3.32 4.185-5.447 5.12-6.383.514-.561 1.098-.818 1.754-.771 3.039-1.636 5.657-1.028 7.856 1.824 2.197 2.853 3.296 6.137 3.296 9.855 0 3.717-.608 6.535-1.824 8.452-1.076 1.216-2.525 1.708-4.349 1.473-.468-.14-1.169-.303-2.104-.491-.328-.046-.491-.233-.491-.561.046-.562.093-1.438.14-2.63.046-1.192.093-2.092.14-2.701.046-.281.093-.725.141-1.333a19.9 19.9 0 0 0 .07-1.333c.093-.982.187-2.641.281-4.98v-.561c.233-1.636.035-2.548-.596-2.736-.631-.186-1.322.047-2.069.702-.749.655-1.146 1.192-1.192 1.613a4.982 4.982 0 0 1-.982 1.824c-.701.655-1.357 1.637-1.964 2.946a42.964 42.964 0 0 1-.982 2.174c-.468.982-.796 1.731-.982 2.245-.842 2.011-1.403 3.975-1.684 5.892a58.616 58.616 0 0 0-.631 4.56c-.047.468-.165 1.204-.351 2.209-.188 1.006-.305 1.766-.351 2.28 0 .374.046 1.52.14 3.437 0 .141.023.386.07.736.046.351.093.644.14.877.28 1.823.642 3.086 1.087 3.788.444.701.9.889 1.368.561.467-.326.899-.817 1.297-1.473.397-.654.76-1.379 1.087-2.175.14-.373.269-.771.386-1.192.116-.421.233-.864.351-1.332.116-.468.221-.842.316-1.123a1.979 1.979 0 0 0-.07-1.543c-.608-1.215-.14-2.15 1.403-2.806.701-.28 2.127-.584 4.279-.912 1.355-.186 2.127.445 2.314 1.895 0 .748-.117 1.402-.351 1.964-.328.748-.936 2.291-1.824 4.629-.889 2.339-1.695 4.256-2.42 5.752-.726 1.497-1.462 2.643-2.209 3.437-.094.047-.328.327-.702.842-.468.842-1.122 1.192-1.964 1.053a9.354 9.354 0 0 0-2.806 0c-.982.14-2.081-.047-3.296-.562a9.884 9.884 0 0 0-1.333-.07c-.328.046-.678 0-1.052-.14-1.262-.375-2.455-1.24-3.577-2.596-.607-.607-.935-1.192-.982-1.754l-.491-1.473c-.467-1.355-.654-2.992-.561-4.91 0-.561.141-1.589.421-3.086l1.263-5.05c1.028-2.899 1.543-4.372 1.543-4.419.093-.233.246-.631.456-1.192s.386-.982.526-1.263h-.28c0 .047-.047.141-.141.281-.094.14-.164.257-.21.351-.047.094-.14.223-.28.386s-.21.268-.21.314zm29.249 5.121c0-.094-.024-.164-.07-.211-.656-1.028-1.1-2.501-1.333-4.419-.188-1.028.07-2.174.771-3.437.093-.186.257-.303.491-.351.421-.374 1.122-.842 2.104-1.403.607-.374 1.356-.491 2.245-.351.233 0 1.052.561 2.455 1.683.748.608 1.192.959 1.333 1.052.607.515 1.075 1.217 1.403 2.104.326.842.537 1.356.631 1.543.046.047.187.726.421 2.034.093 1.029.164 1.59.21 1.684.046.047.07.117.07.21-.047-.326-.047-.304 0 .07v.632c0 .187.011.596.035 1.227.023.632-.012 1.018-.105 1.158-.094.187-.059.386.105.596a.796.796 0 0 0 .666.315c.795-.046 2.163-.046 4.104 0 1.94.048 3.285-.046 4.033-.28l1.122-.562a.754.754 0 0 1 .246-.14.761.761 0 0 0 .246-.141c.14.188.14.397 0 .632-.047.094 0 .222.14.386.141.164.164.292.07.386-1.357 1.449-5.05 2.174-11.083 2.174h-.21c-.281 0-.421.07-.421.211 0 .047-.047.164-.14.351-.047.327-.491 1.497-1.333 3.507-.234.562-.678 1.263-1.333 2.104-.421.655-.749 1.052-.982 1.192a1.353 1.353 0 0 1-.246.175c-.117.07-.199.13-.246.176-.234.095-.375.234-.42.421-.608.701-1.263 1.146-1.964 1.333-.188 0-.421.094-.701.28-.796.234-1.754.258-2.876.07-1.076-.141-2.01-.888-2.806-2.245l-.631-1.894c-.14-1.449-.163-2.735-.07-3.857.141-1.263.539-2.549 1.193-3.858.561-1.355 1.426-2.735 2.595-4.138.093-.045.186-.185.281-.419zm8.347-1.333c.14-.654.116-1.216-.07-1.684a39.368 39.368 0 0 0-.491-2.245c-.235-.747-.562-1.309-.982-1.683-.515-.514-.818-.795-.912-.842-.468-.421-.889-.725-1.263-.912-.608-.467-1.567-.046-2.875 1.263-.656.842-.924 1.801-.807 2.876.116 1.076.396 2.059.841 2.946a10.06 10.06 0 0 0 1.648 2.385c1.028 2.011 2.209 2.747 3.542 2.209 1.334-.537 1.79-1.974 1.369-4.313zm-4.98 8.978c-.421.607-.866 1.613-1.333 3.016-.047.234-.07.608-.07 1.122-.047.048-.024.165.07.351.187.421.444.702.771.842.046 0 .093-.022.141-.069a2.14 2.14 0 0 1 .28-.211c.982-1.028 1.894-2.525 2.736-4.489l.28-.561c.093-.187.175-.397.246-.632.07-.233.128-.396.175-.491-.842-.28-1.473-.326-1.894-.14-.42.187-.889.608-1.402 1.262z"/><path d="M120.736 30.6a2.004 2.004 0 0 1-.386.526c-.164.164-.34.351-.526.561-.188.211-.328.363-.421.456-.14.141-.585.608-1.333 1.403-.749.796-1.263 1.402-1.543 1.823-.561.749-1.287 1.567-2.174 2.455a6.85 6.85 0 0 0-1.192 1.613c-.468.749-.796 1.217-.982 1.403-.281.234-.468.468-.561.701-.235.234-.631 1.228-1.192 2.98-.562 1.754-.936 2.725-1.123 2.911-.28.281-.585.421-.912.421-.188 0-.515.117-.982.351-.328.281-.702.351-1.123.211l-2.314-.211a8.092 8.092 0 0 0-.807-.14 10.01 10.01 0 0 0-.596-.07c-1.216-.421-1.684-1.403-1.403-2.946.795-3.46 1.497-6.032 2.104-7.716.608-1.589 1.146-2.876 1.613-3.857a75.317 75.317 0 0 1 2.315-5.261c.14-.28.958-1.707 2.455-4.279.654-1.122 1.098-1.964 1.333-2.525.374-.702.631-1.333.771-1.894a.93.93 0 0 1 .035-.21c.023-.093.035-.186.035-.28.374-.233.654-.21.841.07.467.608 1.099 1.029 1.894 1.263.14 0 .256.117.351.351.233.281.584.749 1.052 1.403.281.421.374 1.1.281 2.034-.047 2.292-.771 4.91-2.175 7.856-.561 1.216-.912 1.918-1.052 2.104-.608.982-.656 1.638-.141 1.964.234.095.491.07.772-.069.794-.748 1.753-1.777 2.875-3.087a27.91 27.91 0 0 1 2.174-2.35c.842-.817 1.426-1.414 1.754-1.788a27.503 27.503 0 0 0 1.333-1.403c.327-.561.818-.912 1.473-1.052h.701c.281.047.712.083 1.298.105.584.024 1.017.059 1.297.105.514.094.935.445 1.263 1.053.187.327.281.678.281 1.052.186 1.263.186 2.222 0 2.876a607.16 607.16 0 0 1-.771 3.437c-.515 1.778-.656 3.718-.421 5.822.046.748.502 1.146 1.368 1.192.865.047 1.461-.07 1.789-.351l.491-.246c.233-.116.421-.198.561-.245.748-.467 1.694-1.181 2.841-2.14 1.145-.958 1.952-1.718 2.42-2.279.046-.093.479-.456 1.297-1.087.818-.632 1.273-1.018 1.368-1.158.187-.28.374-.631.562-1.052.186-.421.374-.771.561-1.052a.447.447 0 0 0 .105-.176.859.859 0 0 1 .105-.21 1.7 1.7 0 0 1 .21-.246c0 .188.023.305.07.351.046.141.046.328 0 .562-.047.234-.047.421 0 .562 0 .047-.047.188-.14.421-.188.234-.28.538-.28.911-.047.328-.188.679-.421 1.053-.141.188-.445.678-.912 1.473-.468.796-.819 1.333-1.052 1.613-2.011 2.292-3.321 3.694-3.928 4.209-.094.094-.2.175-.316.245-.117.07-.245.141-.386.21-.14.07-.257.13-.351.176a.545.545 0 0 0-.21.07 1.24 1.24 0 0 1-.315.105 1.303 1.303 0 0 0-.316.104c-.515.234-1.473.363-2.875.386-1.403.024-2.409-.058-3.016-.245-2.993-.982-4.514-3.46-4.56-7.436.093-1.215.141-2.104.141-2.665.42-2.29.351-3.507-.21-3.647-.188-.047-.445.093-.772.42z"/><path d="M159.875 32.143c.094 0 .257-.022.491-.07l.28.07c0 .141-.035.27-.105.386a.448.448 0 0 0-.035.386c.094.421-.187 1.287-.841 2.596-.141.375-.362.936-.667 1.684s-.525 1.31-.666 1.684l-1.894 3.577c-.141.234-.784 1.087-1.929 2.56-1.146 1.474-1.813 2.28-2 2.42-.327.234-.889.749-1.683 1.543-.796.795-1.333 1.286-1.613 1.474-1.029.654-2.081 1.052-3.157 1.192-1.262.093-2.174.07-2.735-.07-.702-.095-1.508-.562-2.42-1.403-.912-.841-1.554-1.637-1.929-2.385-.607-1.075-.935-1.706-.982-1.894-.28-.935-.467-2.08-.561-3.437 0-1.169.024-2.15.07-2.946.047-.795.152-1.602.315-2.42.165-.817.305-1.438.421-1.858.117-.421.351-1.216.702-2.385.351-1.169.643-2.104.876-2.807.046-.14.105-.373.175-.701.07-.326.128-.561.176-.701.046-.141.186-.607.42-1.403.281-1.027.491-1.776.631-2.244.046-.233.164-.572.351-1.017.186-.444.338-.842.456-1.192.116-.351.222-.701.316-1.052.093-.351.093-.642 0-.876-.094-.233-.305-.374-.631-.421-.749-.093-1.192-.21-1.333-.351a16 16 0 0 0-.631-.386 12.084 12.084 0 0 1-.631-.386c-.233-.233-.374-.444-.421-.631.188-.093.305-.14.351-.14.328-.046.807-.14 1.438-.281.631-.14 1.11-.256 1.438-.351.421-.093 1.098-.186 2.034-.28.373-.093.607-.281.701-.562.047-.093.164-.338.352-.736.186-.396.303-.712.35-.947.187-.327.491-.958.912-1.894.421-.935.771-1.636 1.053-2.104.794-1.263 1.565-2.245 2.314-2.946.093-.14.256-.327.49-.561.327-.233.632-.327.912-.281.047.047.257.047.631 0a8.39 8.39 0 0 1 .702-.07c.046 0 .093-.023.14-.07.795-.186 1.334.14 1.613.982.327.656.492 1.403.492 2.245 0 .281.045.655.14 1.123.093.28.093.608 0 .982-.095.468-.165.841-.21 1.122l-.422 1.684c0 .234-.023.421-.069.561.14.094.374.14.701.14.28-.046.712-.093 1.298-.14.584-.046 1.018-.07 1.297-.07h3.648c.14 0 .28.012.42.035.141.024.292.059.457.105.162.047.314.07.455.07l-.28.421a1.88 1.88 0 0 1-.491.351l-.771.386c-.328.164-.585.27-.771.315l-.07.07c-.141 0-.503.07-1.087.21-.585.14-1.042.187-1.368.14-.468 0-.959.07-1.473.21a2.146 2.146 0 0 1-.491.14c-.234.047-.374.07-.421.07a6.75 6.75 0 0 0-.807.07c-.351.047-.62.094-.807.141-.234.047-.421.234-.561.561l-.07.07c0 .094-.024.14-.07.14-.328.889-.831 2.128-1.508 3.717a428.458 428.458 0 0 0-1.368 3.227 7.075 7.075 0 0 0-.351.771 16.322 16.322 0 0 0-.842 2.104c-.188.516-.491 1.122-.912 1.824-.094.14-.176.397-.245.771-.07.374-.175.655-.315.842-.375.889-.736 2.408-1.088 4.559-.35 2.151-.502 3.882-.455 5.19.045.937.28 2.012.701 3.227l.631.842h.07c.094.047.164.07.211.07 1.355 0 2.197-.116 2.524-.351.562-.374 1.544-1.146 2.946-2.314 2.15-2.15 3.53-3.834 4.139-5.051.186-.374.443-1.017.771-1.929.326-.912.607-1.554.842-1.929.187-.468.632-1.474 1.333-3.017zm-11.503-7.084a33.078 33.078 0 0 1 1.403-3.297c.42-1.028.561-1.707.42-2.034-.141-.327-.748-.21-1.823.351-.28.889-.597 2.011-.947 3.367a94.786 94.786 0 0 1-.736 2.735c-.655 2.385-.726 3.297-.21 2.735.513-.606 1.144-1.894 1.893-3.857zm3.156-9.189c.187-.935.327-1.659.421-2.174.046-.186.116-.514.211-.982.045-.187.104-.467.175-.842.07-.374.105-.654.105-.842.046-.421.022-1.052-.07-1.894-.095-.327-.234-.397-.421-.21-.328.234-.538.468-.631.701-.375.702-.609 1.31-.701 1.824 0 .094-.048.21-.141.351-.095.14-.141.234-.141.28-.188.375-.328.679-.421.912a70.724 70.724 0 0 1-.491 2.244c-.141.889.116 1.38.771 1.473.656.095 1.1-.186 1.334-.841z"/><path d="M184.495 31.862c.373.047.771.28 1.192.701-.048.281-.2.726-.456 1.333-.258.608-.48.981-.667 1.122-.094.047-.175.117-.245.211s-.129.14-.176.14c-.374.468-.631.771-.771.912-.28.234-.421.397-.421.491-.14.327-.421.608-.841.842-.188.094-.305.188-.352.28-.14.188-.386.433-.736.736-.351.305-.573.503-.666.597a3.32 3.32 0 0 1-1.333.701c-.094.047-.351.094-.771.141s-.748.117-.981.21c-.188.095-.48.164-.877.211-.397.047-.644.094-.737.14h-.631c-1.31-.421-2.104-.747-2.385-.981-.047-.047-.164-.116-.351-.211-.796-.326-1.356-.725-1.684-1.192-.655.328-1.146.632-1.473.912-.235.14-.491.305-.772.491l-.14.069c-.188.235-.701.516-1.543.842-1.076.328-2.034.258-2.876-.21-.234-.141-.586-.304-1.053-.491-2.01-.842-3.133-2.36-3.366-4.56-.14-1.075.046-2.127.562-3.156.654-1.215 1.215-2.08 1.684-2.595 0-.046.045-.116.14-.211.562-.888 1.589-2.22 3.087-3.998a13.192 13.192 0 0 1 2.665-2.174c.187-.093.396-.14.631-.14.562-.093 1.005-.141 1.333-.141h.211c.14.095.396.165.771.21.373.047.606.094.701.141.186.094.326.14.42.14.422.094.678.21.772.351l.14.07c.141 0 .305.059.491.175.187.117.351.175.491.175s.256.047.351.141c.747.749 1.146 1.169 1.192 1.262.047.047.094.141.141.281.046.14.07.234.07.28.141.608-.07 1.077-.632 1.403-.421.188-1.006.561-1.753 1.122v.07c-1.45 1.45-2.223 2.244-2.314 2.385-.188.234-.469.538-.842.912-.188.188-.749.936-1.684 2.244-.095.141-.328.468-.701.982a1.592 1.592 0 0 0-.281.421c-.421.795-.701 1.566-.842 2.314v.28a1.07 1.07 0 0 0 .281-.21 21.535 21.535 0 0 1 2.314-2.034c.467-.374.817-.771 1.052-1.192.093-.141.28-.352.562-.632.561-.654.957-1.168 1.191-1.543a79.201 79.201 0 0 0 1.474-2.385c.702-.093 1.216.07 1.543.491l.421.421c.326.421.537 1.099.631 2.034 0 .047-.047.164-.14.351-.28.655-.608 1.31-.981 1.964-.188.515-.258 1.006-.211 1.473.141.655.351 1.24.631 1.754a.691.691 0 0 0 .632.351c.654-.093 1.146-.21 1.473-.351.747-.374 1.192-.607 1.333-.701a49.104 49.104 0 0 0 1.543-.912c.141-.141.339-.315.596-.526.257-.21.433-.361.526-.456.327-.28.865-.958 1.613-2.034.748-1.075 1.286-1.776 1.613-2.104l.07-.07c.093.001.141-.023.141-.07z"/><path d="M203.923 32.143c.093 0 .256-.022.491-.07l.28.07c0 .141-.035.27-.105.386a.444.444 0 0 0-.035.386c.094.421-.188 1.287-.842 2.596-.14.375-.362.936-.666 1.684-.305.748-.526 1.31-.666 1.684l-1.895 3.577c-.14.234-.783 1.087-1.929 2.56-1.146 1.474-1.813 2.28-1.999 2.42-.327.234-.889.749-1.684 1.543-.795.795-1.332 1.286-1.613 1.474-1.029.654-2.081 1.052-3.156 1.192-1.263.093-2.174.07-2.735-.07-.701-.095-1.508-.562-2.42-1.403-.912-.841-1.554-1.637-1.929-2.385-.607-1.075-.936-1.706-.982-1.894-.28-.935-.467-2.08-.561-3.437 0-1.169.023-2.15.069-2.946.048-.795.152-1.602.316-2.42a28.85 28.85 0 0 1 .421-1.858c.117-.421.351-1.216.701-2.385s.644-2.104.877-2.807c.046-.14.104-.373.175-.701.07-.326.129-.561.176-.701.046-.141.187-.607.421-1.403.28-1.027.491-1.776.631-2.244.046-.233.163-.572.351-1.017.187-.444.339-.842.456-1.192.116-.351.222-.701.315-1.052.094-.351.094-.642 0-.876-.094-.233-.305-.374-.631-.421-.749-.093-1.192-.21-1.333-.351-.14-.093-.351-.221-.631-.386-.28-.163-.491-.292-.632-.386-.233-.233-.373-.444-.421-.631.188-.093.305-.14.352-.14.327-.046.807-.14 1.438-.281.631-.14 1.11-.256 1.438-.351.421-.093 1.099-.186 2.034-.28.374-.093.607-.281.702-.562.046-.093.163-.338.351-.736.187-.396.304-.712.351-.947.187-.327.491-.958.912-1.894.421-.935.771-1.636 1.052-2.104.795-1.263 1.566-2.245 2.314-2.946.094-.14.257-.327.491-.561.326-.233.631-.327.912-.281.046.047.256.047.631 0 .374-.046.607-.07.701-.07.047 0 .094-.023.141-.07.795-.186 1.333.14 1.613.982.327.656.491 1.403.491 2.245 0 .281.046.655.141 1.123.093.28.093.608 0 .982-.095.468-.165.841-.211 1.122l-.421 1.684c0 .234-.024.421-.07.561.141.094.374.14.702.14.28-.046.712-.093 1.297-.14.584-.046 1.018-.07 1.298-.07h3.647c.141 0 .28.012.421.035.141.024.292.059.456.105.163.047.315.07.456.07l-.281.421c-.14.14-.305.258-.49.351l-.771.386c-.328.164-.586.27-.772.315l-.069.07c-.141 0-.503.07-1.088.21-.585.14-1.041.187-1.367.14-.468 0-.959.07-1.474.21a2.134 2.134 0 0 1-.49.14c-.235.047-.375.07-.421.07-.188 0-.456.024-.807.07a7.709 7.709 0 0 0-.807.141c-.234.047-.421.234-.562.561l-.07.07c0 .094-.023.14-.07.14-.327.889-.83 2.128-1.508 3.717a414.79 414.79 0 0 0-1.367 3.227 7.361 7.361 0 0 0-.352.771c-.374.796-.655 1.497-.841 2.104-.188.516-.491 1.122-.912 1.824-.095.14-.176.397-.246.771-.069.374-.175.655-.315.842-.375.889-.736 2.408-1.087 4.559-.351 2.151-.503 3.882-.456 5.19.046.937.28 2.012.701 3.227l.632.842h.07c.093.047.163.07.21.07 1.355 0 2.197-.116 2.525-.351.561-.374 1.543-1.146 2.945-2.314 2.15-2.15 3.53-3.834 4.139-5.051.187-.374.444-1.017.771-1.929s.607-1.554.842-1.929c.186-.468.632-1.474 1.333-3.017zm-11.504-7.084a33.315 33.315 0 0 1 1.403-3.297c.421-1.028.562-1.707.421-2.034-.141-.327-.749-.21-1.824.351-.28.889-.596 2.011-.946 3.367a94.786 94.786 0 0 1-.736 2.735c-.656 2.385-.726 3.297-.211 2.735.513-.606 1.145-1.894 1.893-3.857zm3.157-9.189c.186-.935.326-1.659.421-2.174.046-.186.115-.514.21-.982.046-.187.105-.467.176-.842.069-.374.104-.654.104-.842.046-.421.023-1.052-.07-1.894-.094-.327-.234-.397-.42-.21-.328.234-.539.468-.632.701-.375.702-.608 1.31-.701 1.824 0 .094-.047.21-.141.351-.094.14-.14.234-.14.28-.188.375-.328.679-.421.912a77.18 77.18 0 0 1-.491 2.244c-.141.889.116 1.38.771 1.473.655.095 1.099-.186 1.334-.841z"/><path d="M205.396 30.39c0-.094-.024-.164-.07-.211-.655-1.028-1.099-2.501-1.332-4.419-.188-1.028.069-2.174.771-3.437.093-.186.256-.303.49-.351.421-.374 1.123-.842 2.104-1.403.607-.374 1.355-.491 2.245-.351.233 0 1.052.561 2.455 1.683.747.608 1.192.959 1.332 1.052.607.515 1.075 1.217 1.403 2.104.326.842.537 1.356.631 1.543.046.047.187.726.421 2.034.094 1.029.163 1.59.211 1.684.046.047.069.117.069.21-.047-.326-.047-.304 0 .07v.632c0 .187.012.596.035 1.227.023.632-.012 1.018-.104 1.158-.095.187-.06.386.104.596a.798.798 0 0 0 .667.315c.794-.046 2.162-.046 4.104 0 1.939.048 3.284-.046 4.033-.28l1.122-.562a.758.758 0 0 1 .245-.14.743.743 0 0 0 .245-.141c.141.188.141.397 0 .632-.047.094 0 .222.141.386s.163.292.07.386c-1.356 1.449-5.05 2.174-11.082 2.174h-.211c-.28 0-.421.07-.421.211 0 .047-.047.164-.141.351-.047.327-.49 1.497-1.332 3.507-.234.562-.679 1.263-1.333 2.104-.421.655-.748 1.052-.982 1.192a1.375 1.375 0 0 1-.245.175c-.117.07-.199.13-.245.176-.234.095-.375.234-.421.421-.608.701-1.263 1.146-1.964 1.333-.188 0-.421.094-.702.28-.795.234-1.753.258-2.875.07-1.077-.141-2.011-.888-2.807-2.245l-.631-1.894c-.141-1.449-.163-2.735-.07-3.857.141-1.263.538-2.549 1.192-3.858.562-1.355 1.426-2.735 2.596-4.138.094-.045.188-.185.282-.419zm8.346-1.333c.141-.654.116-1.216-.069-1.684a40.247 40.247 0 0 0-.491-2.245c-.234-.747-.562-1.309-.982-1.683-.515-.514-.818-.795-.912-.842-.468-.421-.889-.725-1.262-.912-.608-.467-1.567-.046-2.876 1.263-.655.842-.924 1.801-.807 2.876.116 1.076.396 2.059.842 2.946.443.889.992 1.683 1.648 2.385 1.027 2.011 2.209 2.747 3.542 2.209 1.332-.537 1.788-1.974 1.367-4.313zm-4.979 8.978c-.421.607-.866 1.613-1.333 3.016-.047.234-.07.608-.07 1.122-.047.048-.023.165.07.351.187.421.444.702.771.842.046 0 .094-.022.141-.069a2.14 2.14 0 0 1 .28-.211c.982-1.028 1.894-2.525 2.735-4.489l.281-.561c.093-.187.175-.397.245-.632.07-.233.128-.396.176-.491-.842-.28-1.474-.326-1.895-.14-.42.187-.888.608-1.401 1.262z"/></g></svg>