<?xml version="1.0" encoding="utf-8"?>
<!-- Generator: Adobe Illustrator 16.0.0, SVG Export Plug-In . SVG Version: 6.00 Build 0)  -->
<!DOCTYPE svg PUBLIC "-//W3C//DTD SVG 1.1//EN" "http://www.w3.org/Graphics/SVG/1.1/DTD/svg11.dtd">
<svg version="1.1" id="Layer_1" xmlns="http://www.w3.org/2000/svg" xmlns:xlink="http://www.w3.org/1999/xlink" x="0px" y="0px"
	 width="101px" height="16px" viewBox="0 0 101 16" enable-background="new 0 0 101 16" xml:space="preserve">
<g>
	<path fill="#FFFFFF" d="M31.493,0H14.795C14.3,0,13.9,0.4,13.9,0.896V11.37c0,0.495,0.4,0.897,0.895,0.897h6.245v2.026h-2.43
		c-0.457,0-0.83,0.373-0.83,0.828c0,0.457,0.373,0.828,0.83,0.828h9.068c0.457,0,0.828-0.37,0.828-0.828
		c0-0.455-0.37-0.828-0.828-0.828h-2.43v-2.026h6.244c0.494,0,0.896-0.402,0.896-0.896V0.897C32.388,0.402,31.988,0.001,31.493,0
		L31.493,0z M31.291,11.137H15.146V0.995h16.167l-0.02,10.142H31.291z"/>
	<path fill="#FFFFFF" d="M18.135,6.64l2.824,1.313c0.072,0.034,0.15,0.05,0.23,0.05c0.105,0,0.207-0.03,0.295-0.085
		c0.158-0.102,0.253-0.274,0.253-0.462V7.44c0-0.212-0.125-0.408-0.318-0.498l-1.766-0.82l1.766-0.82
		c0.193-0.09,0.318-0.287,0.318-0.5V4.79c0-0.19-0.095-0.362-0.253-0.463c-0.088-0.056-0.19-0.085-0.296-0.085
		c-0.08,0-0.16,0.018-0.232,0.05l-2.824,1.313c-0.193,0.09-0.317,0.286-0.317,0.5v0.038c0,0.21,0.125,0.407,0.318,0.497H18.135z
		 M21.764,9.314c0.103,0.14,0.27,0.225,0.443,0.225h0.014c0.24,0,0.45-0.153,0.523-0.382l1.86-5.764
		c0.054-0.167,0.023-0.35-0.08-0.49c-0.103-0.142-0.268-0.227-0.442-0.227h-0.013c-0.24,0-0.45,0.153-0.523,0.38l-1.86,5.764
		c-0.052,0.17-0.023,0.354,0.08,0.494H21.764z M24.55,4.803c0,0.213,0.124,0.41,0.317,0.5l1.766,0.82l-1.766,0.82
		c-0.193,0.09-0.318,0.285-0.318,0.5v0.013c0,0.188,0.095,0.36,0.253,0.462c0.09,0.057,0.19,0.086,0.295,0.086
		c0.08,0,0.158-0.018,0.232-0.05l2.823-1.314c0.193-0.09,0.317-0.286,0.317-0.498v-0.04c0-0.212-0.124-0.408-0.317-0.498L25.33,4.29
		c-0.072-0.032-0.15-0.05-0.23-0.05c-0.105,0-0.21,0.03-0.297,0.086c-0.158,0.102-0.254,0.274-0.254,0.462L24.55,4.803L24.55,4.803z
		"/>
</g>
<path fill="#FFFFFF" d="M13.365,7.982c-0.215,0-0.39,0.174-0.39,0.39v6.942H8.793v-4.356c0-0.217-0.174-0.39-0.39-0.39H5.35
	c-0.214,0-0.39,0.173-0.39,0.39v3.455c0,0.215,0.176,0.39,0.39,0.39c0.217,0,0.39-0.175,0.39-0.39v-3.065h2.274v3.969H0.78v-9.54
	l6.096-4.889l6.244,5.003c0.17,0.134,0.414,0.107,0.548-0.06c0.135-0.168,0.108-0.413-0.06-0.548L7.12,0.085
	c-0.14-0.114-0.344-0.114-0.486,0l-6.488,5.2C0.054,5.357,0,5.47,0,5.588v10.114c0,0.215,0.174,0.39,0.39,0.39h12.975
	c0.215,0,0.39-0.175,0.39-0.39v-7.33C13.755,8.156,13.58,7.982,13.365,7.982z"/>
<g>
	<path fill="#FFFFFF" d="M64.771,0H48.532c-0.304,0-0.548,0.246-0.548,0.548V11.8c0,0.306,0.244,0.55,0.55,0.55h4.058
		c0.303,0,0.551-0.244,0.551-0.55c0-0.302-0.248-0.548-0.551-0.548h-3.51V1.098h15.143v10.155H57.71
		c-0.112,0-0.22,0.035-0.313,0.101L52.279,14.9c-0.25,0.172-0.312,0.514-0.139,0.763c0.105,0.153,0.276,0.235,0.451,0.235
		c0.107,0,0.217-0.031,0.313-0.1l4.977-3.449h6.893c0.304,0,0.551-0.244,0.551-0.549V0.548C65.32,0.246,65.074,0,64.771,0z"/>
	<path fill="#FFFFFF" d="M58.684,4.36c0.303,0,0.549-0.245,0.549-0.548s-0.246-0.548-0.549-0.548h-4.061
		c-0.303,0-0.55,0.246-0.55,0.548c0,0.303,0.247,0.548,0.55,0.548H58.684z M52.044,6.176c0,0.303,0.246,0.548,0.55,0.548h8.12
		c0.302,0,0.548-0.246,0.548-0.548c0-0.304-0.246-0.55-0.55-0.55h-8.12C52.29,5.626,52.044,5.872,52.044,6.176z M52.593,9.087h8.12
		c0.303,0,0.551-0.246,0.551-0.55c0-0.304-0.248-0.547-0.551-0.547h-8.12c-0.303,0-0.55,0.245-0.55,0.548
		C52.043,8.841,52.29,9.088,52.593,9.087L52.593,9.087z"/>
</g>
<g>
	<path fill="#FFFFFF" stroke="#FFFFFF" d="M79.779,5.96C79.8,5.788,79.838,5.635,79.59,5.6c-0.432-0.058-0.85-0.24-1.294-0.3
		c-0.42-0.057-0.828-0.14-1.256-0.137c-1.101,0.007-2.162,0.35-3.242,0.485c-0.452,0.057-0.917,0.07-1.368,0.018
		c-0.6-0.07-1.18-0.258-1.779-0.342c-0.539-0.075-1.082-0.154-1.621-0.156c-0.942-0.006-1.854,0.287-2.779,0.446
		c0,0.27-0.055,0.614,0.083,0.803c0.144,0.194,0.383,0.373,0.444,0.637c0.147,0.626,0.357,1.24,0.627,1.83
		c0.132,0.284,0.378,0.484,0.652,0.62c0.664,0.33,1.445,0.38,2.174,0.277c1.035-0.148,1.597-0.92,2.024-1.8
		c0.16-0.36,0.181-0.772,0.39-1.1c0.125-0.195,0.416-0.114,0.625-0.114c0.31,0,0.385,0.343,0.449,0.572
		c0.229,0.81,0.608,1.67,1.366,2.095c1.13,0.633,2.914,0.515,3.647-0.627c0.287-0.451,0.367-0.991,0.511-1.499
		c0.087-0.31,0.166-0.676,0.478-0.845c0.127-0.068,0.038-0.342,0.059-0.5"/>
	<path fill="#FFFFFF" stroke="#FCFCFC" d="M79.779,5.96C79.8,5.788,79.838,5.635,79.59,5.6c-0.432-0.058-0.85-0.24-1.294-0.3
		c-0.42-0.057-0.828-0.14-1.256-0.137c-1.101,0.007-2.162,0.35-3.242,0.485c-0.452,0.057-0.917,0.07-1.368,0.018
		c-0.6-0.07-1.18-0.258-1.779-0.342c-0.539-0.075-1.082-0.154-1.621-0.156c-0.942-0.006-1.854,0.287-2.779,0.446
		c0,0.27-0.055,0.614,0.083,0.803c0.144,0.194,0.383,0.373,0.444,0.637c0.147,0.626,0.357,1.24,0.627,1.83
		c0.132,0.284,0.378,0.484,0.652,0.62c0.664,0.33,1.445,0.38,2.174,0.277c1.035-0.148,1.597-0.92,2.024-1.8
		c0.16-0.36,0.181-0.772,0.39-1.1c0.125-0.195,0.416-0.114,0.625-0.114c0.31,0,0.385,0.343,0.449,0.572
		c0.229,0.81,0.608,1.67,1.366,2.095c1.13,0.633,2.914,0.515,3.647-0.627c0.287-0.451,0.367-0.991,0.511-1.499
		c0.087-0.31,0.166-0.676,0.478-0.845c0.127-0.068,0.038-0.342,0.059-0.5V5.96z"/>
</g>
<path fill="#FFFFFF" d="M38.982,4.426h7.293c0.504,0,0.912-0.408,0.912-0.912c0-0.503-0.408-0.912-0.912-0.912h-7.293
	c-0.503,0-0.913,0.41-0.913,0.912C38.069,4.018,38.479,4.426,38.982,4.426L38.982,4.426z M46.275,6.858h-7.293
	c-0.503,0-0.913,0.408-0.913,0.912c0,0.502,0.408,0.912,0.912,0.912h7.292c0.504,0,0.912-0.41,0.912-0.912
	c0-0.504-0.408-0.912-0.912-0.912H46.275z M46.275,11.111h-7.293c-0.503,0-0.913,0.408-0.913,0.91c0,0.506,0.408,0.914,0.912,0.914
	h7.292c0.504,0,0.912-0.408,0.912-0.912c0-0.502-0.408-0.91-0.912-0.91L46.275,11.111z M36.01,7.044l-0.608-0.088l-0.27-0.55
	c-0.078-0.156-0.236-0.254-0.41-0.254c-0.173,0-0.332,0.098-0.41,0.254l-0.27,0.55l-0.607,0.088
	c-0.172,0.025-0.314,0.145-0.368,0.31c-0.055,0.166-0.01,0.346,0.114,0.467l0.44,0.43l-0.104,0.604
	c-0.03,0.17,0.04,0.343,0.18,0.444c0.08,0.058,0.174,0.087,0.27,0.087c0.072,0,0.145-0.018,0.21-0.054l0.544-0.284l0.543,0.283
	c0.067,0.036,0.14,0.054,0.212,0.054c0.253,0,0.457-0.202,0.457-0.456c0-0.037-0.005-0.072-0.014-0.109l-0.098-0.57l0.44-0.43
	c0.125-0.12,0.17-0.3,0.116-0.465C36.324,7.189,36.182,7.069,36.01,7.044L36.01,7.044z M36.01,2.79L35.4,2.7l-0.272-0.55
	c-0.077-0.156-0.235-0.254-0.41-0.254c-0.172,0-0.33,0.098-0.408,0.254L34.04,2.7l-0.608,0.088c-0.172,0.025-0.314,0.146-0.368,0.31
	c-0.054,0.166-0.01,0.347,0.115,0.468l0.44,0.428L33.516,4.6c-0.03,0.17,0.04,0.344,0.18,0.446c0.08,0.058,0.174,0.087,0.27,0.087
	c0.072,0,0.145-0.017,0.21-0.052l0.544-0.284l0.544,0.285c0.067,0.036,0.14,0.053,0.212,0.053c0.253,0,0.457-0.204,0.457-0.456
	c0-0.04-0.005-0.075-0.014-0.11l-0.1-0.572l0.44-0.428c0.125-0.12,0.17-0.302,0.116-0.468c-0.053-0.165-0.195-0.286-0.367-0.31
	L36.01,2.79z M36.01,11.3l-0.608-0.09l-0.272-0.55c-0.077-0.155-0.235-0.254-0.41-0.254c-0.172,0-0.33,0.1-0.408,0.254l-0.27,0.55
	l-0.608,0.09c-0.172,0.024-0.314,0.144-0.368,0.31c-0.054,0.166-0.01,0.348,0.115,0.468l0.44,0.43l-0.104,0.603
	c-0.03,0.173,0.04,0.346,0.18,0.447c0.08,0.059,0.174,0.088,0.27,0.088c0.072,0,0.145-0.019,0.21-0.054l0.544-0.282l0.543,0.283
	c0.067,0.036,0.14,0.055,0.212,0.055c0.253,0,0.457-0.205,0.457-0.457c0-0.037-0.005-0.074-0.014-0.109l-0.098-0.57l0.44-0.43
	c0.124-0.12,0.168-0.303,0.115-0.467c-0.052-0.168-0.194-0.286-0.366-0.311V11.3z"/>
<path fill="#FFFFFF" d="M95.063,5.129h1.582l3.756,10.348h-1.536l-1.08-3.1h-4.06l-1.122,3.1h-1.438L95.063,5.129z M97.387,11.237
	l-1.594-4.572l-1.655,4.572H97.387z"/>
<path fill="#FFFFFF" d="M93.588,12.343c-2.004-0.802-3.206-1.804-4.408-2.806c0,0,0.251,0.251,0,0
	c-1.202,1.002-4.008,2.605-4.008,2.605l-0.801-1.202c1.603-1.002,2.004-1.202,3.807-2.604c-0.413-0.385-2.404-2.605-2.604-3.807
	h1.603c0.802,1.803,2.004,2.805,2.004,2.805c2.004-1.603,2.004-3.807,2.004-3.807h1.603c0,0-0.2,2.605-2.404,4.81l0,0
	c1.002,1.002,2.004,1.803,3.808,2.604L93.588,12.343z M83.169,3.526h11.22V1.924h-4.607V0.521h-1.804v1.402h-4.809V3.526z"/>
</svg>
