<?xml version="1.0" encoding="utf-8"?>
<!-- Generator: Adobe Illustrator 16.0.0, SVG Export Plug-In . SVG Version: 6.00 Build 0)  -->
<!DOCTYPE svg PUBLIC "-//W3C//DTD SVG 1.1//EN" "http://www.w3.org/Graphics/SVG/1.1/DTD/svg11.dtd">
<svg version="1.1" id="Layer_1" xmlns="http://www.w3.org/2000/svg" xmlns:xlink="http://www.w3.org/1999/xlink" x="0px" y="0px"
	 width="80px" height="16px" viewBox="0 0 80 16" enable-background="new 0 0 80 16" xml:space="preserve">
<g>
	<g>
		<g>
			<path fill="#FFFFFF" d="M31.493,0H14.795C14.301,0,13.9,0.401,13.9,0.896v10.475c0,0.494,0.401,0.896,0.895,0.896h6.245v2.027
				h-2.43c-0.457,0-0.829,0.373-0.829,0.828c0,0.457,0.372,0.828,0.829,0.828h9.068c0.457,0,0.828-0.371,0.828-0.828
				c0-0.455-0.371-0.828-0.828-0.828h-2.43v-2.027h6.244c0.494,0,0.896-0.402,0.896-0.896V0.896C32.388,0.401,31.987,0,31.493,0z
				 M31.291,11.137H15.145V0.995h16.167L31.291,11.137z"/>
			<path fill="#FFFFFF" d="M18.135,6.64l2.824,1.313c0.073,0.034,0.151,0.051,0.231,0.051c0.105,0,0.207-0.03,0.295-0.086
				c0.158-0.102,0.253-0.274,0.253-0.462V7.441c0-0.213-0.125-0.409-0.318-0.499l-1.766-0.82l1.766-0.821
				c0.193-0.09,0.318-0.286,0.318-0.498V4.789c0-0.188-0.095-0.361-0.253-0.462c-0.088-0.056-0.19-0.085-0.296-0.085
				c-0.08,0-0.159,0.018-0.231,0.05l-2.824,1.313c-0.193,0.09-0.317,0.286-0.317,0.499v0.039C17.817,6.354,17.942,6.55,18.135,6.64z
				"/>
			<path fill="#FFFFFF" d="M21.764,9.314c0.103,0.141,0.269,0.225,0.443,0.225h0.014c0.24,0,0.449-0.152,0.522-0.381l1.86-5.764
				c0.054-0.167,0.023-0.35-0.079-0.491c-0.104-0.141-0.269-0.226-0.443-0.226h-0.014c-0.24,0-0.45,0.153-0.523,0.381l-1.86,5.763
				C21.632,8.99,21.661,9.174,21.764,9.314z"/>
			<path fill="#FFFFFF" d="M24.549,4.803c0,0.213,0.125,0.409,0.318,0.499l1.766,0.821l-1.766,0.82
				c-0.193,0.09-0.318,0.285-0.318,0.499v0.014c0,0.188,0.096,0.361,0.254,0.462c0.089,0.057,0.191,0.086,0.295,0.086
				c0.081,0,0.158-0.018,0.232-0.051l2.823-1.313c0.193-0.09,0.317-0.286,0.317-0.498v-0.04c0-0.212-0.124-0.408-0.317-0.498
				l-2.823-1.313c-0.072-0.033-0.151-0.05-0.231-0.05c-0.104,0-0.208,0.03-0.296,0.085c-0.158,0.102-0.254,0.274-0.254,0.462V4.803
				L24.549,4.803z"/>
		</g>
	</g>
</g>
<path fill="#FFFFFF" d="M13.365,7.982c-0.215,0-0.39,0.174-0.39,0.39v6.943H8.793v-4.357c0-0.217-0.174-0.391-0.39-0.391H5.351
	c-0.215,0-0.39,0.174-0.39,0.391v3.455c0,0.215,0.175,0.39,0.39,0.39c0.216,0,0.39-0.175,0.39-0.39v-3.066h2.273v3.969H0.779V5.776
	l6.098-4.887l6.244,5.004C13.289,6.027,13.534,6,13.668,5.833c0.135-0.168,0.108-0.413-0.06-0.548L7.121,0.085
	c-0.142-0.114-0.345-0.114-0.487,0L0.146,5.284C0.054,5.358,0,5.47,0,5.589v10.115c0,0.215,0.174,0.39,0.39,0.39h12.975
	c0.215,0,0.39-0.175,0.39-0.39V8.372C13.754,8.156,13.58,7.982,13.365,7.982z"/>
<g>
	<path fill="#FFFFFF" d="M64.772,0H48.533c-0.304,0-0.549,0.246-0.549,0.548v11.253c0,0.304,0.245,0.549,0.549,0.549h4.059
		c0.303,0,0.549-0.245,0.549-0.549c0-0.303-0.246-0.549-0.549-0.549h-3.51V1.098h15.143v10.155h-6.516
		c-0.111,0-0.22,0.035-0.312,0.099l-5.118,3.548c-0.248,0.172-0.311,0.514-0.139,0.763c0.106,0.154,0.277,0.236,0.452,0.236
		c0.107,0,0.217-0.031,0.312-0.098l4.977-3.45h6.892c0.303,0,0.549-0.245,0.549-0.549V0.548C65.321,0.246,65.075,0,64.772,0z"/>
	<path fill="#FFFFFF" d="M58.683,4.36c0.304,0,0.549-0.245,0.549-0.548c0-0.303-0.245-0.548-0.549-0.548h-4.06
		c-0.303,0-0.549,0.246-0.549,0.548c0,0.303,0.246,0.548,0.549,0.548H58.683z"/>
	<path fill="#FFFFFF" d="M52.044,6.176c0,0.303,0.246,0.548,0.549,0.548h8.12c0.303,0,0.549-0.246,0.549-0.548
		c0-0.304-0.246-0.549-0.549-0.549h-8.12C52.29,5.626,52.044,5.872,52.044,6.176z"/>
	<path fill="#FFFFFF" d="M52.593,9.087h8.12c0.303,0,0.549-0.246,0.549-0.549S61.016,7.99,60.713,7.99h-8.12
		c-0.303,0-0.549,0.245-0.549,0.548S52.29,9.087,52.593,9.087z"/>
</g>
<g id="Home-Copy" transform="translate(-40.000000, -58.000000)">
	<g id="Page-1" transform="translate(41.000000, 59.000000)">
		<path id="Fill-1" fill="#FFFFFF" stroke="#FFFFFF" d="M78.78,4.961c0.019-0.173,0.058-0.326-0.19-0.36
			c-0.432-0.059-0.851-0.24-1.294-0.3c-0.419-0.058-0.828-0.141-1.256-0.138c-1.1,0.007-2.162,0.349-3.242,0.485
			c-0.452,0.057-0.917,0.071-1.368,0.018c-0.6-0.07-1.181-0.258-1.78-0.342c-0.538-0.075-1.082-0.154-1.62-0.156
			c-0.943-0.006-1.855,0.287-2.78,0.446c0,0.269-0.055,0.614,0.083,0.803c0.144,0.194,0.383,0.373,0.444,0.637
			c0.148,0.626,0.358,1.24,0.627,1.829c0.132,0.285,0.378,0.485,0.652,0.622c0.664,0.33,1.446,0.379,2.174,0.276
			c1.035-0.149,1.597-0.921,2.025-1.802c0.161-0.358,0.179-0.771,0.389-1.1c0.126-0.194,0.417-0.113,0.625-0.113
			c0.311-0.001,0.386,0.343,0.451,0.572c0.228,0.811,0.608,1.67,1.366,2.095C75.217,9.065,77,8.947,77.734,7.805
			c0.287-0.449,0.367-0.991,0.51-1.498c0.087-0.309,0.166-0.676,0.478-0.845C78.849,5.394,78.76,5.12,78.78,4.961"/>
		<path id="Stroke-3" fill="#FFFFFF" stroke="#FCFCFC" d="M66.487,7.351L66.487,7.351 M78.78,4.961
			c0.019-0.173,0.058-0.326-0.19-0.36c-0.432-0.059-0.851-0.24-1.294-0.3c-0.419-0.058-0.828-0.141-1.256-0.138
			c-1.1,0.007-2.162,0.349-3.242,0.485c-0.452,0.057-0.917,0.071-1.368,0.018c-0.6-0.07-1.181-0.258-1.78-0.342
			c-0.538-0.075-1.082-0.154-1.62-0.156c-0.943-0.006-1.855,0.287-2.78,0.446c0,0.269-0.055,0.614,0.083,0.803
			c0.144,0.194,0.383,0.373,0.444,0.637c0.148,0.626,0.358,1.24,0.627,1.829c0.132,0.285,0.378,0.485,0.652,0.622
			c0.664,0.33,1.446,0.379,2.174,0.276c1.035-0.149,1.597-0.921,2.025-1.802c0.161-0.358,0.179-0.771,0.389-1.1
			c0.126-0.194,0.417-0.113,0.625-0.113c0.311-0.001,0.386,0.343,0.451,0.572c0.228,0.811,0.608,1.67,1.366,2.095
			C75.217,9.065,77,8.947,77.734,7.805c0.287-0.449,0.367-0.991,0.51-1.498c0.087-0.309,0.166-0.676,0.478-0.845
			C78.849,5.394,78.76,5.12,78.78,4.961L78.78,4.961z"/>
	</g>
</g>
<g id="XMLID_350_">
	<g id="XMLID_351_">
		<path id="XMLID_352_" fill="#FFFFFF" d="M38.982,4.426h7.293c0.504,0,0.912-0.408,0.912-0.912c0-0.503-0.408-0.912-0.912-0.912
			h-7.293c-0.503,0-0.913,0.409-0.913,0.912C38.069,4.018,38.479,4.426,38.982,4.426z"/>
	</g>
	<g id="XMLID_439_">
		<path id="XMLID_440_" fill="#FFFFFF" d="M46.275,6.858h-7.293c-0.503,0-0.913,0.408-0.913,0.912c0,0.502,0.409,0.912,0.913,0.912
			h7.293c0.504,0,0.912-0.409,0.912-0.912C47.188,7.266,46.779,6.858,46.275,6.858z"/>
	</g>
	<g id="XMLID_441_">
		<path id="XMLID_443_" fill="#FFFFFF" d="M46.275,11.112h-7.293c-0.503,0-0.913,0.408-0.913,0.911c0,0.505,0.409,0.912,0.913,0.912
			h7.293c0.504,0,0.912-0.407,0.912-0.912C47.188,11.521,46.779,11.112,46.275,11.112z"/>
	</g>
	<g id="XMLID_444_">
		<path id="XMLID_445_" fill="#FFFFFF" d="M36.009,7.044l-0.607-0.088l-0.271-0.55c-0.077-0.156-0.235-0.254-0.409-0.254
			c-0.173,0-0.332,0.098-0.409,0.254l-0.271,0.55l-0.607,0.088c-0.172,0.025-0.314,0.145-0.368,0.311
			C33.012,7.52,33.057,7.7,33.181,7.821L33.62,8.25l-0.104,0.604c-0.029,0.171,0.041,0.343,0.181,0.445
			c0.08,0.059,0.173,0.088,0.268,0.088c0.073,0,0.146-0.018,0.212-0.054l0.543-0.284l0.543,0.284
			c0.067,0.036,0.14,0.054,0.212,0.054c0,0,0,0,0.001,0c0.252,0,0.456-0.203,0.456-0.456c0-0.038-0.005-0.074-0.014-0.111
			l-0.098-0.57l0.439-0.429C36.385,7.7,36.43,7.52,36.376,7.355C36.323,7.189,36.181,7.069,36.009,7.044z"/>
	</g>
	<g id="XMLID_446_">
		<path id="XMLID_447_" fill="#FFFFFF" d="M36.009,2.789l-0.607-0.088L35.13,2.15c-0.077-0.156-0.235-0.254-0.409-0.254
			c-0.173,0-0.332,0.098-0.409,0.254l-0.271,0.55l-0.607,0.088c-0.172,0.025-0.314,0.146-0.368,0.31
			c-0.054,0.166-0.009,0.347,0.115,0.468l0.439,0.428L33.517,4.6c-0.029,0.171,0.041,0.344,0.181,0.446
			c0.08,0.058,0.173,0.087,0.268,0.087c0.073,0,0.146-0.017,0.212-0.052l0.543-0.285l0.543,0.285
			c0.067,0.035,0.14,0.052,0.212,0.052c0,0,0,0,0.001,0c0.252,0,0.456-0.204,0.456-0.456c0-0.039-0.005-0.075-0.014-0.111
			l-0.098-0.571l0.439-0.428c0.125-0.121,0.169-0.302,0.116-0.468C36.323,2.935,36.181,2.814,36.009,2.789z"/>
	</g>
	<g id="XMLID_448_">
		<path id="XMLID_449_" fill="#FFFFFF" d="M36.009,11.299l-0.607-0.088L35.13,10.66c-0.077-0.155-0.235-0.254-0.409-0.254
			c-0.173,0-0.332,0.099-0.409,0.254l-0.271,0.551l-0.607,0.088c-0.172,0.025-0.314,0.145-0.368,0.311
			c-0.054,0.165-0.009,0.347,0.115,0.467l0.439,0.43l-0.104,0.603c-0.029,0.172,0.041,0.345,0.181,0.447
			c0.08,0.058,0.173,0.087,0.268,0.087c0.073,0,0.146-0.018,0.212-0.053l0.543-0.284l0.543,0.284
			c0.067,0.035,0.14,0.053,0.212,0.053c0,0,0,0,0.001,0c0.252,0,0.456-0.204,0.456-0.456c0-0.038-0.005-0.075-0.014-0.11
			l-0.098-0.57l0.439-0.43c0.125-0.12,0.169-0.302,0.116-0.467C36.323,11.443,36.181,11.324,36.009,11.299z"/>
	</g>
</g>
</svg>
