<svg xmlns="http://www.w3.org/2000/svg" width="80" height="16" viewBox="0 0 80 16"><g fill="#FFF"><path d="M31.493 0H14.795C14.3 0 13.9.4 13.9.896V11.37c0 .495.4.897.895.897h6.245v2.027h-2.43c-.457 0-.83.373-.83.828 0 .457.373.828.83.828h9.068c.457 0 .828-.37.828-.828 0-.455-.37-.828-.828-.828h-2.43v-2.027h6.244c.494 0 .896-.402.896-.896V.897c0-.495-.4-.896-.895-.896zm-.202 11.137H15.146V.995h16.167l-.02 10.142z"/><path d="M18.135 6.64l2.824 1.313c.072.034.15.05.23.05.105 0 .207-.03.295-.085.158-.102.253-.274.253-.462V7.44c0-.212-.125-.408-.318-.498l-1.766-.82 1.766-.82c.193-.09.318-.287.318-.5V4.79c0-.19-.095-.362-.253-.463-.088-.056-.19-.085-.296-.085-.08 0-.16.018-.232.05l-2.824 1.313c-.193.09-.317.286-.317.5v.038c0 .21.125.407.318.497zM21.764 9.314c.103.14.27.225.443.225h.014c.24 0 .45-.153.523-.382l1.86-5.764c.054-.167.023-.35-.08-.49-.103-.142-.268-.227-.442-.227h-.013c-.24 0-.45.153-.523.38l-1.86 5.764c-.052.17-.023.354.08.494zM24.55 4.803c0 .213.124.41.317.5l1.766.82-1.766.82c-.193.09-.318.285-.318.5v.013c0 .188.095.36.253.462.09.057.19.086.295.086.08 0 .158-.018.232-.05l2.823-1.314c.193-.09.317-.286.317-.498v-.04c0-.212-.124-.408-.317-.498L25.33 4.29c-.072-.032-.15-.05-.23-.05-.105 0-.21.03-.297.086-.158.102-.254.274-.254.462v.015z"/></g><path fill="#FFF" d="M13.365 7.982c-.215 0-.39.174-.39.39v6.943H8.793v-4.357c0-.217-.174-.39-.39-.39H5.35c-.214 0-.39.173-.39.39v3.455c0 .215.176.39.39.39.217 0 .39-.175.39-.39v-3.066h2.274v3.97H.78v-9.54L6.876.888l6.244 5.003c.17.134.414.107.548-.06.135-.168.108-.413-.06-.548L7.12.085c-.14-.114-.344-.114-.486 0l-6.488 5.2C.054 5.357 0 5.47 0 5.588v10.114c0 .215.174.39.39.39h12.975c.215 0 .39-.175.39-.39V8.372c0-.216-.175-.39-.39-.39z"/><g fill="#FFF"><path d="M64.772 0h-16.24c-.303 0-.548.246-.548.548V11.8c0 .305.245.55.55.55h4.058c.303 0 .55-.245.55-.55 0-.302-.247-.548-.55-.548h-3.51V1.098h15.143v10.155H57.71c-.112 0-.22.035-.313.1L52.28 14.9c-.25.172-.312.514-.14.763.106.154.277.236.452.236.107 0 .217-.032.312-.1l4.977-3.45h6.893c.303 0 .55-.244.55-.548V.548C65.32.246 65.074 0 64.772 0z"/><path d="M58.683 4.36c.304 0 .55-.245.55-.548 0-.303-.246-.548-.55-.548h-4.06c-.303 0-.55.246-.55.548 0 .303.247.548.55.548h4.06zM52.044 6.176c0 .303.246.548.55.548h8.12c.302 0 .548-.246.548-.548 0-.304-.246-.55-.55-.55h-8.12c-.302 0-.548.246-.548.55zM52.593 9.087h8.12c.303 0 .55-.246.55-.55s-.247-.547-.55-.547h-8.12c-.303 0-.55.245-.55.548s.247.55.55.55z"/></g><g fill="#FFF"><path stroke="#FFF" d="M79.78 5.96c.02-.172.058-.325-.19-.36-.432-.058-.85-.24-1.294-.3-.42-.057-.828-.14-1.256-.137-1.1.007-2.162.35-3.242.485-.452.057-.917.07-1.368.018-.6-.07-1.18-.258-1.78-.342-.538-.075-1.082-.154-1.62-.156-.943-.006-1.855.287-2.78.446 0 .27-.055.614.083.803.144.194.383.373.444.637.148.626.358 1.24.627 1.83.132.284.378.484.652.62.664.33 1.446.38 2.174.277 1.035-.148 1.597-.92 2.025-1.8.16-.36.18-.772.39-1.1.125-.195.416-.114.624-.114.31 0 .385.343.45.572.228.81.608 1.67 1.366 2.095 1.13.632 2.914.514 3.648-.628.287-.45.367-.99.51-1.498.087-.31.166-.676.478-.845.127-.068.038-.342.058-.5"/><path stroke="#FCFCFC" d="M79.78 5.959999999999999c.02-.172.058-.325-.19-.36-.432-.058-.85-.24-1.294-.3-.42-.057-.828-.14-1.256-.137-1.1.007-2.162.35-3.242.485-.452.057-.917.07-1.368.018-.6-.07-1.18-.258-1.78-.342-.538-.075-1.082-.154-1.62-.156-.943-.006-1.855.287-2.78.446 0 .27-.055.614.083.803.144.194.383.373.444.637.148.626.358 1.24.627 1.83.132.284.378.484.652.62.664.33 1.446.38 2.174.277 1.035-.148 1.597-.92 2.025-1.8.16-.36.18-.772.39-1.1.125-.195.416-.114.624-.114.31 0 .385.343.45.572.228.81.608 1.67 1.366 2.095 1.13.632 2.914.514 3.648-.628.287-.45.367-.99.51-1.498.087-.31.166-.676.478-.845.127-.068.038-.342.058-.5z"/></g><path fill="#FFF" d="M38.982 4.426h7.293c.504 0 .912-.408.912-.912 0-.503-.408-.912-.912-.912h-7.293c-.503 0-.913.41-.913.912 0 .504.41.912.912.912zM46.275 6.858h-7.293c-.503 0-.913.408-.913.912 0 .502.408.912.912.912h7.293c.504 0 .912-.41.912-.912 0-.504-.408-.912-.912-.912zM46.275 11.112h-7.293c-.503 0-.913.408-.913.91 0 .506.408.913.912.913h7.293c.504 0 .912-.407.912-.912 0-.502-.408-.91-.912-.91zM36.01 7.044l-.608-.088-.27-.55c-.078-.156-.236-.254-.41-.254-.173 0-.332.098-.41.254l-.27.55-.607.088c-.172.025-.314.145-.368.31-.055.166-.01.346.114.467l.44.43-.104.604c-.03.17.04.343.18.445.08.058.174.087.27.087.072 0 .145-.018.21-.054l.544-.284.543.283c.067.036.14.054.212.054.253 0 .457-.203.457-.456 0-.037-.005-.073-.014-.11l-.098-.57.44-.43c.125-.12.17-.3.116-.465-.053-.166-.195-.286-.367-.31zM36.01 2.79L35.4 2.7l-.272-.55c-.077-.156-.235-.254-.41-.254-.172 0-.33.098-.408.254l-.27.55-.608.088c-.172.025-.314.146-.368.31-.054.166-.01.347.115.468l.44.428-.103.606c-.03.17.04.344.18.446.08.058.174.087.27.087.072 0 .145-.017.21-.052l.544-.284.544.285c.067.036.14.053.212.053.253 0 .457-.204.457-.456 0-.04-.005-.075-.014-.11l-.1-.572.44-.428c.125-.12.17-.302.116-.468-.053-.165-.195-.286-.367-.31zM36.01 11.3l-.608-.09-.272-.55c-.077-.155-.235-.254-.41-.254-.172 0-.33.1-.408.254l-.27.55-.608.09c-.172.024-.314.144-.368.31-.054.165-.01.347.115.467l.44.43-.104.603c-.03.172.04.345.18.447.08.058.174.087.27.087.072 0 .145-.018.21-.053l.544-.283.543.284c.067.036.14.054.212.054.253 0 .457-.204.457-.456 0-.038-.005-.075-.014-.11l-.098-.57.44-.43c.124-.12.168-.302.115-.467-.052-.167-.194-.286-.366-.31z"/></svg>