<svg xmlns="http://www.w3.org/2000/svg" width="101" height="16" viewBox="0 0 101 16"><g fill="#FFF"><path d="M31.493 0H14.795C14.3 0 13.9.4 13.9.896V11.37c0 .495.4.897.895.897h6.245v2.026h-2.43a.831.831 0 0 0-.83.828.83.83 0 0 0 .83.828h9.068a.828.828 0 1 0 0-1.656h-2.43v-2.026h6.244a.897.897 0 0 0 .896-.896V.897c0-.495-.4-.896-.895-.897zm-.202 11.137H15.146V.995h16.167l-.02 10.142h-.002z"/><path d="M18.135 6.64l2.824 1.313a.557.557 0 0 0 .525-.035.548.548 0 0 0 .253-.462V7.44a.553.553 0 0 0-.318-.498l-1.766-.82 1.766-.82a.554.554 0 0 0 .318-.5V4.79a.546.546 0 0 0-.549-.548c-.08 0-.16.018-.232.05l-2.824 1.313a.552.552 0 0 0-.317.5v.038c0 .21.125.407.318.497h.002zm3.629 2.674c.103.14.27.225.443.225h.014c.24 0 .45-.153.523-.382l1.86-5.764a.546.546 0 0 0-.08-.49.548.548 0 0 0-.442-.227h-.013c-.24 0-.45.153-.523.38l-1.86 5.764a.559.559 0 0 0 .08.494h-.002zm2.786-4.511c0 .213.124.41.317.5l1.766.82-1.766.82a.552.552 0 0 0-.318.5v.013a.548.548 0 0 0 .78.498l2.823-1.314a.552.552 0 0 0 .317-.498v-.04a.552.552 0 0 0-.317-.498L25.33 4.29a.553.553 0 0 0-.527.036.549.549 0 0 0-.254.462l.001.015z"/></g><path fill="#FFF" d="M13.365 7.982a.39.39 0 0 0-.39.39v6.942H8.793v-4.356a.389.389 0 0 0-.39-.39H5.35a.39.39 0 0 0-.39.39v3.455a.39.39 0 1 0 .78 0v-3.065h2.274v3.969H.78v-9.54L6.876.888l6.244 5.003a.39.39 0 1 0 .488-.608L7.12.085a.388.388 0 0 0-.486 0l-6.488 5.2A.386.386 0 0 0 0 5.588v10.114c0 .215.174.39.39.39h12.975a.39.39 0 0 0 .39-.39v-7.33a.39.39 0 0 0-.39-.39z"/><g fill="#FFF"><path d="M64.771 0H48.532a.548.548 0 0 0-.548.548V11.8c0 .306.244.55.55.55h4.058a.55.55 0 1 0 0-1.098h-3.51V1.098h15.143v10.155H57.71a.538.538 0 0 0-.313.101L52.279 14.9a.547.547 0 1 0 .625.898l4.977-3.449h6.893a.55.55 0 0 0 .551-.549V.548A.557.557 0 0 0 64.771 0z"/><path d="M58.684 4.36a.548.548 0 1 0 0-1.096h-4.061a.55.55 0 0 0-.55.548.55.55 0 0 0 .55.548h4.061zm-6.64 1.816c0 .303.246.548.55.548h8.12a.549.549 0 1 0-.002-1.098h-8.12a.55.55 0 0 0-.548.55zm.549 2.911h8.12a.549.549 0 0 0 0-1.097h-8.12a.55.55 0 1 0 0 1.097z"/></g><g fill="#FFF"><path stroke="#FFF" d="M79.779 5.96c.021-.172.059-.325-.189-.36-.432-.058-.85-.24-1.294-.3-.42-.057-.828-.14-1.256-.137-1.101.007-2.162.35-3.242.485-.452.057-.917.07-1.368.018-.6-.07-1.18-.258-1.779-.342-.539-.075-1.082-.154-1.621-.156-.942-.006-1.854.287-2.779.446 0 .27-.055.614.083.803.144.194.383.373.444.637.147.626.357 1.24.627 1.83.132.284.378.484.652.62.664.33 1.445.38 2.174.277 1.035-.148 1.597-.92 2.024-1.8.16-.36.181-.772.39-1.1.125-.195.416-.114.625-.114.31 0 .385.343.449.572.229.81.608 1.67 1.366 2.095 1.13.633 2.914.515 3.647-.627.287-.451.367-.991.511-1.499.087-.31.166-.676.478-.845.127-.068.038-.342.059-.5"/><path stroke="#FCFCFC" d="M79.779 5.96c.021-.172.059-.325-.189-.36-.432-.058-.85-.24-1.294-.3-.42-.057-.828-.14-1.256-.137-1.101.007-2.162.35-3.242.485-.452.057-.917.07-1.368.018-.6-.07-1.18-.258-1.779-.342-.539-.075-1.082-.154-1.621-.156-.942-.006-1.854.287-2.779.446 0 .27-.055.614.083.803.144.194.383.373.444.637.147.626.357 1.24.627 1.83.132.284.378.484.652.62.664.33 1.445.38 2.174.277 1.035-.148 1.597-.92 2.024-1.8.16-.36.181-.772.39-1.1.125-.195.416-.114.625-.114.31 0 .385.343.449.572.229.81.608 1.67 1.366 2.095 1.13.633 2.914.515 3.647-.627.287-.451.367-.991.511-1.499.087-.31.166-.676.478-.845.127-.068.038-.342.059-.5V5.96z"/></g><path fill="#FFF" d="M38.982 4.426h7.293a.912.912 0 1 0 0-1.824h-7.293a.913.913 0 0 0 0 1.824zm7.293 2.432h-7.293a.913.913 0 0 0-.001 1.824h7.292a.913.913 0 0 0 0-1.824h.002zm0 4.253h-7.293a.913.913 0 0 0-.001 1.824h7.292a.912.912 0 1 0 0-1.822l.002-.002zM36.01 7.044l-.608-.088-.27-.55a.458.458 0 0 0-.82 0l-.27.55-.607.088a.456.456 0 0 0-.254.777l.44.43-.104.604a.451.451 0 0 0 .66.477l.544-.284.543.283a.455.455 0 0 0 .655-.511l-.098-.57.44-.43a.45.45 0 0 0 .116-.465.453.453 0 0 0-.367-.311zm0-4.254l-.61-.09-.272-.55a.455.455 0 0 0-.818 0l-.27.55-.608.088a.457.457 0 0 0-.253.778l.44.428-.103.606a.455.455 0 0 0 .66.481l.544-.284.544.285a.456.456 0 0 0 .655-.513l-.1-.572.44-.428a.454.454 0 0 0-.251-.778l.002-.001zm0 8.51l-.608-.09-.272-.55a.457.457 0 0 0-.818 0l-.27.55-.608.09a.453.453 0 0 0-.368.31.454.454 0 0 0 .115.468l.44.43-.104.603a.454.454 0 0 0 .66.481l.544-.282.543.283a.45.45 0 0 0 .212.055.457.457 0 0 0 .443-.566l-.098-.57.44-.43a.457.457 0 0 0-.251-.778V11.3zm59.053-6.171h1.582l3.756 10.348h-1.536l-1.08-3.1h-4.06l-1.122 3.1h-1.438l3.898-10.348zm2.324 6.108l-1.594-4.572-1.655 4.572h3.249z"/><path fill="#FFF" d="M93.588 12.343c-2.004-.802-3.206-1.804-4.408-2.806 0 0 .251.251 0 0-1.202 1.002-4.008 2.605-4.008 2.605l-.801-1.202c1.603-1.002 2.004-1.202 3.807-2.604-.413-.385-2.404-2.605-2.604-3.807h1.603c.802 1.803 2.004 2.805 2.004 2.805 2.004-1.603 2.004-3.807 2.004-3.807h1.603s-.2 2.605-2.404 4.81c1.002 1.002 2.004 1.803 3.808 2.604l-.604 1.402zM83.169 3.526h11.22V1.924h-4.607V.521h-1.804v1.402h-4.809v1.603z"/></svg>