<svg xmlns="http://www.w3.org/2000/svg" width="287" height="52" viewBox="0 0 287 52"><g fill="#FB385F"><path d="M58.206 25.269c1.636-3.647 2.829-6.195 3.577-7.646.514-1.448 2.01-3.833 4.489-7.154 2.478-3.319 4.185-5.447 5.12-6.383.514-.562 1.098-.817 1.754-.771 3.039-1.637 5.657-1.028 7.856 1.823 2.197 2.854 3.296 6.138 3.296 9.855s-.608 6.535-1.824 8.452c-1.076 1.217-2.525 1.707-4.349 1.473-.468-.14-1.169-.304-2.104-.491-.328-.046-.491-.233-.491-.561.046-.562.093-1.438.14-2.631a75.96 75.96 0 0 1 .14-2.7c.046-.28.093-.725.141-1.333.046-.606.07-1.052.07-1.332.093-.982.187-2.642.281-4.98v-.562c.233-1.636.035-2.548-.596-2.735-.631-.187-1.322.048-2.069.702-.749.655-1.146 1.192-1.192 1.613a4.978 4.978 0 0 1-.982 1.823c-.701.655-1.357 1.638-1.964 2.946a42.964 42.964 0 0 1-.982 2.174c-.468.982-.796 1.73-.982 2.245-.842 2.011-1.403 3.975-1.684 5.892a58.616 58.616 0 0 0-.631 4.56c-.047.468-.165 1.204-.351 2.209-.188 1.006-.305 1.766-.351 2.28 0 .374.046 1.52.14 3.437 0 .141.023.386.07.736.046.351.093.644.141.877.28 1.823.642 3.086 1.087 3.788.444.701.9.889 1.368.561.467-.326.899-.817 1.297-1.473.397-.654.76-1.379 1.087-2.175.14-.373.269-.771.386-1.192.116-.421.233-.864.351-1.332.116-.468.221-.842.316-1.123a1.979 1.979 0 0 0-.07-1.543c-.608-1.215-.14-2.15 1.403-2.806.701-.28 2.127-.584 4.279-.912 1.355-.186 2.127.445 2.314 1.895 0 .748-.117 1.402-.351 1.964-.328.748-.936 2.291-1.824 4.629-.889 2.339-1.695 4.256-2.42 5.752-.726 1.497-1.462 2.643-2.209 3.437-.094.047-.328.327-.702.842-.468.842-1.122 1.192-1.964 1.053a9.354 9.354 0 0 0-2.806 0c-.982.14-2.081-.047-3.296-.562a9.884 9.884 0 0 0-1.333-.07c-.328.046-.678 0-1.052-.14-1.262-.375-2.455-1.24-3.577-2.596-.607-.607-.935-1.192-.982-1.754l-.491-1.473c-.467-1.355-.654-2.992-.561-4.91 0-.561.141-1.589.421-3.086l1.263-5.05c1.028-2.899 1.543-4.372 1.543-4.419.093-.233.246-.632.456-1.192.21-.562.386-.982.526-1.263h-.28c0 .047-.047.14-.141.28a3.324 3.324 0 0 0-.21.351c-.047.095-.14.223-.28.386-.141.163-.211.269-.211.315zm29.249 5.121c0-.094-.024-.164-.07-.211-.656-1.028-1.1-2.501-1.333-4.419-.188-1.028.07-2.174.771-3.437.093-.187.257-.304.491-.351.421-.374 1.122-.842 2.104-1.403.607-.374 1.356-.491 2.245-.351.233 0 1.052.561 2.455 1.684.748.608 1.192.959 1.333 1.052.607.516 1.075 1.217 1.403 2.104.326.842.537 1.356.631 1.543.046.047.187.726.421 2.034.093 1.029.164 1.59.21 1.684.046.047.07.117.07.21-.047-.326-.047-.304 0 .07v.632c0 .187.011.596.035 1.227.023.632-.012 1.018-.105 1.158-.094.188-.059.386.105.596a.796.796 0 0 0 .666.315c.795-.046 2.163-.046 4.104 0 1.94.048 3.285-.046 4.033-.28l1.122-.562a.754.754 0 0 1 .246-.14.761.761 0 0 0 .246-.141c.14.188.14.398 0 .632-.047.094 0 .222.14.386.141.164.164.292.07.386-1.357 1.449-5.05 2.174-11.083 2.174h-.21c-.281 0-.421.07-.421.211 0 .047-.047.164-.14.351-.047.327-.491 1.497-1.333 3.507-.234.562-.678 1.263-1.333 2.104-.421.655-.749 1.052-.982 1.192a1.353 1.353 0 0 1-.246.175c-.117.07-.199.13-.246.176-.234.095-.375.234-.421.421-.608.701-1.262 1.146-1.964 1.333-.188 0-.421.094-.701.28-.796.234-1.754.258-2.876.07-1.076-.141-2.01-.888-2.806-2.245l-.631-1.894c-.14-1.449-.163-2.735-.07-3.857.141-1.263.539-2.549 1.193-3.858.561-1.355 1.426-2.735 2.595-4.138.094-.046.187-.186.282-.42zm8.347-1.333c.14-.654.116-1.216-.07-1.684a39.336 39.336 0 0 0-.491-2.244c-.235-.748-.562-1.309-.982-1.684-.515-.514-.818-.795-.912-.842-.468-.421-.889-.725-1.263-.912-.608-.467-1.567-.046-2.875 1.263-.656.842-.924 1.801-.807 2.876.116 1.076.396 2.059.841 2.946a10.06 10.06 0 0 0 1.648 2.385c1.028 2.011 2.209 2.747 3.542 2.209 1.334-.537 1.79-1.974 1.369-4.313zm-4.98 8.978c-.421.607-.866 1.613-1.333 3.016-.047.234-.07.608-.07 1.122-.047.048-.024.165.07.351.187.421.444.702.771.842.046 0 .093-.022.141-.069a2.14 2.14 0 0 1 .28-.211c.982-1.028 1.894-2.525 2.736-4.489l.28-.561c.093-.187.175-.397.246-.632.07-.233.128-.396.175-.491-.842-.28-1.473-.326-1.894-.14-.42.187-.889.608-1.402 1.262z"/><path d="M122.736 30.6a2.004 2.004 0 0 1-.386.526c-.164.164-.34.351-.526.561-.188.211-.328.363-.421.456-.14.141-.585.608-1.333 1.403-.749.796-1.263 1.402-1.543 1.823-.561.749-1.287 1.567-2.174 2.455a6.85 6.85 0 0 0-1.192 1.613c-.468.749-.796 1.217-.982 1.403-.281.234-.468.468-.561.701-.235.234-.631 1.228-1.192 2.98-.562 1.754-.936 2.725-1.123 2.911-.28.281-.585.421-.912.421-.188 0-.515.117-.982.351-.328.281-.702.351-1.123.211l-2.314-.211a8.092 8.092 0 0 0-.807-.14 10.01 10.01 0 0 0-.596-.07c-1.216-.421-1.684-1.403-1.403-2.946.795-3.46 1.497-6.032 2.104-7.716.608-1.589 1.146-2.875 1.613-3.857a75.317 75.317 0 0 1 2.315-5.261c.14-.28.958-1.706 2.455-4.278.654-1.123 1.098-1.964 1.333-2.525.374-.701.631-1.333.771-1.894 0-.047.011-.116.035-.211.023-.093.035-.187.035-.28.374-.233.654-.211.841.07.467.608 1.098 1.028 1.894 1.263.14 0 .256.117.351.351.233.28.584.748 1.052 1.402.281.421.374 1.1.281 2.034-.047 2.292-.771 4.91-2.175 7.856-.561 1.216-.912 1.918-1.052 2.104-.608.982-.656 1.638-.141 1.964.233.095.491.07.772-.069.794-.748 1.753-1.777 2.875-3.087a27.91 27.91 0 0 1 2.174-2.35c.842-.817 1.426-1.414 1.754-1.788a27.503 27.503 0 0 0 1.333-1.403c.327-.561.818-.912 1.473-1.052h.701c.281.047.712.082 1.298.104.584.024 1.017.06 1.297.105.514.095.935.445 1.263 1.053.187.327.281.678.281 1.052.186 1.263.186 2.222 0 2.876a607.16 607.16 0 0 1-.771 3.437c-.515 1.778-.656 3.718-.421 5.822.046.748.502 1.146 1.368 1.192.865.047 1.461-.07 1.789-.351l.491-.246c.233-.116.42-.198.561-.245.748-.467 1.694-1.181 2.841-2.14 1.145-.958 1.952-1.718 2.42-2.279.046-.093.479-.456 1.297-1.087.818-.632 1.273-1.018 1.368-1.157a7.27 7.27 0 0 0 .562-1.053c.186-.421.374-.771.561-1.052a.447.447 0 0 0 .105-.176.859.859 0 0 1 .105-.21 1.7 1.7 0 0 1 .21-.246c0 .188.023.305.07.351.046.141.046.328 0 .562-.047.234-.047.421 0 .562 0 .047-.047.188-.14.421-.188.234-.281.538-.281.911-.047.328-.187.679-.42 1.053-.141.188-.445.678-.912 1.473-.468.796-.819 1.333-1.052 1.613-2.011 2.292-3.321 3.694-3.928 4.209-.094.094-.2.175-.316.245-.117.07-.245.141-.386.21-.14.07-.257.13-.351.176a.545.545 0 0 0-.21.07 1.24 1.24 0 0 1-.315.105 1.303 1.303 0 0 0-.316.104c-.515.234-1.473.363-2.875.386-1.403.024-2.409-.058-3.016-.245-2.993-.982-4.514-3.46-4.56-7.436.093-1.215.14-2.104.14-2.665.421-2.29.351-3.507-.21-3.647-.187-.045-.444.095-.771.422z"/><path d="M161.875 32.143c.094 0 .257-.022.491-.07l.28.07c0 .141-.035.27-.105.386a.448.448 0 0 0-.035.386c.094.421-.187 1.287-.841 2.596-.141.375-.362.936-.667 1.684s-.525 1.31-.666 1.684l-1.894 3.577c-.141.234-.784 1.087-1.929 2.56-1.146 1.474-1.813 2.28-2 2.42-.327.234-.889.749-1.683 1.543-.796.795-1.333 1.286-1.613 1.474-1.029.654-2.081 1.052-3.157 1.192-1.262.093-2.174.07-2.734-.07-.702-.095-1.509-.562-2.42-1.403-.912-.841-1.554-1.637-1.929-2.385-.607-1.075-.935-1.706-.982-1.894-.28-.935-.467-2.08-.561-3.437 0-1.169.024-2.15.07-2.946.047-.795.152-1.602.315-2.42.165-.817.305-1.438.421-1.858.117-.421.351-1.216.702-2.385.351-1.169.643-2.104.876-2.807.046-.14.105-.373.175-.701.07-.326.128-.561.176-.701.046-.141.186-.607.42-1.403.281-1.027.491-1.776.631-2.244.046-.233.164-.572.351-1.017.186-.444.338-.842.455-1.192.117-.352.223-.702.316-1.053s.094-.643 0-.877c-.094-.233-.305-.373-.631-.421-.749-.093-1.192-.21-1.333-.351a16 16 0 0 0-.631-.386 11.424 11.424 0 0 1-.631-.386c-.233-.233-.374-.443-.421-.631.188-.094.305-.141.351-.141.328-.046.807-.141 1.438-.28.631-.141 1.11-.257 1.438-.351.421-.094 1.099-.187 2.034-.281.373-.093.607-.28.701-.561.047-.094.164-.339.352-.736.186-.397.303-.713.35-.947.187-.327.491-.958.912-1.894s.771-1.637 1.053-2.104c.794-1.263 1.565-2.245 2.314-2.946.093-.14.256-.326.49-.561.327-.233.632-.327.912-.281.047.048.257.048.631 0a8.39 8.39 0 0 1 .702-.07c.046 0 .093-.022.14-.069.795-.187 1.334.14 1.613.981.327.655.492 1.403.492 2.245 0 .28.045.655.14 1.122.093.28.093.608 0 .981-.095.469-.165.842-.21 1.123l-.422 1.683c0 .235-.023.421-.069.562.14.095.374.141.701.141.28-.046.712-.094 1.298-.141.584-.046 1.018-.07 1.297-.07h3.648c.14 0 .28.013.42.035.141.024.292.06.457.105.162.047.314.07.455.07l-.28.421c-.14.14-.305.257-.491.351l-.771.386c-.328.164-.586.27-.771.315l-.07.07c-.141 0-.503.07-1.087.21-.585.141-1.042.188-1.368.141-.468 0-.959.07-1.473.21a2.085 2.085 0 0 1-.491.141c-.234.047-.374.07-.421.07a6.75 6.75 0 0 0-.807.07c-.351.047-.62.094-.807.14-.234.048-.421.235-.561.562l-.07.07c0 .094-.024.14-.07.14-.328.89-.831 2.129-1.508 3.718a447.82 447.82 0 0 0-1.368 3.227 7.165 7.165 0 0 0-.351.771 16.322 16.322 0 0 0-.842 2.104c-.188.516-.491 1.122-.912 1.824-.094.14-.176.397-.245.771-.07.374-.175.655-.315.842-.375.889-.736 2.408-1.088 4.559-.35 2.151-.502 3.882-.455 5.19.045.937.28 2.012.701 3.227l.631.842h.07c.094.047.163.07.211.07 1.355 0 2.197-.116 2.524-.351.562-.374 1.544-1.146 2.946-2.314 2.15-2.15 3.53-3.834 4.139-5.051.186-.374.443-1.017.771-1.929.326-.912.607-1.554.842-1.929.187-.468.632-1.474 1.333-3.017zm-11.503-7.084a33.078 33.078 0 0 1 1.403-3.297c.42-1.028.561-1.706.42-2.034-.141-.326-.748-.21-1.823.351-.28.889-.597 2.012-.947 3.367a94.786 94.786 0 0 1-.736 2.735c-.655 2.385-.726 3.297-.21 2.735.513-.606 1.144-1.894 1.893-3.857zm3.156-9.189c.187-.936.327-1.659.421-2.175.046-.187.116-.514.211-.981.045-.187.104-.468.175-.842s.105-.654.105-.842c.046-.421.022-1.053-.07-1.895-.095-.326-.234-.396-.421-.21-.328.234-.538.468-.631.701-.375.701-.609 1.31-.701 1.824 0 .094-.048.21-.141.351-.095.14-.141.234-.141.28-.188.375-.328.679-.421.912a70.724 70.724 0 0 1-.491 2.244c-.141.889.116 1.38.771 1.474.656.095 1.1-.186 1.334-.841z"/><path d="M186.494 31.862c.374.047.771.28 1.192.701-.047.281-.199.726-.456 1.333-.258.608-.48.981-.666 1.122-.094.047-.176.117-.246.211s-.129.14-.175.14c-.375.468-.632.771-.771.912-.28.234-.421.397-.421.491-.141.327-.421.608-.842.842-.188.094-.305.188-.351.28-.14.188-.386.433-.737.736-.35.305-.572.503-.666.597a3.323 3.323 0 0 1-1.332.701c-.095.047-.352.094-.771.141-.422.047-.749.117-.982.21-.188.095-.48.164-.877.211-.397.047-.643.094-.736.14h-.631c-1.311-.421-2.104-.747-2.385-.981-.047-.047-.165-.116-.352-.211-.795-.326-1.356-.725-1.684-1.192-.654.328-1.146.632-1.473.912-.234.14-.49.305-.771.491l-.141.069c-.188.235-.701.516-1.543.842-1.076.328-2.033.258-2.875-.21-.234-.141-.586-.304-1.053-.491-2.011-.842-3.133-2.36-3.367-4.56-.14-1.075.047-2.127.562-3.156.654-1.215 1.216-2.08 1.684-2.595 0-.046.046-.116.14-.211.562-.888 1.59-2.221 3.087-3.998a13.192 13.192 0 0 1 2.665-2.174c.187-.094.396-.141.631-.141.563-.093 1.006-.141 1.334-.141h.21c.14.095.396.165.771.211.374.047.606.094.701.14.187.095.327.141.421.141.421.095.678.211.771.351l.141.07c.141 0 .304.06.49.176.188.117.352.175.492.175s.256.047.35.141c.748.748 1.146 1.169 1.193 1.263.046.047.093.14.141.28.045.141.069.234.069.28.141.608-.069 1.076-.632 1.403-.42.188-1.006.561-1.753 1.122v.07c-1.45 1.45-2.222 2.244-2.314 2.385a12.09 12.09 0 0 1-.842.912c-.188.188-.749.936-1.684 2.244-.095.141-.327.468-.701.982a1.568 1.568 0 0 0-.28.421c-.422.795-.702 1.566-.842 2.314v.28c.093-.046.186-.116.28-.21A21.535 21.535 0 0 1 170.781 36c.467-.374.817-.771 1.052-1.192.094-.141.281-.351.562-.632.562-.654.958-1.168 1.192-1.543a76.74 76.74 0 0 0 1.473-2.385c.702-.093 1.216.07 1.543.491l.422.421c.326.421.537 1.099.631 2.034 0 .047-.047.164-.141.351-.28.655-.607 1.31-.981 1.964-.188.515-.258 1.006-.21 1.473.14.655.35 1.24.631 1.754a.69.69 0 0 0 .631.351c.654-.093 1.146-.21 1.473-.351.748-.374 1.193-.607 1.334-.701a49.104 49.104 0 0 0 1.543-.912 8.1 8.1 0 0 1 .596-.526 7.67 7.67 0 0 0 .525-.456c.327-.28.865-.958 1.613-2.034.748-1.075 1.286-1.776 1.613-2.104l.07-.07c.094 0 .141-.024.141-.071z"/><path d="M210.482 31.512c-.188.889-.702 1.823-1.543 2.806-.141.188-.352.479-.632.877s-.491.69-.632.876a15.123 15.123 0 0 0-1.262 2.175c0 .141-.024.211-.07.211-.842 1.216-1.311 1.87-1.403 1.964a85.343 85.343 0 0 1-2.244 2.385 17.405 17.405 0 0 1-2.385 1.753c-1.871 1.076-3.063 1.613-3.577 1.613-.141 0-.736-.022-1.789-.069s-1.648-.023-1.789.069c-.561.095-1.894-.256-3.998-1.052-1.076-.467-1.988-.982-2.734-1.543-1.309-1.028-2.059-2.548-2.245-4.56a15.175 15.175 0 0 1 0-3.577c.095-.701.234-1.402.421-2.104.047-.186.141-.443.28-.771a9.46 9.46 0 0 0 .28-.701c.141-.467.818-1.847 2.035-4.139.092-.093.197-.233.314-.421.117-.187.199-.326.246-.421.701-1.027 1.309-1.753 1.824-2.174.186-.141.443-.362.771-.667.326-.303.631-.571.911-.807.28-.233.562-.443.842-.631.467-.326.958-.491 1.474-.491.14 0 .35-.046.631-.14.607-.281 1.145-.397 1.613-.352.046.048.07.048.07 0 .795-.046 1.566.188 2.314.702l.07.069h.141c.093 0 .162-.022.21-.069.233-.141.421-.164.562-.07.232.234.326.491.28.771-.095.28-.07.585.069.912.047 0 .07.047.07.14v.141l-.42.631c.093.562.186.982.28 1.263.14.608.21 1.263.21 1.964 0 .469-.023.819-.07 1.053-.234 1.169-.631 2.361-1.191 3.577-.234.515-.539.796-.912.842-.047 0-.117.012-.211.035s-.164.035-.21.035c-.188 0-.328-.047-.421-.141-.188-.187-.608-.444-1.263-.771 0-.046-.024-.07-.07-.07-.047 0-.095-.023-.14-.07-.234-.187-.328-.421-.281-.701.094-.467.164-.795.211-.982.607-2.104 1.052-3.46 1.332-4.067 0-.141.023-.281.07-.421l-.141.14-.14.07c-.048.141-.608.936-1.684 2.385a13.338 13.338 0 0 0-1.474 2.525 62.827 62.827 0 0 1-.841 1.788c-.375.771-.655 1.345-.842 1.719-.375.701-.796 1.848-1.263 3.438-.047.047-.117.421-.211 1.122a2.289 2.289 0 0 0 .211 1.473c.141.28.351.749.631 1.403.094.188.281.468.562.842.233.094.467.129.702.104.232-.022.584-.104 1.051-.245.468-.141.748-.211.842-.211.795-.093 1.859-.443 3.191-1.052 1.334-.607 2.326-1.192 2.982-1.754l1.227-.981c.584-.467 1.11-.9 1.578-1.298.467-.396.842-.76 1.123-1.087l1.052-1.263c.187-.28.712-.795 1.578-1.543.864-.748 1.413-1.286 1.648-1.613.093-.187.396-.467.911-.842.515-.374.818-.632.912-.771.047-.094.094-.046.141.14.05.418.121.629.215.629z"/><path d="M228.297 32.143c.094 0 .257-.022.491-.07l.28.07c0 .141-.035.27-.105.386a.448.448 0 0 0-.035.386c.094.421-.187 1.287-.841 2.596-.141.375-.362.936-.667 1.684s-.525 1.31-.666 1.684l-1.894 3.577c-.141.234-.784 1.087-1.929 2.56-1.146 1.474-1.813 2.28-2 2.42-.327.234-.889.749-1.683 1.543-.796.795-1.333 1.286-1.613 1.474-1.029.654-2.081 1.052-3.157 1.192-1.262.093-2.174.07-2.734-.07-.702-.095-1.509-.562-2.42-1.403-.912-.841-1.555-1.637-1.93-2.385-.607-1.075-.935-1.706-.982-1.894-.279-.935-.467-2.08-.561-3.437 0-1.169.024-2.15.07-2.946.047-.795.152-1.602.315-2.42.165-.817.305-1.438.421-1.858.117-.421.351-1.216.701-2.385.352-1.169.644-2.104.877-2.807.047-.14.105-.373.176-.701.07-.326.128-.561.176-.701.045-.141.186-.607.42-1.403.281-1.027.491-1.776.631-2.244.047-.233.164-.572.352-1.017.186-.444.338-.842.455-1.192.117-.352.223-.702.316-1.053s.094-.643 0-.877c-.094-.233-.305-.373-.631-.421-.749-.093-1.193-.21-1.333-.351a15.461 15.461 0 0 0-.632-.386c-.28-.163-.49-.291-.631-.386-.233-.233-.374-.443-.421-.631.188-.094.305-.141.351-.141.328-.046.807-.141 1.438-.28a26.731 26.731 0 0 0 1.438-.351c.421-.094 1.099-.187 2.034-.281.373-.093.607-.28.701-.561.047-.094.164-.339.352-.736.186-.397.303-.713.35-.947.187-.327.491-.958.912-1.894s.771-1.637 1.053-2.104c.794-1.263 1.565-2.245 2.314-2.946.093-.14.256-.326.49-.561.327-.233.632-.327.912-.281.047.048.257.048.631 0a8.39 8.39 0 0 1 .702-.07c.046 0 .093-.022.14-.069.795-.187 1.334.14 1.613.981.327.655.492 1.403.492 2.245 0 .28.045.655.14 1.122.093.28.093.608 0 .981-.095.469-.165.842-.21 1.123l-.422 1.683c0 .235-.023.421-.069.562.14.095.374.141.701.141.28-.046.712-.094 1.298-.141.584-.046 1.018-.07 1.297-.07h3.648c.14 0 .28.013.42.035.141.024.292.06.457.105.162.047.314.07.455.07l-.28.421c-.14.14-.305.257-.491.351l-.771.386c-.328.164-.586.27-.771.315l-.07.07c-.141 0-.503.07-1.087.21-.585.141-1.042.188-1.368.141-.468 0-.959.07-1.473.21a2.085 2.085 0 0 1-.491.141c-.234.047-.374.07-.421.07a6.75 6.75 0 0 0-.807.07c-.351.047-.62.094-.807.14-.234.048-.421.235-.561.562l-.07.07c0 .094-.024.14-.07.14-.328.89-.831 2.129-1.508 3.718a447.82 447.82 0 0 0-1.368 3.227 7.165 7.165 0 0 0-.351.771 16.322 16.322 0 0 0-.842 2.104c-.188.516-.491 1.122-.912 1.824-.094.14-.176.397-.245.771-.07.374-.175.655-.315.842-.375.889-.736 2.408-1.088 4.559-.35 2.151-.502 3.882-.455 5.19.045.937.28 2.012.701 3.227l.631.842h.07c.094.047.163.07.211.07 1.355 0 2.197-.116 2.524-.351.562-.374 1.544-1.146 2.946-2.314 2.15-2.15 3.53-3.834 4.139-5.051.186-.374.443-1.017.771-1.929.326-.912.607-1.554.842-1.929.186-.468.632-1.474 1.333-3.017zm-11.503-7.084a33.078 33.078 0 0 1 1.403-3.297c.42-1.028.561-1.706.42-2.034-.141-.326-.748-.21-1.823.351-.28.889-.597 2.012-.947 3.367a94.786 94.786 0 0 1-.736 2.735c-.655 2.385-.726 3.297-.21 2.735.513-.606 1.144-1.894 1.893-3.857zm3.156-9.189c.187-.936.327-1.659.421-2.175.046-.187.116-.514.211-.981.045-.187.104-.468.175-.842s.105-.654.105-.842c.046-.421.022-1.053-.07-1.895-.095-.326-.234-.396-.421-.21-.328.234-.538.468-.631.701-.375.701-.609 1.31-.701 1.824 0 .094-.048.21-.141.351-.095.14-.141.234-.141.28-.188.375-.328.679-.421.912a70.724 70.724 0 0 1-.491 2.244c-.141.889.116 1.38.771 1.474.655.095 1.1-.186 1.334-.841z"/></g></svg>