<svg xmlns="http://www.w3.org/2000/svg" width="171" height="55" viewBox="0 0 171 55"><g fill="#FB385F"><path d="M13.412 13.305c.19-.266.485-.637.885-1.113.399-.476.675-.828.828-1.057.19-.229.476-.608.856-1.142.685-1.065 1.693-1.789 3.027-2.17.342-.114.723-.038 1.142.228.608.268 1.161.343 1.656.229.723-.114 1.161.02 1.313.4 0 .076-.01.171-.028.285-.02.114-.029.2-.029.257v.2c.076.457-.02.876-.285 1.256-.039.039-.057.134-.057.286 0 .381.019.628.057.742l-.057.114c-.077.191-.171.399-.286.628s-.22.534-.314.914c-.096.381-.181.647-.257.8-1.18 2.932-1.447 4.264-.799 3.997.494-.19 1.561-1.37 3.198-3.541.19-.532.571-1.085 1.143-1.655.228-.343.646-.886 1.256-1.628.608-.742 1.046-1.322 1.313-1.742 1.371-1.789 2.893-3.273 4.568-4.454.076-.076.257-.219.542-.429.286-.208.514-.352.686-.428a.887.887 0 0 1 .542-.058c.608.077 1.123.286 1.542.629.419.381.743.78.971 1.199l.229.114c.533.114.799.685.799 1.713a.704.704 0 0 1-.086.229.678.678 0 0 0-.085.229c-.99 2.247-1.562 3.826-1.713 4.739-.152 1.028-.248 1.828-.285 2.399-.039.152-.086.514-.143 1.085-.057.57-.124 1.027-.2 1.37-.153 1.104-.4 1.847-.743 2.228v.229c.076.152.114.267.114.343s-.067.209-.2.399c-.134.19-.22.324-.257.399-.114.306-.134.495-.057.571.19.647.057 1.295-.4 1.941l-.057.114v.229a20.48 20.48 0 0 0-.4 1.428l.057-.057.229-.114c-.038.19-.219.542-.542 1.056-.324.515-.428.905-.314 1.171.304 0 .38.306.229.914-.534 2.056-.838 3.198-.914 3.427.038 0 .057.02.057.057v.114c.114.191.095.533-.057 1.028s-.209.856-.171 1.085c0 .076-.029.323-.086.742s-.028.705.086.856c0 .343-.21.724-.628 1.143l-.628.628c-.191.419-.333.666-.428.742-.095.077-.333.134-.714.172h-.143a.33.33 0 0 0-.143.028.934.934 0 0 1-.171.057.95.95 0 0 1-.229.028c-.457.076-.743 0-.856-.228-.039-.076-.191-.152-.457-.229-.838-.19-1.047-.723-.628-1.6.343-1.18.704-3.121 1.085-5.824.037-.152.171-.647.399-1.485 0-.037.086-.352.257-.942s.333-1.037.485-1.342c0 .077-.02.2-.057.371a1.987 1.987 0 0 0-.057.429c.114-.076.19-.114.229-.114.228-.762.342-1.18.342-1.257 0-.114.104-.562.314-1.342.208-.78.294-1.36.257-1.742-.077-.075-.077-.151 0-.229.19-.189.286-.476.286-.856s.076-.665.228-.856a.387.387 0 0 0 .114-.285l.057-.229c-.114-.571.057-1.199.514-1.885v-.285l-.057-.058a53.716 53.716 0 0 0-1.085 2.57h-.171c.457-2.589.59-3.931.4-4.026-.191-.095-.705.429-1.542 1.57-.381.495-.934 1.238-1.656 2.228-.077-.076-.114-.133-.114-.172l-.171.058c0 .076-.038.19-.114.343a.442.442 0 0 0-.057.171c-.229.609-.667 1.104-1.313 1.485-.191.076-.286.19-.286.342-.191.153-.362.382-.514.686-.191.534-.638 1.371-1.342 2.513-.705 1.143-1.514 2.39-2.427 3.741s-1.466 2.198-1.656 2.541c-.152.267-.799.934-1.941 1.999 0-.419.038-.686.114-.8h-.114c-.039.076-.305.457-.8 1.142l-.114-.114c-.267.571-.781.972-1.542 1.199-1.105.382-2.094.438-2.97.172-1.066-.305-1.656-.514-1.771-.628-.267-.19-.362-.343-.285-.457 0-.076.076-.229.228-.457.914-1.446 1.485-2.322 1.713-2.627.686-1.028.99-1.846.914-2.456.114-.608.8-3.216 2.056-7.823.38-1.37.494-2.084.343-2.142-.153-.057-.571.371-1.256 1.285-.267.419-.61.952-1.028 1.599-.914 1.447-1.562 2.38-1.941 2.799-.191.381-1.342 2.39-3.455 6.024-2.113 3.636-3.303 6.292-3.569 7.967a4.452 4.452 0 0 1-.399 1.256c-.305.457-.609.571-.914.343l-.285-.114c-.19-.457-.723-.762-1.599-.914-.038 0-.4-.171-1.085-.514-.076-.076-.057-.229.057-.457.724-1.332 1.39-3.217 1.999-5.653.039-.151.096-.476.171-.971.077-.494.171-.895.286-1.199.077-.305.381-1.171.914-2.599s.837-2.256.914-2.484l.686-2.741c.114-.38.257-.932.428-1.655s.333-1.38.485-1.971a65 65 0 0 1 .457-1.685c0-.037.037-.2.114-.485.076-.285.114-.504.114-.657.038-.951.38-2.284 1.028-3.997.037-.114.104-.323.2-.628.095-.305.18-.533.257-.686.114-.38.266-.8.457-1.257.19-.418.418-.57.685-.456.11.076.281.199.51.371.229.171.38.313.457.428 0 .039.057.343.171.914-.153 1.028-.419 2.17-.8 3.427-.457 2.17-.229 2.969.686 2.398.799-.495 1.999-1.943 3.598-4.341zM11.87 33.921h.114c.076-.151.171-.323.286-.514v-.286c-.039.077-.153.21-.343.4 0 .191-.02.324-.057.4zm7.538-10.736a1.99 1.99 0 0 0 .4-.399c.19-.267.476-.742.856-1.428.418-.99.971-1.751 1.656-2.284.229-.305.343-.59.343-.857-.419.382-.991 1.124-1.713 2.228-.724 1.103-1.238 2.017-1.542 2.74zm5.139-7.368c.457-.151.743-.399.857-.742 0-.151.076-.304.228-.457.343-.342.694-.856 1.057-1.542.361-.685.618-1.122.771-1.313-.343.268-.866.905-1.57 1.913-.705 1.01-1.153 1.723-1.343 2.141zm35.977 14.22a85.6 85.6 0 0 0 3.083-3.54c.343-.419.723-.971 1.143-1.656.151-.229.266-.419.342-.571l.057-.057v.229c-.038.228.047.438.257.628.208.19.218.438.028.742-.685.876-1.066 1.409-1.142 1.599 0 .114-.086.268-.257.457a8.689 8.689 0 0 1-.6.6c-.229.21-.362.353-.4.429-.191.229-.381.571-.571 1.027a45.213 45.213 0 0 1-1.028 1.313c-.152.153-.419.515-.799 1.086a5.194 5.194 0 0 1-.8 1.142c-.191.229-.438.543-.742.942-.305.399-.628.791-.971 1.171-.114.114-.381.514-.8 1.199-.419.686-.705 1.085-.856 1.199-.343.343-.571.628-.685.856-.153.151-1.019.6-2.599 1.342-1.58.742-2.39 1.133-2.427 1.171l-.342.343c-.534.304-.857.742-.971 1.313-.305.761-.876 1.865-1.713 3.313-.305.418-.686 1.046-1.142 1.884-.267.647-.686 1.237-1.256 1.771-.114.152-.372.4-.771.742-.4.343-.676.647-.828.914a13.865 13.865 0 0 1-3.141 2.113c-.495.266-1.562.399-3.198.399-1.637.38-3.37 0-5.197-1.142-1.828-1.143-2.913-2.514-3.255-4.112-.037-.267.048-.552.257-.856.209-.306.448-.477.714-.514.228-.077.856-.21 1.884-.4 1.98-.229 4.074-.819 6.282-1.771 1.789-.647 3.16-1.199 4.112-1.655a3.33 3.33 0 0 0 1.428-1.371 433.47 433.47 0 0 1 2.056-4.283c1.675-3.159 2.493-4.797 2.456-4.911-.038-.114-.552.114-1.542.686-1.066.609-2.094 1.066-3.084 1.37-.343-.075-.876-.332-1.599-.771-.724-.438-1.18-.809-1.371-1.113l-.914-1.313a28.231 28.231 0 0 1-1.485-2.456c-.38-.723-.533-1.218-.457-1.484.077-.229.152-.429.228-.6.077-.172.114-.333.114-.485v-.914c.077-.571.238-1.285.485-2.142.248-.856.429-1.589.542-2.198 0-.076.124-.429.372-1.057.247-.628.371-1.075.371-1.342.114-.19.333-.762.657-1.714.323-.951.6-1.561.828-1.827.342-.723.704-1.332 1.085-1.827.229-.305.437-.533.628-.686.076.038.181.105.314.2.133.095.218.162.257.199.152.267.856.8 2.113 1.6.229.229.4.419.514.57a.625.625 0 0 1 .114.229c.038.114.076.172.114.172.647.457 1.046 1.219 1.199 2.284.151.533.095 1.142-.171 1.827-.077.114-.2.353-.371.714a4.351 4.351 0 0 1-.485.828c-.114.306-.496 1.048-1.142 2.228-.114.267-.343.666-.686 1.199s-.571.876-.685 1.027c-.077.077-.191.248-.343.515a6.196 6.196 0 0 1-.4.628c-1.941 2.97-2.284 4.303-1.028 3.997 1.408-.343 3.94-2.15 7.595-5.425 1.522-1.371 2.436-2.303 2.741-2.798.266-.381.428-.638.485-.771.057-.133.114-.275.171-.428s.18-.419.371-.8c.19-.19.647-.78 1.371-1.771.229-.419.418-.686.571-.8.228-.266.457-.343.685-.229.266.114.514.467.743 1.057.228.591.266 1.076.114 1.456 0 .268-.114.496-.342.686-.534 1.028-.8 1.58-.8 1.656 0 .152-.152.628-.457 1.428-.914 1.79-1.504 3.274-1.771 4.454-.077.229-.467 1.342-1.171 3.341-.705 1.999-1.076 3.151-1.113 3.455-.039 1.752 2.436.285 7.424-4.397a63.08 63.08 0 0 0 1.603-1.543zM32.542 49.055c-.8.799-.704 1.561.285 2.284 1.219.837 2.627 1.008 4.226.514 1.066-.306 1.922-.934 2.57-1.885.533-.533.942-.962 1.228-1.285.285-.323.514-.647.685-.971s.162-.523-.028-.6c-.191-.076-.6-.048-1.228.086-.628.133-1.495.408-2.598.828-.875.229-2.189.494-3.94.8-.458.075-.858.152-1.2.229zm52.481-17.019a.727.727 0 0 1 .399-.343c.913-.951 1.618-1.864 2.113-2.741.456-.837 1.636-2.778 3.54-5.824.115-.19.286-.457.514-.8.229-.343.381-.608.457-.8.533-.189 1.066-.151 1.6.114.114.077.151.152.114.229 0 .038-.02.134-.058.285-.152.61-.096 1.143.172 1.6.189.19.247.419.172.686-.191.57-.286 1.447-.286 2.627v2.284c0 .724.058 1.484.171 2.284 0 .19.133.399.4.628 0-.037.019-.076.057-.114l.172-.343c.646-.951 1.313-2.303 1.998-4.055.686-1.599 1.18-2.798 1.484-3.598a6.48 6.48 0 0 0 .572-1.713c.113-.343.256-.809.428-1.399s.295-.979.371-1.171c0-.075.172-.971.514-2.684 0-.533.096-.933.286-1.199.075-.151.075-.38 0-.686-.077-.343-.058-.628.058-.856.037-.114.133-.2.285-.257.151-.058.266-.066.342-.028.076.076.209.171.4.285.189.114.343.229.457.343.113 0 .171.096.171.285.038.343.095.819.171 1.428v.286c.076.267.209.57.4.913 0 .534.057.876.172 1.028.189.419.229.895.113 1.428-.076.305-.209.828-.399 1.57s-.343 1.323-.457 1.741c-.038.191-.134.477-.285.857a7.336 7.336 0 0 0-.286.799 4.264 4.264 0 0 1-.229.629c-.113.267-.171.476-.171.628-.077.305-.381 1.181-.913 2.627-.077.076-.153.229-.229.457-.115.229-.258.58-.429 1.056a7.32 7.32 0 0 1-.485 1.114l-.057.114c-.039.038-.058.076-.058.114-.267.305-.619.714-1.057 1.228-.438.514-.677.81-.714.885-.229.268-.438.382-.628.343-.343 0-.667.058-.972.172-.533.305-1.123.323-1.77.057a6.346 6.346 0 0 0-.571-.143 6.014 6.014 0 0 1-.571-.143c-.267-.076-.666-.323-1.199-.742-.533-.609-.934-1.199-1.199-1.771a26.08 26.08 0 0 0-.171-.485c-.077-.209-.114-.352-.114-.429l-.114-.343a.513.513 0 0 0-.144.028.408.408 0 0 0-.143.086.886.886 0 0 0-.229.457l-.627.8c-.382.495-.648.895-.801 1.199-.342.267-.59.591-.742.971-.152.381-.457.705-.913.971a3.13 3.13 0 0 0-.514.257c-.229.134-.419.238-.571.314-.039.038-.4.171-1.085.399a7.748 7.748 0 0 1-1.256.343 3.603 3.603 0 0 1-1.142.171 4.583 4.583 0 0 1-1.884-.628c-.267-.114-.534-.343-.8-.686-.457-.761-.742-1.446-.856-2.056 0-.037-.01-.104-.029-.199a1.09 1.09 0 0 1-.028-.2v-.742c-.19-.762-.171-2.036.057-3.826.19-1.333.514-2.646.971-3.94.229-.647.571-1.656 1.028-3.027a12.14 12.14 0 0 0 .8-1.827c.266-.686.704-1.789 1.313-3.313.19-.38.514-.913.971-1.599.076-.266.286-.571.628-.914.685-.075 1.104-.114 1.256-.114.114-.037.228-.057.342-.057 1.447.19 2.627.686 3.541 1.484.113.077.305.381.57.914.076.152.076.477 0 .971-.113.457-.333 1.123-.656 1.999a82.182 82.182 0 0 0-.6 1.656c-.114.229-.343.714-.686 1.456-.342.742-.57 1.305-.686 1.685l-.856 2.228-.229.456c-.191.306-.333.62-.428.942a7.959 7.959 0 0 0-.229 1.057 5.624 5.624 0 0 1-.2.914c0 .19-.02.609-.057 1.256-.039.648-.02 1.066.057 1.257 0 .038.028.105.085.199.063.097.091.164.091.201zm22.329-7.823c0-.076-.02-.133-.057-.172-.533-.837-.895-2.036-1.085-3.598-.153-.837.058-1.771.628-2.798a.536.536 0 0 1 .4-.286c.342-.304.913-.685 1.713-1.142.494-.305 1.104-.4 1.827-.286.19 0 .856.457 1.999 1.371.608.495.971.78 1.085.856.494.419.875.99 1.142 1.713.266.686.438 1.105.514 1.257.038.038.152.591.344 1.656.075.838.133 1.295.171 1.37.038.038.058.096.058.172-.039-.267-.039-.247 0 .057v.514c0 .153.008.485.027 1 .02.514-.01.828-.085.942-.077.152-.048.313.085.485a.653.653 0 0 0 .543.257c.646-.038 1.761-.038 3.341 0 1.579.038 2.675-.038 3.284-.229l.914-.457a.615.615 0 0 1 .199-.114.565.565 0 0 0 .199-.114c.115.152.115.324 0 .515-.037.076 0 .181.115.313.113.134.133.238.057.314-1.104 1.181-4.111 1.771-9.023 1.771h-.171c-.228 0-.343.057-.343.171 0 .038-.038.134-.113.285-.039.268-.4 1.22-1.086 2.855-.19.457-.553 1.028-1.085 1.714-.343.533-.609.856-.8.971a1.184 1.184 0 0 1-.199.143 1.071 1.071 0 0 0-.2.143c-.19.077-.306.191-.343.343-.495.571-1.027.934-1.599 1.085-.153 0-.343.077-.571.229-.647.191-1.428.21-2.342.057-.875-.113-1.636-.723-2.283-1.827l-.515-1.542c-.114-1.18-.133-2.227-.058-3.141.115-1.028.439-2.074.972-3.141.456-1.104 1.161-2.228 2.112-3.369.076-.038.152-.153.229-.343zm6.795-1.085c.114-.533.095-.99-.057-1.371a32.446 32.446 0 0 0-.399-1.827c-.191-.608-.457-1.065-.801-1.371-.418-.418-.666-.646-.742-.685-.381-.343-.723-.59-1.027-.743-.495-.38-1.275-.037-2.342 1.028a3.125 3.125 0 0 0-.656 2.342c.094.876.322 1.676.686 2.398.361.724.809 1.37 1.342 1.941.837 1.638 1.799 2.237 2.884 1.799 1.084-.437 1.455-1.608 1.112-3.511zm-4.053 7.31c-.344.495-.705 1.313-1.086 2.455-.038.191-.057.495-.057.914-.039.038-.02.134.057.285.152.343.361.571.629.686.037 0 .075-.019.113-.057s.115-.095.229-.172c.8-.837 1.543-2.056 2.228-3.654.075-.152.151-.305.229-.457.075-.152.143-.323.2-.515.057-.189.104-.322.143-.399-.686-.229-1.199-.266-1.542-.114-.344.152-.725.494-1.143 1.028z"/><path d="M128.652 28.553c-.305.99-.209 1.37.285 1.143.571-.267 1.086-.818 1.543-1.656.075-.152.133-.286.171-.4.114-.38.514-1.304 1.199-2.77.685-1.465 1.161-2.407 1.428-2.826.456-.686.78-1.219.971-1.6.38-.532.685-1.008.913-1.428.229-.38.533-.608.914-.686.152 0 .343-.009.571-.028a6.72 6.72 0 0 1 .515-.028c.57 0 1.046.419 1.427 1.256v.229c.038.229.104.6.2 1.114.095.514.162.923.199 1.228.038.229.058.99.058 2.284v1.542a.56.56 0 0 1 .229.285l.058.058c.037-.038.143-.048.313-.028s.276.01.313-.029a.905.905 0 0 0 .115-.143.99.99 0 0 1 .113-.143c.305-.229.533-.438.686-.628.152-.267.343-.267.571 0 0 .19-.077.343-.229.457a1.347 1.347 0 0 0-.171.285c-.077.229-.191.362-.343.399l-.171.172-.172.171c0 .038-.02.058-.057.058-.039 0-.077.02-.115.057-.19.191-.398.286-.627.286-.153 0-.324.076-.515.228-.19.114-.343.114-.457 0a5.563 5.563 0 0 0-.657-.257 5.53 5.53 0 0 1-.542-.199c-.685-.152-1.181-.686-1.484-1.6-.306-.913-.362-1.999-.171-3.255.037-.19.075-.466.113-.828.037-.361.058-.562.058-.6l.171-1.028a.723.723 0 0 0 .057-.628c-.113 0-.171.02-.171.058-.114.114-.19.209-.228.285l-.229.457a11.061 11.061 0 0 1-.572.971c-.19.305-.305.647-.342 1.028 0 .038-.057.229-.172.57-.609 1.181-1.047 2.171-1.313 2.97a16.12 16.12 0 0 1-.543 1.228c-.248.515-.41.867-.486 1.057-.037.114-.266.609-.685 1.485s-.705 1.562-.856 2.056a5.934 5.934 0 0 1-.258.714c-.133.324-.219.523-.256.6-.077.229-.371.819-.886 1.771-.514.952-.848 1.484-.999 1.599l-.285.286c-.496.724-1.295.951-2.398.685-.078.077-.191.039-.344-.114-.799-.189-1.332-.933-1.599-2.227-.114-.647-.171-1.637-.171-2.97.076-1.979.152-3.464.229-4.454.076-.419.123-.8.143-1.143.019-.343.047-.637.086-.885.037-.248.133-.6.285-1.057.342-1.865.666-3.235.971-4.112.037-.151.104-.343.199-.57.096-.229.162-.4.201-.515.532-1.37.932-2.321 1.199-2.855.189-.608.532-.856 1.027-.742.266 0 .742.077 1.428.229.418.077.799.267 1.143.571.075.19.59.838 1.541 1.941.494.876.59 1.771.285 2.685-.076.381-.18.619-.313.714s-.257.352-.371.771c-.229.8-.685 1.895-1.37 3.283-.684 1.386-1.141 2.443-1.37 3.166zm25.756 5.425c.037.42.229.934.57 1.542.305.609.629 1.143.971 1.6.229.456.552.685.971.685.572.153 1.18.096 1.828-.171.189-.076.732-.429 1.627-1.057s1.438-.979 1.628-1.057c.076-.037.543-.494 1.399-1.37s1.342-1.352 1.456-1.428c.495-.533 1.275-1.656 2.341-3.369.191-.305.457-.78.801-1.428.342-.647.607-1.123.799-1.428.152-.305.266-.552.343-.742l.171-.686c.038.152.105.267.2.343s.181.114.257.114h.229c.077 0 .123.02.143.057.02.038.01.114-.028.229a1.9 1.9 0 0 0-.171.742c-.039.229-.229.629-.571 1.199-.343.571-.515.877-.515.914-.419 1.104-.742 1.866-.971 2.284v.114c-.113.191-.313.533-.6 1.028-.285.495-.484.876-.6 1.142-1.827 2.056-3.008 3.332-3.54 3.826-.267.229-.591.42-.972.571-.19.077-.809.495-1.855 1.256-1.047.762-1.742 1.18-2.084 1.257-.953.19-1.542.285-1.771.285-.952.076-1.771-.229-2.456-.913-.457-.534-.762-.914-.914-1.143-1.219-2.093-1.884-3.273-1.998-3.54-.076-.076-.152-.172-.229-.286s-.143-.2-.199-.257a27.812 27.812 0 0 1-.172-.171c-.057-.058-.114-.076-.172-.058a.799.799 0 0 0-.199.114 1.058 1.058 0 0 0-.229.257c-.039.038-.076.152-.114.343-.038.191-.077.306-.114.343-.152.229-.343.571-.571 1.028-.077.305-.248.666-.514 1.085-.229.229-.457.323-.686.285-.381 0-.667.096-.856.285-.609.268-1.076.392-1.398.372-.324-.02-.695-.219-1.114-.601-.876-.532-1.446-1.579-1.714-3.141a.805.805 0 0 1-.057-.343c.039-.266.02-1.16-.057-2.684-.037-.494-.02-1.637.057-3.427 0-.037.029-.247.086-.628a6.36 6.36 0 0 0 .086-.856c.038-.914.342-2.475.914-4.683.418-1.408.723-2.322.913-2.741.343-1.065.971-2.665 1.884-4.797.115-.229.276-.571.486-1.028.209-.457.39-.8.543-1.028.607-1.37 1.731-3.388 3.369-6.053 1.142-1.6 2.018-2.685 2.627-3.256.037-.037.209-.189.514-.456s.551-.476.742-.629c.229-.189.704-.322 1.428-.399l.114.057c.075.077.133.135.171.172.115.267.629.762 1.542 1.484.989.763 1.865 1.733 2.627 2.913.38.495.571 1.123.571 1.884v.515c-.076.343-.267.514-.571.514-.038-.037-.171-.114-.399-.229a5.237 5.237 0 0 0-.229-.2.862.862 0 0 1-.229-.257c-.533-.418-1.085-.343-1.656.229l-.771.771-.827.828c0 .076-.114.267-.343.57-.114.191-.705 1.028-1.771 2.513 0 .039-.058.172-.171.4-.306.762-.591 1.352-.857 1.771-.076.19-.199.447-.371.771-.171.324-.334.628-.484.914-.153.285-.286.562-.4.828-.152.267-.362.666-.629 1.199-.113.305-.352.838-.713 1.599-.362.762-.619 1.352-.771 1.771-.723 1.562-1.256 2.97-1.599 4.226a20.02 20.02 0 0 0-.144.457 1.67 1.67 0 0 0-.085.399c-.306 1.371-.477 2.095-.515 2.171-.152 1.065-.057 1.58.286 1.541.114-.037.247-.171.399-.399.229-.343.609-.999 1.143-1.97.533-.972.971-1.704 1.313-2.199 1.142-1.599 2.228-2.893 3.255-3.883 1.219-.951 2.456-1.313 3.713-1.085.304 0 .532.171.685.514.038.077.114.21.229.399.419.571.628 1.276.628 2.113 0 1.484-.209 2.875-.628 4.169 0 .076-.02.171-.058.285s-.057.21-.057.286c-.305.838-.666 1.522-1.085 2.056l-.457.457-.399.399c-.381.495-.819.838-1.314 1.028a2.298 2.298 0 0 0-.742.285c-.076 0-.133.038-.171.114-.078.117-.135.174-.172.174zm-11.478-2.57c.076-.494.076-.895 0-1.199v1.199zm11.935-7.024c-.725.762-1.238 1.523-1.543 2.284-.305.8-.533 1.295-.685 1.485-.077.19-.2.438-.372.742-.17.305-.295.552-.371.742-.229.343-.152.514.229.514.533-.037.951-.208 1.257-.514 1.218-.914 2.246-2.379 3.084-4.397.419-1.408.437-2.15.058-2.227-.382-.075-.934.382-1.657 1.371z"/></g></svg>