<?xml version="1.0" encoding="utf-8"?>
<!-- Generator: Adobe Illustrator 16.0.0, SVG Export Plug-In . SVG Version: 6.00 Build 0)  -->
<!DOCTYPE svg PUBLIC "-//W3C//DTD SVG 1.1//EN" "http://www.w3.org/Graphics/SVG/1.1/DTD/svg11.dtd">
<svg version="1.1" id="Layer_1" xmlns="http://www.w3.org/2000/svg" xmlns:xlink="http://www.w3.org/1999/xlink" x="0px" y="0px"
	 width="287px" height="52px" viewBox="0 0 287 52" enable-background="new 0 0 287 52" xml:space="preserve">
<g enable-background="new    ">
	<path fill="#FB385F" d="M58.206,25.269c1.636-3.647,2.829-6.195,3.577-7.646c0.514-1.448,2.01-3.833,4.489-7.154
		c2.478-3.319,4.185-5.447,5.12-6.383c0.514-0.562,1.098-0.817,1.754-0.771c3.039-1.637,5.657-1.028,7.856,1.823
		c2.197,2.854,3.296,6.138,3.296,9.855s-0.608,6.535-1.824,8.452c-1.076,1.217-2.525,1.707-4.349,1.473
		c-0.468-0.14-1.169-0.304-2.104-0.491c-0.328-0.046-0.491-0.233-0.491-0.561c0.046-0.562,0.093-1.438,0.14-2.631
		c0.046-1.192,0.093-2.092,0.14-2.7c0.046-0.28,0.093-0.725,0.141-1.333c0.046-0.606,0.07-1.052,0.07-1.332
		c0.093-0.982,0.187-2.642,0.281-4.98v-0.562c0.233-1.636,0.035-2.548-0.596-2.735c-0.631-0.187-1.322,0.048-2.069,0.702
		c-0.749,0.655-1.146,1.192-1.192,1.613c-0.188,0.655-0.515,1.262-0.982,1.823c-0.701,0.655-1.357,1.638-1.964,2.946
		c-0.188,0.468-0.515,1.192-0.982,2.174c-0.468,0.982-0.796,1.73-0.982,2.245c-0.842,2.011-1.403,3.975-1.684,5.892
		c-0.281,1.59-0.491,3.11-0.631,4.56c-0.047,0.468-0.165,1.204-0.351,2.209c-0.188,1.006-0.305,1.766-0.351,2.28
		c0,0.374,0.046,1.52,0.14,3.437c0,0.141,0.023,0.386,0.07,0.736c0.046,0.351,0.093,0.644,0.141,0.877
		c0.28,1.823,0.642,3.086,1.087,3.788c0.444,0.701,0.9,0.889,1.368,0.561c0.467-0.326,0.899-0.817,1.297-1.473
		c0.397-0.654,0.76-1.379,1.087-2.175c0.14-0.373,0.269-0.771,0.386-1.192c0.116-0.421,0.233-0.864,0.351-1.332
		c0.116-0.468,0.221-0.842,0.316-1.123c0.186-0.514,0.163-1.027-0.07-1.543c-0.608-1.215-0.14-2.15,1.403-2.806
		c0.701-0.28,2.127-0.584,4.279-0.912c1.355-0.186,2.127,0.445,2.314,1.895c0,0.748-0.117,1.402-0.351,1.964
		c-0.328,0.748-0.936,2.291-1.824,4.629c-0.889,2.339-1.695,4.256-2.42,5.752c-0.726,1.497-1.462,2.643-2.209,3.437
		c-0.094,0.047-0.328,0.327-0.702,0.842c-0.468,0.842-1.122,1.192-1.964,1.053c-0.889-0.141-1.824-0.141-2.806,0
		c-0.982,0.14-2.081-0.047-3.296-0.562c-0.328-0.047-0.772-0.07-1.333-0.07c-0.328,0.046-0.678,0-1.052-0.14
		c-1.262-0.375-2.455-1.24-3.577-2.596c-0.607-0.607-0.935-1.192-0.982-1.754l-0.491-1.473c-0.467-1.355-0.654-2.992-0.561-4.91
		c0-0.561,0.141-1.589,0.421-3.086l1.263-5.05c1.028-2.899,1.543-4.372,1.543-4.419c0.093-0.233,0.246-0.632,0.456-1.192
		c0.21-0.562,0.386-0.982,0.526-1.263h-0.28c0,0.047-0.047,0.14-0.141,0.28c-0.094,0.141-0.164,0.258-0.21,0.351
		c-0.047,0.095-0.14,0.223-0.28,0.386C58.276,25.117,58.206,25.223,58.206,25.269z"/>
	<path fill="#FB385F" d="M87.455,30.39c0-0.094-0.024-0.164-0.07-0.211c-0.656-1.028-1.1-2.501-1.333-4.419
		c-0.188-1.028,0.07-2.174,0.771-3.437c0.093-0.187,0.257-0.304,0.491-0.351c0.421-0.374,1.122-0.842,2.104-1.403
		c0.607-0.374,1.356-0.491,2.245-0.351c0.233,0,1.052,0.561,2.455,1.684c0.748,0.608,1.192,0.959,1.333,1.052
		c0.607,0.516,1.075,1.217,1.403,2.104c0.326,0.842,0.537,1.356,0.631,1.543c0.046,0.047,0.187,0.726,0.421,2.034
		c0.093,1.029,0.164,1.59,0.21,1.684c0.046,0.047,0.07,0.117,0.07,0.21c-0.047-0.326-0.047-0.304,0,0.07c0,0.375,0,0.585,0,0.632
		c0,0.187,0.011,0.596,0.035,1.227c0.023,0.632-0.012,1.018-0.105,1.158c-0.094,0.188-0.059,0.386,0.105,0.596
		c0.163,0.211,0.386,0.315,0.666,0.315c0.795-0.046,2.163-0.046,4.104,0c1.94,0.048,3.285-0.046,4.033-0.28l1.122-0.562
		c0.046-0.046,0.128-0.093,0.246-0.14c0.116-0.046,0.198-0.094,0.246-0.141c0.14,0.188,0.14,0.398,0,0.632
		c-0.047,0.094,0,0.222,0.14,0.386c0.141,0.164,0.164,0.292,0.07,0.386c-1.357,1.449-5.05,2.174-11.083,2.174h-0.21
		c-0.281,0-0.421,0.07-0.421,0.211c0,0.047-0.047,0.164-0.14,0.351c-0.047,0.327-0.491,1.497-1.333,3.507
		c-0.234,0.562-0.678,1.263-1.333,2.104c-0.421,0.655-0.749,1.052-0.982,1.192c-0.047,0.047-0.129,0.105-0.246,0.175
		c-0.117,0.07-0.199,0.13-0.246,0.176c-0.234,0.095-0.375,0.234-0.421,0.421c-0.608,0.701-1.262,1.146-1.964,1.333
		c-0.188,0-0.421,0.094-0.701,0.28c-0.796,0.234-1.754,0.258-2.876,0.07c-1.076-0.141-2.01-0.888-2.806-2.245l-0.631-1.894
		c-0.14-1.449-0.163-2.735-0.07-3.857c0.141-1.263,0.539-2.549,1.193-3.858c0.561-1.355,1.426-2.735,2.595-4.138
		C87.267,30.764,87.36,30.624,87.455,30.39z M95.802,29.057c0.14-0.654,0.116-1.216-0.07-1.684c-0.14-0.747-0.305-1.496-0.491-2.244
		c-0.235-0.748-0.562-1.309-0.982-1.684c-0.515-0.514-0.818-0.795-0.912-0.842c-0.468-0.421-0.889-0.725-1.263-0.912
		c-0.608-0.467-1.567-0.046-2.875,1.263c-0.656,0.842-0.924,1.801-0.807,2.876c0.116,1.076,0.396,2.059,0.841,2.946
		c0.444,0.889,0.993,1.683,1.648,2.385c1.028,2.011,2.209,2.747,3.542,2.209C95.767,32.833,96.223,31.396,95.802,29.057z
		 M90.822,38.035c-0.421,0.607-0.866,1.613-1.333,3.016c-0.047,0.234-0.07,0.608-0.07,1.122c-0.047,0.048-0.024,0.165,0.07,0.351
		c0.187,0.421,0.444,0.702,0.771,0.842c0.046,0,0.093-0.022,0.141-0.069c0.046-0.047,0.14-0.116,0.28-0.211
		c0.982-1.028,1.894-2.525,2.736-4.489c0.093-0.187,0.186-0.373,0.28-0.561c0.093-0.187,0.175-0.397,0.246-0.632
		c0.07-0.233,0.128-0.396,0.175-0.491c-0.842-0.28-1.473-0.326-1.894-0.14C91.804,36.96,91.335,37.381,90.822,38.035z"/>
	<path fill="#FB385F" d="M122.736,30.6c-0.094,0.188-0.222,0.363-0.386,0.526c-0.164,0.164-0.34,0.351-0.526,0.561
		c-0.188,0.211-0.328,0.363-0.421,0.456c-0.14,0.141-0.585,0.608-1.333,1.403c-0.749,0.796-1.263,1.402-1.543,1.823
		c-0.561,0.749-1.287,1.567-2.174,2.455c-0.468,0.468-0.866,1.006-1.192,1.613c-0.468,0.749-0.796,1.217-0.982,1.403
		c-0.281,0.234-0.468,0.468-0.561,0.701c-0.235,0.234-0.631,1.228-1.192,2.98c-0.562,1.754-0.936,2.725-1.123,2.911
		c-0.28,0.281-0.585,0.421-0.912,0.421c-0.188,0-0.515,0.117-0.982,0.351c-0.328,0.281-0.702,0.351-1.123,0.211l-2.314-0.211
		c-0.187-0.046-0.456-0.093-0.807-0.14c-0.351-0.046-0.549-0.07-0.596-0.07c-1.216-0.421-1.684-1.403-1.403-2.946
		c0.795-3.46,1.497-6.032,2.104-7.716c0.608-1.589,1.146-2.875,1.613-3.857c0.702-1.776,1.473-3.53,2.315-5.261
		c0.14-0.28,0.958-1.706,2.455-4.278c0.654-1.123,1.098-1.964,1.333-2.525c0.374-0.701,0.631-1.333,0.771-1.894
		c0-0.047,0.011-0.116,0.035-0.211c0.023-0.093,0.035-0.187,0.035-0.28c0.374-0.233,0.654-0.211,0.841,0.07
		c0.467,0.608,1.098,1.028,1.894,1.263c0.14,0,0.256,0.117,0.351,0.351c0.233,0.28,0.584,0.748,1.052,1.402
		c0.281,0.421,0.374,1.1,0.281,2.034c-0.047,2.292-0.771,4.91-2.175,7.856c-0.561,1.216-0.912,1.918-1.052,2.104
		c-0.608,0.982-0.656,1.638-0.141,1.964c0.233,0.095,0.491,0.07,0.772-0.069c0.794-0.748,1.753-1.777,2.875-3.087
		c0.607-0.747,1.333-1.53,2.174-2.35c0.842-0.817,1.426-1.414,1.754-1.788c0.607-0.607,1.052-1.075,1.333-1.403
		c0.327-0.561,0.818-0.912,1.473-1.052h0.701c0.281,0.047,0.712,0.082,1.298,0.104c0.584,0.024,1.017,0.06,1.297,0.105
		c0.514,0.095,0.935,0.445,1.263,1.053c0.187,0.327,0.281,0.678,0.281,1.052c0.186,1.263,0.186,2.222,0,2.876
		c-0.375,1.684-0.631,2.83-0.771,3.437c-0.515,1.778-0.656,3.718-0.421,5.822c0.046,0.748,0.502,1.146,1.368,1.192
		c0.865,0.047,1.461-0.07,1.789-0.351c0.093-0.046,0.256-0.129,0.491-0.246c0.233-0.116,0.42-0.198,0.561-0.245
		c0.748-0.467,1.694-1.181,2.841-2.14c1.145-0.958,1.952-1.718,2.42-2.279c0.046-0.093,0.479-0.456,1.297-1.087
		c0.818-0.632,1.273-1.018,1.368-1.157c0.187-0.281,0.374-0.632,0.562-1.053c0.186-0.421,0.374-0.771,0.561-1.052
		c0.046-0.046,0.081-0.105,0.105-0.176c0.023-0.07,0.058-0.14,0.105-0.21c0.046-0.07,0.116-0.151,0.21-0.246
		c0,0.188,0.023,0.305,0.07,0.351c0.046,0.141,0.046,0.328,0,0.562c-0.047,0.234-0.047,0.421,0,0.562
		c0,0.047-0.047,0.188-0.14,0.421c-0.188,0.234-0.281,0.538-0.281,0.911c-0.047,0.328-0.187,0.679-0.42,1.053
		c-0.141,0.188-0.445,0.678-0.912,1.473c-0.468,0.796-0.819,1.333-1.052,1.613c-2.011,2.292-3.321,3.694-3.928,4.209
		c-0.094,0.094-0.2,0.175-0.316,0.245c-0.117,0.07-0.245,0.141-0.386,0.21c-0.14,0.07-0.257,0.13-0.351,0.176
		c-0.047,0-0.117,0.024-0.21,0.07c-0.094,0.047-0.199,0.082-0.315,0.105c-0.117,0.023-0.223,0.059-0.316,0.104
		c-0.515,0.234-1.473,0.363-2.875,0.386c-1.403,0.024-2.409-0.058-3.016-0.245c-2.993-0.982-4.514-3.46-4.56-7.436
		c0.093-1.215,0.14-2.104,0.14-2.665c0.421-2.29,0.351-3.507-0.21-3.647C123.32,30.133,123.063,30.273,122.736,30.6z"/>
	<path fill="#FB385F" d="M161.875,32.143c0.094,0,0.257-0.022,0.491-0.07l0.28,0.07c0,0.141-0.035,0.27-0.105,0.386
		c-0.069,0.117-0.082,0.246-0.035,0.386c0.094,0.421-0.187,1.287-0.841,2.596c-0.141,0.375-0.362,0.936-0.667,1.684
		s-0.525,1.31-0.666,1.684l-1.894,3.577c-0.141,0.234-0.784,1.087-1.929,2.56c-1.146,1.474-1.813,2.28-2,2.42
		c-0.327,0.234-0.889,0.749-1.683,1.543c-0.796,0.795-1.333,1.286-1.613,1.474c-1.029,0.654-2.081,1.052-3.157,1.192
		c-1.262,0.093-2.174,0.07-2.734-0.07c-0.702-0.095-1.509-0.562-2.42-1.403c-0.912-0.841-1.554-1.637-1.929-2.385
		c-0.607-1.075-0.935-1.706-0.982-1.894c-0.28-0.935-0.467-2.08-0.561-3.437c0-1.169,0.024-2.15,0.07-2.946
		c0.047-0.795,0.152-1.602,0.315-2.42c0.165-0.817,0.305-1.438,0.421-1.858c0.117-0.421,0.351-1.216,0.702-2.385
		c0.351-1.169,0.643-2.104,0.876-2.807c0.046-0.14,0.105-0.373,0.175-0.701c0.07-0.326,0.128-0.561,0.176-0.701
		c0.046-0.141,0.186-0.607,0.42-1.403c0.281-1.027,0.491-1.776,0.631-2.244c0.046-0.233,0.164-0.572,0.351-1.017
		c0.186-0.444,0.338-0.842,0.455-1.192c0.117-0.352,0.223-0.702,0.316-1.053s0.094-0.643,0-0.877
		c-0.094-0.233-0.305-0.373-0.631-0.421c-0.749-0.093-1.192-0.21-1.333-0.351c-0.141-0.093-0.351-0.221-0.631-0.386
		c-0.281-0.163-0.491-0.291-0.631-0.386c-0.233-0.233-0.374-0.443-0.421-0.631c0.188-0.094,0.305-0.141,0.351-0.141
		c0.328-0.046,0.807-0.141,1.438-0.28c0.631-0.141,1.11-0.257,1.438-0.351c0.421-0.094,1.099-0.187,2.034-0.281
		c0.373-0.093,0.607-0.28,0.701-0.561c0.047-0.094,0.164-0.339,0.352-0.736c0.186-0.397,0.303-0.713,0.35-0.947
		c0.187-0.327,0.491-0.958,0.912-1.894s0.771-1.637,1.053-2.104c0.794-1.263,1.565-2.245,2.314-2.946
		c0.093-0.14,0.256-0.326,0.49-0.561c0.327-0.233,0.632-0.327,0.912-0.281c0.047,0.048,0.257,0.048,0.631,0
		c0.375-0.046,0.607-0.07,0.702-0.07c0.046,0,0.093-0.022,0.14-0.069c0.795-0.187,1.334,0.14,1.613,0.981
		c0.327,0.655,0.492,1.403,0.492,2.245c0,0.28,0.045,0.655,0.14,1.122c0.093,0.28,0.093,0.608,0,0.981
		c-0.095,0.469-0.165,0.842-0.21,1.123l-0.422,1.683c0,0.235-0.023,0.421-0.069,0.562c0.14,0.095,0.374,0.141,0.701,0.141
		c0.28-0.046,0.712-0.094,1.298-0.141c0.584-0.046,1.018-0.07,1.297-0.07h3.648c0.14,0,0.28,0.013,0.42,0.035
		c0.141,0.024,0.292,0.06,0.457,0.105c0.162,0.047,0.314,0.07,0.455,0.07l-0.28,0.421c-0.14,0.14-0.305,0.257-0.491,0.351
		c-0.188,0.094-0.445,0.223-0.771,0.386c-0.328,0.164-0.586,0.27-0.771,0.315l-0.07,0.07c-0.141,0-0.503,0.07-1.087,0.21
		c-0.585,0.141-1.042,0.188-1.368,0.141c-0.468,0-0.959,0.07-1.473,0.21c-0.094,0.048-0.258,0.095-0.491,0.141
		c-0.234,0.047-0.374,0.07-0.421,0.07c-0.188,0-0.455,0.024-0.807,0.07c-0.351,0.047-0.62,0.094-0.807,0.14
		c-0.234,0.048-0.421,0.235-0.561,0.562l-0.07,0.07c0,0.094-0.024,0.14-0.07,0.14c-0.328,0.89-0.831,2.129-1.508,3.718
		c-0.679,1.591-1.135,2.666-1.368,3.227c-0.188,0.375-0.305,0.632-0.351,0.771c-0.375,0.796-0.655,1.497-0.842,2.104
		c-0.188,0.516-0.491,1.122-0.912,1.824c-0.094,0.14-0.176,0.397-0.245,0.771c-0.07,0.374-0.175,0.655-0.315,0.842
		c-0.375,0.889-0.736,2.408-1.088,4.559c-0.35,2.151-0.502,3.882-0.455,5.19c0.045,0.937,0.28,2.012,0.701,3.227l0.631,0.842h0.07
		c0.094,0.047,0.163,0.07,0.211,0.07c1.355,0,2.197-0.116,2.524-0.351c0.562-0.374,1.544-1.146,2.946-2.314
		c2.15-2.15,3.53-3.834,4.139-5.051c0.186-0.374,0.443-1.017,0.771-1.929c0.326-0.912,0.607-1.554,0.842-1.929
		C160.729,34.692,161.174,33.686,161.875,32.143z M150.372,25.059c0.467-1.263,0.935-2.361,1.403-3.297
		c0.42-1.028,0.561-1.706,0.42-2.034c-0.141-0.326-0.748-0.21-1.823,0.351c-0.28,0.889-0.597,2.012-0.947,3.367
		c-0.351,1.356-0.597,2.269-0.736,2.735c-0.655,2.385-0.726,3.297-0.21,2.735C148.992,28.31,149.623,27.022,150.372,25.059z
		 M153.528,15.87c0.187-0.936,0.327-1.659,0.421-2.175c0.046-0.187,0.116-0.514,0.211-0.981c0.045-0.187,0.104-0.468,0.175-0.842
		s0.105-0.654,0.105-0.842c0.046-0.421,0.022-1.053-0.07-1.895c-0.095-0.326-0.234-0.396-0.421-0.21
		c-0.328,0.234-0.538,0.468-0.631,0.701c-0.375,0.701-0.609,1.31-0.701,1.824c0,0.094-0.048,0.21-0.141,0.351
		c-0.095,0.14-0.141,0.234-0.141,0.28c-0.188,0.375-0.328,0.679-0.421,0.912c-0.234,1.122-0.397,1.871-0.491,2.244
		c-0.141,0.889,0.116,1.38,0.771,1.474C152.85,16.806,153.294,16.525,153.528,15.87z"/>
	<path fill="#FB385F" d="M186.494,31.862c0.374,0.047,0.771,0.28,1.192,0.701c-0.047,0.281-0.199,0.726-0.456,1.333
		c-0.258,0.608-0.48,0.981-0.666,1.122c-0.094,0.047-0.176,0.117-0.246,0.211s-0.129,0.14-0.175,0.14
		c-0.375,0.468-0.632,0.771-0.771,0.912c-0.28,0.234-0.421,0.397-0.421,0.491c-0.141,0.327-0.421,0.608-0.842,0.842
		c-0.188,0.094-0.305,0.188-0.351,0.28c-0.14,0.188-0.386,0.433-0.737,0.736c-0.35,0.305-0.572,0.503-0.666,0.597
		c-0.375,0.327-0.818,0.561-1.332,0.701c-0.095,0.047-0.352,0.094-0.771,0.141c-0.422,0.047-0.749,0.117-0.982,0.21
		c-0.188,0.095-0.48,0.164-0.877,0.211c-0.397,0.047-0.643,0.094-0.736,0.14h-0.631c-1.311-0.421-2.104-0.747-2.385-0.981
		c-0.047-0.047-0.165-0.116-0.352-0.211c-0.795-0.326-1.356-0.725-1.684-1.192c-0.654,0.328-1.146,0.632-1.473,0.912
		c-0.234,0.14-0.49,0.305-0.771,0.491l-0.141,0.069c-0.188,0.235-0.701,0.516-1.543,0.842c-1.076,0.328-2.033,0.258-2.875-0.21
		c-0.234-0.141-0.586-0.304-1.053-0.491c-2.011-0.842-3.133-2.36-3.367-4.56c-0.14-1.075,0.047-2.127,0.562-3.156
		c0.654-1.215,1.216-2.08,1.684-2.595c0-0.046,0.046-0.116,0.14-0.211c0.562-0.888,1.59-2.221,3.087-3.998
		c0.794-0.842,1.683-1.566,2.665-2.174c0.187-0.094,0.396-0.141,0.631-0.141c0.563-0.093,1.006-0.141,1.334-0.141h0.21
		c0.14,0.095,0.396,0.165,0.771,0.211c0.374,0.047,0.606,0.094,0.701,0.14c0.187,0.095,0.327,0.141,0.421,0.141
		c0.421,0.095,0.678,0.211,0.771,0.351l0.141,0.07c0.141,0,0.304,0.06,0.49,0.176c0.188,0.117,0.352,0.175,0.492,0.175
		c0.14,0,0.256,0.047,0.35,0.141c0.748,0.748,1.146,1.169,1.193,1.263c0.046,0.047,0.093,0.14,0.141,0.28
		c0.045,0.141,0.069,0.234,0.069,0.28c0.141,0.608-0.069,1.076-0.632,1.403c-0.42,0.188-1.006,0.561-1.753,1.122v0.07
		c-1.45,1.45-2.222,2.244-2.314,2.385c-0.188,0.234-0.468,0.538-0.842,0.912c-0.188,0.188-0.749,0.936-1.684,2.244
		c-0.095,0.141-0.327,0.468-0.701,0.982c-0.095,0.094-0.188,0.234-0.28,0.421c-0.422,0.795-0.702,1.566-0.842,2.314v0.28
		c0.093-0.046,0.186-0.116,0.28-0.21c0.794-0.795,1.565-1.474,2.314-2.034c0.467-0.374,0.817-0.771,1.052-1.192
		c0.094-0.141,0.281-0.351,0.562-0.632c0.562-0.654,0.958-1.168,1.192-1.543c0.654-1.028,1.146-1.823,1.473-2.385
		c0.702-0.093,1.216,0.07,1.543,0.491l0.422,0.421c0.326,0.421,0.537,1.099,0.631,2.034c0,0.047-0.047,0.164-0.141,0.351
		c-0.28,0.655-0.607,1.31-0.981,1.964c-0.188,0.515-0.258,1.006-0.21,1.473c0.14,0.655,0.35,1.24,0.631,1.754
		c0.141,0.234,0.351,0.351,0.631,0.351c0.654-0.093,1.146-0.21,1.473-0.351c0.748-0.374,1.193-0.607,1.334-0.701
		c0.654-0.374,1.168-0.678,1.543-0.912c0.14-0.141,0.338-0.315,0.596-0.526c0.256-0.21,0.432-0.361,0.525-0.456
		c0.327-0.28,0.865-0.958,1.613-2.034c0.748-1.075,1.286-1.776,1.613-2.104l0.07-0.07C186.447,31.933,186.494,31.909,186.494,31.862
		z"/>
	<path fill="#FB385F" d="M210.482,31.512c-0.188,0.889-0.702,1.823-1.543,2.806c-0.141,0.188-0.352,0.479-0.632,0.877
		s-0.491,0.69-0.632,0.876c-0.515,0.749-0.936,1.474-1.262,2.175c0,0.141-0.024,0.211-0.07,0.211
		c-0.842,1.216-1.311,1.87-1.403,1.964c-1.028,1.122-1.777,1.918-2.244,2.385c-0.749,0.655-1.544,1.239-2.385,1.753
		c-1.871,1.076-3.063,1.613-3.577,1.613c-0.141,0-0.736-0.022-1.789-0.069s-1.648-0.023-1.789,0.069
		c-0.561,0.095-1.894-0.256-3.998-1.052c-1.076-0.467-1.988-0.982-2.734-1.543c-1.309-1.028-2.059-2.548-2.245-4.56
		c-0.141-1.168-0.141-2.36,0-3.577c0.095-0.701,0.234-1.402,0.421-2.104c0.047-0.186,0.141-0.443,0.28-0.771
		c0.14-0.326,0.235-0.561,0.28-0.701c0.141-0.467,0.818-1.847,2.035-4.139c0.092-0.093,0.197-0.233,0.314-0.421
		c0.117-0.187,0.199-0.326,0.246-0.421c0.701-1.027,1.309-1.753,1.824-2.174c0.186-0.141,0.443-0.362,0.771-0.667
		c0.326-0.303,0.631-0.571,0.911-0.807c0.28-0.233,0.562-0.443,0.842-0.631c0.467-0.326,0.958-0.491,1.474-0.491
		c0.14,0,0.35-0.046,0.631-0.14c0.607-0.281,1.145-0.397,1.613-0.352c0.046,0.048,0.07,0.048,0.07,0
		c0.795-0.046,1.566,0.188,2.314,0.702l0.07,0.069c0.046,0,0.093,0,0.141,0c0.093,0,0.162-0.022,0.21-0.069
		c0.233-0.141,0.421-0.164,0.562-0.07c0.232,0.234,0.326,0.491,0.28,0.771c-0.095,0.28-0.07,0.585,0.069,0.912
		c0.047,0,0.07,0.047,0.07,0.14v0.141l-0.42,0.631c0.093,0.562,0.186,0.982,0.28,1.263c0.14,0.608,0.21,1.263,0.21,1.964
		c0,0.469-0.023,0.819-0.07,1.053c-0.234,1.169-0.631,2.361-1.191,3.577c-0.234,0.515-0.539,0.796-0.912,0.842
		c-0.047,0-0.117,0.012-0.211,0.035s-0.164,0.035-0.21,0.035c-0.188,0-0.328-0.047-0.421-0.141
		c-0.188-0.187-0.608-0.444-1.263-0.771c0-0.046-0.024-0.07-0.07-0.07c-0.047,0-0.095-0.023-0.14-0.07
		c-0.234-0.187-0.328-0.421-0.281-0.701c0.094-0.467,0.164-0.795,0.211-0.982c0.607-2.104,1.052-3.46,1.332-4.067
		c0-0.141,0.023-0.281,0.07-0.421c-0.047,0.047-0.094,0.094-0.141,0.14l-0.14,0.07c-0.048,0.141-0.608,0.936-1.684,2.385
		c-0.562,0.749-1.052,1.591-1.474,2.525c-0.187,0.421-0.467,1.017-0.841,1.788c-0.375,0.771-0.655,1.345-0.842,1.719
		c-0.375,0.701-0.796,1.848-1.263,3.438c-0.047,0.047-0.117,0.421-0.211,1.122c-0.094,0.515-0.023,1.006,0.211,1.473
		c0.141,0.28,0.351,0.749,0.631,1.403c0.094,0.188,0.281,0.468,0.562,0.842c0.233,0.094,0.467,0.129,0.702,0.104
		c0.232-0.022,0.584-0.104,1.051-0.245c0.468-0.141,0.748-0.211,0.842-0.211c0.795-0.093,1.859-0.443,3.191-1.052
		c1.334-0.607,2.326-1.192,2.982-1.754c0.232-0.186,0.642-0.514,1.227-0.981c0.584-0.467,1.11-0.9,1.578-1.298
		c0.467-0.396,0.842-0.76,1.123-1.087l1.052-1.263c0.187-0.28,0.712-0.795,1.578-1.543c0.864-0.748,1.413-1.286,1.648-1.613
		c0.093-0.187,0.396-0.467,0.911-0.842c0.515-0.374,0.818-0.632,0.912-0.771c0.047-0.094,0.094-0.046,0.141,0.14
		C210.317,31.301,210.388,31.512,210.482,31.512z"/>
	<path fill="#FB385F" d="M228.297,32.143c0.094,0,0.257-0.022,0.491-0.07l0.28,0.07c0,0.141-0.035,0.27-0.105,0.386
		c-0.069,0.117-0.082,0.246-0.035,0.386c0.094,0.421-0.187,1.287-0.841,2.596c-0.141,0.375-0.362,0.936-0.667,1.684
		s-0.525,1.31-0.666,1.684l-1.894,3.577c-0.141,0.234-0.784,1.087-1.929,2.56c-1.146,1.474-1.813,2.28-2,2.42
		c-0.327,0.234-0.889,0.749-1.683,1.543c-0.796,0.795-1.333,1.286-1.613,1.474c-1.029,0.654-2.081,1.052-3.157,1.192
		c-1.262,0.093-2.174,0.07-2.734-0.07c-0.702-0.095-1.509-0.562-2.42-1.403c-0.912-0.841-1.555-1.637-1.93-2.385
		c-0.607-1.075-0.935-1.706-0.982-1.894c-0.279-0.935-0.467-2.08-0.561-3.437c0-1.169,0.024-2.15,0.07-2.946
		c0.047-0.795,0.152-1.602,0.315-2.42c0.165-0.817,0.305-1.438,0.421-1.858c0.117-0.421,0.351-1.216,0.701-2.385
		c0.352-1.169,0.644-2.104,0.877-2.807c0.047-0.14,0.105-0.373,0.176-0.701c0.07-0.326,0.128-0.561,0.176-0.701
		c0.045-0.141,0.186-0.607,0.42-1.403c0.281-1.027,0.491-1.776,0.631-2.244c0.047-0.233,0.164-0.572,0.352-1.017
		c0.186-0.444,0.338-0.842,0.455-1.192c0.117-0.352,0.223-0.702,0.316-1.053s0.094-0.643,0-0.877
		c-0.094-0.233-0.305-0.373-0.631-0.421c-0.749-0.093-1.193-0.21-1.333-0.351c-0.141-0.093-0.351-0.221-0.632-0.386
		c-0.28-0.163-0.49-0.291-0.631-0.386c-0.233-0.233-0.374-0.443-0.421-0.631c0.188-0.094,0.305-0.141,0.351-0.141
		c0.328-0.046,0.807-0.141,1.438-0.28c0.632-0.141,1.111-0.257,1.438-0.351c0.421-0.094,1.099-0.187,2.034-0.281
		c0.373-0.093,0.607-0.28,0.701-0.561c0.047-0.094,0.164-0.339,0.352-0.736c0.186-0.397,0.303-0.713,0.35-0.947
		c0.187-0.327,0.491-0.958,0.912-1.894s0.771-1.637,1.053-2.104c0.794-1.263,1.565-2.245,2.314-2.946
		c0.093-0.14,0.256-0.326,0.49-0.561c0.327-0.233,0.632-0.327,0.912-0.281c0.047,0.048,0.257,0.048,0.631,0
		c0.375-0.046,0.607-0.07,0.702-0.07c0.046,0,0.093-0.022,0.14-0.069c0.795-0.187,1.334,0.14,1.613,0.981
		c0.327,0.655,0.492,1.403,0.492,2.245c0,0.28,0.045,0.655,0.14,1.122c0.093,0.28,0.093,0.608,0,0.981
		c-0.095,0.469-0.165,0.842-0.21,1.123l-0.422,1.683c0,0.235-0.023,0.421-0.069,0.562c0.14,0.095,0.374,0.141,0.701,0.141
		c0.28-0.046,0.712-0.094,1.298-0.141c0.584-0.046,1.018-0.07,1.297-0.07h3.648c0.14,0,0.28,0.013,0.42,0.035
		c0.141,0.024,0.292,0.06,0.457,0.105c0.162,0.047,0.314,0.07,0.455,0.07l-0.28,0.421c-0.14,0.14-0.305,0.257-0.491,0.351
		c-0.188,0.094-0.445,0.223-0.771,0.386c-0.328,0.164-0.586,0.27-0.771,0.315l-0.07,0.07c-0.141,0-0.503,0.07-1.087,0.21
		c-0.585,0.141-1.042,0.188-1.368,0.141c-0.468,0-0.959,0.07-1.473,0.21c-0.094,0.048-0.258,0.095-0.491,0.141
		c-0.234,0.047-0.374,0.07-0.421,0.07c-0.188,0-0.455,0.024-0.807,0.07c-0.351,0.047-0.62,0.094-0.807,0.14
		c-0.234,0.048-0.421,0.235-0.561,0.562l-0.07,0.07c0,0.094-0.024,0.14-0.07,0.14c-0.328,0.89-0.831,2.129-1.508,3.718
		c-0.679,1.591-1.135,2.666-1.368,3.227c-0.188,0.375-0.305,0.632-0.351,0.771c-0.375,0.796-0.655,1.497-0.842,2.104
		c-0.188,0.516-0.491,1.122-0.912,1.824c-0.094,0.14-0.176,0.397-0.245,0.771c-0.07,0.374-0.175,0.655-0.315,0.842
		c-0.375,0.889-0.736,2.408-1.088,4.559c-0.35,2.151-0.502,3.882-0.455,5.19c0.045,0.937,0.28,2.012,0.701,3.227l0.631,0.842h0.07
		c0.094,0.047,0.163,0.07,0.211,0.07c1.355,0,2.197-0.116,2.524-0.351c0.562-0.374,1.544-1.146,2.946-2.314
		c2.15-2.15,3.53-3.834,4.139-5.051c0.186-0.374,0.443-1.017,0.771-1.929c0.326-0.912,0.607-1.554,0.842-1.929
		C227.15,34.692,227.596,33.686,228.297,32.143z M216.794,25.059c0.467-1.263,0.935-2.361,1.403-3.297
		c0.42-1.028,0.561-1.706,0.42-2.034c-0.141-0.326-0.748-0.21-1.823,0.351c-0.28,0.889-0.597,2.012-0.947,3.367
		c-0.351,1.356-0.597,2.269-0.736,2.735c-0.655,2.385-0.726,3.297-0.21,2.735C215.414,28.31,216.045,27.022,216.794,25.059z
		 M219.95,15.87c0.187-0.936,0.327-1.659,0.421-2.175c0.046-0.187,0.116-0.514,0.211-0.981c0.045-0.187,0.104-0.468,0.175-0.842
		s0.105-0.654,0.105-0.842c0.046-0.421,0.022-1.053-0.07-1.895c-0.095-0.326-0.234-0.396-0.421-0.21
		c-0.328,0.234-0.538,0.468-0.631,0.701c-0.375,0.701-0.609,1.31-0.701,1.824c0,0.094-0.048,0.21-0.141,0.351
		c-0.095,0.14-0.141,0.234-0.141,0.28c-0.188,0.375-0.328,0.679-0.421,0.912c-0.234,1.122-0.397,1.871-0.491,2.244
		c-0.141,0.889,0.116,1.38,0.771,1.474C219.271,16.806,219.716,16.525,219.95,15.87z"/>
</g>
</svg>
