<?xml version="1.0" encoding="utf-8"?>
<!-- Generator: Adobe Illustrator 16.0.0, SVG Export Plug-In . SVG Version: 6.00 Build 0)  -->
<!DOCTYPE svg PUBLIC "-//W3C//DTD SVG 1.1//EN" "http://www.w3.org/Graphics/SVG/1.1/DTD/svg11.dtd">
<svg version="1.1" id="Layer_1" xmlns="http://www.w3.org/2000/svg" xmlns:xlink="http://www.w3.org/1999/xlink" x="0px" y="0px"
	 width="171px" height="55px" viewBox="0 0 171 55" enable-background="new 0 0 171 55" xml:space="preserve">
<g enable-background="new    ">
	<path fill="#FB385F" d="M13.412,13.305c0.19-0.266,0.485-0.637,0.885-1.113c0.399-0.476,0.675-0.828,0.828-1.057
		c0.19-0.229,0.476-0.608,0.856-1.142c0.685-1.065,1.693-1.789,3.027-2.17c0.342-0.114,0.723-0.038,1.142,0.228
		c0.608,0.268,1.161,0.343,1.656,0.229c0.723-0.114,1.161,0.02,1.313,0.4c0,0.076-0.01,0.171-0.028,0.285
		c-0.02,0.114-0.029,0.2-0.029,0.257c0,0.058,0,0.124,0,0.2c0.076,0.457-0.02,0.876-0.285,1.256
		c-0.039,0.039-0.057,0.134-0.057,0.286c0,0.381,0.019,0.628,0.057,0.742L22.72,11.82c-0.077,0.191-0.171,0.399-0.286,0.628
		s-0.22,0.534-0.314,0.914c-0.096,0.381-0.181,0.647-0.257,0.8c-1.18,2.932-1.447,4.264-0.799,3.997
		c0.494-0.19,1.561-1.37,3.198-3.541c0.19-0.532,0.571-1.085,1.143-1.655c0.228-0.343,0.646-0.886,1.256-1.628
		c0.608-0.742,1.046-1.322,1.313-1.742c1.371-1.789,2.893-3.273,4.568-4.454c0.076-0.076,0.257-0.219,0.542-0.429
		c0.286-0.208,0.514-0.352,0.686-0.428c0.171-0.076,0.352-0.095,0.542-0.058c0.608,0.077,1.123,0.286,1.542,0.629
		c0.419,0.381,0.743,0.78,0.971,1.199l0.229,0.114c0.533,0.114,0.799,0.685,0.799,1.713c0,0.038-0.029,0.114-0.086,0.229
		c-0.057,0.114-0.085,0.19-0.085,0.229c-0.99,2.247-1.562,3.826-1.713,4.739c-0.152,1.028-0.248,1.828-0.285,2.399
		c-0.039,0.152-0.086,0.514-0.143,1.085c-0.057,0.57-0.124,1.027-0.2,1.37c-0.153,1.104-0.4,1.847-0.743,2.228v0.229
		c0.076,0.152,0.114,0.267,0.114,0.343s-0.067,0.209-0.2,0.399c-0.134,0.19-0.22,0.324-0.257,0.399
		c-0.114,0.306-0.134,0.495-0.057,0.571c0.19,0.647,0.057,1.295-0.4,1.941l-0.057,0.114c0,0.077,0,0.152,0,0.229
		c-0.114,0.343-0.248,0.819-0.4,1.428l0.057-0.057c0.076-0.038,0.152-0.076,0.229-0.114c-0.038,0.19-0.219,0.542-0.542,1.056
		c-0.324,0.515-0.428,0.905-0.314,1.171c0.304,0,0.38,0.306,0.229,0.914c-0.534,2.056-0.838,3.198-0.914,3.427
		c0.038,0,0.057,0.02,0.057,0.057c0,0.038,0,0.077,0,0.114c0.114,0.191,0.095,0.533-0.057,1.028
		c-0.152,0.495-0.209,0.856-0.171,1.085c0,0.076-0.029,0.323-0.086,0.742s-0.028,0.705,0.086,0.856c0,0.343-0.21,0.724-0.628,1.143
		l-0.628,0.628c-0.191,0.419-0.333,0.666-0.428,0.742c-0.095,0.077-0.333,0.134-0.714,0.172c-0.038,0-0.085,0-0.143,0
		s-0.105,0.01-0.143,0.028c-0.039,0.02-0.096,0.037-0.171,0.057c-0.077,0.019-0.153,0.028-0.229,0.028
		c-0.457,0.076-0.743,0-0.856-0.228c-0.039-0.076-0.191-0.152-0.457-0.229c-0.838-0.19-1.047-0.723-0.628-1.6
		c0.343-1.18,0.704-3.121,1.085-5.824c0.037-0.152,0.171-0.647,0.399-1.485c0-0.037,0.086-0.352,0.257-0.942
		c0.171-0.59,0.333-1.037,0.485-1.342c0,0.077-0.02,0.2-0.057,0.371c-0.039,0.172-0.057,0.314-0.057,0.429
		c0.114-0.076,0.19-0.114,0.229-0.114c0.228-0.762,0.342-1.18,0.342-1.257c0-0.114,0.104-0.562,0.314-1.342
		c0.208-0.78,0.294-1.36,0.257-1.742c-0.077-0.075-0.077-0.151,0-0.229c0.19-0.189,0.286-0.476,0.286-0.856
		c0-0.38,0.076-0.665,0.228-0.856c0.076-0.076,0.114-0.171,0.114-0.285l0.057-0.229c-0.114-0.571,0.057-1.199,0.514-1.885v-0.285
		l-0.057-0.058c-0.267,0.571-0.628,1.428-1.085,2.57H30.03c0.457-2.589,0.59-3.931,0.4-4.026c-0.191-0.095-0.705,0.429-1.542,1.57
		c-0.381,0.495-0.934,1.238-1.656,2.228c-0.077-0.076-0.114-0.133-0.114-0.172l-0.171,0.058c0,0.076-0.038,0.19-0.114,0.343
		c-0.038,0.076-0.057,0.134-0.057,0.171c-0.229,0.609-0.667,1.104-1.313,1.485c-0.191,0.076-0.286,0.19-0.286,0.342
		c-0.191,0.153-0.362,0.382-0.514,0.686c-0.191,0.534-0.638,1.371-1.342,2.513c-0.705,1.143-1.514,2.39-2.427,3.741
		s-1.466,2.198-1.656,2.541c-0.152,0.267-0.799,0.934-1.941,1.999c0-0.419,0.038-0.686,0.114-0.8h-0.114
		c-0.039,0.076-0.305,0.457-0.8,1.142l-0.114-0.114c-0.267,0.571-0.781,0.972-1.542,1.199c-1.105,0.382-2.094,0.438-2.97,0.172
		c-1.066-0.305-1.656-0.514-1.771-0.628c-0.267-0.19-0.362-0.343-0.285-0.457c0-0.076,0.076-0.229,0.228-0.457
		c0.914-1.446,1.485-2.322,1.713-2.627c0.686-1.028,0.99-1.846,0.914-2.456c0.114-0.608,0.8-3.216,2.056-7.823
		c0.38-1.37,0.494-2.084,0.343-2.142c-0.153-0.057-0.571,0.371-1.256,1.285c-0.267,0.419-0.61,0.952-1.028,1.599
		c-0.914,1.447-1.562,2.38-1.941,2.799c-0.191,0.381-1.342,2.39-3.455,6.024c-2.113,3.636-3.303,6.292-3.569,7.967
		c-0.077,0.457-0.209,0.875-0.399,1.256c-0.305,0.457-0.609,0.571-0.914,0.343l-0.285-0.114c-0.19-0.457-0.723-0.762-1.599-0.914
		c-0.038,0-0.4-0.171-1.085-0.514c-0.076-0.076-0.057-0.229,0.057-0.457c0.724-1.332,1.39-3.217,1.999-5.653
		c0.039-0.151,0.096-0.476,0.171-0.971c0.077-0.494,0.171-0.895,0.286-1.199c0.077-0.305,0.381-1.171,0.914-2.599
		s0.837-2.256,0.914-2.484l0.686-2.741c0.114-0.38,0.257-0.932,0.428-1.655s0.333-1.38,0.485-1.971
		c0.152-0.59,0.304-1.151,0.457-1.685c0-0.037,0.037-0.2,0.114-0.485c0.076-0.285,0.114-0.504,0.114-0.657
		c0.038-0.951,0.38-2.284,1.028-3.997c0.037-0.114,0.104-0.323,0.2-0.628c0.095-0.305,0.18-0.533,0.257-0.686
		c0.114-0.38,0.266-0.8,0.457-1.257c0.19-0.418,0.418-0.57,0.685-0.456C8.9,10.184,9.071,10.307,9.3,10.479
		c0.229,0.171,0.38,0.313,0.457,0.428c0,0.039,0.057,0.343,0.171,0.914c-0.153,1.028-0.419,2.17-0.8,3.427
		c-0.457,2.17-0.229,2.969,0.686,2.398C10.613,17.151,11.813,15.703,13.412,13.305z M11.87,33.921h0.114
		c0.076-0.151,0.171-0.323,0.286-0.514v-0.286c-0.039,0.077-0.153,0.21-0.343,0.4C11.927,33.712,11.907,33.845,11.87,33.921z
		 M19.408,23.185c0.152-0.114,0.286-0.247,0.4-0.399c0.19-0.267,0.476-0.742,0.856-1.428c0.418-0.99,0.971-1.751,1.656-2.284
		c0.229-0.305,0.343-0.59,0.343-0.857c-0.419,0.382-0.991,1.124-1.713,2.228C20.226,21.548,19.712,22.462,19.408,23.185z
		 M24.547,15.817c0.457-0.151,0.743-0.399,0.857-0.742c0-0.151,0.076-0.304,0.228-0.457c0.343-0.342,0.694-0.856,1.057-1.542
		c0.361-0.685,0.618-1.122,0.771-1.313c-0.343,0.268-0.866,0.905-1.57,1.913C25.185,14.686,24.737,15.399,24.547,15.817z"/>
	<path fill="#FB385F" d="M60.524,30.037c0.951-1.027,1.979-2.207,3.083-3.54c0.343-0.419,0.723-0.971,1.143-1.656
		c0.151-0.229,0.266-0.419,0.342-0.571l0.057-0.057v0.229c-0.038,0.228,0.047,0.438,0.257,0.628c0.208,0.19,0.218,0.438,0.028,0.742
		c-0.685,0.876-1.066,1.409-1.142,1.599c0,0.114-0.086,0.268-0.257,0.457c-0.171,0.191-0.372,0.391-0.6,0.6
		c-0.229,0.21-0.362,0.353-0.4,0.429c-0.191,0.229-0.381,0.571-0.571,1.027c-0.495,0.648-0.838,1.086-1.028,1.313
		c-0.152,0.153-0.419,0.515-0.799,1.086c-0.191,0.381-0.457,0.762-0.8,1.142c-0.191,0.229-0.438,0.543-0.742,0.942
		c-0.305,0.399-0.628,0.791-0.971,1.171c-0.114,0.114-0.381,0.514-0.8,1.199c-0.419,0.686-0.705,1.085-0.856,1.199
		c-0.343,0.343-0.571,0.628-0.685,0.856c-0.153,0.151-1.019,0.6-2.599,1.342c-1.58,0.742-2.39,1.133-2.427,1.171l-0.342,0.343
		c-0.534,0.304-0.857,0.742-0.971,1.313c-0.305,0.761-0.876,1.865-1.713,3.313c-0.305,0.418-0.686,1.046-1.142,1.884
		c-0.267,0.647-0.686,1.237-1.256,1.771c-0.114,0.152-0.372,0.4-0.771,0.742c-0.4,0.343-0.676,0.647-0.828,0.914
		c-0.991,0.875-2.037,1.579-3.141,2.113c-0.495,0.266-1.562,0.399-3.198,0.399c-1.637,0.38-3.37,0-5.197-1.142
		c-1.828-1.143-2.913-2.514-3.255-4.112c-0.037-0.267,0.048-0.552,0.257-0.856c0.209-0.306,0.448-0.477,0.714-0.514
		c0.228-0.077,0.856-0.21,1.884-0.4c1.98-0.229,4.074-0.819,6.282-1.771c1.789-0.647,3.16-1.199,4.112-1.655
		c0.608-0.306,1.085-0.763,1.428-1.371c1.18-2.476,1.865-3.902,2.056-4.283c1.675-3.159,2.493-4.797,2.456-4.911
		c-0.038-0.114-0.552,0.114-1.542,0.686c-1.066,0.609-2.094,1.066-3.084,1.37c-0.343-0.075-0.876-0.332-1.599-0.771
		c-0.724-0.438-1.18-0.809-1.371-1.113l-0.914-1.313c-0.609-0.914-1.104-1.732-1.485-2.456c-0.38-0.723-0.533-1.218-0.457-1.484
		c0.077-0.229,0.152-0.429,0.228-0.6c0.077-0.172,0.114-0.333,0.114-0.485s0-0.457,0-0.914c0.077-0.571,0.238-1.285,0.485-2.142
		c0.248-0.856,0.429-1.589,0.542-2.198c0-0.076,0.124-0.429,0.372-1.057c0.247-0.628,0.371-1.075,0.371-1.342
		c0.114-0.19,0.333-0.762,0.657-1.714c0.323-0.951,0.6-1.561,0.828-1.827c0.342-0.723,0.704-1.332,1.085-1.827
		c0.229-0.305,0.437-0.533,0.628-0.686c0.076,0.038,0.181,0.105,0.314,0.2c0.133,0.095,0.218,0.162,0.257,0.199
		c0.152,0.267,0.856,0.8,2.113,1.6c0.229,0.229,0.4,0.419,0.514,0.57c0.038,0.039,0.076,0.114,0.114,0.229
		c0.038,0.114,0.076,0.172,0.114,0.172c0.647,0.457,1.046,1.219,1.199,2.284c0.151,0.533,0.095,1.142-0.171,1.827
		c-0.077,0.114-0.2,0.353-0.371,0.714c-0.171,0.362-0.334,0.638-0.485,0.828c-0.114,0.306-0.496,1.048-1.142,2.228
		c-0.114,0.267-0.343,0.666-0.686,1.199s-0.571,0.876-0.685,1.027c-0.077,0.077-0.191,0.248-0.343,0.515
		c-0.153,0.267-0.286,0.477-0.4,0.628c-1.941,2.97-2.284,4.303-1.028,3.997c1.408-0.343,3.94-2.15,7.595-5.425
		c1.522-1.371,2.436-2.303,2.741-2.798c0.266-0.381,0.428-0.638,0.485-0.771c0.057-0.133,0.114-0.275,0.171-0.428
		s0.18-0.419,0.371-0.8c0.19-0.19,0.647-0.78,1.371-1.771c0.229-0.419,0.418-0.686,0.571-0.8c0.228-0.266,0.457-0.343,0.685-0.229
		c0.266,0.114,0.514,0.467,0.743,1.057c0.228,0.591,0.266,1.076,0.114,1.456c0,0.268-0.114,0.496-0.342,0.686
		c-0.534,1.028-0.8,1.58-0.8,1.656c0,0.152-0.152,0.628-0.457,1.428c-0.914,1.79-1.504,3.274-1.771,4.454
		c-0.077,0.229-0.467,1.342-1.171,3.341c-0.705,1.999-1.076,3.151-1.113,3.455c-0.039,1.752,2.436,0.285,7.424-4.397
		C59.534,31.009,60.067,30.494,60.524,30.037z M32.542,49.055c-0.8,0.799-0.704,1.561,0.285,2.284
		c1.219,0.837,2.627,1.008,4.226,0.514c1.066-0.306,1.922-0.934,2.57-1.885c0.533-0.533,0.942-0.962,1.228-1.285
		c0.285-0.323,0.514-0.647,0.685-0.971s0.162-0.523-0.028-0.6c-0.191-0.076-0.6-0.048-1.228,0.086
		c-0.628,0.133-1.495,0.408-2.598,0.828c-0.875,0.229-2.189,0.494-3.94,0.8C33.284,48.901,32.884,48.978,32.542,49.055z"/>
	<path fill="#FB385F" d="M85.023,32.036c0.076-0.151,0.208-0.266,0.399-0.343c0.913-0.951,1.618-1.864,2.113-2.741
		c0.456-0.837,1.636-2.778,3.54-5.824c0.115-0.19,0.286-0.457,0.514-0.8c0.229-0.343,0.381-0.608,0.457-0.8
		c0.533-0.189,1.066-0.151,1.6,0.114c0.114,0.077,0.151,0.152,0.114,0.229c0,0.038-0.02,0.134-0.058,0.285
		c-0.152,0.61-0.096,1.143,0.172,1.6c0.189,0.19,0.247,0.419,0.172,0.686c-0.191,0.57-0.286,1.447-0.286,2.627v2.284
		c0,0.724,0.058,1.484,0.171,2.284c0,0.19,0.133,0.399,0.4,0.628c0-0.037,0.019-0.076,0.057-0.114
		c0.076-0.151,0.133-0.266,0.172-0.343c0.646-0.951,1.313-2.303,1.998-4.055c0.686-1.599,1.18-2.798,1.484-3.598
		c0.267-0.532,0.457-1.104,0.572-1.713c0.113-0.343,0.256-0.809,0.428-1.399c0.172-0.59,0.295-0.979,0.371-1.171
		c0-0.075,0.172-0.971,0.514-2.684c0-0.533,0.096-0.933,0.286-1.199c0.075-0.151,0.075-0.38,0-0.686
		c-0.077-0.343-0.058-0.628,0.058-0.856c0.037-0.114,0.133-0.2,0.285-0.257c0.151-0.058,0.266-0.066,0.342-0.028
		c0.076,0.076,0.209,0.171,0.4,0.285c0.189,0.114,0.343,0.229,0.457,0.343c0.113,0,0.171,0.096,0.171,0.285
		c0.038,0.343,0.095,0.819,0.171,1.428v0.286c0.076,0.267,0.209,0.57,0.4,0.913c0,0.534,0.057,0.876,0.172,1.028
		c0.189,0.419,0.229,0.895,0.113,1.428c-0.076,0.305-0.209,0.828-0.399,1.57s-0.343,1.323-0.457,1.741
		c-0.038,0.191-0.134,0.477-0.285,0.857c-0.153,0.381-0.248,0.647-0.286,0.799c-0.038,0.153-0.113,0.362-0.229,0.629
		c-0.113,0.267-0.171,0.476-0.171,0.628c-0.077,0.305-0.381,1.181-0.913,2.627c-0.077,0.076-0.153,0.229-0.229,0.457
		c-0.115,0.229-0.258,0.58-0.429,1.056c-0.171,0.477-0.334,0.849-0.485,1.114l-0.057,0.114c-0.039,0.038-0.058,0.076-0.058,0.114
		c-0.267,0.305-0.619,0.714-1.057,1.228c-0.438,0.514-0.677,0.81-0.714,0.885c-0.229,0.268-0.438,0.382-0.628,0.343
		c-0.343,0-0.667,0.058-0.972,0.172c-0.533,0.305-1.123,0.323-1.77,0.057c-0.114-0.037-0.305-0.086-0.571-0.143
		c-0.267-0.058-0.456-0.104-0.571-0.143c-0.267-0.076-0.666-0.323-1.199-0.742c-0.533-0.609-0.934-1.199-1.199-1.771
		c-0.038-0.114-0.096-0.276-0.171-0.485c-0.077-0.209-0.114-0.352-0.114-0.429l-0.114-0.343c-0.038,0-0.086,0.01-0.144,0.028
		c-0.057,0.021-0.104,0.049-0.143,0.086c-0.113,0.114-0.19,0.267-0.229,0.457l-0.627,0.8c-0.382,0.495-0.648,0.895-0.801,1.199
		c-0.342,0.267-0.59,0.591-0.742,0.971c-0.152,0.381-0.457,0.705-0.913,0.971c-0.114,0.038-0.286,0.124-0.514,0.257
		c-0.229,0.134-0.419,0.238-0.571,0.314c-0.039,0.038-0.4,0.171-1.085,0.399c-0.419,0.152-0.838,0.267-1.256,0.343
		c-0.342,0.114-0.724,0.171-1.142,0.171c-0.685-0.075-1.313-0.285-1.884-0.628c-0.267-0.114-0.534-0.343-0.8-0.686
		c-0.457-0.761-0.742-1.446-0.856-2.056c0-0.037-0.01-0.104-0.029-0.199c-0.02-0.095-0.028-0.162-0.028-0.2v-0.742
		c-0.19-0.762-0.171-2.036,0.057-3.826c0.19-1.333,0.514-2.646,0.971-3.94c0.229-0.647,0.571-1.656,1.028-3.027
		c0.343-0.646,0.609-1.256,0.8-1.827c0.266-0.686,0.704-1.789,1.313-3.313c0.19-0.38,0.514-0.913,0.971-1.599
		c0.076-0.266,0.286-0.571,0.628-0.914c0.685-0.075,1.104-0.114,1.256-0.114c0.114-0.037,0.228-0.057,0.342-0.057
		c1.447,0.19,2.627,0.686,3.541,1.484c0.113,0.077,0.305,0.381,0.57,0.914c0.076,0.152,0.076,0.477,0,0.971
		c-0.113,0.457-0.333,1.123-0.656,1.999c-0.324,0.876-0.523,1.428-0.6,1.656c-0.114,0.229-0.343,0.714-0.686,1.456
		c-0.342,0.742-0.57,1.305-0.686,1.685l-0.856,2.228l-0.229,0.456c-0.191,0.306-0.333,0.62-0.428,0.942
		c-0.096,0.324-0.171,0.677-0.229,1.057c-0.057,0.381-0.124,0.686-0.2,0.914c0,0.19-0.02,0.609-0.057,1.256
		c-0.039,0.648-0.02,1.066,0.057,1.257c0,0.038,0.028,0.105,0.085,0.199C84.995,31.932,85.023,31.999,85.023,32.036z"/>
	<path fill="#FB385F" d="M107.352,24.213c0-0.076-0.02-0.133-0.057-0.172c-0.533-0.837-0.895-2.036-1.085-3.598
		c-0.153-0.837,0.058-1.771,0.628-2.798c0.076-0.152,0.209-0.247,0.4-0.286c0.342-0.304,0.913-0.685,1.713-1.142
		c0.494-0.305,1.104-0.4,1.827-0.286c0.19,0,0.856,0.457,1.999,1.371c0.608,0.495,0.971,0.78,1.085,0.856
		c0.494,0.419,0.875,0.99,1.142,1.713c0.266,0.686,0.438,1.105,0.514,1.257c0.038,0.038,0.152,0.591,0.344,1.656
		c0.075,0.838,0.133,1.295,0.171,1.37c0.038,0.038,0.058,0.096,0.058,0.172c-0.039-0.267-0.039-0.247,0,0.057
		c0,0.306,0,0.477,0,0.514c0,0.153,0.008,0.485,0.027,1c0.02,0.514-0.01,0.828-0.085,0.942c-0.077,0.152-0.048,0.313,0.085,0.485
		c0.134,0.171,0.314,0.257,0.543,0.257c0.646-0.038,1.761-0.038,3.341,0c1.579,0.038,2.675-0.038,3.284-0.229l0.914-0.457
		c0.037-0.037,0.104-0.076,0.199-0.114c0.095-0.037,0.162-0.075,0.199-0.114c0.115,0.152,0.115,0.324,0,0.515
		c-0.037,0.076,0,0.181,0.115,0.313c0.113,0.134,0.133,0.238,0.057,0.314c-1.104,1.181-4.111,1.771-9.023,1.771h-0.171
		c-0.228,0-0.343,0.057-0.343,0.171c0,0.038-0.038,0.134-0.113,0.285c-0.039,0.268-0.4,1.22-1.086,2.855
		c-0.19,0.457-0.553,1.028-1.085,1.714c-0.343,0.533-0.609,0.856-0.8,0.971c-0.038,0.038-0.105,0.085-0.199,0.143
		c-0.096,0.057-0.162,0.105-0.2,0.143c-0.19,0.077-0.306,0.191-0.343,0.343c-0.495,0.571-1.027,0.934-1.599,1.085
		c-0.153,0-0.343,0.077-0.571,0.229c-0.647,0.191-1.428,0.21-2.342,0.057c-0.875-0.113-1.636-0.723-2.283-1.827l-0.515-1.542
		c-0.114-1.18-0.133-2.227-0.058-3.141c0.115-1.028,0.439-2.074,0.972-3.141c0.456-1.104,1.161-2.228,2.112-3.369
		C107.199,24.518,107.275,24.403,107.352,24.213z M114.147,23.128c0.114-0.533,0.095-0.99-0.057-1.371
		c-0.114-0.608-0.248-1.218-0.399-1.827c-0.191-0.608-0.457-1.065-0.801-1.371c-0.418-0.418-0.666-0.646-0.742-0.685
		c-0.381-0.343-0.723-0.59-1.027-0.743c-0.495-0.38-1.275-0.037-2.342,1.028c-0.533,0.686-0.752,1.466-0.656,2.342
		c0.094,0.876,0.322,1.676,0.686,2.398c0.361,0.724,0.809,1.37,1.342,1.941c0.837,1.638,1.799,2.237,2.884,1.799
		C114.119,26.202,114.49,25.031,114.147,23.128z M110.094,30.438c-0.344,0.495-0.705,1.313-1.086,2.455
		c-0.038,0.191-0.057,0.495-0.057,0.914c-0.039,0.038-0.02,0.134,0.057,0.285c0.152,0.343,0.361,0.571,0.629,0.686
		c0.037,0,0.075-0.019,0.113-0.057s0.115-0.095,0.229-0.172c0.8-0.837,1.543-2.056,2.228-3.654c0.075-0.152,0.151-0.305,0.229-0.457
		c0.075-0.152,0.143-0.323,0.2-0.515c0.057-0.189,0.104-0.322,0.143-0.399c-0.686-0.229-1.199-0.266-1.542-0.114
		C110.893,29.562,110.512,29.904,110.094,30.438z"/>
	<path fill="#FB385F" d="M128.652,28.553c-0.305,0.99-0.209,1.37,0.285,1.143c0.571-0.267,1.086-0.818,1.543-1.656
		c0.075-0.152,0.133-0.286,0.171-0.4c0.114-0.38,0.514-1.304,1.199-2.77c0.685-1.465,1.161-2.407,1.428-2.826
		c0.456-0.686,0.78-1.219,0.971-1.6c0.38-0.532,0.685-1.008,0.913-1.428c0.229-0.38,0.533-0.608,0.914-0.686
		c0.152,0,0.343-0.009,0.571-0.028c0.229-0.019,0.399-0.028,0.515-0.028c0.57,0,1.046,0.419,1.427,1.256v0.229
		c0.038,0.229,0.104,0.6,0.2,1.114c0.095,0.514,0.162,0.923,0.199,1.228c0.038,0.229,0.058,0.99,0.058,2.284v1.542
		c0.114,0.077,0.19,0.171,0.229,0.285l0.058,0.058c0.037-0.038,0.143-0.048,0.313-0.028s0.276,0.01,0.313-0.029
		c0.038-0.037,0.076-0.085,0.115-0.143c0.037-0.057,0.076-0.104,0.113-0.143c0.305-0.229,0.533-0.438,0.686-0.628
		c0.152-0.267,0.343-0.267,0.571,0c0,0.19-0.077,0.343-0.229,0.457c-0.038,0.038-0.095,0.134-0.171,0.285
		c-0.077,0.229-0.191,0.362-0.343,0.399l-0.171,0.172l-0.172,0.171c0,0.038-0.02,0.058-0.057,0.058c-0.039,0-0.077,0.02-0.115,0.057
		c-0.19,0.191-0.398,0.286-0.627,0.286c-0.153,0-0.324,0.076-0.515,0.228c-0.19,0.114-0.343,0.114-0.457,0
		c-0.152-0.075-0.371-0.161-0.657-0.257c-0.285-0.095-0.466-0.161-0.542-0.199c-0.685-0.152-1.181-0.686-1.484-1.6
		c-0.306-0.913-0.362-1.999-0.171-3.255c0.037-0.19,0.075-0.466,0.113-0.828c0.037-0.361,0.058-0.562,0.058-0.6l0.171-1.028
		c0.114-0.189,0.133-0.399,0.057-0.628c-0.113,0-0.171,0.02-0.171,0.058c-0.114,0.114-0.19,0.209-0.228,0.285
		c-0.077,0.152-0.153,0.306-0.229,0.457c-0.077,0.152-0.172,0.324-0.286,0.514c-0.114,0.191-0.21,0.343-0.286,0.457
		c-0.19,0.305-0.305,0.647-0.342,1.028c0,0.038-0.057,0.229-0.172,0.57c-0.609,1.181-1.047,2.171-1.313,2.97
		c-0.115,0.306-0.296,0.714-0.543,1.228c-0.248,0.515-0.41,0.867-0.486,1.057c-0.037,0.114-0.266,0.609-0.685,1.485
		s-0.705,1.562-0.856,2.056c-0.039,0.152-0.124,0.391-0.258,0.714c-0.133,0.324-0.219,0.523-0.256,0.6
		c-0.077,0.229-0.371,0.819-0.886,1.771c-0.514,0.952-0.848,1.484-0.999,1.599l-0.285,0.286c-0.496,0.724-1.295,0.951-2.398,0.685
		c-0.078,0.077-0.191,0.039-0.344-0.114c-0.799-0.189-1.332-0.933-1.599-2.227c-0.114-0.647-0.171-1.637-0.171-2.97
		c0.076-1.979,0.152-3.464,0.229-4.454c0.076-0.419,0.123-0.8,0.143-1.143c0.019-0.343,0.047-0.637,0.086-0.885
		c0.037-0.248,0.133-0.6,0.285-1.057c0.342-1.865,0.666-3.235,0.971-4.112c0.037-0.151,0.104-0.343,0.199-0.57
		c0.096-0.229,0.162-0.4,0.201-0.515c0.532-1.37,0.932-2.321,1.199-2.855c0.189-0.608,0.532-0.856,1.027-0.742
		c0.266,0,0.742,0.077,1.428,0.229c0.418,0.077,0.799,0.267,1.143,0.571c0.075,0.19,0.59,0.838,1.541,1.941
		c0.494,0.876,0.59,1.771,0.285,2.685c-0.076,0.381-0.18,0.619-0.313,0.714s-0.257,0.352-0.371,0.771
		c-0.229,0.8-0.685,1.895-1.37,3.283C129.338,26.773,128.881,27.83,128.652,28.553z"/>
	<path fill="#FB385F" d="M154.408,33.978c0.037,0.42,0.229,0.934,0.57,1.542c0.305,0.609,0.629,1.143,0.971,1.6
		c0.229,0.456,0.552,0.685,0.971,0.685c0.572,0.153,1.18,0.096,1.828-0.171c0.189-0.076,0.732-0.429,1.627-1.057
		s1.438-0.979,1.628-1.057c0.076-0.037,0.543-0.494,1.399-1.37s1.342-1.352,1.456-1.428c0.495-0.533,1.275-1.656,2.341-3.369
		c0.191-0.305,0.457-0.78,0.801-1.428c0.342-0.647,0.607-1.123,0.799-1.428c0.152-0.305,0.266-0.552,0.343-0.742l0.171-0.686
		c0.038,0.152,0.105,0.267,0.2,0.343s0.181,0.114,0.257,0.114s0.152,0,0.229,0s0.123,0.02,0.143,0.057
		c0.02,0.038,0.01,0.114-0.028,0.229c-0.114,0.267-0.171,0.514-0.171,0.742c-0.039,0.229-0.229,0.629-0.571,1.199
		c-0.343,0.571-0.515,0.877-0.515,0.914c-0.419,1.104-0.742,1.866-0.971,2.284v0.114c-0.113,0.191-0.313,0.533-0.6,1.028
		c-0.285,0.495-0.484,0.876-0.6,1.142c-1.827,2.056-3.008,3.332-3.54,3.826c-0.267,0.229-0.591,0.42-0.972,0.571
		c-0.19,0.077-0.809,0.495-1.855,1.256c-1.047,0.762-1.742,1.18-2.084,1.257c-0.953,0.19-1.542,0.285-1.771,0.285
		c-0.952,0.076-1.771-0.229-2.456-0.913c-0.457-0.534-0.762-0.914-0.914-1.143c-1.219-2.093-1.884-3.273-1.998-3.54
		c-0.076-0.076-0.152-0.172-0.229-0.286s-0.143-0.2-0.199-0.257c-0.058-0.057-0.115-0.114-0.172-0.171
		c-0.057-0.058-0.114-0.076-0.172-0.058c-0.057,0.02-0.123,0.058-0.199,0.114c-0.077,0.058-0.152,0.143-0.229,0.257
		c-0.039,0.038-0.076,0.152-0.114,0.343c-0.038,0.191-0.077,0.306-0.114,0.343c-0.152,0.229-0.343,0.571-0.571,1.028
		c-0.077,0.305-0.248,0.666-0.514,1.085c-0.229,0.229-0.457,0.323-0.686,0.285c-0.381,0-0.667,0.096-0.856,0.285
		c-0.609,0.268-1.076,0.392-1.398,0.372c-0.324-0.02-0.695-0.219-1.114-0.601c-0.876-0.532-1.446-1.579-1.714-3.141
		c-0.037-0.075-0.057-0.189-0.057-0.343c0.039-0.266,0.02-1.16-0.057-2.684c-0.037-0.494-0.02-1.637,0.057-3.427
		c0-0.037,0.029-0.247,0.086-0.628c0.057-0.38,0.086-0.666,0.086-0.856c0.038-0.914,0.342-2.475,0.914-4.683
		c0.418-1.408,0.723-2.322,0.913-2.741c0.343-1.065,0.971-2.665,1.884-4.797c0.115-0.229,0.276-0.571,0.486-1.028
		c0.209-0.457,0.39-0.8,0.543-1.028c0.607-1.37,1.731-3.388,3.369-6.053c1.142-1.6,2.018-2.685,2.627-3.256
		c0.037-0.037,0.209-0.189,0.514-0.456s0.551-0.476,0.742-0.629c0.229-0.189,0.704-0.322,1.428-0.399l0.114,0.057
		c0.075,0.077,0.133,0.135,0.171,0.172c0.115,0.267,0.629,0.762,1.542,1.484c0.989,0.763,1.865,1.733,2.627,2.913
		c0.38,0.495,0.571,1.123,0.571,1.884v0.515c-0.076,0.343-0.267,0.514-0.571,0.514c-0.038-0.037-0.171-0.114-0.399-0.229
		c-0.039-0.037-0.114-0.104-0.229-0.2c-0.114-0.094-0.191-0.18-0.229-0.257c-0.533-0.418-1.085-0.343-1.656,0.229
		c-0.152,0.152-0.409,0.41-0.771,0.771c-0.361,0.362-0.637,0.638-0.827,0.828c0,0.076-0.114,0.267-0.343,0.57
		c-0.114,0.191-0.705,1.028-1.771,2.513c0,0.039-0.058,0.172-0.171,0.4c-0.306,0.762-0.591,1.352-0.857,1.771
		c-0.076,0.19-0.199,0.447-0.371,0.771c-0.171,0.324-0.334,0.628-0.484,0.914c-0.153,0.285-0.286,0.562-0.4,0.828
		c-0.152,0.267-0.362,0.666-0.629,1.199c-0.113,0.305-0.352,0.838-0.713,1.599c-0.362,0.762-0.619,1.352-0.771,1.771
		c-0.723,1.562-1.256,2.97-1.599,4.226c-0.038,0.114-0.086,0.267-0.144,0.457c-0.057,0.191-0.085,0.324-0.085,0.399
		c-0.306,1.371-0.477,2.095-0.515,2.171c-0.152,1.065-0.057,1.58,0.286,1.541c0.114-0.037,0.247-0.171,0.399-0.399
		c0.229-0.343,0.609-0.999,1.143-1.97c0.533-0.972,0.971-1.704,1.313-2.199c1.142-1.599,2.228-2.893,3.255-3.883
		c1.219-0.951,2.456-1.313,3.713-1.085c0.304,0,0.532,0.171,0.685,0.514c0.038,0.077,0.114,0.21,0.229,0.399
		c0.419,0.571,0.628,1.276,0.628,2.113c0,1.484-0.209,2.875-0.628,4.169c0,0.076-0.02,0.171-0.058,0.285s-0.057,0.21-0.057,0.286
		c-0.305,0.838-0.666,1.522-1.085,2.056c-0.114,0.114-0.267,0.267-0.457,0.457s-0.323,0.323-0.399,0.399
		c-0.381,0.495-0.819,0.838-1.314,1.028c-0.228,0.038-0.476,0.134-0.742,0.285c-0.076,0-0.133,0.038-0.171,0.114
		C154.502,33.921,154.445,33.978,154.408,33.978z M142.93,31.408c0.076-0.494,0.076-0.895,0-1.199v0.171V31.408z M154.865,24.384
		c-0.725,0.762-1.238,1.523-1.543,2.284c-0.305,0.8-0.533,1.295-0.685,1.485c-0.077,0.19-0.2,0.438-0.372,0.742
		c-0.17,0.305-0.295,0.552-0.371,0.742c-0.229,0.343-0.152,0.514,0.229,0.514c0.533-0.037,0.951-0.208,1.257-0.514
		c1.218-0.914,2.246-2.379,3.084-4.397c0.419-1.408,0.437-2.15,0.058-2.227C156.14,22.938,155.588,23.395,154.865,24.384z"/>
</g>
</svg>
