<?xml version="1.0" encoding="utf-8"?>
<!-- Generator: Adobe Illustrator 16.0.0, SVG Export Plug-In . SVG Version: 6.00 Build 0)  -->
<!DOCTYPE svg PUBLIC "-//W3C//DTD SVG 1.1//EN" "http://www.w3.org/Graphics/SVG/1.1/DTD/svg11.dtd">
<svg version="1.1" id="Layer_1" xmlns="http://www.w3.org/2000/svg" xmlns:xlink="http://www.w3.org/1999/xlink" x="0px" y="0px"
	 width="39px" height="15px" viewBox="0 0 39 15" enable-background="new 0 0 39 15" xml:space="preserve">
<title>2C7E9F95-0BB3-4427-9D1E-48E845472A32</title>
<desc>Created with sketchtool.</desc>
<g id="Home-Copy" transform="translate(-40.000000, -58.000000)">
	<g id="Page-1" transform="translate(41.000000, 59.000000)">
		<path id="Fill-1" fill="#FFFFFF" stroke="#FFFFFF" d="M36.861,2.28c0.055-0.469,0.161-0.884-0.512-0.977
			c-1.172-0.161-2.309-0.65-3.509-0.815c-1.138-0.157-2.251-0.384-3.411-0.376c-2.988,0.02-5.867,0.947-8.799,1.318
			c-1.225,0.155-2.486,0.193-3.712,0.049c-1.63-0.191-3.208-0.7-4.837-0.928c-1.456-0.204-2.93-0.417-4.395-0.425
			c-2.56-0.015-5.036,0.781-7.545,1.211c0,0.729-0.149,1.666,0.226,2.178c0.387,0.529,1.04,1.012,1.209,1.729
			c0.401,1.699,0.972,3.364,1.701,4.962c0.354,0.775,1.023,1.316,1.77,1.689c1.798,0.896,3.926,1.029,5.899,0.747
			c2.809-0.401,4.333-2.496,5.496-4.889c0.435-0.973,0.483-2.095,1.057-2.984c0.34-0.528,1.131-0.306,1.696-0.308
			c0.841-0.003,1.043,0.932,1.219,1.553c0.621,2.199,1.655,4.532,3.711,5.685c3.07,1.721,7.908,1.398,9.9-1.705
			c0.779-1.214,0.995-2.688,1.387-4.063c0.237-0.837,0.45-1.835,1.297-2.295C37.051,3.453,36.811,2.711,36.861,2.28"/>
		<path id="Stroke-3" fill="none" stroke="#FCFCFC" d="M15.183,8.323 M15.184,8.321 M3.091,7.407 M3.504,8.766L3.504,8.766
			 M36.861,2.28c0.055-0.469,0.161-0.884-0.512-0.977c-1.172-0.161-2.309-0.65-3.509-0.815c-1.138-0.157-2.251-0.384-3.411-0.376
			c-2.988,0.02-5.867,0.947-8.799,1.318c-1.225,0.155-2.486,0.193-3.712,0.049c-1.63-0.191-3.208-0.7-4.837-0.928
			c-1.456-0.204-2.93-0.417-4.395-0.425c-2.56-0.015-5.036,0.781-7.545,1.211c0,0.729-0.149,1.666,0.226,2.178
			c0.387,0.529,1.04,1.012,1.209,1.729c0.401,1.699,0.972,3.364,1.701,4.962c0.354,0.775,1.023,1.316,1.77,1.689
			c1.798,0.896,3.926,1.029,5.899,0.747c2.809-0.401,4.333-2.496,5.496-4.889c0.435-0.973,0.483-2.095,1.057-2.984
			c0.34-0.528,1.131-0.306,1.696-0.308c0.841-0.003,1.043,0.932,1.219,1.553c0.621,2.199,1.655,4.532,3.711,5.685
			c3.07,1.721,7.908,1.398,9.9-1.705c0.779-1.214,0.995-2.688,1.387-4.063c0.237-0.837,0.45-1.835,1.297-2.295
			C37.051,3.453,36.811,2.711,36.861,2.28L36.861,2.28z"/>
	</g>
</g>
</svg>
