<svg xmlns="http://www.w3.org/2000/svg" width="39" height="15" viewBox="0 0 39 15"><title>2C7E9F95-0BB3-4427-9D1E-48E845472A32</title><path fill="#000" stroke="#000" d="M37.86 3.28c.056-.47.162-.884-.51-.977-1.173-.16-2.31-.65-3.51-.815-1.138-.157-2.25-.384-3.41-.376-2.99.02-5.868.947-8.8 1.318-1.225.155-2.486.193-3.712.05-1.63-.192-3.208-.7-4.837-.93-1.455-.203-2.93-.416-4.394-.424-2.56-.015-5.036.78-7.545 1.21 0 .73-.148 1.667.227 2.18.387.528 1.04 1.01 1.21 1.728.4 1.7.97 3.364 1.7 4.962.354.775 1.023 1.316 1.77 1.69 1.798.895 3.926 1.028 5.9.746 2.808-.4 4.332-2.496 5.495-4.89.435-.972.483-2.094 1.057-2.983.34-.53 1.13-.307 1.695-.31.84-.002 1.043.933 1.22 1.554.62 2.2 1.654 4.532 3.71 5.685 3.07 1.72 7.908 1.397 9.9-1.706.78-1.214.995-2.688 1.387-4.063.237-.836.45-1.834 1.297-2.294.34-.183.1-.925.15-1.356"/><path fill="none" stroke="#000" d="M37.861999999999995 3.280999999999999c.056-.47.162-.884-.51-.977-1.173-.16-2.31-.65-3.51-.815-1.138-.157-2.25-.384-3.41-.376-2.99.02-5.868.947-8.8 1.318-1.225.155-2.486.193-3.712.05-1.63-.192-3.208-.7-4.837-.93-1.455-.203-2.93-.416-4.394-.424-2.56-.015-5.036.78-7.545 1.21 0 .73-.148 1.667.227 2.18.387.528 1.04 1.01 1.21 1.728.4 1.7.97 3.364 1.7 4.962.354.775 1.023 1.316 1.77 1.69 1.798.895 3.926 1.028 5.9.746 2.808-.4 4.332-2.496 5.495-4.89.435-.972.483-2.094 1.057-2.983.34-.53 1.13-.307 1.695-.31.84-.002 1.043.933 1.22 1.554.62 2.2 1.654 4.532 3.71 5.685 3.07 1.72 7.908 1.397 9.9-1.706.78-1.214.995-2.688 1.387-4.063.237-.836.45-1.834 1.297-2.294.34-.183.1-.925.15-1.356z"/></svg>
