<?xml version="1.0" encoding="utf-8"?>
<!-- Generator: Adobe Illustrator 16.0.0, SVG Export Plug-In . SVG Version: 6.00 Build 0)  -->
<!DOCTYPE svg PUBLIC "-//W3C//DTD SVG 1.1//EN" "http://www.w3.org/Graphics/SVG/1.1/DTD/svg11.dtd">
<svg version="1.1" id="Layer_1" xmlns="http://www.w3.org/2000/svg" xmlns:xlink="http://www.w3.org/1999/xlink" x="0px" y="0px"
	 width="287px" height="52px" viewBox="0 0 287 52" enable-background="new 0 0 287 52" xml:space="preserve">
<g>
	<path fill="#fb385f" d="M13.4,13.833c0.363-0.273,0.659-0.59,0.887-0.955c0.136-0.182,0.568-0.591,1.296-1.229
		c0.045-0.045,0.159-0.103,0.341-0.171c0.182-0.068,0.318-0.147,0.41-0.239c0.045-0.045,0.125-0.17,0.239-0.375
		c0.113-0.205,0.215-0.33,0.307-0.375c0.683-0.5,1.707-1.205,3.071-2.116c0.137-0.09,0.683-0.386,1.638-0.887
		c0.637-0.227,1.341-0.682,2.116-1.365c0.454-0.41,1.023-0.568,1.706-0.478c1,0.046,2.207,0.365,3.617,0.956
		c0.364,0.137,0.637,0.341,0.819,0.614c1.911,1.501,2.957,2.367,3.139,2.594c0.819,0.728,1.342,1.388,1.57,1.979
		c0.045,0.092,0.113,0.183,0.205,0.273c0.455,0.273,0.637,0.887,0.546,1.843c0,0.456,0.044,1.184,0.136,2.184
		c0.091,1.092-0.136,2.549-0.683,4.368c-0.091,0.273-0.478,1.229-1.16,2.866c-0.136,0.319-0.387,0.66-0.75,1.024
		c-0.229,0.228-0.592,0.535-1.092,0.921c-0.501,0.387-0.796,0.604-0.887,0.648c-0.546,0.409-1.138,0.478-1.774,0.205
		c-0.911-0.227-1.752-0.522-2.525-0.887c-0.728-0.227-1.023-0.751-0.887-1.57c0.318-1.774,0.568-3.23,0.751-4.368
		c0.273-1.638,0.478-2.912,0.614-3.822l0.068-0.614c0.044-0.364,0.09-0.637,0.136-0.819c-0.046-1.365-0.512-2.263-1.399-2.696
		c-0.887-0.432-1.911-0.432-3.071,0c-1.16,0.433-2.242,1.149-3.242,2.15c-0.501,0.501-0.887,1.047-1.16,1.638
		c-0.046,0.183-0.17,0.399-0.375,0.648c-0.205,0.25-0.307,0.399-0.307,0.444c-1.638,2.457-2.549,3.845-2.73,4.163
		c-0.046,0.046-0.319,0.706-0.819,1.979c-0.455,1.138-0.706,1.775-0.75,1.911c-0.273,0.819-0.751,2.003-1.434,3.549
		c-0.682,1.547-1.16,2.686-1.433,3.413c-0.41,1.001-0.796,2.025-1.16,3.071c-0.092,0.229-0.387,1.252-0.887,3.071
		c-0.365,1.684-0.433,3.14-0.205,4.368c0.182,0.501,0.386,0.842,0.614,1.023c0.546,0.41,1.092,0.729,1.638,0.956
		c-0.182,0.046-0.387,0.16-0.614,0.341c0.5,0.501,0.932,0.774,1.297,0.819c0.045,0.046,0.113,0.023,0.205-0.068
		c0.045-0.091,0.091-0.137,0.137-0.137c0.044,0.046,0.113,0.16,0.205,0.341c0.546-0.045,1.068-0.295,1.57-0.751
		c0.136-0.136,0.273-0.261,0.41-0.375c0.136-0.113,0.283-0.239,0.443-0.375c0.159-0.137,0.307-0.25,0.444-0.341
		c0,0.046,0.01,0.068,0.034,0.068c0.022,0,0.034,0.023,0.034,0.068c-0.091,0.091-0.216,0.262-0.375,0.512
		c-0.16,0.25-0.285,0.421-0.375,0.512v0.137c0.045,0,0.125-0.011,0.239-0.034c0.113-0.022,0.193-0.057,0.239-0.103
		c0.137-0.09,0.352-0.261,0.648-0.512c0.295-0.25,0.512-0.42,0.648-0.512c0.819-0.819,2.092-2.048,3.822-3.686
		c0.091-0.091,0.228-0.182,0.41-0.273c-0.046,0.182-0.455,0.66-1.229,1.433c-0.365,0.273-0.638,0.614-0.819,1.024
		c1.092-0.864,2.411-2.229,3.958-4.095c-0.092,0-0.229,0.046-0.41,0.137l-1.501,1.501c0.273-0.41,0.568-0.773,0.887-1.092
		c0.137-0.136,0.307-0.307,0.512-0.512c0.205-0.205,0.352-0.375,0.443-0.512c0.364-0.273,0.454-0.546,0.273-0.819
		c-0.092,0.046-0.365,0.205-0.819,0.478c0.045-0.228,0.205-0.478,0.478-0.751s0.432-0.454,0.478-0.546
		c-0.456-0.091-1.001-0.181-1.638-0.273l0.273-0.41c-0.182-0.227-0.433-0.341-0.75-0.341c-0.729-0.09-1.161-0.546-1.297-1.365h-0.41
		c-0.182-0.637-0.341-1.183-0.478-1.638c0.09,0,0.205-0.022,0.341-0.068c0.136-0.044,0.227-0.068,0.273-0.068
		c-0.273-0.637-0.478-1.137-0.614-1.501c0.318-0.228,0.5-0.341,0.546-0.341c0-0.045,0.011-0.147,0.034-0.307
		c0.022-0.159,0.034-0.284,0.034-0.375c0.045,0,0.09,0,0.136,0l0.137-0.068c0.683,0.319,1.183,0.569,1.501,0.751
		c0.454,0.319,0.795,0.455,1.024,0.409c0.363,0,0.636,0.046,0.819,0.137c0.227,0.136,0.75,0.205,1.57,0.205
		c2.274,0.092,4.071,0.137,5.392,0.137h1.774c-0.046-0.227-0.182-0.33-0.409-0.307c-0.229,0.023-0.433,0.012-0.614-0.034
		c0.181,0,0.42-0.011,0.716-0.034c0.295-0.022,0.534-0.057,0.717-0.103c0.318,0,0.546-0.022,0.683-0.068
		c0.637-0.182,1.068-0.045,1.296,0.409c0.137,0.273,0.432,0.58,0.887,0.921c0.455,0.341,0.705,0.536,0.751,0.58
		c0.273,0.365,0.432,0.57,0.478,0.614c0,0.092-0.125,0.319-0.375,0.683c-0.251,0.365-0.217,0.592,0.102,0.683
		c-0.136,0.273-0.365,0.455-0.682,0.546c-0.319,0.092-0.524,0.16-0.614,0.205c0.136,0.092,0.341,0.273,0.614,0.546
		c-0.046,0-0.103,0.024-0.171,0.068c-0.068,0.046-0.126,0.092-0.17,0.137c-0.046,0.046-0.092,0.068-0.137,0.068
		c-0.182,0-0.433,0.012-0.75,0.034c-0.319,0.024-0.57,0.058-0.751,0.103c-0.365,0-0.66,0.114-0.887,0.341
		c-0.137,0.092-0.228,0.114-0.273,0.068c-0.273-0.045-0.614,0.046-1.024,0.273c-0.409,0.228-0.66,0.341-0.75,0.341
		c-0.229,0.092-0.387,0.296-0.478,0.614c-0.365,0.592-0.638,1.206-0.819,1.843c-0.046,0.046-0.068,0.092-0.068,0.136
		c-0.046,0.092-0.068,0.16-0.068,0.205c-0.364,1.501-0.546,2.366-0.546,2.593c-0.136,1.32-0.16,2.093-0.068,2.32
		c0.045,0.046,0.068,0.137,0.068,0.273c0.045,0.364,0.079,0.921,0.103,1.672c0.022,0.751,0.034,1.331,0.034,1.74
		c-0.137-0.182-0.229-0.386-0.273-0.614c-0.183,0.092-0.273,0.205-0.273,0.341c-0.092,0.41-0.273,0.614-0.546,0.614l-0.068,0.137
		c-0.046,0.044-0.103,0.136-0.171,0.273c-0.068,0.136-0.148,0.25-0.239,0.341c-1.274-0.229-2.344-0.797-3.208-1.707l-0.273-0.205
		c-0.136-0.137-0.25-0.25-0.341-0.341h0.478c-0.046-0.273-0.103-0.705-0.171-1.297c-0.068-0.591-0.125-1.046-0.17-1.365
		c-0.41,0.592-0.478,1.457-0.205,2.593c-0.319-0.454-0.456-1.023-0.41-1.706c0.045-0.227,0.022-0.637-0.068-1.229
		c-0.273,0-0.614,0.205-1.023,0.614c-0.183,0.273-0.375,0.512-0.58,0.717c-0.205,0.205-0.478,0.433-0.819,0.682
		c-0.341,0.251-0.58,0.421-0.716,0.512c-0.729,0.638-1.365,1.069-1.911,1.296c-0.228,0.092-0.58,0.25-1.058,0.478
		c-0.478,0.227-0.853,0.386-1.126,0.478c-1.047,0.455-2.139,0.41-3.276-0.136C9.668,47.754,7.53,46.549,4.8,44.819
		c-0.5-0.182-0.705-0.432-0.614-0.751c-0.091-0.091-0.181-0.159-0.273-0.205c-0.318-0.091-0.5-0.181-0.546-0.273
		c0.091,0.046,0.205,0.068,0.341,0.068c0.136-0.363,0.045-0.568-0.273-0.614c-0.044,0-0.113-0.044-0.205-0.136l-0.136-0.205
		c-0.091-0.182-0.182-0.318-0.273-0.41c0.137,0,0.501,0.114,1.092,0.341c-0.227-0.864-0.568-2.116-1.024-3.754
		c-0.045,0-0.205,0.046-0.478,0.137c-0.045-0.091-0.182-0.341-0.41-0.751c-0.227-0.409-0.386-0.727-0.478-0.956
		c-0.137-0.136-0.273-0.205-0.41-0.205L0.5,36.902c0.137-0.091,0.296-0.137,0.478-0.137c0.229-1.319,0.888-3.162,1.979-5.528
		c0.137-0.227,0.307-0.614,0.512-1.16c0.205-0.546,0.353-0.956,0.444-1.229l1.229-2.047c1.092-1.911,1.843-3.162,2.252-3.754
		c0.819-1.229,1.434-2.252,1.843-3.071c0.137-0.273,0.205-0.432,0.205-0.478c-0.092-0.227-0.08-0.432,0.034-0.614
		c0.113-0.181,0.273-0.364,0.478-0.546c0.205-0.182,0.33-0.318,0.375-0.41c0.181,0,0.318-0.034,0.409-0.103
		c0.091-0.068,0.193-0.193,0.307-0.375c0.113-0.182,0.193-0.295,0.239-0.341c0.09-0.045,0.17-0.113,0.239-0.205
		c0.068-0.09,0.147-0.205,0.239-0.341c0.091-0.136,0.159-0.25,0.205-0.341c-0.091-0.045-0.228-0.068-0.409-0.068
		c0.727-1.046,1.365-1.819,1.911-2.321c0,0.046-0.045,0.137-0.136,0.273c-0.092,0.136-0.16,0.25-0.205,0.341
		c-0.046,0.092-0.046,0.251,0,0.478c0.136-0.227,0.273-0.478,0.409-0.751L13.4,13.833z M1.866,35.947
		c0-0.045,0.012-0.137,0.034-0.273c0.023-0.137,0.034-0.25,0.034-0.341C1.616,35.561,1.592,35.766,1.866,35.947z M2.275,34.787
		h0.068c0.092-0.182,0.137-0.318,0.137-0.41c0-0.045-0.045-0.068-0.137-0.068c0,0.092-0.011,0.183-0.034,0.273
		C2.287,34.673,2.275,34.742,2.275,34.787z M10.943,45.434l0.136-0.273c-0.046,0-0.125-0.022-0.239-0.068
		c-0.114-0.045-0.194-0.068-0.239-0.068c-0.046,0.046-0.068,0.092-0.068,0.137C10.624,45.252,10.76,45.343,10.943,45.434z"/>
	<path fill="#fb385f" d="M43.976,31.169c0,0.092-0.058,0.251-0.17,0.478c-0.114,0.228-0.171,0.41-0.171,0.546
		c0,0.137-0.092,0.25-0.273,0.341c-0.137,0.137-0.205,0.25-0.205,0.341c-0.046,0.228-0.16,0.365-0.341,0.41
		c-0.092,0.045-0.16,0.228-0.205,0.546c0.136,0,0.227,0.023,0.273,0.068v0.068h-0.478c0.045-0.136,0.068-0.318,0.068-0.546h-0.137
		l-0.205,1.433l0.273,0.137c0.045,0.319,0.068,0.774,0.068,1.365c0,0.365,0.091,0.774,0.273,1.229
		c0.045,0.092,0.193,0.433,0.444,1.024c0.25,0.592,0.42,0.933,0.512,1.024c1.456,1.457,2.525,2.208,3.208,2.252
		c0.318,0.046,1.205-0.068,2.662-0.341c1.546-0.454,3.116-1.296,4.709-2.525c0.455-0.318,1.081-0.83,1.877-1.536
		c0.795-0.705,1.308-1.148,1.536-1.331l0.205-0.205c0.137-0.137,0.341-0.364,0.614-0.683c0.273-0.318,0.478-0.546,0.614-0.683
		c0.864-0.864,1.546-1.66,2.048-2.389c0.273-0.454,0.546-0.727,0.819-0.819c-0.183,0.728-0.365,1.297-0.546,1.706
		c-0.092,0.229-0.205,0.41-0.341,0.546c-0.501,0.592-0.843,1.07-1.024,1.434c-0.092,0.092-0.216,0.228-0.375,0.409
		c-0.16,0.183-0.262,0.319-0.307,0.41c-0.046,0.046-0.091,0.114-0.136,0.205c-0.046,0.092-0.092,0.16-0.137,0.205
		c0.091,0,0.193-0.022,0.307-0.068c0.113-0.045,0.193-0.091,0.239-0.137c-0.045,0.137-0.136,0.285-0.273,0.444
		c-0.136,0.16-0.205,0.285-0.205,0.375l0.205,0.205c-0.136,0.228-0.365,0.501-0.682,0.819c-0.41,0.365-0.797,0.751-1.161,1.16
		c-0.409,0.456-1.069,1.047-1.979,1.775c-0.592,0.455-0.911,0.706-0.956,0.75c-0.092,0.046-0.228,0.137-0.41,0.273
		c-0.182,0.137-0.319,0.229-0.409,0.273c-0.546,0.273-0.956,0.501-1.229,0.683c-0.774,0.456-1.501,0.751-2.184,0.887l-0.614,0.205
		c-0.729,0.228-1.547,0.387-2.457,0.478c-0.456,0.046-1.422-0.057-2.9-0.307c-1.479-0.25-2.469-0.466-2.969-0.648
		c-0.728-0.273-1.32-0.58-1.774-0.921c-0.455-0.341-0.887-0.75-1.297-1.229c-0.409-0.478-0.706-0.785-0.887-0.921
		c-0.409-0.318-0.727-0.795-0.956-1.433c-0.227-0.591-0.386-1.546-0.478-2.867c0-2.001,0.478-4.026,1.433-6.074
		c0.137-0.273,0.182-0.614,0.137-1.023c-0.364,0.228-0.591,0.478-0.683,0.75c-0.181,0.501-0.454,1.092-0.819,1.774
		c0-0.273,0.16-0.773,0.478-1.501c0.592-1.319,1.229-2.479,1.911-3.48c0.727-1.137,1.57-2.184,2.525-3.14
		c1-1.092,2.024-1.956,3.071-2.593l0.682-0.341c0.455-0.182,0.751-0.137,0.887,0.136c0.091,0.092,0.205,0.148,0.341,0.171
		c0.137,0.023,0.227,0.058,0.273,0.102c0.091,0.046,0.171,0.137,0.239,0.273c0.068,0.137,0.125,0.229,0.17,0.273
		c0.181,0.091,0.819,0.319,1.911,0.682c1.092,0.365,1.751,0.614,1.979,0.751c0.137,0.092,0.295,0.319,0.478,0.683
		c0.546,1.001,0.91,1.569,1.092,1.706c0.091,0.046,0.181,0.25,0.273,0.614c0.137,0.956,0.137,1.774,0,2.457
		c-0.136,0.819-0.478,1.706-1.023,2.662c-0.41,0.729-0.66,1.206-0.751,1.433c-0.046,0.229-0.273,0.683-0.683,1.365
		c-0.273,0.501-0.682,0.842-1.229,1.024c-0.409,0.228-0.842,0.296-1.296,0.205c-0.319-0.091-0.501-0.181-0.546-0.273l-0.068-0.068
		c-0.229,0.046-0.49-0.068-0.785-0.341c-0.296-0.273-0.467-0.409-0.512-0.409c-0.092-0.091-0.137-0.205-0.137-0.341
		c0.045-0.091,0.022-0.295-0.068-0.614c-0.456-0.956-0.751-1.524-0.888-1.707C44.362,30.964,44.203,30.942,43.976,31.169z
		 M37.287,38.267l-0.137,0.068c0,0.046,0.023,0.126,0.068,0.239c0.046,0.114,0.091,0.217,0.137,0.307
		c0,0.046,0.034,0.148,0.102,0.307c0.068,0.16,0.057,0.262-0.034,0.307l-0.137-0.136c-0.227-0.455-0.432-1.273-0.614-2.457v-0.205
		c0-1.319,0.092-2.32,0.273-3.003c0.092-0.273,0.137-0.478,0.137-0.614v-0.478c-0.228,0.455-0.364,0.774-0.41,0.956
		c-0.045,0.136-0.091,0.296-0.137,0.478c-0.044,0.183-0.068,0.341-0.068,0.478c-0.318,1.957-0.137,3.572,0.546,4.846
		c0,0.045,0.182,0.296,0.546,0.75c0.091,0.092,0.25,0.183,0.478,0.273h0.205c-0.319-0.546-0.501-0.864-0.546-0.956
		c-0.046-0.136-0.103-0.329-0.171-0.58C37.458,38.598,37.378,38.404,37.287,38.267z M37.287,33.763
		c-0.091,0.092-0.137,0.16-0.137,0.205c-0.273,0.819-0.317,1.866-0.136,3.14l0.136,0.137c0.046-0.5,0.114-1.205,0.205-2.116
		C37.446,34.491,37.424,34.036,37.287,33.763z M47.661,26.323c-0.183,0.137-0.819,0.865-1.911,2.184
		c-0.273,0.41-0.433,0.66-0.478,0.751c-0.273,0.455-0.229,0.796,0.136,1.023c0.364,0.229,0.568,0.387,0.614,0.478
		c0.273,0.319,0.773,0.433,1.501,0.341c0.364-0.091,0.728-0.455,1.092-1.092c0.136-0.318,0.33-0.716,0.58-1.194
		c0.25-0.478,0.443-0.921,0.58-1.331c0.364-0.864,0.42-1.41,0.17-1.638c-0.25-0.227-0.604-0.284-1.058-0.17
		C48.434,25.789,48.025,26.006,47.661,26.323z"/>
	<path fill="#fb385f" d="M79.875,31.988c0.091,0,0.25-0.022,0.478-0.068l0.273,0.068c0,0.136-0.034,0.262-0.103,0.375
		c-0.068,0.114-0.08,0.239-0.034,0.375c0.091,0.41-0.182,1.252-0.819,2.525c-0.136,0.365-0.353,0.911-0.648,1.638
		c-0.296,0.728-0.512,1.274-0.648,1.638l-1.843,3.481c-0.136,0.228-0.762,1.058-1.876,2.491c-1.116,1.433-1.764,2.218-1.945,2.354
		c-0.319,0.228-0.865,0.729-1.638,1.501c-0.774,0.773-1.296,1.251-1.569,1.433c-1.001,0.637-2.025,1.024-3.071,1.16
		c-1.229,0.091-2.116,0.068-2.662-0.068c-0.682-0.092-1.467-0.546-2.354-1.365s-1.512-1.593-1.877-2.32
		c-0.591-1.046-0.91-1.661-0.956-1.843c-0.273-0.91-0.454-2.024-0.546-3.344c0-1.137,0.023-2.092,0.068-2.867
		c0.046-0.773,0.148-1.558,0.307-2.354c0.16-0.795,0.296-1.399,0.41-1.809c0.114-0.41,0.341-1.183,0.682-2.32
		c0.341-1.137,0.626-2.048,0.854-2.73c0.044-0.137,0.102-0.364,0.17-0.683c0.068-0.318,0.125-0.546,0.17-0.683
		c0.045-0.137,0.182-0.591,0.41-1.365c0.273-1,0.478-1.729,0.614-2.184c0.045-0.228,0.159-0.557,0.341-0.99
		c0.181-0.432,0.33-0.819,0.443-1.16c0.113-0.341,0.216-0.683,0.307-1.024c0.091-0.341,0.091-0.625,0-0.853
		c-0.091-0.227-0.296-0.364-0.614-0.41c-0.728-0.09-1.16-0.205-1.296-0.341c-0.137-0.09-0.341-0.215-0.614-0.375
		c-0.273-0.159-0.478-0.284-0.614-0.375c-0.227-0.227-0.364-0.432-0.41-0.614c0.183-0.091,0.296-0.137,0.341-0.137
		c0.319-0.044,0.785-0.136,1.399-0.273c0.614-0.136,1.081-0.25,1.399-0.341c0.409-0.09,1.068-0.181,1.979-0.273
		c0.364-0.09,0.591-0.273,0.683-0.546c0.045-0.091,0.159-0.33,0.341-0.717c0.181-0.386,0.295-0.693,0.341-0.921
		c0.181-0.317,0.478-0.932,0.887-1.843c0.41-0.909,0.75-1.592,1.024-2.047c0.773-1.229,1.523-2.184,2.252-2.866
		c0.091-0.137,0.25-0.318,0.478-0.546c0.317-0.227,0.614-0.317,0.887-0.273c0.044,0.046,0.25,0.046,0.614,0
		c0.363-0.044,0.591-0.068,0.682-0.068c0.045,0,0.091-0.022,0.137-0.068c0.773-0.182,1.297,0.136,1.57,0.956
		c0.318,0.638,0.478,1.365,0.478,2.184c0,0.273,0.045,0.638,0.137,1.092c0.09,0.273,0.09,0.592,0,0.956
		c-0.092,0.455-0.16,0.819-0.205,1.092l-0.409,1.638c0,0.228-0.023,0.409-0.068,0.546c0.137,0.092,0.364,0.136,0.683,0.136
		c0.273-0.044,0.693-0.09,1.263-0.136c0.568-0.045,0.989-0.068,1.262-0.068h3.549c0.136,0,0.273,0.012,0.409,0.034
		c0.137,0.023,0.284,0.058,0.444,0.103c0.159,0.046,0.307,0.068,0.444,0.068l-0.273,0.41c-0.136,0.137-0.296,0.25-0.478,0.341
		c-0.182,0.092-0.433,0.216-0.751,0.375c-0.319,0.16-0.569,0.262-0.75,0.307l-0.068,0.068c-0.136,0-0.489,0.068-1.058,0.205
		c-0.57,0.136-1.013,0.182-1.331,0.136c-0.456,0-0.933,0.068-1.433,0.205c-0.092,0.046-0.25,0.092-0.478,0.136
		c-0.228,0.046-0.365,0.068-0.409,0.068c-0.183,0-0.444,0.023-0.785,0.068c-0.341,0.046-0.604,0.092-0.785,0.136
		c-0.229,0.046-0.41,0.229-0.546,0.546l-0.068,0.068c0,0.092-0.023,0.137-0.068,0.137c-0.319,0.865-0.808,2.071-1.467,3.617
		c-0.66,1.547-1.104,2.594-1.331,3.14c-0.182,0.365-0.296,0.614-0.341,0.75c-0.365,0.774-0.638,1.457-0.819,2.048
		c-0.182,0.501-0.478,1.092-0.887,1.774c-0.092,0.136-0.17,0.387-0.239,0.75c-0.068,0.365-0.171,0.638-0.307,0.819
		c-0.365,0.865-0.717,2.344-1.058,4.436c-0.341,2.093-0.489,3.777-0.443,5.05c0.044,0.911,0.273,1.957,0.682,3.14l0.614,0.819h0.068
		c0.091,0.046,0.159,0.068,0.205,0.068c1.319,0,2.138-0.113,2.457-0.341c0.546-0.363,1.502-1.114,2.867-2.252
		c2.092-2.092,3.435-3.73,4.027-4.914c0.181-0.364,0.432-0.99,0.75-1.877c0.318-0.887,0.591-1.512,0.819-1.877
		C78.759,34.469,79.192,33.49,79.875,31.988z M68.682,25.095c0.455-1.229,0.91-2.297,1.365-3.208c0.409-1,0.546-1.66,0.409-1.979
		c-0.136-0.317-0.728-0.205-1.774,0.341c-0.273,0.865-0.58,1.957-0.921,3.276c-0.341,1.32-0.58,2.207-0.716,2.662
		c-0.638,2.32-0.706,3.208-0.205,2.662C67.339,28.258,67.954,27.006,68.682,25.095z M71.753,16.154
		c0.181-0.91,0.318-1.615,0.41-2.116c0.044-0.181,0.113-0.5,0.205-0.956c0.045-0.181,0.103-0.454,0.171-0.819
		c0.068-0.364,0.102-0.637,0.102-0.819c0.045-0.409,0.022-1.023-0.068-1.843c-0.091-0.317-0.228-0.386-0.409-0.205
		c-0.319,0.228-0.524,0.456-0.614,0.683c-0.365,0.683-0.592,1.274-0.683,1.774c0,0.092-0.046,0.205-0.137,0.341
		c-0.091,0.136-0.136,0.228-0.136,0.273c-0.183,0.365-0.319,0.66-0.41,0.887c-0.228,1.092-0.387,1.82-0.478,2.184
		c-0.137,0.865,0.113,1.343,0.75,1.433C71.093,17.065,71.525,16.792,71.753,16.154z"/>
	<path fill="#fb385f" d="M99.599,26.187c0.181,0.092,0.318,0.114,0.409,0.068l0.068-0.068c0.137-0.137,0.318-0.295,0.546-0.478
		c0.182-0.044,0.5-0.181,0.956-0.409c0.455-0.227,0.887-0.41,1.297-0.546c0.41-0.137,0.705-0.137,0.887,0
		c0.091,0.091,0.284,0.239,0.58,0.443c0.295,0.205,0.488,0.353,0.58,0.444c0.273,0.365,0.318,0.865,0.137,1.501
		c-0.137,0.319-0.375,0.796-0.717,1.433c-0.341,0.638-0.58,1.092-0.717,1.365c-0.045,0.091-0.091,0.216-0.136,0.375
		c-0.046,0.16-0.092,0.285-0.137,0.375c-0.046,0.092-0.068,0.183-0.068,0.273c-0.046,0.046-0.171,0.341-0.375,0.887
		c-0.205,0.546-0.375,0.933-0.512,1.16c-0.091,0.229-0.068,0.229,0.068,0c0.045-0.09,0.113-0.227,0.205-0.409l0.546-0.751v0.068
		c0,0.092-0.068,0.273-0.205,0.546c-0.364,0.956-0.569,1.73-0.614,2.321c0,0.136-0.045,0.911-0.136,2.32
		c-0.092,1.411-0.114,2.23-0.068,2.457c0.045,0.228,0.227,0.569,0.546,1.024c0.045,0,0.182,0.08,0.41,0.239
		c0.227,0.16,0.432,0.262,0.614,0.307c0.181,0.136,0.546,0.16,1.092,0.068c1.729-0.637,2.877-1.183,3.447-1.638
		c0.568-0.454,1.092-1.137,1.57-2.047c0.478-0.91,1.103-1.775,1.877-2.594c1-1.456,1.57-2.389,1.706-2.798
		c0-0.044,0.068-0.181,0.205-0.409c0.045,0.182,0.068,0.365,0.068,0.546c0,0.182-0.012,0.365-0.034,0.546
		c-0.023,0.183,0,0.341,0.068,0.478c0.068,0.136,0.215,0.228,0.444,0.273c-0.229,0.455-0.638,1.342-1.229,2.662
		c-0.592,1.32-1.16,2.389-1.707,3.208c-0.546,0.819-1.16,1.434-1.843,1.843c-0.638,0.819-1.866,1.786-3.685,2.901
		c-1.821,1.115-3.368,1.422-4.641,0.921c-0.273,0.092-0.57,0.092-0.887,0c-0.319-0.091-0.672-0.261-1.058-0.512
		c-0.387-0.25-0.694-0.42-0.921-0.512c-0.638-0.273-1.297-0.773-1.979-1.501c-0.455-1.183-0.683-2.092-0.683-2.73
		c-0.091-0.273-0.137-0.683-0.137-1.229c0.046-0.227,0.092-0.727,0.137-1.501c0.046-0.773,0.114-1.251,0.205-1.433
		c0.137-0.683,0.205-1.046,0.205-1.092l0.068-0.205c0.092-0.137,0.229-0.227,0.41-0.273c0.045,0,0.091-0.068,0.137-0.205
		l0.068-0.137c0.137-0.181,0.261-0.42,0.375-0.717c0.113-0.295,0.239-0.512,0.375-0.648l-0.819,0.683
		c-0.092,0-0.023-0.205,0.205-0.614c0.181-0.5,0.557-1.194,1.126-2.082c0.568-0.887,0.921-1.467,1.058-1.74l0.136-0.341
		c0.273-0.5,0.364-0.887,0.273-1.16C99.348,26.916,99.416,26.597,99.599,26.187z M106.696,18.27
		c-0.091,0.092-0.17,0.194-0.239,0.307c-0.068,0.114-0.126,0.194-0.17,0.239c-0.183,0.319-0.296,0.523-0.341,0.614
		c0,0.137-0.046,0.25-0.137,0.341c-0.092,0.092-0.319,0.365-0.682,0.819c-0.183,0.273-0.524,0.456-1.024,0.546
		c-0.137-0.044-0.296,0.024-0.478,0.205c-0.319,0.228-0.638,0.25-0.955,0.068c-0.137-0.091-0.319-0.137-0.546-0.137
		c-0.319,0-0.569-0.022-0.75-0.068c0.045-0.044,0.113-0.136,0.205-0.273c0-0.091,0.022-0.227,0.068-0.41
		c0.091-0.09,0.137-0.181,0.137-0.273c0.09-0.181,0.25-0.478,0.478-0.887c0-0.044,0.022-0.113,0.068-0.205l0.136-0.137
		c0-0.044,0.182-0.432,0.546-1.16l0.41-0.614c0.181-0.181,0.318-0.273,0.41-0.273c0.136-0.09,0.25-0.09,0.341,0
		c0,0.137,0.09,0.16,0.273,0.068c0.136-0.091,0.227-0.113,0.273-0.068c0.136,0.046,0.432,0.137,0.887,0.273
		C106.059,17.429,106.423,17.77,106.696,18.27z"/>
	<path fill="#fb385f" d="M127.921,30.487c-0.091,0.182-0.216,0.353-0.375,0.512c-0.16,0.16-0.331,0.341-0.512,0.546
		c-0.182,0.205-0.319,0.353-0.409,0.444c-0.137,0.136-0.57,0.592-1.297,1.365c-0.729,0.774-1.229,1.365-1.501,1.774
		c-0.546,0.729-1.252,1.525-2.116,2.389c-0.456,0.455-0.843,0.979-1.16,1.569c-0.456,0.729-0.774,1.184-0.956,1.365
		c-0.273,0.228-0.456,0.456-0.546,0.683c-0.228,0.228-0.614,1.194-1.16,2.9c-0.546,1.707-0.911,2.651-1.092,2.833
		c-0.273,0.273-0.569,0.41-0.887,0.41c-0.183,0-0.501,0.114-0.956,0.341c-0.319,0.273-0.683,0.341-1.092,0.205l-2.252-0.205
		c-0.181-0.044-0.444-0.09-0.785-0.136c-0.341-0.045-0.535-0.068-0.581-0.068c-1.183-0.41-1.638-1.365-1.365-2.866
		c0.774-3.367,1.457-5.87,2.047-7.508c0.592-1.546,1.116-2.798,1.57-3.753c0.683-1.729,1.433-3.435,2.252-5.119
		c0.136-0.273,0.932-1.66,2.389-4.163c0.637-1.092,1.068-1.911,1.297-2.457c0.363-0.683,0.614-1.297,0.75-1.843
		c0-0.045,0.011-0.113,0.034-0.205c0.022-0.091,0.034-0.181,0.034-0.273c0.364-0.227,0.637-0.205,0.819,0.068
		c0.455,0.592,1.068,1.001,1.843,1.228c0.137,0,0.25,0.114,0.341,0.341c0.227,0.273,0.568,0.729,1.024,1.365
		c0.273,0.41,0.363,1.069,0.273,1.979c-0.046,2.23-0.751,4.778-2.116,7.644c-0.546,1.184-0.887,1.866-1.024,2.048
		c-0.592,0.955-0.638,1.593-0.137,1.911c0.228,0.092,0.478,0.068,0.751-0.068c0.773-0.727,1.706-1.729,2.798-3.003
		c0.591-0.727,1.297-1.49,2.116-2.286c0.819-0.795,1.387-1.376,1.706-1.74c0.591-0.591,1.024-1.046,1.297-1.365
		c0.318-0.546,0.795-0.887,1.433-1.024h0.683c0.273,0.046,0.693,0.08,1.263,0.103c0.568,0.023,0.99,0.058,1.263,0.103
		c0.5,0.092,0.91,0.433,1.229,1.023c0.181,0.319,0.273,0.66,0.273,1.024c0.181,1.229,0.181,2.162,0,2.798
		c-0.365,1.638-0.614,2.753-0.751,3.344c-0.501,1.729-0.638,3.617-0.409,5.665c0.044,0.729,0.488,1.116,1.331,1.16
		c0.841,0.046,1.421-0.068,1.741-0.341c0.09-0.045,0.25-0.125,0.478-0.239c0.227-0.113,0.41-0.193,0.546-0.239
		c0.728-0.454,1.649-1.148,2.764-2.082c1.114-0.932,1.899-1.672,2.354-2.218c0.045-0.09,0.466-0.443,1.263-1.058
		c0.795-0.614,1.239-0.99,1.331-1.126c0.181-0.273,0.364-0.614,0.546-1.023c0.181-0.41,0.364-0.751,0.546-1.024
		c0.045-0.045,0.079-0.103,0.103-0.17c0.022-0.068,0.057-0.137,0.103-0.205c0.044-0.068,0.113-0.147,0.205-0.239
		c0,0.183,0.022,0.296,0.068,0.341c0.044,0.137,0.044,0.319,0,0.546c-0.046,0.229-0.046,0.41,0,0.546
		c0,0.046-0.046,0.183-0.137,0.41c-0.182,0.228-0.273,0.523-0.273,0.887c-0.046,0.319-0.182,0.66-0.41,1.024
		c-0.136,0.182-0.433,0.66-0.887,1.433c-0.455,0.774-0.796,1.297-1.023,1.57c-1.957,2.23-3.231,3.595-3.822,4.095
		c-0.092,0.092-0.194,0.171-0.307,0.239c-0.114,0.068-0.239,0.136-0.375,0.205c-0.136,0.068-0.25,0.126-0.341,0.17
		c-0.046,0-0.114,0.024-0.205,0.068c-0.092,0.046-0.194,0.08-0.307,0.103c-0.114,0.023-0.216,0.058-0.307,0.103
		c-0.501,0.228-1.433,0.353-2.798,0.375c-1.365,0.023-2.344-0.056-2.935-0.239c-2.912-0.956-4.392-3.367-4.436-7.234
		c0.09-1.183,0.136-2.047,0.136-2.594c0.41-2.229,0.341-3.412-0.205-3.549C128.489,30.032,128.239,30.169,127.921,30.487z"/>
	<path fill="#fb385f" d="M183.067,31.988c0.091,0,0.25-0.022,0.478-0.068l0.273,0.068c0,0.136-0.034,0.262-0.103,0.375
		c-0.068,0.114-0.08,0.239-0.034,0.375c0.091,0.41-0.182,1.252-0.819,2.525c-0.136,0.365-0.353,0.911-0.648,1.638
		c-0.296,0.728-0.512,1.274-0.648,1.638l-1.843,3.481c-0.136,0.228-0.762,1.058-1.876,2.491c-1.116,1.433-1.764,2.218-1.945,2.354
		c-0.319,0.228-0.865,0.729-1.638,1.501c-0.774,0.773-1.296,1.251-1.569,1.433c-1.001,0.637-2.025,1.024-3.071,1.16
		c-1.229,0.091-2.116,0.068-2.662-0.068c-0.682-0.092-1.467-0.546-2.354-1.365s-1.512-1.593-1.877-2.32
		c-0.591-1.046-0.91-1.661-0.956-1.843c-0.273-0.91-0.454-2.024-0.546-3.344c0-1.137,0.023-2.092,0.068-2.867
		c0.046-0.773,0.148-1.558,0.307-2.354c0.16-0.795,0.296-1.399,0.41-1.809c0.114-0.41,0.341-1.183,0.682-2.32
		c0.341-1.137,0.626-2.048,0.854-2.73c0.044-0.137,0.102-0.364,0.17-0.683c0.068-0.318,0.125-0.546,0.17-0.683
		c0.045-0.137,0.182-0.591,0.41-1.365c0.273-1,0.478-1.729,0.614-2.184c0.045-0.228,0.159-0.557,0.341-0.99
		c0.181-0.432,0.33-0.819,0.443-1.16c0.113-0.341,0.216-0.683,0.307-1.024c0.091-0.341,0.091-0.625,0-0.853
		c-0.091-0.227-0.296-0.364-0.614-0.41c-0.728-0.09-1.16-0.205-1.296-0.341c-0.137-0.09-0.341-0.215-0.614-0.375
		c-0.273-0.159-0.478-0.284-0.614-0.375c-0.227-0.227-0.364-0.432-0.41-0.614c0.183-0.091,0.296-0.137,0.341-0.137
		c0.319-0.044,0.785-0.136,1.399-0.273c0.614-0.136,1.081-0.25,1.399-0.341c0.409-0.09,1.068-0.181,1.979-0.273
		c0.364-0.09,0.591-0.273,0.683-0.546c0.045-0.091,0.159-0.33,0.341-0.717c0.181-0.386,0.295-0.693,0.341-0.921
		c0.181-0.317,0.478-0.932,0.887-1.843c0.41-0.909,0.75-1.592,1.024-2.047c0.773-1.229,1.523-2.184,2.252-2.866
		c0.091-0.137,0.25-0.318,0.478-0.546c0.317-0.227,0.614-0.317,0.887-0.273c0.044,0.046,0.25,0.046,0.614,0
		c0.363-0.044,0.591-0.068,0.682-0.068c0.045,0,0.091-0.022,0.137-0.068c0.773-0.182,1.297,0.136,1.57,0.956
		c0.318,0.638,0.478,1.365,0.478,2.184c0,0.273,0.045,0.638,0.137,1.092c0.09,0.273,0.09,0.592,0,0.956
		c-0.092,0.455-0.16,0.819-0.205,1.092l-0.409,1.638c0,0.228-0.023,0.409-0.068,0.546c0.137,0.092,0.364,0.136,0.683,0.136
		c0.273-0.044,0.693-0.09,1.263-0.136c0.568-0.045,0.989-0.068,1.262-0.068h3.549c0.136,0,0.273,0.012,0.409,0.034
		c0.137,0.023,0.284,0.058,0.444,0.103c0.159,0.046,0.307,0.068,0.444,0.068l-0.273,0.41c-0.136,0.137-0.296,0.25-0.478,0.341
		c-0.182,0.092-0.433,0.216-0.751,0.375c-0.319,0.16-0.569,0.262-0.75,0.307l-0.068,0.068c-0.136,0-0.489,0.068-1.058,0.205
		c-0.57,0.136-1.013,0.182-1.331,0.136c-0.456,0-0.933,0.068-1.433,0.205c-0.092,0.046-0.25,0.092-0.478,0.136
		c-0.228,0.046-0.365,0.068-0.409,0.068c-0.183,0-0.444,0.023-0.785,0.068c-0.341,0.046-0.604,0.092-0.785,0.136
		c-0.229,0.046-0.41,0.229-0.546,0.546l-0.068,0.068c0,0.092-0.023,0.137-0.068,0.137c-0.319,0.865-0.808,2.071-1.467,3.617
		c-0.66,1.547-1.104,2.594-1.331,3.14c-0.182,0.365-0.296,0.614-0.341,0.75c-0.365,0.774-0.638,1.457-0.819,2.048
		c-0.182,0.501-0.478,1.092-0.887,1.774c-0.092,0.136-0.17,0.387-0.239,0.75c-0.068,0.365-0.171,0.638-0.307,0.819
		c-0.365,0.865-0.717,2.344-1.058,4.436c-0.341,2.093-0.489,3.777-0.443,5.05c0.044,0.911,0.273,1.957,0.682,3.14l0.614,0.819h0.068
		c0.091,0.046,0.159,0.068,0.205,0.068c1.319,0,2.138-0.113,2.457-0.341c0.546-0.363,1.502-1.114,2.867-2.252
		c2.092-2.092,3.435-3.73,4.027-4.914c0.181-0.364,0.432-0.99,0.75-1.877c0.318-0.887,0.591-1.512,0.819-1.877
		C181.952,34.469,182.385,33.49,183.067,31.988z M171.874,25.095c0.455-1.229,0.91-2.297,1.365-3.208
		c0.409-1,0.546-1.66,0.409-1.979c-0.136-0.317-0.728-0.205-1.774,0.341c-0.273,0.865-0.58,1.957-0.921,3.276
		c-0.341,1.32-0.58,2.207-0.716,2.662c-0.638,2.32-0.706,3.208-0.205,2.662C170.532,28.258,171.146,27.006,171.874,25.095z
		 M174.945,16.154c0.181-0.91,0.318-1.615,0.41-2.116c0.044-0.181,0.113-0.5,0.205-0.956c0.045-0.181,0.103-0.454,0.171-0.819
		c0.068-0.364,0.102-0.637,0.102-0.819c0.045-0.409,0.022-1.023-0.068-1.843c-0.091-0.317-0.228-0.386-0.409-0.205
		c-0.319,0.228-0.524,0.456-0.614,0.683c-0.365,0.683-0.592,1.274-0.683,1.774c0,0.092-0.046,0.205-0.137,0.341
		c-0.091,0.136-0.136,0.228-0.136,0.273c-0.183,0.365-0.319,0.66-0.41,0.887c-0.228,1.092-0.387,1.82-0.478,2.184
		c-0.137,0.865,0.113,1.343,0.75,1.433C174.285,17.065,174.717,16.792,174.945,16.154z"/>
	<path fill="#fb385f" d="M184.5,30.282c0-0.09-0.023-0.159-0.068-0.205c-0.638-1-1.07-2.434-1.297-4.3
		c-0.182-1,0.068-2.116,0.751-3.344c0.09-0.181,0.25-0.295,0.478-0.341c0.41-0.363,1.092-0.819,2.047-1.365
		c0.591-0.364,1.319-0.478,2.184-0.341c0.227,0,1.024,0.546,2.389,1.638c0.728,0.592,1.161,0.933,1.297,1.023
		c0.591,0.501,1.046,1.184,1.365,2.047c0.317,0.819,0.522,1.32,0.614,1.502c0.044,0.045,0.181,0.706,0.409,1.979
		c0.091,1.001,0.159,1.547,0.205,1.638c0.044,0.046,0.068,0.114,0.068,0.205c-0.046-0.318-0.046-0.295,0,0.068
		c0,0.365,0,0.569,0,0.614c0,0.182,0.011,0.58,0.034,1.194c0.022,0.614-0.012,0.99-0.102,1.126c-0.092,0.183-0.058,0.375,0.102,0.58
		c0.159,0.205,0.375,0.307,0.648,0.307c0.773-0.045,2.104-0.045,3.993,0c1.888,0.046,3.196-0.045,3.925-0.273l1.092-0.546
		c0.045-0.045,0.125-0.091,0.238-0.137c0.113-0.044,0.193-0.09,0.239-0.136c0.137,0.182,0.137,0.387,0,0.614
		c-0.046,0.092,0,0.216,0.137,0.375c0.137,0.16,0.158,0.285,0.068,0.375c-1.32,1.411-4.915,2.116-10.784,2.116h-0.205
		c-0.273,0-0.409,0.068-0.409,0.205c0,0.046-0.046,0.16-0.137,0.341c-0.046,0.319-0.478,1.457-1.297,3.412
		c-0.228,0.546-0.66,1.229-1.296,2.048c-0.41,0.638-0.729,1.023-0.956,1.16c-0.046,0.046-0.126,0.102-0.239,0.17
		c-0.114,0.068-0.194,0.126-0.239,0.171c-0.228,0.091-0.364,0.228-0.409,0.409c-0.592,0.683-1.229,1.116-1.911,1.297
		c-0.182,0-0.41,0.092-0.683,0.273c-0.774,0.229-1.706,0.25-2.798,0.068c-1.047-0.137-1.956-0.864-2.73-2.184l-0.614-1.843
		c-0.137-1.41-0.159-2.662-0.068-3.754c0.136-1.228,0.523-2.479,1.16-3.753c0.546-1.319,1.387-2.662,2.525-4.027
		C184.317,30.646,184.408,30.51,184.5,30.282z M192.622,28.985c0.137-0.637,0.113-1.183-0.068-1.638
		c-0.136-0.727-0.296-1.456-0.478-2.184c-0.229-0.727-0.546-1.273-0.956-1.638c-0.501-0.5-0.796-0.773-0.887-0.819
		c-0.456-0.409-0.865-0.705-1.229-0.887c-0.592-0.454-1.525-0.045-2.798,1.229c-0.638,0.819-0.899,1.752-0.785,2.798
		c0.113,1.047,0.386,2.003,0.819,2.867c0.432,0.865,0.966,1.638,1.604,2.32c1,1.957,2.15,2.673,3.446,2.15
		C192.587,32.66,193.031,31.261,192.622,28.985z M187.776,37.721c-0.41,0.592-0.842,1.57-1.297,2.935
		c-0.046,0.229-0.068,0.592-0.068,1.092c-0.045,0.046-0.023,0.16,0.068,0.341c0.181,0.409,0.432,0.682,0.751,0.819
		c0.044,0,0.09-0.022,0.136-0.068c0.045-0.045,0.137-0.113,0.273-0.205c0.956-1,1.843-2.457,2.662-4.368
		c0.09-0.181,0.181-0.364,0.273-0.546c0.09-0.181,0.17-0.386,0.239-0.614c0.068-0.227,0.125-0.386,0.17-0.478
		c-0.819-0.273-1.433-0.318-1.843-0.137C188.731,36.675,188.276,37.084,187.776,37.721z"/>
	<path fill="#fb385f" d="M215.075,36.766c-0.273,0.273-1.57,1.16-3.891,2.662c-0.455,0.229-1.126,0.41-2.013,0.546
		c-0.888,0.136-1.354,0.205-1.399,0.205c-1.048,0-1.935-0.205-2.662-0.614c-0.818-0.5-1.331-0.944-1.535-1.331
		c-0.205-0.386-0.398-1.194-0.58-2.423c-0.228-0.637-0.113-1.592,0.341-2.866c0.137-0.591,0.91-2.116,2.32-4.573
		s2.185-3.822,2.32-4.095c0.455-1,0.864-1.774,1.229-2.32c0.091-0.273,0.387-0.546,0.888-0.819c0.045,0,0.239-0.056,0.58-0.17
		c0.342-0.113,0.58-0.239,0.717-0.375c0.363-0.181,0.568-0.409,0.614-0.683c0.045-0.273,0.159-0.409,0.341-0.409
		c0.637,0,1.137,0.25,1.502,0.75c0.091,0.046,0.181,0.148,0.272,0.307c0.091,0.16,0.182,0.285,0.273,0.375
		c0.091,0.046,0.137,0.273,0.137,0.683c-0.137,0.592-0.523,1.695-1.16,3.31c-0.638,1.616-1.024,2.696-1.16,3.242
		c-0.137,0.183-0.273,0.683-0.41,1.501c-0.137,0.819-0.204,1.252-0.204,1.297c-0.183,0.819-0.388,1.479-0.614,1.979
		c-0.273,1.092-0.319,1.706-0.137,1.843c0.045,0.091,0.113,0.262,0.204,0.512c0.091,0.25,0.182,0.467,0.273,0.648
		c0.091,0.182,0.205,0.25,0.341,0.205c0.41-0.227,1.217-0.522,2.423-0.887c1.205-0.364,1.968-0.75,2.287-1.16
		c0.181-0.273,0.42-0.466,0.717-0.58c0.295-0.113,0.534-0.284,0.716-0.512c0.137-0.136,0.41-0.546,0.819-1.229
		c0.137-0.317,0.283-0.568,0.443-0.75c0.159-0.181,0.284-0.386,0.376-0.614c0.272-0.546,0.795-1.365,1.569-2.457
		c0.137-0.454,0.432-0.978,0.888-1.57c0.363-0.09,0.658-0.113,0.887-0.068h0.546c-0.046,0.137,0.022,0.251,0.205,0.341
		c0.045,0.092,0.068,0.217,0.068,0.375c0,0.16,0.045,0.262,0.137,0.307c-0.137,0.365-0.308,1.013-0.513,1.945
		c-0.204,0.933-0.421,1.672-0.647,2.218c-0.046,0.137-0.092,0.229-0.137,0.273c-0.092,0-0.205,0.114-0.342,0.341
		c0.045,0.319-0.114,0.843-0.478,1.57c-0.046,0.137-0.126,0.433-0.239,0.887c-0.113,0.456-0.238,0.797-0.375,1.024
		c-0.546,2.32-0.819,3.595-0.819,3.822c-0.046,0.273,0.147,0.524,0.58,0.751c0.433,0.228,1.001,0.341,1.707,0.341
		c0.704,0,1.467-0.113,2.286-0.341c0.773-0.364,1.751-1.103,2.935-2.218c1.183-1.114,2.093-2.194,2.73-3.242
		c0.909-1.546,1.455-2.457,1.638-2.73c0.363-0.637,0.659-0.568,0.887,0.205c0.182,0.501,0.205,0.865,0.068,1.092
		c-0.228,0.364-0.364,0.638-0.409,0.819c-0.183,0.136-0.467,0.638-0.854,1.501c-0.387,0.865-0.648,1.365-0.784,1.501l-0.068,0.205
		c-0.092,0.137-0.205,0.229-0.342,0.273c-1.229,1.638-2.57,3.027-4.026,4.164c-0.229,0.046-0.467,0.148-0.717,0.307
		c-0.25,0.16-0.443,0.262-0.58,0.307c-0.318,0.319-0.729,0.614-1.229,0.887c-0.318,0.136-0.569,0.296-0.751,0.478
		c-0.272-0.09-0.569-0.022-0.887,0.205c-0.638,0.501-1.957,0.671-3.959,0.512c-2.002-0.159-3.095-0.761-3.275-1.809
		c-0.41-2.411-0.434-4.276-0.068-5.597V36.766z"/>
	<path fill="#fb385f" d="M255.547,31.374c-0.182,0.865-0.682,1.774-1.501,2.73c-0.137,0.182-0.342,0.467-0.614,0.853
		c-0.273,0.387-0.478,0.672-0.614,0.853c-0.501,0.729-0.911,1.434-1.229,2.116c0,0.137-0.023,0.205-0.068,0.205
		c-0.819,1.184-1.274,1.82-1.365,1.911c-1.001,1.092-1.729,1.866-2.184,2.321c-0.729,0.638-1.502,1.206-2.32,1.706
		c-1.82,1.047-2.98,1.57-3.481,1.57c-0.136,0-0.716-0.022-1.74-0.068c-1.023-0.045-1.604-0.022-1.74,0.068
		c-0.546,0.092-1.843-0.25-3.89-1.024c-1.048-0.454-1.935-0.956-2.662-1.501c-1.273-1-2.002-2.479-2.185-4.436
		c-0.136-1.137-0.136-2.297,0-3.481c0.092-0.682,0.229-1.365,0.41-2.047c0.046-0.181,0.137-0.432,0.272-0.751
		c0.137-0.317,0.229-0.546,0.273-0.682c0.137-0.455,0.796-1.797,1.979-4.027c0.09-0.091,0.192-0.227,0.307-0.41
		c0.113-0.181,0.193-0.318,0.239-0.409c0.683-1,1.273-1.707,1.774-2.116c0.181-0.137,0.432-0.352,0.751-0.648
		c0.317-0.295,0.614-0.557,0.887-0.785c0.273-0.227,0.546-0.432,0.819-0.614c0.454-0.318,0.932-0.478,1.433-0.478
		c0.137,0,0.342-0.045,0.614-0.137c0.591-0.273,1.115-0.386,1.57-0.341c0.045,0.046,0.068,0.046,0.068,0
		c0.772-0.044,1.523,0.183,2.252,0.683l0.068,0.068c0.045,0,0.091,0,0.137,0c0.091,0,0.158-0.022,0.204-0.068
		c0.228-0.136,0.41-0.159,0.546-0.068c0.228,0.229,0.318,0.478,0.273,0.751c-0.092,0.273-0.068,0.569,0.068,0.887
		c0.045,0,0.068,0.046,0.068,0.137v0.136l-0.41,0.614c0.091,0.546,0.182,0.956,0.273,1.229c0.137,0.592,0.205,1.229,0.205,1.911
		c0,0.455-0.023,0.796-0.068,1.023c-0.229,1.138-0.614,2.298-1.16,3.481c-0.229,0.501-0.523,0.774-0.888,0.819
		c-0.046,0-0.114,0.012-0.205,0.034c-0.091,0.023-0.159,0.034-0.204,0.034c-0.183,0-0.319-0.045-0.409-0.136
		c-0.183-0.182-0.593-0.432-1.229-0.751c0-0.045-0.023-0.068-0.068-0.068c-0.046,0-0.092-0.022-0.137-0.068
		c-0.229-0.181-0.319-0.409-0.273-0.682c0.091-0.455,0.159-0.773,0.205-0.956c0.591-2.047,1.023-3.367,1.297-3.958
		c0-0.137,0.022-0.273,0.068-0.41c-0.046,0.046-0.092,0.092-0.137,0.137l-0.137,0.068c-0.046,0.136-0.592,0.911-1.638,2.32
		c-0.546,0.729-1.023,1.547-1.434,2.457c-0.183,0.409-0.455,0.99-0.818,1.74c-0.365,0.751-0.638,1.309-0.819,1.672
		c-0.365,0.682-0.774,1.798-1.229,3.344c-0.046,0.046-0.114,0.409-0.205,1.092c-0.092,0.501-0.023,0.979,0.205,1.433
		c0.137,0.273,0.341,0.729,0.614,1.365c0.091,0.182,0.272,0.455,0.546,0.819c0.228,0.092,0.454,0.126,0.683,0.103
		c0.228-0.022,0.568-0.103,1.023-0.239c0.454-0.137,0.728-0.205,0.819-0.205c0.773-0.09,1.809-0.432,3.105-1.023
		c1.297-0.591,2.263-1.161,2.9-1.707c0.228-0.181,0.625-0.5,1.194-0.956c0.568-0.454,1.08-0.875,1.536-1.262
		c0.454-0.386,0.818-0.739,1.092-1.058l1.023-1.229c0.182-0.273,0.693-0.773,1.536-1.501c0.841-0.728,1.375-1.251,1.604-1.57
		c0.091-0.181,0.386-0.454,0.887-0.819c0.501-0.364,0.796-0.614,0.888-0.751c0.045-0.09,0.091-0.044,0.137,0.137
		C255.388,31.169,255.456,31.374,255.547,31.374z"/>
	<path fill="#fb385f" d="M264.077,30.828c0.364-0.364,1.137-1.103,2.32-2.218c1.183-1.114,1.888-1.785,2.116-2.013
		c2.411-2.184,4.8-2.548,7.166-1.092c0.683,1.138,0.568,3.663-0.341,7.576c-0.137,0.592-0.558,1.786-1.263,3.583
		c-0.706,1.798-1.126,2.901-1.263,3.311c-0.229,2.002,0.818,2.412,3.14,1.229c1.046-0.546,2.023-1.205,2.935-1.979l1.229-0.887
		c0.818-0.591,1.251-0.91,1.297-0.956c0.227-0.273,0.58-0.568,1.058-0.887c0.478-0.318,0.854-0.637,1.126-0.956
		c0.091-0.136,0.342-0.557,0.751-1.263c0.409-0.705,0.773-1.194,1.092-1.467c0.5-0.41,0.728-0.432,0.683-0.068
		c-0.046,0.273-0.229,0.706-0.546,1.297c-0.592,0.729-1.206,1.662-1.843,2.798l-0.614,0.75c-0.409,0.501-0.638,0.911-0.683,1.229
		c-0.092,0.183-0.398,0.433-0.921,0.751c-0.524,0.319-0.831,0.523-0.922,0.614c-0.729,0.956-1.138,1.525-1.229,1.706
		c-0.137,0.137-0.592,0.524-1.365,1.16c-0.773,0.638-1.229,1.001-1.364,1.092c-0.819,0.774-1.866,1.252-3.14,1.433
		c-1.274,0.183-2.412-0.159-3.413-1.023c-1.001-0.864-1.364-2.297-1.092-4.3c0.182-0.91,0.978-2.798,2.389-5.665
		c1.41-2.866,2.161-4.413,2.252-4.641c0.182-0.41,0.342-0.864,0.479-1.365c0.091-0.227,0.136-0.614,0.136-1.16
		c-0.501-0.819-1.126-1.205-1.876-1.16c-0.751,0.046-1.468,0.307-2.15,0.785s-1.206,1.036-1.569,1.672
		c-0.319,0.228-0.569,0.523-0.751,0.887c-0.183,0.365-0.455,0.728-0.819,1.092c-0.272,0.319-0.853,1.036-1.74,2.15
		c-0.887,1.115-1.467,1.832-1.74,2.15c-0.819,0.956-1.297,1.525-1.434,1.706c-0.182,0.273-0.58,1.001-1.194,2.184
		c-0.614,1.184-1.252,2.423-1.911,3.72c-0.66,1.297-1.035,2.013-1.126,2.15c-0.228,0.455-0.364,0.865-0.409,1.229
		c-0.046,0.182-0.16,0.569-0.342,1.16c0,0.137-0.045,0.353-0.136,0.648c-0.092,0.295-0.16,0.534-0.205,0.717
		c-0.092,0.819-0.364,1.365-0.819,1.638c-0.046,0.045-0.113,0.137-0.204,0.273c-0.092,0.137-0.16,0.25-0.205,0.341h-0.409
		c-0.092-0.092-0.388-0.092-0.888,0l-0.204,0.068l-0.137,0.068c-0.046,0-0.103-0.046-0.171-0.137
		c-0.068-0.092-0.148-0.136-0.239-0.136c-0.091-0.137-0.238-0.307-0.443-0.512c-0.204-0.205-0.329-0.353-0.375-0.443
		c-0.546-0.501-0.864-1.274-0.956-2.321c-0.363-1.273-0.534-2.764-0.512-4.47c0.023-1.706,0.148-3.321,0.376-4.846
		c0.228-1.524,0.614-3.298,1.16-5.324c0.546-2.024,1.023-3.673,1.433-4.948c0.41-1.273,0.933-2.867,1.57-4.778
		c0.637-1.911,1.068-3.184,1.297-3.822c1.501-3.048,2.547-5.119,3.139-6.211c1.639-3.139,3.116-5.55,4.437-7.234
		c1.092-1.546,2.207-2.752,3.345-3.617c1.364-1.046,3.025-0.603,4.981,1.331c1.956,1.934,3.116,3.765,3.481,5.494
		c0.591,0.865,0.683,1.82,0.272,2.866c-0.136,0.183-0.216,0.262-0.238,0.239c-0.023-0.022-0.103-0.113-0.239-0.273
		c-0.137-0.159-0.251-0.261-0.341-0.307c-0.183-0.044-0.365-0.113-0.546-0.205c-0.092-0.045-0.229-0.103-0.41-0.17
		c-0.182-0.068-0.318-0.103-0.409-0.103c-0.365-0.091-0.706,0.068-1.023,0.478c-0.137,0.092-0.308,0.251-0.513,0.478
		c-0.204,0.228-0.353,0.409-0.443,0.546c-1.32,1.229-2.366,2.549-3.14,3.958c-0.501,0.819-0.955,1.388-1.364,1.706
		c-0.046,0.092-0.114,0.229-0.205,0.41c-0.092,0.182-0.183,0.296-0.273,0.341c-0.092,0.136-0.66,1.069-1.706,2.798
		c-0.455,0.819-0.887,1.615-1.297,2.389c-0.91,1.638-1.569,2.866-1.979,3.686c-0.137,0.273-0.388,0.796-0.751,1.57
		c-0.365,0.774-0.614,1.388-0.751,1.842c-0.638,1.593-1.047,2.867-1.229,3.822c0,1.047,1,0.228,3.003-2.457
		C263.554,31.715,263.94,31.147,264.077,30.828z"/>
</g>
</svg>
