<?xml version="1.0" encoding="utf-8"?>
<!-- Generator: Adobe Illustrator 16.0.0, SVG Export Plug-In . SVG Version: 6.00 Build 0)  -->
<!DOCTYPE svg PUBLIC "-//W3C//DTD SVG 1.1//EN" "http://www.w3.org/Graphics/SVG/1.1/DTD/svg11.dtd">
<svg version="1.1" id="Layer_1" xmlns="http://www.w3.org/2000/svg" xmlns:xlink="http://www.w3.org/1999/xlink" x="0px" y="0px"
	 width="612px" height="792px" viewBox="0 0 612 792" enable-background="new 0 0 612 792" xml:space="preserve">
<circle fill="#FB385F" cx="306" cy="395.999" r="305.999"/>
<path fill="#FFFFFF" d="M449.463,220.848H162.537c-17.503,0-31.688,14.185-31.688,31.688V539.46
	c0,17.498,14.185,31.688,31.688,31.688h286.924c17.498,0,31.688-14.189,31.688-31.688V252.536
	C481.15,235.033,466.961,220.848,449.463,220.848L449.463,220.848z M239.247,523.319c0,5.096-4.127,9.223-9.223,9.223h-39.25
	c-5.096,0-9.223-4.129-9.223-9.223V358.772c0-5.095,4.13-9.223,9.223-9.223h39.253c5.096,0,9.223,4.129,9.223,9.223v164.547H239.247
	z M210.398,334.037c-20.595,0-37.289-16.697-37.289-37.295c0-20.594,16.692-37.289,37.289-37.289
	c20.598,0,37.292,16.697,37.292,37.289C247.689,317.342,230.995,334.037,210.398,334.037L210.398,334.037z M444.383,524.063
	c0,4.684-3.795,8.482-8.475,8.482h-42.125c-4.68,0-8.477-3.798-8.477-8.482v-77.186c0-11.511,3.378-50.454-30.089-50.454
	c-25.961,0-31.226,26.655-32.282,38.613v89.024c0,4.684-3.796,8.481-8.479,8.481h-40.739c-4.683,0-8.482-3.797-8.482-8.481V358.029
	c0-4.684,3.797-8.482,8.482-8.482h40.739c4.683,0,8.479,3.797,8.479,8.482v14.354c9.627-14.445,23.934-25.599,54.389-25.599
	c67.445,0,67.063,63.013,67.063,97.641v79.64h-0.004V524.063z"/>
</svg>
