<?xml version="1.0" encoding="utf-8"?>
<!-- Generator: Adobe Illustrator 16.0.0, SVG Export Plug-In . SVG Version: 6.00 Build 0)  -->
<!DOCTYPE svg PUBLIC "-//W3C//DTD SVG 1.1//EN" "http://www.w3.org/Graphics/SVG/1.1/DTD/svg11.dtd">
<svg version="1.1" id="Layer_1" xmlns="http://www.w3.org/2000/svg" xmlns:xlink="http://www.w3.org/1999/xlink" x="0px" y="0px"
	 width="612px" height="792px" viewBox="0 0 612 792" enable-background="new 0 0 612 792" xml:space="preserve">
<circle fill="#FB385F" cx="305.953" cy="395.767" r="305.767"/>
<path fill="#FB385F" d="M522.254,180.006c119.41,119.409,119.415,313.018-0.005,432.436c-119.414,119.409-313.027,119.409-432.436,0
	L522.254,180.006z"/>
<path fill="#FFFFFF" d="M252.496,282.179c0,9.381,0,51.279,0,51.279h-37.568v62.708h37.568v186.328h77.173V396.167h51.786
	c0,0,4.852-30.074,7.199-62.944c-6.741,0-58.691,0-58.691,0s0-36.486,0-42.879c0-6.403,8.41-15.021,16.729-15.021
	c8.305,0,25.826,0,42.048,0c0-8.546,0-38.041,0-65.281c-21.659,0-46.301,0-57.17,0C250.585,210.038,252.496,272.804,252.496,282.179
	z"/>
</svg>
