<svg xmlns="http://www.w3.org/2000/svg" width="612" height="792" viewBox="0 0 612 792"><circle fill="#FB385F" cx="306" cy="395.999" r="305.999"/><path fill="#FFF" d="M449.463 220.848H162.537c-17.503 0-31.688 14.185-31.688 31.688V539.46c0 17.498 14.185 31.688 31.688 31.688h286.924c17.498 0 31.688-14.189 31.688-31.688V252.536c.001-17.503-14.188-31.688-31.686-31.688zM239.247 523.319a9.22 9.22 0 0 1-9.223 9.223h-39.25a9.221 9.221 0 0 1-9.223-9.223V358.772a9.223 9.223 0 0 1 9.223-9.223h39.253a9.221 9.221 0 0 1 9.223 9.223v164.547h-.003zm-28.849-189.282c-20.595 0-37.289-16.697-37.289-37.295 0-20.594 16.692-37.289 37.289-37.289 20.598 0 37.292 16.697 37.292 37.289-.001 20.6-16.695 37.295-37.292 37.295zm233.985 190.026c0 4.684-3.795 8.482-8.475 8.482h-42.125c-4.68 0-8.477-3.798-8.477-8.482v-77.186c0-11.511 3.378-50.454-30.089-50.454-25.961 0-31.226 26.655-32.282 38.613v89.024a8.48 8.48 0 0 1-8.479 8.481h-40.739a8.482 8.482 0 0 1-8.482-8.481V358.029a8.482 8.482 0 0 1 8.482-8.482h40.739a8.48 8.48 0 0 1 8.479 8.482v14.354c9.627-14.445 23.934-25.599 54.389-25.599 67.445 0 67.063 63.013 67.063 97.641v79.64h-.004v-.002z"/></svg>