<svg xmlns="http://www.w3.org/2000/svg" width="530" height="142" viewBox="0 0 530 142"><path fill="#000" d="M17.503 15.76c-2.785.01-5.57.05-8.356.05h-.4C12.597 10.405 16.39 5.29 20.212.05c-.13-.008-.192-.037-.255-.037C13.927.015 7.9.005 1.872 0c-.212 0-.285.05-.283.273.01 1.246 0 2.49 0 3.735 0 .355 0 .354.36.354h9.15c.12 0 .24.016.42.03C7.67 9.662 3.84 14.877 0 20.125l.197.01c5.79 0 11.582 0 17.372.007.23 0 .26-.095.26-.293-.01-1.27-.01-2.51 0-3.77 0-.27-.07-.32-.34-.32zM41.695.27c-5.46 0-10.923-.007-16.385.01-.606.002-1.227.08-1.814.23-2.108.542-3.794 2.83-3.71 5.018.007.24.148.15.292.15h8.385c1.41 0 2.822.062 4.233.053 1.54-.01 3.08.06 4.614-.04 1.588-.09 2.857-.83 3.732-2.18.588-.91.85-1.92.978-2.99.036-.29-.15-.24-.325-.24zm-8.332 7.137c-2.766 0-5.532-.002-8.298 0-.89 0-1.75.175-2.534.605-1.82 1-2.52 2.675-2.74 4.634-.03.26.13.25.31.25 1.46-.002 2.91 0 4.37 0 .5 0 .99.007 1.48-.002 1.09-.02 2.19.023 3.26-.083 1.41-.14 2.55-.82 3.36-2 .64-.92.96-1.96 1.07-3.07.04-.32.05-.33-.27-.33zm-5.542 7.107c-.84.005-1.68-.01-2.52.006-.39.007-.78.04-1.17.102-3.02.47-4.15 3.002-4.33 5.162-.01.193.06.257.25.253.51-.01 1.01-.003 1.51-.003v.027c.69-.03 1.38-.01 2.06-.1 2.55-.32 4.49-2.62 4.47-5.22 0-.19-.08-.23-.24-.22zM71.35 29.76c7.89-.013 14.277-6.43 14.277-14.35 0-7.788-6.357-14.202-13.953-14.338-7.98-.142-14.646 6.33-14.65 14.18 0 8.077 6.36 14.52 14.324 14.507zm-.03-27.993c7.576-.003 13.61 6.152 13.61 13.876-.003 7.293-6.2 13.394-13.605 13.396-7.544 0-13.61-6.12-13.61-13.73 0-7.41 6.16-13.55 13.605-13.55zm-5.717 7.197c.124.413-.223.557-.59.585l-1.227.09c1.486 4.43 2.95 8.79 4.45 13.25.106-.18.15-.23.17-.28.822-2.46 1.65-4.92 2.45-7.39.074-.23.038-.53-.042-.76-.424-1.23-.933-2.43-1.304-3.67-.255-.85-.592-1.4-1.595-1.3-.17.02-.38-.35-.57-.54.23-.14.46-.4.694-.4 2.04-.03 4.08-.03 6.12 0 .23 0 .46.26.69.4-.21.18-.38.46-.62.53-.38.11-.8.09-1.26.13l4.45 13.25c.67-2.24 1.3-4.3 1.91-6.36.54-1.84.22-3.56-.77-5.18-.3-.49-.66-.96-.83-1.5-.19-.61-.35-1.3-.25-1.9.17-1.03.96-1.54 2.03-1.64-5.81-5.39-15-3.45-18.38 2.45 1.3-.06 2.54-.14 3.79-.16.23-.01.62.19.68.38zm2.33 17.95c-.028.08-.03.168-.05.3 2.518.698 4.99.648 7.517-.204l-3.863-10.58c-1.236 3.594-2.422 7.038-3.605 10.485zm-1.948-.48l-5.82-15.964c-2.625 5.13-.628 12.954 5.82 15.966zM83.58 16.18c.184-2.425-.653-5.782-1.376-6.244-.08.892-.024 1.884-.28 2.79-.603 2.13-1.34 4.223-2.048 6.322-.77 2.282-1.573 4.553-2.36 6.83 3.703-2.197 5.74-5.438 6.063-9.698zm35.005-7.533h3.994v13.536h-1.78v2.44h6.21V21.96h-1.56V8.425h4.21v1.997h2.22V6.43h-15.75v3.993h2.44V8.647zm18.24-6.878h-25.778c-.45 0-.895.27-.895.71v25.77c0 .44.445.8.895.8h25.777c.45 0 .622-.36.622-.81V2.48c0-.44-.172-.713-.622-.713zm-3.596 9.98h-4.66v-2h-2V20.4h1.99v5.326h-8.88v-5.1h1.33V9.98h-1.33v1.774h-5.11V5.097h18.64v6.657zm30.04 1.73c0 .17.05.29.08.4.18.72.59 1.35 1.06 1.91.68.81 1.51 1.46 2.36 2.07.74.53 1.49 1.05 2.23 1.58.13.09.25.19.39.3l-.32.17c-.98.5-1.93 1.05-2.79 1.73-.53.41-1.03.84-1.39 1.4-.58.91-.78 1.87-.35 2.91.12.3.31.56.58.75.08.06.18.12.28.15.26.06.53.1.79.15h.75c.83-.08 1.58-.36 2.27-.83 1.06-.74 1.78-1.73 2.09-2.99.22-.92.23-1.85-.03-2.76-.03-.09-.06-.17-.09-.25-.03-.09-.07-.17-.12-.27l1.7-.98.02.02c-.03.1-.07.2-.09.3-.2.74-.34 1.49-.29 2.26.05.81.28 1.58.75 2.26.38.55 1.31.57 1.72.02.14-.2.28-.4.39-.62.28-.57.53-1.16.8-1.74l.04-.11c-.02.27-.05.51-.06.76-.02.37.01.75.13 1.1.11.3.3.53.65.57.24.03.43-.08.61-.22.27-.22.5-.49.66-.79.47-.87.96-1.72 1.38-2.61.46-.96.87-1.95 1.29-2.92l.07-.17c.1.39.17.78.3 1.15.15.43.34.85.54 1.26.1.19.09.31-.05.47-.56.67-1.11 1.35-1.66 2.03-.12.15-.24.3-.35.46-.06.1-.1.22-.12.34-.03.22.11.43.34.49.22.04.45.06.67.05.77-.06 1.47-.33 2.08-.78.8-.59 1.06-1.4.86-2.36-.05-.26-.14-.51-.23-.76-.04-.11-.04-.19.03-.3.64-.91 1.18-1.88 1.69-2.87.02-.04.04-.07.07-.12.16.86.41 1.68.85 2.43-.23.22-.45.41-.66.63-.45.48-.83 1-1.03 1.63-.09.27-.16.55-.12.84.06.45.43.75.87.64.95-.22 1.78-.67 2.38-1.47.4-.54.44-1.13.27-1.76-.05-.17-.1-.34-.16-.53.23-.07.46-.16.7-.22 1.23-.28 2.45-.23 3.63.21.7.26 1.26.7 1.59 1.38.41.84.18 1.63-.61 2.16-.07.05-.16.09-.22.15-.03.04-.06.11-.05.17.01.03.09.07.14.07.26-.01.47-.14.67-.28.5-.35.87-.82.95-1.44l.01-.05-.02-.4c-.01-.02 0-.05 0-.06-.1-.91-.59-1.61-1.29-2.15-.81-.64-1.77-.9-2.78-.94-.83-.04-1.64.09-2.42.37-.22.08-.44.17-.66.26l-.09-.16c-.23-.47-.51-.92-.57-1.46-.04-.39-.09-.77 0-1.15.08-.37.2-.72.31-1.08.05-.19.01-.29-.16-.37-.07-.03-.13-.06-.2-.07-.43-.07-.86-.03-1.28.09-.15.04-.26.12-.29.29-.02.09-.06.18-.09.28-.11.38-.19.78-.36 1.15-.44.92-.95 1.81-1.47 2.69l-.18.3c-.18-.38-.38-.73-.44-1.13-.06-.45-.12-.91 0-1.36.08-.34.19-.67.29-1 .05-.16.03-.24-.12-.33-.08-.05-.16-.08-.24-.09-.45-.07-.89-.03-1.33.11-.13.04-.2.13-.24.27-.12.41-.23.82-.4 1.21-.69 1.57-1.396 3.14-2.1 4.7-.148.32-.32.64-.487.96-.04.08-.1.15-.15.22-.04-.05-.06-.09-.06-.12 0-.21-.02-.41.02-.61.115-.58.25-1.17.39-1.75.116-.48.25-.96.38-1.435.04-.16.04-.31-.07-.45-.194-.22-.6-.27-.84-.1l-.103.06.02-.17c.05-.36.06-.73-.04-1.09-.13-.45-.45-.7-.91-.69-.22.01-.45.05-.65.12-.85.34-1.5.92-2.05 1.63-.05.07-.12.13-.19.17-.72.4-1.43.79-2.15 1.18l-.8.44c-.22-.2-.41-.42-.63-.59-.68-.55-1.36-1.09-2.04-1.63-.6-.48-1.19-.98-1.63-1.62-.33-.48-.55-1-.57-1.58-.03-.75.18-1.43.56-2.07.49-.82 1.15-1.47 1.88-2.06.778-.63 1.61-1.16 2.48-1.65 1.22-.68 2.46-1.28 3.8-1.68 1.37-.41 2.77-.64 4.2-.48.568.06 1.11.19 1.62.47.39.21.7.49.85.92.147.42.14.86.04 1.29-.2.87-.68 1.59-1.284 2.24-.99 1.05-2.197 1.77-3.55 2.25-.787.27-1.59.44-2.42.51-.677.054-1.34-.006-1.98-.24-.42-.16-.79-.397-1.09-.74-.06-.065-.12-.13-.22-.07-.1.053-.12.145-.08.24.05.153.1.314.18.453.21.35.52.6.86.81.66.42 1.39.56 2.146.59 1.15.05 2.276-.12 3.38-.43 1.58-.44 2.956-1.22 4.06-2.45.91-1.02 1.57-2.174 1.71-3.57.07-.68-.007-1.344-.326-1.964-.35-.67-.895-1.17-1.55-1.52-.96-.5-1.99-.79-3.05-.79h-1.07c-1.29 0-2.536.37-3.75.81-.91.33-1.81.73-2.69 1.16-1.9.95-3.67 2.09-5.12 3.67-.72.78-1.34 1.65-1.69 2.67-.1.3-.2.62-.27.926m6.895 8.91c-.08 1.104-.58 2-1.4 2.723-.46.4-.99.69-1.6.8-.22.03-.45.04-.663-.05-.31-.14-.38-.41-.38-.7-.01-.47.15-.89.37-1.29.3-.52.72-.91 1.18-1.28.72-.584 1.493-1.08 2.29-1.55l.06-.02c.13.45.19.9.15 1.36zm6.24-4.78c-.05.356-.13.71-.23 1.05-.36 1.18-.815 2.33-1.31 3.46-.09.21-.22.4-.34.6-.02.03-.04.05-.07.08-.14.14-.28.13-.35-.05-.08-.22-.136-.45-.18-.67-.03-.15-.02-.31-.03-.47.01-1.11.35-2.12.93-3.068.24-.38.495-.75.89-1 .12-.07.25-.13.39-.17.21-.06.34.04.3.25zm4.25 5.41l1.53-1.78c.065.66-1.06 1.986-1.525 1.78zm4.88-1.194c-.11.06-.23.1-.34.16-.1.06-.14 0-.14-.08 0-.06.01-.12.02-.18.207-.73.586-1.35 1.15-1.85l.04-.02c.27.75-.04 1.57-.74 1.97zm60.09-17.5c-2.85-1.41-5.765-1.55-8.75-.498-2.75.97-4.945 2.71-6.576 5.08-2.76 4.01-4.76 8.38-5.88 13.13-.572 2.43-.943 5.01-.845 7.52.01.2.04.26.06.73h14.08c-.04-.47-.07-.33-.1-.42-.74-1.89-1.33-3.89-1.73-5.88-.58-2.86-.89-5.77-.29-8.66.85-4.04 3.15-6.95 7.03-8.46 2.2-.86 4.29-.62 6.12.99.02.02.05.01.1.017l.6-.91c-1.16-1.1-2.42-1.96-3.81-2.64zm-24.82 18.59l-.31 2.67 2.6.31.476-2.778-2.76-.21zm5.1-7.98l-2.44-.96-.79 2.24 2.49.8.74-2.09zm11.57 12.6c.83.06 1.67.1 2.59.16-.335-.7-.63-1.33-.94-1.95-.04-.068-.15-.13-.23-.13-.71-.01-1.42-.01-2.17-.01.17.61.32 1.18.49 1.734.03.08.166.18.26.19zM230 7.634l-1.86-1.23-1.48 1.66 1.9 1.29 1.44-1.71zm5.91 12.45c-.006.08.06.2.13.23.67.3 1.34.59 2.08.91-.03-.58-.05-1.06-.09-1.55-.005-.08-.046-.21-.11-.25-.61-.33-1.24-.66-1.917-1.02-.04.62-.08 1.16-.1 1.7zm-.5-16.785l-1.27-1.44-1.754.91 1.274 1.55 1.75-1.02zm.795 11.48c-.037.09.012.28.087.34.51.46 1.033.9 1.616 1.4.133-.56.26-1.06.366-1.56.02-.09-.008-.23-.07-.28-.454-.36-.922-.71-1.407-1.08-.216.42-.424.8-.594 1.2zm2.905-12.24c.65.02 1.3.01 1.984.01-.066-.47-.1-.84-.18-1.19-.024-.1-.18-.24-.286-.25-.65-.05-1.305-.07-2.02-.11.095.49.168.91.27 1.33.024.09.153.21.235.22zm.79 8.33c.035-.06.04-.17.008-.23-.318-.5-.65-.99-.993-1.5l-1.11 1.02 1.536 1.71c.21-.36.39-.67.56-.98zm1.2-3.39l.664 1.24c1.04-.57 1.14-.77.77-1.59l-1.432.37zm4.967-3.8c.433.27.89.5 1.353.75l.31-.49L246 2.67c-.023.255-.06.436-.05.613.007.14.028.34.117.39zm-.602 3.9c.465.05 1.167.1 1.634.15V7.1c-.47-.102-1.17-.203-1.64-.31v.794zm51.755 10.64c-.097-.63-.632-1.05-1.255-1.08-.225-.01-.453.02-.678.04-.273.03-.54.09-.81.13l-.564.06-.006-.03c.35-.66.713-1.31 1.043-1.98.252-.51.47-1.05.69-1.57.372-.87.67-1.77.913-2.69.234-.88.434-1.76.498-2.67.03-.37.05-.73.05-1.09 0-.29-.03-.58-.06-.87-.03-.33-.13-.65-.27-.95-.18-.4-.46-.73-.76-1.04-.24-.25-.5-.48-.76-.7-.37-.32-.79-.58-1.22-.81-.49-.26-1.01-.46-1.55-.6-.32-.08-.65-.15-.99-.21-.12-.03-.23-.08-.35-.08h-2.24c-.08 0-.16.04-.24.05-.53.06-1.06.16-1.58.32-.19.06-.36.02-.55 0-.14-.02-.28-.05-.41-.06-.53-.03-1.06-.07-1.6-.06-.51 0-1.01.09-1.51.23-.41.11-.81.26-1.18.47-.15.09-.28.07-.45.03-.55-.16-1.1-.31-1.66-.44-.35-.08-.71-.12-1.06-.16-.34-.04-.69-.06-1.03-.07-.34-.01-.68-.01-1.01.02-.53.05-1.06.15-1.56.33-.56.19-1.08.47-1.54.84-.47.37-.85.83-1.16 1.35-.32.55-.54 1.14-.68 1.76-.07.33-.12.68-.17 1.02-.01.11.16.21-.06.32v1.49c.22.1.05.2.06.3.03.24.06.48.1.71.06.38.14.75.21 1.12.11.52.22 1.04.34 1.55.09.38.19.75.29 1.12.16.57.31 1.14.49 1.7.16.52.35 1.03.54 1.54.26.71.57 1.4.95 2.06.33.57.69 1.1 1.19 1.54.33.29.69.51 1.11.62.34.09.67.1 1.01.03.4-.08.75-.25 1.06-.51.04-.03.07-.05.12 0 .16.2.37.34.6.45.6.31 1.26.41 1.94.45.16.01.32-.02.49-.02.31-.01.62-.07.93-.16.16-.05.31-.1.48-.16.01.17.02.34.02.51l.03.91c.01.13.01.27.02.41.04.35.07.71.11 1.06.03.24.06.49.12.73.12.48.28.95.48 1.4.19.44.48.82.85 1.13.48.4 1.05.57 1.66.6.26.02.52 0 .77-.04.4-.07.79-.16 1.18-.28.79-.23 1.46-.64 1.97-1.3.29-.38.52-.79.68-1.24.13-.37.25-.74.34-1.12.08-.3.11-.61.16-.92.03-.2.05-.4.07-.61.03-.33.06-.66.08-.99.02-.23.02-.46.03-.69.01-.07.02-.14.02-.21.01-.06.04-.09.11-.08.24.004.47.01.7 0 .27-.01.53-.02.78-.066.37-.06.73-.14 1.09-.23.43-.11.82-.31 1.19-.53.44-.27.83-.58 1.16-.97.28-.35.42-.75.35-1.19zm-.745.22c-.014.2-.105.37-.236.52-.63.69-1.42 1.11-2.32 1.32-.34.08-.69.12-1.04.15-.3.03-.6.03-.9.02-.22-.01-.44-.06-.66-.09-.03.21-.05.42-.07.63l-.11.82c-.04.26-.06.52-.09.78-.03.25-.07.5-.11.76l-.09.7c-.06.36-.11.72-.18 1.07-.09.43-.22.84-.43 1.22-.26.47-.62.83-1.08 1.09-.48.28-1 .42-1.52.54-.38.08-.76.1-1.14.06-.66-.06-1.22-.34-1.64-.84-.4-.48-.68-1.04-.77-1.67-.05-.3-.08-.6-.11-.9-.03-.33-.05-.67-.07-1.01-.02-.42-.04-.85-.05-1.28-.01-.52-.02-1.05-.02-1.57v-.02c-.27.16-.53.34-.81.48-.33.17-.68.27-1.05.3-.29.02-.58.04-.87.02-.47-.04-.94-.11-1.36-.34-.17-.09-.35-.21-.47-.36-.28-.36-.15-.81.27-1.03.29-.15.61-.21.93-.29.28-.06.55-.13.82-.22.27-.08.44-.3.6-.51l.27-.34-.32-.03c-.32-.03-.62-.11-.9-.24-.25-.1-.25-.12-.43.08-.3.33-.6.66-.89.99-.22.25-.44.49-.65.74-.22.25-.42.5-.65.73-.35.33-.76.53-1.25.51-.32-.02-.6-.13-.87-.31-.53-.37-.89-.89-1.22-1.44-.42-.7-.74-1.45-1.02-2.22-.19-.53-.38-1.06-.55-1.6-.18-.58-.34-1.17-.5-1.77-.12-.44-.22-.89-.32-1.35-.11-.51-.22-1.02-.32-1.54-.06-.35-.1-.7-.15-1.05-.07-.47-.08-.95-.06-1.42.02-.43.08-.86.15-1.28.08-.59.27-1.15.55-1.67.17-.32.38-.61.63-.89.4-.44.89-.77 1.43-1.01.38-.17.78-.27 1.19-.35.6-.12 1.21-.11 1.83-.1.26.01.53.06.8.08.57.06 1.14.18 1.69.33.4.11.8.25 1.2.38.04.01.1.01.13-.01.55-.35 1.14-.59 1.77-.72.24-.05.49-.07.73-.09.3-.02.6-.03.9-.02.36.02.72.08 1.07.13.18.02.35.08.52.1.08.01.17-.05.26-.07.45-.11.9-.22 1.35-.3.33-.06.68-.09 1.02-.11.38-.02.76-.04 1.14-.02.48.02.96.09 1.43.2.58.14 1.14.33 1.67.61.39.2.77.44 1.11.73.23.19.45.38.66.6.25.26.5.52.66.86.12.26.2.52.23.8.03.35.07.7.06 1.04 0 .33-.04.67-.08 1-.07.75-.23 1.49-.43 2.22-.16.6-.35 1.2-.56 1.78-.19.54-.42 1.08-.64 1.61-.17.39-.35.78-.54 1.16-.37.72-.75 1.43-1.19 2.1-.08.12-.15.24-.23.36.19.13.41.18.63.2.21.02.42.04.63.02.33-.02.66-.07.99-.12s.65-.14.99-.12c.33.04.57.29.55.61zm-4.803-.73l-.43-.55c-.22-.29-.377-.62-.535-.95-.15-.31-.334-.61-.492-.91-.275-.54-.56-1.07-.813-1.62-.32-.69-.572-1.4-.65-2.16-.033-.32-.043-.646.02-.965.106-.52.374-.92.823-1.19.414-.26.88-.34 1.355-.36.293-.02.59-.01.896-.01l-.01-.06c-.19-.4-.37-.81-.578-1.19-.293-.55-.668-1.05-1.088-1.5-.31-.34-.646-.66-1.014-.94-.363-.28-.742-.52-1.15-.72-.484-.24-.99-.42-1.52-.54-.51-.11-1.02-.18-1.545-.19-.44-.01-.88.01-1.32.11-.65.15-1.25.42-1.77.85-.29.24-.54.52-.77.82-.26.36-.47.74-.65 1.15-.24.56-.42 1.14-.53 1.73-.06.29-.1.59-.15.89-.01.1-.01.21-.02.33.08-.04.14-.08.2-.11l.19-.09c.66-.3 1.33-.49 2.06-.47.31.01.61.07.88.21.53.26.84.7.97 1.26.1.38.16.78.22 1.17.05.31.1.62.11.93.01.45-.01.9-.04 1.35-.02.38-.1.76-.23 1.12-.24.65-.51 1.3-.77 1.95-.08.21-.15.44-.23.67h.32c.04 0 .08 0 .12.01.3.07.55.2.76.43.28.3.43.65.43 1.05.01.22-.02.44-.01.67.01 1.04.01 2.09.02 3.13 0 .17.01.34.02.51.03.35.05.71.09 1.07.03.25.06.5.1.75.06.36.22.67.4.98.16.26.37.48.64.63.46.26.96.28 1.46.18.34-.06.67-.17 1-.27.32-.11.61-.28.86-.52.23-.22.39-.5.5-.79.21-.58.28-1.19.37-1.8l.09-.68.1-.78.07-.58c.04-.27.07-.55.1-.83.03-.21.05-.43.07-.64.03-.27.06-.55.08-.82.02-.21.01-.42.05-.63.07-.38.24-.7.58-.9.14-.09.3-.15.46-.22l-.02-.04zm-12.57-1.54c-.166-.39-.268-.8-.297-1.22-.027-.4.02-.79.06-1.19.042-.38.075-.77.085-1.15.02-.64-.023-1.27-.053-1.91-.02-.38.025-.76.06-1.14.03-.34.067-.69.132-1.02.1-.56.25-1.12.45-1.66.19-.51.41-1.01.73-1.46.21-.31.46-.6.69-.9l-.07-.03c-.77-.25-1.54-.44-2.34-.52-.38-.04-.76-.06-1.14-.09-.12-.01-.24.01-.35.02-.29.03-.58.04-.87.09-.48.09-.95.24-1.38.49-.39.22-.71.52-.98.87-.3.38-.5.82-.65 1.29-.17.55-.25 1.11-.27 1.69-.02.5-.03 1 .05 1.5.06.37.11.75.18 1.12.1.5.2 1.01.32 1.51.17.71.35 1.43.55 2.13.19.67.41 1.34.65 2.01.19.54.42 1.07.65 1.59.15.34.34.67.53.99.21.34.45.66.77.9.4.31.71.36 1.13.02.17-.15.32-.33.48-.5.24-.27.48-.55.72-.82.31-.35.62-.7.93-1.04.07-.08.13-.15.19-.23l-.1-.09c-.39-.38-.69-.8-.89-1.3zm11.716-10.39c.252.3.496.6.723.92.44.61.79 1.28 1.05 1.98.12.32.21.63.17.97-.02.24-.02.48-.04.73-.02.2-.05.4-.07.6-.04.3-.09.6-.11.9-.01.29 0 .58.02.87.02.3.06.59.09.88.03.33.07.66.08 1 .01.28-.02.55-.04.82-.03.33-.11.65-.23.95-.08.22-.19.42-.29.64l.04.04.06.05.06-.11c.51-.8.97-1.64 1.36-2.51.25-.56.49-1.12.72-1.69.36-.89.64-1.8.86-2.73.1-.41.17-.84.24-1.26.06-.33.1-.66.11-1 .02-.35 0-.71-.04-1.06-.02-.27-.09-.53-.25-.75-.27-.35-.56-.68-.92-.95-.3-.22-.6-.45-.92-.64-.51-.29-1.06-.49-1.64-.63-.56-.13-1.14-.18-1.71-.2-.34 0-.68.03-1.02.06-.31.03-.61.08-.92.12.33.19.66.36.97.55.65.41 1.23.91 1.73 1.49zm-8.43 11.51c.21-.67.497-1.31.772-1.95.225-.52.348-1.07.39-1.64.02-.27.015-.56 0-.84-.017-.31-.042-.62-.087-.93-.057-.39-.123-.78-.215-1.17-.102-.41-.357-.7-.793-.81-.264-.06-.53-.06-.797-.02-.654.11-1.254.35-1.813.7-.113.07-.176.13-.156.29.04.34.05.69.04 1.04 0 .49-.03.98-.04 1.47-.01.16-.03.32-.05.48-.03.24-.08.49-.08.73 0 .25.02.51.09.75.19.77.59 1.39 1.26 1.84.41.27.86.41 1.36.44.03-.11.06-.22.1-.33zm-.783-6.56c-.088-.18-.037-.33.166-.4.05-.01.1-.03.16-.04.07-.01.15 0 .22 0 .26 0 .51.04.72.2.14.11.18.25.09.39-.12.21-.32.31-.55.33-.37.03-.63-.14-.78-.46zm10.266-.06l.09-.73c.02-.1-.04-.12-.12-.12-.26 0-.52-.01-.78-.02-.29 0-.58.04-.85.16-.3.13-.53.33-.62.65-.07.25-.09.49-.06.75.04.39.13.77.26 1.13.19.49.38.97.61 1.44.31.63.66 1.24.99 1.86.09.17.16.34.26.53.19-.4.28-.81.3-1.22.01-.35-.02-.71-.04-1.06-.01-.21-.04-.43-.06-.64-.03-.3-.07-.59-.08-.89 0-.3.02-.61.04-.91.03-.29.08-.58.11-.87zm-.58-.23c-.1.27-.3.42-.57.46-.25.04-.47-.05-.63-.25-.11-.14-.07-.31.1-.4.2-.11.42-.14.68-.15.07.01.18.02.28.05.15.05.2.15.15.3zm-7.73 8.22c-.14-.11-.33-.12-.47.01-.16.16-.31.35-.46.52-.17.21-.33.43-.55.59-.32.23-.69.33-1.07.42l-.9.21v.04c.09.04.18.1.27.12.46.15.93.22 1.41.18.35-.03.69-.1 1-.25.44-.2.77-.53 1.06-.91.05-.06.07-.15.07-.23.02-.29-.13-.5-.34-.68zm11.3.12c-.37.04-.73.09-1.11.11-.17.01-.35-.02-.53-.03-.3-.02-.6-.09-.85-.25-.14-.09-.27-.1-.43-.05-.22.08-.4.19-.46.44-.03.17-.05.34-.06.5 0 .03.04.09.07.1.17.05.35.1.52.11.22.02.44.02.66.01.24-.01.47-.02.71-.06.55-.09 1.08-.24 1.55-.55.17-.11.34-.23.51-.34l-.01-.02c-.18.03-.36.06-.54.08zM337.42 1c-12.18 0-22.05 5-22.05 11.17s9.87 11.172 22.044 11.172 22.043-5.002 22.043-11.17S349.587 1 337.414 1zm-5.74 13.347c-.53.492-1.11.696-1.757.905-.642.21-1.46.166-2.46.166h-2.252l-.62 3.608h-2.63l2.35-12.268h5.07c1.52 0 2.64.438 3.34 1.24.7.8.91 1.934.63 3.368-.11.59-.31 1.14-.58 1.63-.27.49-.63.945-1.07 1.35zm7.69 1.07l1.033-5.202c.12-.61.08-1.062-.13-1.282-.203-.222-.64-.37-1.31-.37h-2.09l-1.344 6.855h-2.62l2.36-11.908h2.61l-.63 3.25h2.33c1.46 0 2.47.3 3.03.81.56.51.72 1.21.5 2.36l-1.1 5.5h-2.65zm14.52-4.032c-.113.59-.31 1.13-.582 1.62-.27.49-.627.937-1.07 1.342-.523.492-1.11.696-1.75.905-.645.21-1.46.166-2.46.166h-2.255l-.622 3.608h-2.63l2.35-12.268h5.07c1.52 0 2.64.438 3.33 1.24.7.8.91 1.954.63 3.387zm-4.963-2.822h-1.803l-.983 5.05h1.61c1.06 0 1.86-.104 2.37-.504.53-.4.88-1.02 1.06-1.96.18-.9.1-1.6-.23-1.97-.33-.37-1-.62-2-.62zm-20.56 0h-1.806l-.98 5.05h1.6c1.06 0 1.86-.104 2.37-.504.52-.4.87-1.02 1.06-1.96.18-.9.1-1.6-.23-1.97-.33-.37-1-.62-2-.62zM408.48 9.61L394.3 1.382c-.896-.51-2.067-.51-2.968 0l-14.295 8.23c-.922.53-1.55 1.527-1.55 2.593V28.64c0 1.067.642 2.065 1.564 2.6l3.77 2.148c1.81.89 2.31.89 3.14.89 2.68 0 4.07-1.62 4.07-4.443V13.608c0-.23.14-.57-.08-.57h-1.8c-.23 0-.68.34-.68.57v16.226c0 1.252-1.16 2.498-3.28 1.44l-3.89-2.254c-.13-.07-.22-.22-.22-.38V12.21c0-.155.15-.31.29-.39l14.26-8.216c.14-.074.32-.074.46 0l14.13 8.214c.14.08.12.232.12.392v16.43c0 .158.03.31-.1.386l-14.18 8.22c-.12.072-.28.072-.41 0l-3.64-2.17c-.11-.062-.24-.085-.35-.027-1.01.57-1.2.64-2.14.97-.23.08-.57.22.13.62l4.76 2.81c.46.26.98.4 1.5.4.53 0 1.05-.14 1.5-.4l14.13-8.22c.93-.54 1.39-1.54 1.39-2.6V12.2c0-1.066-.46-2.06-1.38-2.594zm-11.23 16.426c-3.77 0-4.598-1.04-4.875-2.914-.033-.202-.203-.443-.41-.443h-1.842c-.227 0-.41.27-.41.5 0 2.4 1.305 5.3 7.537 5.3 4.512 0 7.098-1.76 7.098-4.86 0-3.08-2.076-3.89-6.45-4.46-4.423-.59-4.87-.88-4.87-1.92 0-.86.38-2 3.652-2 2.927 0 4.005.62 4.45 2.6.037.18.207.32.398.32h1.848c.115 0 .223-.05.303-.13.08-.09.11-.2.1-.32-.29-3.4-2.55-4.98-7.11-4.98-4.06 0-6.48 1.71-6.48 4.59 0 3.11 2.41 3.98 6.3 4.36 4.66.45 5.02 1.14 5.02 2.05 0 1.59-1.28 2.27-4.28 2.27zm65.322 8.672l-.754-.73c-.713-.95-1.63-1.782-2.594-2.474-.77-.552-2.496-1.297-2.816-2.19l-.06-.058c.545-.062 1.182-.258 1.684-.394.846-.227 1.543-.168 2.416-.394.393-.112.834-.225 1.12-.337v-.22c-.286-.45-.7-1.05-1.18-1.46-1.257-1.07-2.603-2.14-4.02-3.03-.782-.49-1.737-.81-2.57-1.23-.28-.14-.763-.21-.95-.45-.434-.55-.67-1.26-1.006-1.91-.705-1.36-1.396-2.84-2.02-4.27-.427-.97-.704-1.93-1.235-2.81-2.557-4.19-5.3-6.73-9.56-9.21-.905-.53-1.995-.74-3.145-1.01l-1.856-.11c-.377-.16-.77-.62-1.123-.84-1.41-.89-5.027-2.83-6.07-.28-.66 1.61.984 3.18 1.572 3.99.413.57.94 1.21 1.235 1.85.194.43.228.85.394 1.3.407 1.1.763 2.3 1.292 3.32.266.52.56 1.06.898 1.52.21.28.565.41.62.84-.35.49-.366 1.24-.562 1.86-.88 2.77-.547 6.21.73 8.26.393.63 1.314 1.98 2.586 1.46 1.11-.45.928-1.85 1.246-3.09.07-.28-.054-.48.233-.67V22c.29.675.607 1.35.945 2.024.75 1.208 1.985 2.468 3.11 3.318.586.44 1.13 1.204 1.707 1.46v-.03h.06c-.15-.29-.38-.335-.56-.52-.44-.43-.93-.973-1.3-1.47-1.03-1.39-1.93-2.913-2.76-4.5-.39-.753-.74-1.59-1.07-2.36-.13-.3-.13-.75-.4-.9-.37.565-.9 1.02-1.18 1.687-.45 1.06-.51 2.36-.68 3.71-.1.03-.06.01-.12.05-.78-.19-1.06-.99-1.35-1.68-.74-1.75-.88-4.56-.23-6.58.16-.52.92-2.16.62-2.65-.15-.48-.63-.76-.9-1.13-.34-.45-.67-1.05-.9-1.58-.6-1.37-.89-2.9-1.52-4.27-.3-.66-.81-1.33-1.24-1.92-.47-.65-.99-1.13-1.35-1.91-.13-.28-.3-.73-.11-1.02.06-.19.14-.27.34-.34.32-.25 1.23.08 1.57.22.9.37 1.65.72 2.42 1.23.36.24.74.54 1.18.83h.51c.79 0 1.67.06 2.41.29 1.31.39 2.48 1.02 3.54 1.69 3.24 2.04 5.89 4.96 7.7 8.43.29.56.42 1.09.67 1.69.51 1.19 1.17 2.43 1.68 3.6.51 1.16 1.01 2.34 1.74 3.31.38.51 1.86.78 2.53 1.07.47.2 1.24.4 1.69.67.85.51 1.67 1.13 2.47 1.69.39.28 1.62.89 1.68 1.4-1.98-.06-3.49.13-4.78.67-.37.16-.95.16-1.02.62.2.21.23.53.39.79.3.5.83 1.16 1.29 1.51.51.39 1.03.8 1.57 1.13.97.59 2.04.93 2.98 1.52.55.35 1.14.79 1.67 1.18.26.19.25.5.83.62v-.06c-.29-.23-.27-.54-.44-.78zM434.932 6.1c-.412-.008-.725.045-1.012.112v.042h.057c.197.288.545.67.787 1.02l.563 1.183.055-.054c.35-.246.508-.637.506-1.236-.14-.146-.16-.33-.28-.505-.163-.234-.473-.367-.676-.562zM37.982 56.98c-.187-.406-.277-.888-.297-1.34-.048-1.116-.008-2.235-.058-3.35-.045-1-.4-1.9-1.36-2.413-.844-.453-1.823-.498-2.763-.51v1.783c.313.01.236.02.313.023 1.262.063 1.684.463 1.7 1.714.012.93.004 1.862.02 2.792.017 1.12.186 2.2 1.218 2.92.017.01.016.05.026.1-.52.37-.94.85-1.06 1.51-.1.53-.15 1.07-.17 1.61-.03.97 0 1.95-.02 2.93-.02.76-.38 1.12-1.13 1.29-.28.06-.57.09-.89.12v1.77c.63-.04.95-.07 1.38-.11 1.62-.18 2.53-1.02 2.71-2.58.06-.49.05-.99.07-1.49.02-.93.01-1.87.1-2.79.09-.94.77-1.47 1.71-1.41V57.7c-.62.114-1.2-.157-1.47-.74zm-29.43 3.8c0-3.616-.097-7.232-.097-10.85v-.568c-.94 0-1.95-.01-2.94.004-.402.006-.757.04-1.156.095-1.53.21-2.27.93-2.54 2.45-.08.44-.07.9-.07 1.35-.01.86.01 1.71 0 2.56-.02 1.08-.53 1.91-1.62 1.97-.04 0 .18.05-.14.08v1.66c1.25.2 1.65.71 1.73 1.87.01.19.01.38.02.56.01 1.04 0 2.08.04 3.12.04.97.26 1.84 1.17 2.35.85.48 2.03.52 2.66.54v-1.78c0-.01-.07-.02-.13-.03-1.36-.08-1.67-.45-1.68-1.81-.01-.9.03-1.8.02-2.7-.02-1.13-.19-2.2-1.21-2.92-.02-.01 0-.05-.01-.12.68-.43 1.05-1.1 1.15-1.9.06-.44.08-.9.08-1.35.02-.93 0-1.86.03-2.79.02-.65.44-1.13.97-1.23.5-.1.76-.1 1.7-.14v.65c0 3.23-.12 6.46-.1 9.69 0 1.11.13 2.2 1.31 2.68.64.26 1.33.34 2.07.51.12-.72.16-1.32.26-1.92-1.36-.39-1.58-.59-1.58-1.97zm8.353-6.228c-2.298-1.1-5.088-.14-6.158 2.166C9.94 58.454 9.97 60.24 10.68 62c.384.956 1.08 1.67 2.026 2.09 1.85.82 3.72.622 5.583.046.1-.03.22-.225.21-.328-.07-.52-.17-1.035-.27-1.572-.45.112-.82.227-1.2.298-1 .188-2.01.188-2.98-.2-.96-.38-1.61-1.48-1.45-2.42h6.54c.08-.94.04-2.23-.36-3.3-.36-.955-.97-1.618-1.9-2.062zm-.014 3.797H12.6c.002-1.26 1.022-2.38 2.36-2.36 1.175.02 1.988 1.1 1.934 2.35zm17.57 3.84c.16-1.58-.32-2.48-1.73-3.16-.5-.25-1.03-.43-1.54-.65-.38-.17-.76-.34-1.12-.56-.34-.21-.49-.56-.44-.96.05-.4.31-.67.68-.74.45-.09.92-.17 1.38-.14.64.05 1.27.21 1.93.33l.42-1.82c-.89-.14-1.72-.32-2.56-.38-.93-.08-1.84.08-2.7.52-1.81.93-1.84 3.79-.18 4.73.5.28 1.03.5 1.55.74.55.26 1.11.48 1.63.78.4.23.54.62.43 1.09-.09.43-.42.62-.8.66-.58.05-1.18.1-1.75.04-.69-.09-1.37-.3-2.08-.46l-.37 1.82c1.67.63 3.32.73 4.99.36 1.4-.31 2.19-1.13 2.3-2.23zm-8.89-2.96c-.61-.33-1.27-.56-1.9-.86-.39-.18-.81-.34-1.15-.59-.66-.48-.54-1.4.24-1.65.45-.14.95-.19 1.42-.15.64.05 1.27.21 1.93.33l.4-1.74c-.34-.09-.64-.19-.95-.26-1.24-.27-2.49-.37-3.71.06-1.05.37-1.78 1.06-1.92 2.22-.16 1.3.27 2.33 1.47 2.94.48.24.99.42 1.49.65.49.23.99.44 1.45.73.35.22.49.59.39 1.02-.1.43-.41.64-.79.68-.58.06-1.18.11-1.76.05-.7-.08-1.38-.3-2.1-.46-.1.5-.23 1.01-.31 1.53-.01.11.11.32.22.36 1.68.59 3.4.67 5.11.16 1.03-.3 1.74-.96 1.89-2.08.17-1.27-.14-2.36-1.35-3zm47.62 10.02c-.2-.05-.4-.11-.6-.17l-.15-.05c-.19-.06-.39-.13-.58-.19l-.08-.03c-.17-.06-.34-.13-.51-.19l-.14-.06c-.18-.07-.37-.15-.55-.23l-.11-.05c-.15-.07-.31-.14-.46-.22l-.13-.06c-.12-.06-.24-.13-.36-.19-.08-.05-.16-.09-.24-.13l-.43-.24-.14-.08c-.19-.11-.37-.23-.56-.35l-.15-.1c-.13-.09-.27-.18-.4-.27l-.13-.09c-.12-.09-.25-.19-.38-.28l-.16-.13c-.11-.09-.22-.18-.34-.27l-.15-.13-.42-.36-.04-.04c-.15-.13-.3-.27-.44-.41l-.12-.12-.32-.32-.12-.13c-.13-.14-.27-.28-.4-.42l-.02-.02c-.13-.15-.27-.3-.4-.46l-.14-.1c-.09-.12-.19-.23-.28-.35l-.1-.13c-.11-.15-.22-.29-.33-.44-3-4.09-4.07-9.73-1.68-14.36l-2.13 2.7c-2.72 3.91-2.38 9-.3 13.15.05.1.1.2.16.3l.09.19.06.11.11.2c.06.11.13.23.2.34l.11.18c.07.12.15.24.23.36l.09.15c.11.17.22.33.33.49l.01.01.05.08.3.41.11.15.28.35.11.12.39.45.01.01.02.02c.13.14.26.28.4.42l.13.13c.11.1.21.21.32.31l.13.12c.14.13.29.26.44.39h.01l.07.06.39.33.17.13c.11.09.22.18.33.26l.18.14c.13.09.25.18.37.26l.14.09.04.02c.11.08.23.16.36.24l.15.1c.19.11.37.23.56.34l.15.09c.14.08.28.16.42.23l.24.12.3.16.07.03.12.06c.16.07.32.15.48.22l.1.04c.19.08.37.16.56.24l.14.05c.17.06.35.13.53.19l.07.03c.19.06.39.13.59.19l.14.04c.2.06.4.13.61.17 13.16 2.4 16.98-7.91 16.98-7.91-3.21 4.18-8.91 5.28-14.31 4.05zm-4.74-10.67c.3.42.63.92 1.02 1.26.15.16.3.31.45.46l.12.11.45.42.02.01h.01c.17.15.35.29.53.43l.12.09c.18.14.36.27.55.4l.02.01c.09.05.17.11.25.16l.12.08c.14.08.27.17.41.25l.06.03.36.2.13.06.25.13.04.02c.18.08.35.16.53.24l.12.04c.14.06.29.12.43.17l.19.07c.13.05.26.09.4.14l.18.05c.19.06.38.14.58.17 10.16 1.68 12.5-6.14 12.5-6.14-2.11 3.04-6.21 4.5-10.57 3.36-.19-.06-.38-.11-.57-.17l-.17-.06c-.13-.04-.27-.09-.4-.14l-.18-.07c-.15-.06-.29-.11-.43-.17l-.12-.05c-.18-.07-.35-.16-.53-.24-.09-.05-.18-.09-.26-.14l-.15-.08c-.11-.06-.22-.12-.33-.19l-.08-.04c-.14-.08-.27-.17-.41-.25l-.12-.08-.26-.18c-.18-.13-.37-.27-.55-.41l-.12-.1c-1.91-1.51-3.42-3.57-4.14-5.91-.75-2.43-.59-5.15.72-7.36L68 47.43c-1.97 2.83-1.86 6.62-.33 9.62.26.5.55.99.87 1.45zm10.71-3.51l.25.09.11.03c.12.03.24.08.37.1 5.61 1.08 7.13-2.88 7.54-3.46-1.33 1.92-3.57 2.38-6.32 1.71-.22-.05-.45-.13-.66-.21-.27-.1-.53-.21-.79-.33-.49-.24-.95-.52-1.38-.85-2.46-1.87-3.98-5.43-2.38-8.32l-.86 1.2c-1.16 1.7-1.27 3.82-.47 5.71.85 2 2.59 3.57 4.62 4.31zM107.87 44v29.313h29.313v-29.31h-29.316zm15.5 24.98c-.432.88-1.257 1.456-2.215 1.735-1.47.337-2.877.145-3.923-.483-.7-.43-1.24-1.09-1.61-1.853l2.23-1.37c.02.01.08.11.16.25.285.48.53.81 1.013 1.05.473.16 1.514.26 1.916-.57.25-.43.17-1.79.17-3.3 0-2.37.01-4.74.01-7.08h2.75c0 2.58.02 5.02 0 7.54.01 1.54.14 2.91-.48 4.07zm11.39-.776c-.953 3.265-6.274 3.37-8.4 1.214-.45-.51-.73-.78-1-1.36 1.13-.65 1.13-.65 2.23-1.29.598.92 1.15 1.42 2.144 1.63 1.348.16 2.704-.3 2.4-1.73-.313-1.17-2.76-1.458-4.426-2.71-1.69-1.135-2.087-3.895-.698-5.472.46-.583 1.25-1.018 2.08-1.227l.86-.11c1.66-.04 2.7.4 3.46 1.25.21.21.382.44.71.95-.888.56-.88.56-2.15 1.38-.27-.59-.72-.95-1.196-1.11-.738-.23-1.667.02-1.86.8-.066.24-.05.46.053.86.3.68 1.3.97 2.2 1.39 2.585 1.04 3.46 2.17 3.674 3.51.21 1.15-.05 1.9-.09 2.01zm37.45-.96c-4.827 1.347 2.94 4.134 9.086 1.5-1.007-.39-1.73-.843-1.73-.843-2.74.52-4.012.56-6.5.28-2.053-.23-.855-.93-.855-.93zm8.35-2.63c-3.632.696-5.73.674-8.39.4-2.055-.213-.71-1.21-.71-1.21-5.316 1.766 2.96 3.77 10.39 1.595-.79-.28-1.29-.79-1.29-.79zm2.848-15.24s-10.75 2.684-5.615 8.6c1.515 1.744-.398 3.313-.398 3.313s3.846-1.984 2.08-4.47c-1.65-2.32-2.915-3.472 3.933-7.443zm2.514 20.412s.89.73-.97 1.297c-3.545 1.074-14.765 1.398-17.88.043-1.12-.487.98-1.163 1.64-1.306.69-.14 1.084-.12 1.084-.12-1.246-.87-8.053 1.73-3.457 2.47 12.53 2.03 22.84-.91 19.59-2.38zm-4.3-7.63c.606-.41 1.438-.77 1.438-.77s-2.37.425-4.732.623c-2.89.24-5.992.29-7.55.08-3.685-.5 2.02-1.85 2.02-1.85s-2.215-.15-4.94 1.17c-3.222 1.56 7.97 2.27 13.768.74zm1.41 3.81c-.023.072-.114.154-.114.154 7.867-2.06 4.975-7.28 1.213-5.96-.33.118-.5.39-.5.39s.21-.083.67-.18c1.91-.396 4.63 2.545-1.26 5.607zm-6.644-5.78c-1.16-2.622-5.096-4.917 0-8.944 6.357-5.017 3.096-8.282 3.096-8.282 1.316 5.19-4.64 6.75-6.792 9.98-1.464 2.2.72 4.57 3.695 7.25zm6.86 13.018c-4.825.908-10.78.803-14.31.22 0 0 .724.6 4.44.837 5.654.37 14.338-.2 14.543-2.87 0 0-.39 1.02-4.67 1.82zM215.8 44.75l2.235 25.05 10.035 2.77 10.06-2.768 2.237-25.052H215.8zm19.915 5.93l-.14 1.604-.06.735h-11.77l.28 3.12h11.21l-.075.77-.723 8.07-.052.51-6.3 1.73h-.01l-6.295-1.66-.427-4.74h3.088l.22 2.44 3.42.91h.01v-.12l3.43-.87.36-3.93h-10.66l-.75-8.52-.07-.87h15.4l-.07.79zm55.318-5.888H274c-1.476 0-2.66 1.184-2.66 2.66v22.416c0 1.475 1.185 2.66 2.66 2.66h17.052c1.475 0 2.66-1.186 2.66-2.66V47.452c-.023-1.475-1.207-2.66-2.682-2.66zM276.48 68.64v-6.305l3.152 3.15-3.152 3.152zm11.845.064h-2.928l.02-.045V57.62s.694-2.637-8.872 1.074c-.02.044-.043-10.214-.043-10.214l3.105-.022v6.57s8.717-3.44 8.717 2.616v11.062zM287.16 52.39h-3.307c1.186-1.34 2.28-3.8 2.28-3.8h3.42s-.58 1.565-2.39 3.8zm43.77-1.346l.704 7.418c.387-.666.668-1.305 1.09-1.828.393-.486.89-.937 1.43-1.248.705-.406 1.63-.023 1.857.697.07.193-.08.453-.13.683-.17-.09-.39-.142-.51-.28-.48-.592-.76-.662-1.29-.15-.98.954-1.54 2.15-1.75 3.493-.04.26.12.55.19.82.27-.1.59-.13.8-.29.71-.53 1.15-1.25 1.39-2.11.06-.19.34-.31.52-.46.09.17.28.38.24.52-.37 1.29-.78 2.57-1.21 3.85-.04.13-.28.19-.43.29-.05-.17-.18-.35-.16-.51.05-.36.16-.72.25-1.05l-1.93.89c.11 1.23.22 2.62.36 4 .1 1.05.27 1.33 1.31 1.53 1.22.23 2.45.38 3.69.47 1.82.13 3.63-.03 5.4-.51.66-.18.92-.61.97-1.26.04-.6.14-1.19.21-1.78l.4-3.57c-.44.28-.79.59-1.2.73-.3.09-.67-.05-1.01-.08.07-.32.06-.67.22-.94.25-.43.6-.81.9-1.21l-.13-.16c-.22.12-.49.21-.64.39-.31.37-.62.77-.83 1.2-.36.73-.63 1.5-.94 2.25-.14.32-.26.82-.72.63-.49-.2-.15-.64-.03-.95.18-.49.43-.96.59-1.32-.47.05-.94.12-1.41.16-.2.01-.44-.1-.61-.02-.54.24-.89.15-1-.46-.25.16-.47.39-.72.45-.31.07-.72.12-.95-.04-.18-.12-.24-.58-.18-.85.12-.54.35-1.05.57-1.56.14-.32.27-.82.72-.6.45.22.04.58-.06.88l-.48 1.36.26.15c.24-.21.55-.39.72-.65.28-.43.45-.92.71-1.36.11-.18.35-.29.53-.42.03.23.12.46.09.69-.03.22-.19.43-.26.65-.12.33-.21.67-.32 1.06.55.02.78-.21.94-.62.48-1.28.98-2.56 1.51-3.81.09-.22.4-.34.61-.5.02.26.14.55.06.77-.44 1.16-.93 2.3-1.39 3.45-.08.19-.1.4-.15.61.82-.37 1.5-.77 1.75-1.64.06-.21.31-.37.47-.55l.38.4c.12-.1.22-.21.35-.29.39-.25.82-.48 1.23-.08.43.4.11.8-.12 1.15-.24.38-.54.72-.81 1.09.62-.4 1.46-.58 1.57-1.44.28-2.1.52-4.2.76-6.3.08-.63.11-1.25.17-1.9-4.86 1.18-9.62 1.19-14.43-.01zm2.085 16.376c.234.618.59 1.226.684 1.87.19 1.374.24 2.77.38 4.15.02.203.15.48.31.568 2.39 1.302 4.81 1.527 7.26.104.36-.213.43-.493.48-.887.22-1.917-.28-3.95.94-5.754-3.44.86-6.78.88-10.07-.05zm8.27-16.032c1.165-.112 2.314-.386 3.466-.61.22-.043.41-.208.62-.317-.27-.23-.5-.35-.74-.37-1.21-.14-2.42-.25-3.63-.4-.18-.02-.51-.24-.49-.29.36-1.06.34-2.26 1.14-3.16 1.02-1.13 2.04-2.25 3.05-3.37-.75-.81-.76-.81-1.44-.1-.38.4-.74.84-1.15 1.21-1.55 1.35-2.64 2.94-2.85 5.04-.05.48-.31.66-.82.67-1.67.02-3.34.07-5 .18-.82.06-1.64.27-2.46.41l-.01.31c.51.16 1.02.37 1.54.47 2.92.56 5.87.66 8.82.37zm-.932-.734c-.66.534-1.207.534-1.734 0h1.73zm58.564 8.696c.578-.328 1.174-.654 1.666-1.09.883-.783.795-1.902-.125-2.636-.152-.12-.363-.247-.404-.406-.182-.72-.346-1.448.098-2.155.172-.273.31-.578.398-.89.25-.872-.168-1.595-1.04-1.853-.15-.043-.314-.045-.458-.098-.092-.033-.217-.117-.232-.195-.164-.875-.053-1.243.63-1.633.323-.183.698-.274 1.054-.4.14-.047.283-.07.44-.11-.817-1.14-2.26-1.62-3.69-1.264-1.123.278-1.93 1.002-2.658 1.848-.086.1-.238.196-.36.2-.34.006-.413-.246-.353-.51.113-.52.262-1.028.4-1.55-.64-.018-1.127.388-1.688.778-.066-.346-.152-.634-.17-.926-.018-.305.03-.614.05-.944-.983.354-1.735.916-1.946 2.018h-.13l-.3-1.375c-.12.07-.25.13-.35.22-.6.53-.97 1.19-1.04 2-.01.1-.08.26-.14.27-.11.01-.24-.06-.32-.13-.16-.15-.29-.34-.45-.5-.92-.97-2.01-1.6-3.39-1.52-1.05.06-1.94.45-2.54 1.32.51.19 1.03.33 1.5.58.58.3.72.74.65 1.37-.04.35-.2.43-.51.48-1.06.16-1.57.98-1.25 2.01.06.21.13.44.26.6.48.59.38 1.27.32 1.94-.03.32-.19.55-.44.74-1.07.83-1.1 1.98-.04 2.84.43.35.93.63 1.42.89.68.35.94.91.94 1.62-.01.59-.03 1.18-.06 1.77-.03.42-.08.83-.13 1.25l-.12.03c-.25-.33-.53-.64-.73-1-.2-.35-.32-.75-.47-1.13-1.58 1.29-1.62 5.02.89 6.17.35.16.58.38.77.71.67 1.13 1.66 1.82 2.97 2.04.14.02.28.08.39.16 1.73 1.17 4.48 1.17 6.2.01.11-.07.23-.14.35-.16 1.45-.23 2.48-1.03 3.18-2.3.06-.12.17-.25.29-.29 1.49-.62 2.21-1.77 2.31-3.34.07-1.16-.24-2.19-1.13-3.06-.19.89-.58 1.6-1.34 2.17-.04-1.1-.11-2.19-.11-3.29 0-.58.32-1.02.84-1.32zm-14.283-10.936c.66-.003 1.54.74 1.48 1.364-.022.23-.317.533-.554.613-.223.08-.58-.02-.652-.39-.033-.18-.06-.36-.09-.54l-.184-1.04zm1.644 19.404c-.36-.063-.713-.094-1.05-.187-1.464-.4-2.282-1.43-2.308-2.95-.008-.43.092-.87.148-1.3.002-.01.057-.01.082-.01.01 0 .01.05.014.07.74 1.58 2.15 2.01 3.7 2.15l-.72 1.34.134.9zm-.18-11.74v-.984c.636.482 1.528.957 2.095 1.612.05.058.105.11.15.172.03.038.05.086.074.127-.748.58-2.32.216-2.32-.928zm4.122 11.54c-.16.224-.31.452-.48.67-.394.502-.952.534-1.423.085-.148-.143-.295-.29-.44-.434l-.083-.08c-.172-.84-.154-.86.742-.87.418-.01.836-.01 1.254 0 .47.01.563.16.43.62zm4.795.17l-.084.15h.01v.003c-.11.13-.22.25-.34.37-.53.54-1.11.51-1.57-.1-.15-.19-.28-.39-.42-.6-.12-.45-.02-.6.45-.61.49-.01.97-.01 1.45 0 .65.01.76.18.52.79zm-.625-10.792l.234-.283c.566-.657 1.25-1.13 2.102-1.617v.983c0 1.11-1.545 1.5-2.336.91zm5.19 6.557l.105-.234c.328 1.06.355 2.1-.262 3.04-.662 1.01-1.693 1.36-2.867 1.43l.107-.88-.7-1.34c1.468-.17 2.876-.52 3.618-2.04zm-1.643-13.68c-.04.237-.115.402-.4.5-.426.143-.576-.162-.746-.384-.08-.11-.04-.36.02-.52.21-.51.54-.89 1.09-1.04.11-.03.22-.04.29-.05-.08.53-.16 1.01-.24 1.48z"/><g fill="#000"><path d="M445.226 45.854c-7.25 0-13.13 5.878-13.13 13.13 0 5.802 3.763 10.723 8.98 12.46.655.12.895-.285.895-.632 0-.313-.01-1.348-.01-2.444-3.65.794-4.42-1.55-4.42-1.55-.6-1.518-1.46-1.92-1.46-1.92-1.19-.816.1-.8.1-.8 1.32.094 2.01 1.354 2.01 1.354 1.17 2.007 3.07 1.427 3.82 1.092.12-.85.46-1.428.84-1.756-2.91-.332-5.98-1.458-5.98-6.49 0-1.433.52-2.603 1.36-3.523-.13-.33-.58-1.666.13-3.475 0 0 1.11-.353 3.61 1.346 1.05-.29 2.18-.438 3.29-.442 1.12.005 2.24.15 3.29.442 2.51-1.7 3.61-1.346 3.61-1.346.72 1.81.27 3.145.13 3.475.85.92 1.36 2.09 1.36 3.523 0 5.044-3.07 6.154-5.99 6.48.47.406.89 1.205.89 2.43 0 1.758-.01 3.172-.01 3.604 0 .35.24.76.91.63 5.22-1.737 8.98-6.657 8.98-12.457 0-7.252-5.87-13.13-13.13-13.13z"/><path d="M437.07 64.706c-.03.065-.134.084-.228.04-.094-.042-.148-.132-.117-.196.03-.068.13-.086.227-.04.096.042.15.132.117.196zm.53.594c-.062.058-.185.03-.267-.06-.086-.093-.102-.216-.04-.274.065-.058.185-.03.27.06.086.093.104.215.038.274zm.518.756c-.08.056-.21.004-.293-.113-.08-.117-.08-.258.002-.313s.21-.005.293.11c.08.118.08.258-.002.316zm.71.73c-.073.08-.226.06-.34-.05-.112-.106-.145-.257-.073-.336.074-.08.23-.058.34.05.115.106.15.257.072.336zm.978.424c-.03.104-.18.15-.328.105s-.246-.164-.215-.27c.03-.103.178-.15.328-.104.15.05.25.17.22.27zm1.074.078c.004.11-.12.2-.277.2-.158.005-.285-.083-.287-.19 0-.11.125-.197.28-.2.157-.003.284.084.284.19zm1-.17c.02.106-.09.215-.244.244-.152.027-.293-.038-.313-.143-.02-.11.09-.22.242-.25.157-.03.295.04.315.14z"/></g><path fill="#000" d="M500.473 13.67c.154-.397.328-.785.457-1.187.734-2.274 1.46-4.55 2.182-6.83.275-.874.58-1.735 1.125-2.487.863-1.188 2.064-1.81 3.486-2.027.557-.09 1.127-.13 1.69-.14 1.69-.02 3.377 0 5.064 0 .09 0 .18.01.307.01-.04.1-.064.17-.1.23-.627 1.12-1.24 2.24-1.885 3.35-1.13 1.93-2.25 3.85-3.41 5.76-.74 1.22-1.55 2.41-2.47 3.51-.68.81-1.39 1.59-2.29 2.17-.62.39-1.28.61-2.03.61-2.65-.02-5.31-.01-7.96-.01-.79 0-1.46-.3-2.04-.84-.82-.76-1.32-1.74-1.72-2.76-.73-1.87-1.14-3.83-1.61-5.77-.22-.91-.47-1.81-.71-2.72-.02-.06-.05-.11-.08-.2l-.19.17c-1.04 1.02-1.95 2.16-2.76 3.36-.22.33-.3.76-.42 1.15-.46 1.43-.87 2.88-1.37 4.3-.48 1.36-1.32 2.44-2.65 3.08-.78.37-1.6.57-2.47.59-1.28.02-2.55.03-3.83.04-.31 0-.32-.03-.24-.32.55-2.03 1.24-4.01 2.11-5.93.89-1.98 1.95-3.86 3.28-5.58.9-1.17 1.9-2.25 3.15-3.07.63-.42 1.31-.74 2.07-.83.12-.02.25-.03.38-.03 2.71 0 5.43.03 8.15-.01 1.45-.02 2.51.59 3.3 1.77.49.73.84 1.52 1.14 2.35.59 1.66.96 3.38 1.38 5.09.24.98.51 1.95.76 2.92.02.07.05.14.07.21h.06zM2 84.136l2.884 32.372 12.938 3.607 12.975-3.62 2.885-32.36H2zm25.692 7.417l-.96 10.784.003.06-.004.132-.68 7.54-.07.67-8.13 2.24-8.12-2.27-.55-6.24h3.98l.29 3.17 4.42 1.19 4.43-1.21.47-5.16H13.5l-.08-.88-.18-2.04-.095-1.1h9.96l.363-4.02H8.278l-.08-.88-.18-2.05-.1-1.09h19.86l-.094 1.1zm39.625 1.243c3.16-.27 4.052-2.297 7.752-2.648 1.81-.162 2.97.217 3.07.838.11.594-.79 1-1.89 1.08-1.52.162-2.16-.404-2.27-.918-1.11.107-1.3.594-1.24.945.11.648 1.48 1.27 3.81 1.053 2.64-.215 3.51-1.242 3.29-2.295-.27-1.35-2.3-2.48-5.95-2.16-4.68.44-4.65 2.57-7.81 2.84-1.3.11-2.03-.19-2.16-.7-.08-.51.54-.75 1.29-.81.7-.05 1.54.06 1.94.27.29-.16.4-.3.35-.48-.11-.48-1.08-.7-2.3-.59-2.35.22-2.35 1.27-2.27 1.73.3 1.27 2.11 2.08 4.35 1.87zm15.83 5.348c-2.918.676-6.646 1.107-11.13 1.107-4.564 0-8.29-.48-11.21-1.1-2.592-.67-3.997-1.4-4.483-2.16.243 1.71.676 3.35 1.243 4.92-.648.41-1.27.95-1.81 1.62-1.027 1.3-1.486 2.81-1.405 4.3s.81 2.7 1.972 3.65c1.216.95 2.512 1.22 3.998.95.567-.08 1.215-.4 1.783-.56-1.216 0-2.242-.4-3.27-1.21-1.106-.81-1.89-1.97-2.052-3.35-.27-1.3 0-2.51.73-3.56.162-.22.323-.38.512-.54.406 1.03.892 2 1.405 2.94 1.107 1.7 2.242 3.19 3.35 4.78.486.95.81 1.89 1.026 2.81.73 1.03 1.782 1.76 3.08 2.14 1.593.57 3.267.78 4.97.78h.188c1.702 0 3.484-.27 5.132-.81 1.215-.4 2.242-1.08 2.998-2.16h.08c.19-.81.487-1.83.946-2.78 1.107-1.59 2.242-3.08 3.35-4.78 1.485-2.7 2.512-5.78 3.08-9.08-.568.81-1.972 1.57-4.484 2.14zm-22.34-2.35c2.917.73 6.645 1.107 11.13 1.107 4.563 0 8.21-.4 11.127-1.1 3.08-.73 4.565-1.7 4.565-2.59 0-.67-.68-1.29-1.9-1.78.27.19.48.49.48.81 0 .95-1.41 1.71-4.22 2.33-2.6.57-5.95.98-10 .98-3.92 0-7.4-.4-9.92-.94-2.7-.67-4.14-1.4-4.14-2.32 0-.4.19-.73.73-1.11-1.71.68-2.6 1.22-2.6 2.05.08.94 1.59 1.89 4.7 2.59zm78.903 6.823c-.155-.668-.482-1.163-1.1-1.48-1.16-.6-2.392-.92-3.65-1.208-2.665-.61-5.36-1-8.073-1.32l-.937-.12c.105-.88.417-1.17 1.47-1.39.108.25.207.51.337.76.048.09.168.2.256.2 1.57.02 3.05-.25 4.254-1.37.94-.88 1.356-2.02 1.586-3.24.084-.45.165-.89.23-1.34.206-1.4.935-2.51 1.863-3.52.045-.05.086-.11.153-.19-.74-.23-1.47-.26-2.19-.12-2.76.5-4.84 1.95-6.13 4.47l-.05.04c-.47-.12-.95-.23-1.41-.37-.09-.03-.15-.18-.19-.29-.76-2.15-2.07-3.83-4.2-4.74-.64-.27-1.35-.23-2.03-.41-.04-.01-.07.07-.1.07h-2.04c-.45 0-.9.02-1.35.12-5.35 1.11-9.52 5.24-10.5 10.64-1.05 5.76.53 10.79 4.33 15.2.57.66 1.26 1.19 2.05 1.58 1.46.73 3.06.19 3.81-1.27l.06-.11c.32.84.67 1.65.94 2.48.27.81 1.24 1.18 1.83 1.14.11-.01.25.09.33.03.53-.41.95.26 1.41.26h.75c.53-.28 1.03-.46 1.37-.93.04-.06.23-.07.35-.06.67.07 1.3-.09 1.87-.47.47-.32.77-.77.83-1.34.6-.18.97-.64.99-1.35.01-.39-.03-.82-.19-1.15-.5-1.03-1.08-2.02-1.62-3.02l-.05-.1.11.04c.8.39 1.64.56 2.54.49.57-.05.91-.23 1.19-.67.7.5 1.49.73 2.35.67.86-.06 1.66-.24 2.12-1.1.61 0 1.24.06 1.85-.02.42-.05.85-.24 1.23-.45.61-.34 1.02-.83.89-1.61.63-.05 1.2-.21 1.69-.6.39-.31.57-.72.7-1.21.03-.11.05-.22.05-.33V103c0-.143-.03-.285-.06-.433zm-20.99-6.38c-.998-.002-1.794-.805-1.785-1.8.01-.996.82-1.806 1.802-1.798.996 0 1.78.8 1.78 1.81s-.79 1.78-1.796 1.78zm5.474 1.443c-.228-.545-.405-1.114-.324-1.737-.042-.936.282-1.757.83-2.49.07-.096.304-.11.457-.1 1.75.123 3.273.832 4.67 1.85.29.21.566.44.815.714-.548-.118-1.093-.245-1.643-.35-.83-.157-1.65-.126-2.43.222-.84.37-1.72.36-2.61.3.48.43 1.07.41 1.64.32.48-.08.96-.22 1.46-.33l.02.28-2.91 1.31zm53.108 4.67c-.48-.155-1.167-.122-2.066-.122h-3.61v4.714h3.86c.605 0 1.028-.064 1.272-.11.43-.076.79-.226 1.08-.405.288-.18.525-.452.712-.796.186-.34.28-.74.28-1.19 0-.52-.136-.93-.405-1.32s-.645-.61-1.123-.76zm-.496-2.154c.475-.14.833-.387 1.074-.715.24-.32.36-.74.36-1.23 0-.47-.11-.88-.336-1.24-.225-.35-.545-.49-.963-.62-.41-.13-1.13-.09-2.14-.09h-3.17v4.1h3.4c.83 0 1.42-.07 1.78-.18zm10.804-7.472c0-1.88-1.526-3.406-3.407-3.406H165.4c-1.882 0-3.407 1.525-3.407 3.406v18.804c0 1.88 1.525 3.406 3.407 3.406h18.803c1.88 0 3.407-1.525 3.407-3.406V92.724zm-7.264 13.55c-.28.568-.625 1.007-1.035 1.314-.41.31-.92.57-1.54.728-.62.157-1.38.265-2.27.265h-5.7V94.44h5.62c1.08 0 1.95.125 2.6.41.65.285 1.16.717 1.53 1.31.37.595.55 1.212.55 1.86 0 .604-.16 1.17-.49 1.702-.33.533-.82.962-1.48 1.29.86.25 1.51.677 1.97 1.28.46.603.69 1.315.69 2.138 0 .662-.14 1.276-.42 1.844zm42.89-4.148h5.035l-2.67-5.598-2.36 5.598zm2.368-13.62l-12.818 4.51 2.025 16.793 10.81 5.93 10.86-6.02 2.03-16.79-12.9-4.43zm-3.41 16l-1.573 3.932-2.93.012 7.92-17.537-.01-.034h-.01v-.03l.02.02h.03l.03-.06v.06h-.02l-.01.03 8.26 17.61-2.83-.07-1.74-4.02-3.71.02m45.4-7.17c-.93-.01-1.69.75-1.69 1.69v7.08c0 .93.76 1.69 1.7 1.69s1.69-.76 1.69-1.69v-7.08c0-.94-.76-1.7-1.69-1.69m13.64-6.36l1.18-2.16c.07-.12.02-.26-.09-.32s-.26-.02-.32.09l-1.19 2.18c-1-.45-2.12-.7-3.31-.7-1.18 0-2.3.25-3.3.69l-1.2-2.18c-.06-.11-.2-.15-.32-.09-.11.06-.15.2-.09.31l1.18 2.15c-2.32 1.2-3.88 3.48-3.88 6.09h15.23c0-2.62-1.56-4.89-3.88-6.09m-7.2 3.33c-.35 0-.63-.28-.63-.64 0-.35.28-.64.64-.64s.64.29.64.64c0 .35-.28.64-.64.64m6.94 0c-.35 0-.64-.28-.64-.64 0-.35.29-.64.64-.64.35 0 .64.29.64.64 0 .35-.29.64-.64.64m-11.03 3.34v10.97c0 1 .81 1.8 1.81 1.8h1.22v3.75c0 .93.76 1.69 1.69 1.69.94 0 1.69-.76 1.69-1.69v-3.75h2.29v3.75c0 .93.76 1.69 1.69 1.69.94 0 1.7-.76 1.7-1.69v-3.75h1.23c.99 0 1.8-.81 1.8-1.81v-10.9H273.4zm19.15 1.37c0-.93-.75-1.69-1.69-1.69-.93 0-1.69.76-1.69 1.69V106c0 .94.76 1.69 1.69 1.69.94 0 1.69-.75 1.69-1.69v-7.08z"/><g fill="#000"><path d="M324.005 116.823h12.277V98.406h-12.277v18.417zm6.397-.924c-.326 0-.592-.27-.592-.6 0-.33.266-.59.592-.59.327 0 .593.26.593.59 0 .32-.266.59-.593.59zm-4.622-15.72h8.73l-.002 13.59h-8.728v-13.59z"/><path d="M330.077 94.01h19.675v7.983h1.733v-9.717h-23.14v5.342h1.732m6.996 8.184h9.117v1.732h-9.117zm10.015-3.137v13.87h8.245v-13.87h-8.245zm4.306.574c.11 0 .2.09.2.2 0 .1-.09.19-.2.19-.11 0-.2-.09-.2-.2 0-.11.09-.2.2-.2zm-1.187.66h2.372v.19h-2.38v-.19zm1.108 12.03c-.263 0-.475-.22-.475-.48 0-.27.21-.48.475-.48.26 0 .475.21.475.47s-.212.47-.475.47zm2.694-1.64c-2.15.01-4.54.02-5.6.01v-9.54h5.6v9.52zm-14.43-6.06h-2.51v1.05h6.11v.46h-6.12v.95h9.11v-2.47h-5.95"/></g><circle fill="#000" cx="392.123" cy="103.911" r="4.808"/><path fill="#000" d="M401.935 95.752c0-.913-.74-1.653-1.653-1.653-.414 0-.792.15-1.082.4-1.972-1.49-4.423-2.37-7.076-2.37-6.493 0-11.776 5.28-11.776 11.77s5.283 11.77 11.776 11.77 11.776-5.28 11.776-11.77c0-2.66-.886-5.11-2.37-7.08.25-.29.402-.67.402-1.08zm-9.812 19.538c-6.274 0-11.38-5.104-11.38-11.38 0-6.274 5.105-11.38 11.38-11.38 2.552 0 4.91.845 6.81 2.268-.19.27-.305.6-.305.954 0 .913.74 1.653 1.653 1.653.36 0 .69-.113.96-.305 1.43 1.9 2.27 4.258 2.27 6.81 0 6.276-5.1 11.38-11.38 11.38zm46.19-5.71l-1.077.078c0 .213.01.388.01.515.03 1.337.785 1.62 1.416 1.62.088 0 .146-.01.146-.01h.02l1.795-.175c.067-.214.077-.37.077-.37s-.242-11.303-.3-12.73c-.01-.318-.106-.57-.233-.775-.66-.05-1.252-.097-1.697-.136l-.203-.01c-.438 0-.768.117-.98.34-.32.34-.292.864-.292.864v.02c0 .02.01.32.02.81l1.515.09s1 .22 1.047 1.24c.05 1.12.04 7.4.04 7.4s.11 1.02-1.305 1.24zm-3.445.243l-1.805.136s-1.484.2-1.523-1.43c-.02-1.2-.175-8.01-.175-8.01s-.106-1.26 1.426-1.16c.46.03 1.15.07 1.89.12-.02-1.13-.04-2.11-.05-2.87-.96-.07-1.89-.15-2.52-.21-2.02-.23-1.89 1.47-1.89 1.47s.25 12.48.29 14.01c.06 1.82 2.02 1.52 2.02 1.52l2.43-.26c-.03-.91-.05-2.05-.08-3.34zm21.597-15.474c-.087-2.34-2.144-2.84-2.144-2.84s-7.12-1.08-10.23-1.47c-3.12-.39-2.93 2.63-2.93 2.63s.71 22.04.79 24.77c.09 3.25 3.12 2.73 3.12 2.73l10.73-1.86c1.95-.39 2.05-2.83 2.05-2.83s-1.26-18.62-1.36-21.16zm-2.396 18.71l-7.98.82s-2.32.35-2.38-2.47c-.04-2.08-.5-13.99-.5-13.99s-.16-2.19 2.23-2.01l8.28.62s1.56.37 1.63 2.15c.07 1.94.74 12.71.74 12.71s.17 1.77-2.05 2.15zm-8.03.41l3.07-.32c-.15-3.14-.69-15.3-.77-17.07v-.03c-1.13-.09-2.2-.17-2.94-.23-.08-.01-.17-.01-.24-.01-.52 0-.9.13-1.16.41-.43.44-.38 1.14-.38 1.15v.01c0 .01 0 .08.01.18 1.25.1 2.19.19 2.19.19s1.35.3 1.4 1.77c.06 1.59.44 10.21.44 10.21s.15 1.45-1.77 1.76l-1.79.17c.13 1.46.98 1.78 1.7 1.78.11 0 .17-.01.17-.01.02.01.03.01.03.01zm-4.7-1.51l-2.49.23s-2.01.29-2.05-2.02c-.03-1.71-.23-11.36-.23-11.36s-.14-1.79 1.92-1.64c.6.04 1.46.11 2.38.18-.06-1.84-.11-3.3-.13-4.07-1.2-.12-2.36-.23-3.19-.33-2.72-.31-2.56 2.09-2.56 2.09s.32 17.71.39 19.89c.07 2.59 2.71 2.17 2.71 2.17l3.37-.43c-.03-1.03-.08-2.72-.15-4.74zm56.3-66.84c-7.83 0-14.18 6.34-14.18 14.17s6.35 14.18 14.18 14.18 14.18-6.34 14.18-14.17-6.35-14.18-14.18-14.18zm.05 23.66c-5.22 0-9.45-4.23-9.45-9.45s4.23-9.45 9.45-9.45 9.44 4.23 9.44 9.45c0 5.22-4.23 9.45-9.45 9.45z"/><circle fill="#000" cx="497.695" cy="59.334" r="4.79"/><g fill="#000" stroke="#000"><path d="M487.695 77.468h18.51"/><path stroke-miterlimit="10" d="M507.76 77.337c.13.062.13.164.002.228l-1.72.863c-.128.063-.228 0-.228-.144v-1.626c0-.144.1-.21.23-.147l1.717.83z"/><path d="M489.324 76.238l1.24 1.23m-2.146-1.23l1.24 1.23m-2.148-1.23l1.24 1.23m.002 0l-1.24 1.23m2.146-1.23l-1.24 1.23m2.146-1.23l-1.24 1.23m.906-2.46l1.24 1.23m0 0l-1.24 1.23"/></g></svg>
