<svg width="125" height="140" xmlns="http://www.w3.org/2000/svg"><g fill="none" fill-rule="evenodd"><path d="M80.723 98.905c-11.006 4.062-24 4.074-34.94 0-3.48-1.297-4.98 4.29-1.53 5.576 11.783 4.39 26.14 4.38 38 0 3.45-1.272 1.96-6.863-1.53-5.575M86.486 59.787c2.165.013 4.34.2 6.474.44 4.653.526 11.15 1.337 11.467 7.107.236 4.31-.806 8.665-2.183 12.765-1.304 3.884-4.07 6.72-8.117 7.686-8.777 2.094-17.488-.095-21.693-8.833-5.16-10.724-4.907-15.91 7.63-18.574 2.102-.448 4.257-.607 6.422-.593m-45.77 0c2.165-.014 4.32.145 6.425.592 12.536 2.662 12.79 7.85 7.63 18.573-4.206 8.738-12.916 10.927-21.694 8.833-4.046-.966-6.813-3.802-8.117-7.687-1.378-4.1-2.42-8.456-2.184-12.766.316-5.77 6.814-6.58 11.467-7.106 2.136-.24 4.31-.428 6.474-.44m50.41-2.017c-7.624.05-14.972 2.446-22.457 3.403-3.124.4-6.343.497-9.472.126-4.16-.496-8.19-1.807-12.346-2.395-3.715-.526-7.477-1.075-11.216-1.097-6.534-.04-12.854 2.016-19.26 3.125 0 1.882-.38 4.297.578 5.62.988 1.364 2.654 2.612 3.087 4.46 1.026 4.385 2.48 8.683 4.342 12.803.904 2.003 2.61 3.4 4.516 4.36 4.59 2.316 10.02 2.656 15.056 1.928 7.17-1.037 11.06-6.44 14.027-12.613 1.112-2.51 1.236-5.405 2.698-7.698.87-1.363 2.887-.79 4.33-.794 2.146-.008 2.663 2.403 3.11 4.007 1.584 5.674 4.224 11.694 9.473 14.667 7.838 4.44 20.184 3.61 25.27-4.397 1.99-3.134 2.54-6.936 3.537-10.485.608-2.16 1.15-4.734 3.313-5.922.872-.48.26-2.39.388-3.503.14-1.21.41-2.282-1.305-2.52-2.992-.415-5.895-1.677-8.958-2.104-2.902-.404-5.746-.99-8.707-.97" fill="#3D1E39"/><path d="M86.484 60.037c1.94.013 3.97.16 6.448.44 3.568.403 5.458.76 7.288 1.567 2.452 1.08 3.82 2.766 3.958 5.304.208 3.817-.55 7.848-2.17 12.67-1.32 3.925-4.09 6.605-7.94 7.523-9.476 2.263-17.542-.66-21.41-8.697-5.53-11.492-4.113-15.76 7.456-18.22 1.966-.417 4.065-.6 6.37-.586zm.004-.5c-2.34-.016-4.474.17-6.477.596-11.922 2.533-13.46 7.17-7.8 18.93 3.978 8.267 12.287 11.28 21.975 8.967 4.02-.96 6.924-3.767 8.296-7.85 1.64-4.88 2.41-8.968 2.197-12.86-.15-2.743-1.643-4.584-4.257-5.735-1.89-.834-3.814-1.198-7.432-1.606-2.495-.283-4.54-.432-6.5-.444zm-45.77.5c2.306-.014 4.405.17 6.37.587 11.57 2.458 12.986 6.727 7.456 18.22-3.867 8.035-11.933 10.96-21.41 8.698-3.85-.92-6.62-3.6-7.94-7.523-1.618-4.824-2.378-8.855-2.17-12.672.14-2.538 1.507-4.223 3.96-5.304 1.83-.807 3.72-1.164 7.287-1.567 2.48-.28 4.51-.427 6.448-.44zm-.003-.5c-1.96.01-4.004.16-6.5.442-3.618.407-5.54.77-7.432 1.605-2.614 1.15-4.107 2.992-4.257 5.736-.213 3.892.558 7.98 2.196 12.86 1.372 4.083 4.275 6.89 8.296 7.85 9.69 2.312 17.998-.7 21.976-8.968 5.66-11.76 4.12-16.396-7.8-18.93-2.005-.424-4.14-.61-6.48-.596zm50.412-2.017c-3.962.026-7.085.5-14.007 1.9l-1.117.225c-3.22.647-5.245 1.008-7.364 1.28-3.294.42-6.457.476-9.413.125-1.765-.21-3.287-.51-6.23-1.176l-.292-.066c-2.883-.654-4.18-.92-5.818-1.152l-.47-.066c-3.418-.484-5.052-.69-7.017-.855-1.328-.11-2.57-.17-3.763-.178-3.776-.022-6.744.46-13.35 1.913l-.466.102c-2.513.552-3.93.845-5.486 1.114l-.207.036v.21c0 .342-.01.614-.037 1.3-.013.314-.02.474-.025.66-.06 1.88.09 2.984.687 3.81.153.21.328.427.54.675.17.196.345.392.7.784 1.085 1.214 1.582 1.956 1.806 2.91 1.03 4.41 2.492 8.722 4.356 12.85.86 1.904 2.463 3.386 4.632 4.48 4.308 2.174 9.61 2.76 15.204 1.952 6.403-.926 10.522-5.067 14.216-12.752.38-.856.627-1.655 1.006-3.106l.07-.268c.584-2.25.923-3.226 1.607-4.3.43-.677 1.168-.857 2.53-.773.14.01.266.018.5.037.582.046.803.06 1.088.06 1.245-.006 1.956.835 2.5 2.527.063.2.124.407.195.662l.174.633c2.004 7.176 4.934 12.18 9.59 14.818 8.572 4.857 20.748 3.164 25.602-4.48 1.234-1.944 1.878-3.83 2.807-7.588l.102-.412c.31-1.258.46-1.85.658-2.55l.07-.252c.022-.083.14-.516.176-.64.068-.247.126-.45.183-.644.656-2.215 1.402-3.488 2.762-4.236.6-.33.68-.94.562-2.343l-.01-.106c-.057-.684-.07-.96-.036-1.246l.027-.22c.11-.89.12-1.21-.023-1.602-.198-.54-.685-.86-1.522-.976-.946-.13-1.91-.347-3.173-.69-.35-.096-.597-.166-1.28-.36-2.19-.62-3.22-.874-4.506-1.054-.557-.077-1.016-.146-1.99-.297l-.897-.138c-2.53-.385-4.14-.55-5.856-.537zm.003.5c1.684-.01 3.27.152 5.78.533l.894.138c.977.152 1.437.22 1.997.3 1.256.174 2.272.424 4.44 1.04.683.194.93.263 1.284.36 1.282.35 2.265.57 3.235.703.67.093.995.307 1.12.653.105.285.097.567-.003 1.367l-.027.223c-.038.332-.026.625.035 1.345.004.054.004.054.01.107.097 1.178.034 1.675-.305 1.86-1.506.828-2.312 2.203-3.002 4.534-.058.2-.116.403-.186.654l-.176.64-.07.248c-.2.71-.35 1.304-.662 2.567l-.102.41c-.916 3.708-1.548 5.556-2.744 7.44-4.698 7.398-16.577 9.05-24.935 4.314-4.515-2.56-7.383-7.457-9.354-14.517-.03-.097-.144-.52-.176-.633-.072-.26-.135-.475-.202-.68-.602-1.878-1.452-2.882-2.976-2.877-.266 0-.48-.012-1.046-.057-.238-.02-.366-.028-.51-.037-1.527-.095-2.42.123-2.982 1.004-.722 1.13-1.072 2.143-1.67 4.442l-.07.267c-.372 1.426-.614 2.205-.975 3.022-3.627 7.542-7.63 11.57-13.834 12.466-5.5.795-10.702.22-14.91-1.904-2.074-1.047-3.593-2.45-4.4-4.24-1.85-4.097-3.303-8.38-4.326-12.756-.248-1.06-.783-1.86-1.92-3.13-.356-.394-.528-.586-.693-.777-.203-.24-.37-.446-.513-.644-.51-.704-.648-1.73-.592-3.498.005-.184.01-.343.024-.654.028-.695.037-.97.037-1.32l-.208.247c1.566-.27 2.987-.564 5.508-1.118l.465-.102c6.57-1.445 9.514-1.923 13.24-1.9 1.182.006 2.41.066 3.726.175 1.95.163 3.58.37 6.988.852l.47.066c1.618.23 2.907.493 5.777 1.144l.293.066c2.96.67 4.493.973 6.28 1.185 3 .356 6.203.3 9.534-.126 2.134-.273 4.168-.636 7.4-1.285.308-.062.54-.11 1.117-.225 6.89-1.392 9.99-1.864 13.91-1.89z" fill="#3D1E39"/><path d="M34.24 60.232c4.272-.482 8.69-.743 12.898.15 12.536 2.664 12.79 7.85 7.628 18.575-4.205 8.738-12.91 10.928-21.688 8.833-4.046-.965-6.814-3.812-8.12-7.696-1.376-4.1-2.424-8.453-2.188-12.762.316-5.77 6.818-6.574 11.47-7.1z" fill="#3D1E39"/><path d="M34.24 60.232c4.272-.482 8.69-.743 12.898.15 12.536 2.664 12.79 7.85 7.628 18.575-4.205 8.738-12.91 10.928-21.688 8.833-4.046-.965-6.814-3.812-8.12-7.696-1.376-4.1-2.424-8.453-2.188-12.762.316-5.77 6.818-6.574 11.47-7.1z"/><path d="M92.957 60.232c-4.27-.482-8.69-.743-12.897.15-12.535 2.664-12.788 7.85-7.627 18.575 4.205 8.738 12.91 10.928 21.688 8.833 4.047-.965 6.815-3.812 8.12-7.696 1.377-4.1 2.425-8.453 2.19-12.762-.317-5.77-6.82-6.574-11.473-7.1z" fill="#3D1E39"/><path d="M92.957 60.232c-4.27-.482-8.69-.743-12.897.15-12.535 2.664-12.788 7.85-7.627 18.575 4.205 8.738 12.91 10.928 21.688 8.833 4.047-.965 6.815-3.812 8.12-7.696 1.377-4.1 2.425-8.453 2.19-12.762-.317-5.77-6.82-6.574-11.473-7.1z"/><path d="M62.357 134.983c-22.616 0-41.13-18.594-41.13-41.31v-47.81c0-22.714 18.514-41.31 41.13-41.31 22.617 0 41.13 18.596 41.13 41.31v47.81c0 22.716-18.513 41.31-41.13 41.31zm0 4.516c25.1 0 45.628-20.617 45.628-45.826v-47.81c0-25.21-20.527-45.826-45.628-45.826-25.1 0-45.628 20.617-45.628 45.826v47.81c0 25.21 20.527 45.825 45.627 45.825z" fill="#3D1E39"/><path d="M107.665 63.76h4.136c.187 0 .365.02.536.053.372.076.756.115 1.444.165l.592.04.614.048c.465.04.866.082 1.238.136.997.144 1.717.36 2.1.61 1.673 1.104 1.718 1.205 1.776 4.61.017.955.026 2.066.03 3.302.005 1.69 0 3.504-.014 5.285l-.01 1.28-.006.477.014-.228c-.004.038-.02.144-.046.306-.048.29-.114.616-.2.97-.24 1.01-.584 2.02-1.038 2.94-.79 1.606-1.816 2.74-3.072 3.296-.87.383-3 1.35-3.076 1.382-.822.366-1.326.568-1.797.718-.816.26-1.674.396-3.4.536l.36 4.5c2.034-.163 3.194-.35 4.394-.73.663-.21 1.303-.467 2.265-.895.096-.043 2.218-1.005 3.06-1.377 2.348-1.035 4.075-2.95 5.296-5.427.617-1.252 1.067-2.57 1.382-3.888.19-.794.296-1.427.34-1.824l.014-.114v-.114l.006-.485c.004-.385.008-.82.01-1.292.014-1.796.02-3.625.015-5.333-.004-1.256-.013-2.387-.03-3.366-.082-4.785-.755-6.296-3.806-8.307-1.05-.692-2.335-1.076-3.927-1.305-.47-.068-.956-.12-1.503-.166-.208-.018-.416-.033-.67-.05-.077-.007-.48-.035-.588-.043-.49-.035-.76-.063-.88-.087-.464-.094-.94-.14-1.42-.14h-4.137v4.515zM17.003 59.245h-4.137c-.48 0-.957.047-1.424.142-.117.023-.385.05-.877.086l-.588.042c-.254.018-.462.033-.67.05-.547.047-1.032.1-1.502.167-1.593.23-2.88.613-3.928 1.305C.825 63.047.153 64.56.07 69.344c-.016.98-.026 2.11-.03 3.366-.005 1.708 0 3.537.014 5.333l.01 1.292.006.485.002.114.012.114c.045.397.15 1.03.34 1.824.317 1.317.766 2.636 1.382 3.887 1.222 2.477 2.948 4.39 5.295 5.426.844.372 2.967 1.334 3.062 1.377.962.428 1.602.685 2.266.895 1.2.38 2.36.567 4.395.73l.36-4.5c-1.727-.14-2.585-.277-3.4-.536-.472-.15-.976-.352-1.798-.718-.074-.033-2.207-1-3.076-1.382-1.257-.555-2.282-1.69-3.073-3.296-.454-.92-.797-1.93-1.04-2.94-.084-.354-.15-.68-.198-.97-.028-.162-.043-.268-.047-.307l.014.227-.005-.476c-.004-.38-.007-.812-.01-1.28-.014-1.782-.02-3.596-.015-5.286.004-1.236.014-2.347.03-3.302.058-3.405.103-3.506 1.777-4.61.382-.25 1.103-.466 2.1-.61.372-.054.772-.097 1.237-.136.187-.015.378-.03.615-.047l.593-.042c.687-.05 1.07-.09 1.442-.164.172-.035.35-.053.536-.053h4.137v-4.515z" fill="#3D1E39"/><path d="M110.544 82.86c2.115-.493 4.272-1.945 4.64-4.222.536-3.29-1.82-5.75-4.927-5.99l.545 2.02c.835-.498.896-1.77 1.392-2.533 1.602-2.458 4.463-1.067 4.726 1.474.142 1.374 2.303 1.388 2.16 0-.29-2.793-1.87-5.035-4.92-4.943-1.31.04-2.455.612-3.298 1.61-.424.502-.72 1.078-.982 1.674-.177.4-.73 1.18-.168.845-.968.577-.488 1.94.545 2.02 2.277.178 3.864 2.895 2.095 4.756-.597.63-1.55 1.004-2.382 1.198-1.353.315-.78 2.407.574 2.09M14.316 80.768c-.834-.194-1.786-.572-2.382-1.197-1.763-1.847-.185-4.577 2.095-4.754 1.03-.08 1.514-1.443.544-2.02.518.308.01-.447-.167-.845-.247-.557-.515-1.083-.898-1.563-.85-1.062-2.02-1.677-3.383-1.72-3.05-.095-4.63 2.153-4.92 4.942-.143 1.386 2.017 1.376 2.16 0 .262-2.54 3.116-3.944 4.725-1.475.498.765.556 2.034 1.392 2.533l.545-2.02c-3.13.242-5.434 2.7-4.93 5.99.35 2.278 2.54 3.732 4.642 4.22 1.352.316 1.93-1.774.574-2.09M79.646 60.267c5.692-3.54 12.94-3.498 18.59 0 3.165 1.958 6.06-3.043 2.908-4.994-7.332-4.537-17.02-4.593-24.404 0-3.145 1.956-.257 6.96 2.906 4.994M56.366 118.973c3.698-2.278 8.3-2.214 11.983 0 1.593.957 3.042-1.542 1.452-2.497-4.543-2.73-10.322-2.814-14.89 0-1.576.97-.132 3.473 1.454 2.497M27.63 60.267c5.69-3.54 12.938-3.498 18.59 0 3.164 1.958 6.06-3.043 2.907-4.994-7.333-4.537-17.02-4.593-24.404 0-3.145 1.956-.257 6.96 2.906 4.994M56.928 67.055l-3.646 18.022c-.335 1.656-.952 3.13-.06 4.66 2.138 3.672 5.94 5.642 10.084 5.894 1.85.114 1.845-2.78 0-2.89-2.422-.148-4.588-1-6.294-2.762-.51-.53-.847-1.142-1.304-1.7-.198-.24-.515-1.246-.29-.13.223 1.103.285-.544.388-1.05l.804-3.978 3.094-15.296c.368-1.817-2.407-2.594-2.776-.77" fill="#3D1E39"/><path d="M66.91 67.824l3.093 15.296c.144.713.478 5.192 1.125 5.56-.886-.503.74-1.542-.223-.402-.406.48-.7 1.04-1.132 1.513-1.715 1.88-3.954 2.797-6.466 2.95-1.84.11-1.854 3.004 0 2.89 4.103-.248 7.828-2.165 10-5.756.974-1.61.38-3.036.024-4.797l-3.645-18.022c-.368-1.822-3.144-1.05-2.776.77" fill="#3D1E39"/><path fill="#3D1E39" d="M54.093 89.318H72.52V87.31H54.093M17.538 61.503c.11 7.995.834 16.05 2.106 23.94.888 5.51 2.067 11.09 4.32 16.22 1.613 3.673 4.095 7.675 8.26 8.653-.288-.708-.574-1.416-.86-2.124l-5.663 7.84c-1.09 1.507 1.407 2.952 2.486 1.458l5.663-7.838c.54-.748-.02-1.926-.862-2.124-3.88-.913-5.865-5.433-7.13-8.816-1.89-5.05-2.916-10.43-3.702-15.752-1.045-7.08-1.64-14.295-1.74-21.457-.024-1.86-2.903-1.864-2.878 0M104.473 61.503c-.098 7.162-.694 14.376-1.74 21.457-.784 5.322-1.81 10.702-3.7 15.752-1.264 3.38-3.252 7.904-7.13 8.816-.842.198-1.4 1.376-.86 2.124l5.66 7.838c1.08 1.492 3.577.05 2.487-1.46l-5.662-7.838-.86 2.124c4.163-.978 6.646-4.98 8.258-8.652 2.254-5.13 3.43-10.71 4.32-16.222 1.272-7.89 1.997-15.944 2.106-23.94.026-1.86-2.854-1.86-2.88 0M91.22 12.662c-5.876 7.902-16.787 12.916-28.863 12.916S39.37 20.564 33.493 12.662l-2.802 2.102c6.57 8.83 18.53 14.327 31.667 14.327s25.1-5.497 31.666-14.326l-2.802-2.102zM25.635 23.994c1.104 2.204 1 5.306-.406 8.134-1.407 2.827-3.813 4.775-6.23 5.214l.622 3.456c3.55-.644 6.857-3.32 8.736-7.1 1.88-3.782 2.024-8.044.402-11.282l-3.125 1.578zM96.03 22.416c-1.622 3.238-1.478 7.5.4 11.28 1.88 3.78 5.187 6.458 8.738 7.102l.62-3.456c-2.416-.44-4.822-2.387-6.227-5.214-1.405-2.828-1.51-5.93-.406-8.134l-3.125-1.578zM53.034 138.627c2.037-5.843 5.627-9.365 9.323-9.365 3.697 0 7.287 3.522 9.324 9.365l3.303-1.16c-2.477-7.104-7.18-11.717-12.626-11.717-5.445 0-10.148 4.613-12.625 11.717l3.302 1.16zM53.656 5.905c0 .586-.473 1.06-1.056 1.06-.583 0-1.056-.474-1.056-1.06 0-.586.473-1.06 1.056-1.06.583 0 1.056.474 1.056 1.06M65.365 5.905c0 .586-.473 1.06-1.056 1.06-.584 0-1.057-.474-1.057-1.06 0-.586.473-1.06 1.056-1.06.582 0 1.055.474 1.055 1.06M69.267 5.905c0 .586-.472 1.06-1.055 1.06s-1.056-.474-1.056-1.06c0-.586.473-1.06 1.056-1.06.583 0 1.055.474 1.055 1.06M77.073 5.905c0 .586-.473 1.06-1.055 1.06-.584 0-1.056-.474-1.056-1.06 0-.586.472-1.06 1.056-1.06.582 0 1.055.474 1.055 1.06M73.17 5.905c0 .586-.473 1.06-1.055 1.06-.584 0-1.056-.474-1.056-1.06 0-.586.47-1.06 1.055-1.06.582 0 1.055.474 1.055 1.06M61.462 5.905c0 .586-.473 1.06-1.056 1.06-.583 0-1.056-.474-1.056-1.06 0-.586.473-1.06 1.056-1.06.583 0 1.056.474 1.056 1.06M57.56 5.905c0 .586-.474 1.06-1.057 1.06s-1.056-.474-1.056-1.06c0-.586.473-1.06 1.056-1.06.583 0 1.056.474 1.056 1.06M41.947 9.953c0 .586-.473 1.06-1.055 1.06-.584 0-1.056-.474-1.056-1.06 0-.586.472-1.06 1.056-1.06.582 0 1.055.474 1.055 1.06M53.656 9.953c0 .586-.473 1.06-1.056 1.06-.583 0-1.056-.474-1.056-1.06 0-.586.473-1.06 1.056-1.06.583 0 1.056.474 1.056 1.06M65.365 9.953c0 .586-.473 1.06-1.056 1.06-.584 0-1.057-.474-1.057-1.06 0-.586.473-1.06 1.056-1.06.582 0 1.055.474 1.055 1.06M69.267 9.953c0 .586-.472 1.06-1.055 1.06s-1.056-.474-1.056-1.06c0-.586.473-1.06 1.056-1.06.583 0 1.055.474 1.055 1.06M84.88 9.953c0 .586-.474 1.06-1.057 1.06s-1.056-.474-1.056-1.06c0-.586.473-1.06 1.056-1.06.583 0 1.056.474 1.056 1.06M80.976 9.953c0 .586-.473 1.06-1.055 1.06-.583 0-1.056-.474-1.056-1.06 0-.586.473-1.06 1.057-1.06.583 0 1.056.474 1.056 1.06M77.073 9.953c0 .586-.473 1.06-1.055 1.06-.584 0-1.056-.474-1.056-1.06 0-.586.472-1.06 1.056-1.06.582 0 1.055.474 1.055 1.06M73.17 9.953c0 .586-.473 1.06-1.055 1.06-.584 0-1.056-.474-1.056-1.06 0-.586.47-1.06 1.055-1.06.582 0 1.055.474 1.055 1.06M61.462 9.953c0 .586-.473 1.06-1.056 1.06-.583 0-1.056-.474-1.056-1.06 0-.586.473-1.06 1.056-1.06.583 0 1.056.474 1.056 1.06M57.56 9.953c0 .586-.474 1.06-1.057 1.06s-1.056-.474-1.056-1.06c0-.586.473-1.06 1.056-1.06.583 0 1.056.474 1.056 1.06M49.753 9.953c0 .586-.473 1.06-1.056 1.06-.583 0-1.056-.474-1.056-1.06 0-.586.474-1.06 1.057-1.06s1.056.474 1.056 1.06M49.753 6.483c0 .586-.473 1.06-1.056 1.06-.583 0-1.056-.474-1.056-1.06 0-.586.474-1.06 1.057-1.06s1.056.474 1.056 1.06M45.85 9.953c0 .586-.473 1.06-1.055 1.06-.584 0-1.057-.474-1.057-1.06 0-.586.473-1.06 1.057-1.06.582 0 1.055.474 1.055 1.06"/><path d="M41.947 14.002c0 .585-.473 1.06-1.055 1.06-.584 0-1.056-.475-1.056-1.06 0-.586.472-1.06 1.056-1.06.582 0 1.055.474 1.055 1.06M53.656 14.002c0 .585-.473 1.06-1.056 1.06-.583 0-1.056-.475-1.056-1.06 0-.586.473-1.06 1.056-1.06.583 0 1.056.474 1.056 1.06M65.365 14.002c0 .585-.473 1.06-1.056 1.06-.584 0-1.057-.475-1.057-1.06 0-.586.473-1.06 1.056-1.06.582 0 1.055.474 1.055 1.06M69.267 14.002c0 .585-.472 1.06-1.055 1.06s-1.056-.475-1.056-1.06c0-.586.473-1.06 1.056-1.06.583 0 1.055.474 1.055 1.06M84.88 14.002c0 .585-.474 1.06-1.057 1.06s-1.056-.475-1.056-1.06c0-.586.473-1.06 1.056-1.06.583 0 1.056.474 1.056 1.06M88.782 14.002c0 .585-.473 1.06-1.056 1.06-.583 0-1.056-.475-1.056-1.06 0-.586.473-1.06 1.056-1.06.583 0 1.056.474 1.056 1.06M80.976 14.002c0 .585-.473 1.06-1.055 1.06-.583 0-1.056-.475-1.056-1.06 0-.586.473-1.06 1.057-1.06.583 0 1.056.474 1.056 1.06M77.073 14.002c0 .585-.473 1.06-1.055 1.06-.584 0-1.056-.475-1.056-1.06 0-.586.472-1.06 1.056-1.06.582 0 1.055.474 1.055 1.06M73.17 14.002c0 .585-.473 1.06-1.055 1.06-.584 0-1.056-.475-1.056-1.06 0-.586.47-1.06 1.055-1.06.582 0 1.055.474 1.055 1.06M61.462 14.002c0 .585-.473 1.06-1.056 1.06-.583 0-1.056-.475-1.056-1.06 0-.586.473-1.06 1.056-1.06.583 0 1.056.474 1.056 1.06M57.56 14.002c0 .585-.474 1.06-1.057 1.06s-1.056-.475-1.056-1.06c0-.586.473-1.06 1.056-1.06.583 0 1.056.474 1.056 1.06M49.753 14.002c0 .585-.473 1.06-1.056 1.06-.583 0-1.056-.475-1.056-1.06 0-.586.474-1.06 1.057-1.06s1.056.474 1.056 1.06M45.85 14.002c0 .585-.473 1.06-1.055 1.06-.584 0-1.057-.475-1.057-1.06 0-.586.473-1.06 1.057-1.06.582 0 1.055.474 1.055 1.06M38.044 14.002c0 .585-.473 1.06-1.055 1.06-.585 0-1.057-.475-1.057-1.06 0-.586.472-1.06 1.056-1.06.58 0 1.054.474 1.054 1.06M41.947 18.05c0 .586-.473 1.06-1.055 1.06-.584 0-1.056-.474-1.056-1.06 0-.586.472-1.06 1.056-1.06.582 0 1.055.474 1.055 1.06M53.656 18.05c0 .586-.473 1.06-1.056 1.06-.583 0-1.056-.474-1.056-1.06 0-.586.473-1.06 1.056-1.06.583 0 1.056.474 1.056 1.06M65.365 18.05c0 .586-.473 1.06-1.056 1.06-.584 0-1.057-.474-1.057-1.06 0-.586.473-1.06 1.056-1.06.582 0 1.055.474 1.055 1.06M69.267 18.05c0 .586-.472 1.06-1.055 1.06s-1.056-.474-1.056-1.06c0-.586.473-1.06 1.056-1.06.583 0 1.055.474 1.055 1.06M84.88 18.05c0 .586-.474 1.06-1.057 1.06s-1.056-.474-1.056-1.06c0-.586.473-1.06 1.056-1.06.583 0 1.056.474 1.056 1.06M88.782 18.05c0 .586-.473 1.06-1.056 1.06-.583 0-1.056-.474-1.056-1.06 0-.586.473-1.06 1.056-1.06.583 0 1.056.474 1.056 1.06M80.976 18.05c0 .586-.473 1.06-1.055 1.06-.583 0-1.056-.474-1.056-1.06 0-.586.473-1.06 1.057-1.06.583 0 1.056.474 1.056 1.06M77.073 18.05c0 .586-.473 1.06-1.055 1.06-.584 0-1.056-.474-1.056-1.06 0-.586.472-1.06 1.056-1.06.582 0 1.055.474 1.055 1.06M73.17 18.05c0 .586-.473 1.06-1.055 1.06-.584 0-1.056-.474-1.056-1.06 0-.586.47-1.06 1.055-1.06.582 0 1.055.474 1.055 1.06M61.462 18.05c0 .586-.473 1.06-1.056 1.06-.583 0-1.056-.474-1.056-1.06 0-.586.473-1.06 1.056-1.06.583 0 1.056.474 1.056 1.06M57.56 18.05c0 .586-.474 1.06-1.057 1.06s-1.056-.474-1.056-1.06c0-.586.473-1.06 1.056-1.06.583 0 1.056.474 1.056 1.06M49.753 18.05c0 .586-.473 1.06-1.056 1.06-.583 0-1.056-.474-1.056-1.06 0-.586.474-1.06 1.057-1.06s1.056.474 1.056 1.06M45.85 18.05c0 .586-.473 1.06-1.055 1.06-.584 0-1.057-.474-1.057-1.06 0-.586.473-1.06 1.057-1.06.582 0 1.055.474 1.055 1.06M38.044 18.05c0 .586-.473 1.06-1.055 1.06-.585 0-1.057-.474-1.057-1.06 0-.586.472-1.06 1.056-1.06.58 0 1.054.474 1.054 1.06M41.947 22.098c0 .586-.473 1.06-1.055 1.06-.584 0-1.056-.474-1.056-1.06 0-.586.472-1.06 1.056-1.06.582 0 1.055.474 1.055 1.06M53.656 22.098c0 .586-.473 1.06-1.056 1.06-.583 0-1.056-.474-1.056-1.06 0-.586.473-1.06 1.056-1.06.583 0 1.056.474 1.056 1.06M65.365 22.098c0 .586-.473 1.06-1.056 1.06-.584 0-1.057-.474-1.057-1.06 0-.586.473-1.06 1.056-1.06.582 0 1.055.474 1.055 1.06M69.267 22.098c0 .586-.472 1.06-1.055 1.06s-1.056-.474-1.056-1.06c0-.586.473-1.06 1.056-1.06.583 0 1.055.474 1.055 1.06M84.88 22.098c0 .586-.474 1.06-1.057 1.06s-1.056-.474-1.056-1.06c0-.586.473-1.06 1.056-1.06.583 0 1.056.474 1.056 1.06M80.976 22.098c0 .586-.473 1.06-1.055 1.06-.583 0-1.056-.474-1.056-1.06 0-.586.473-1.06 1.057-1.06.583 0 1.056.474 1.056 1.06M77.073 22.098c0 .586-.473 1.06-1.055 1.06-.584 0-1.056-.474-1.056-1.06 0-.586.472-1.06 1.056-1.06.582 0 1.055.474 1.055 1.06M73.17 22.098c0 .586-.473 1.06-1.055 1.06-.584 0-1.056-.474-1.056-1.06 0-.586.47-1.06 1.055-1.06.582 0 1.055.474 1.055 1.06M61.462 22.098c0 .586-.473 1.06-1.056 1.06-.583 0-1.056-.474-1.056-1.06 0-.586.473-1.06 1.056-1.06.583 0 1.056.474 1.056 1.06M57.56 22.098c0 .586-.474 1.06-1.057 1.06s-1.056-.474-1.056-1.06c0-.586.473-1.06 1.056-1.06.583 0 1.056.474 1.056 1.06M49.753 22.098c0 .586-.473 1.06-1.056 1.06-.583 0-1.056-.474-1.056-1.06 0-.586.474-1.06 1.057-1.06s1.056.474 1.056 1.06M45.85 22.098c0 .586-.473 1.06-1.055 1.06-.584 0-1.057-.474-1.057-1.06 0-.586.473-1.06 1.057-1.06.582 0 1.055.474 1.055 1.06M53.656 26.147c0 .586-.473 1.06-1.056 1.06-.583 0-1.056-.474-1.056-1.06 0-.586.473-1.06 1.056-1.06.583 0 1.056.474 1.056 1.06M65.365 26.147c0 .586-.473 1.06-1.056 1.06-.584 0-1.057-.474-1.057-1.06 0-.586.473-1.06 1.056-1.06.582 0 1.055.474 1.055 1.06M69.267 26.147c0 .586-.472 1.06-1.055 1.06s-1.056-.474-1.056-1.06c0-.586.473-1.06 1.056-1.06.583 0 1.055.474 1.055 1.06M77.073 26.147c0 .586-.473 1.06-1.055 1.06-.584 0-1.056-.474-1.056-1.06 0-.586.472-1.06 1.056-1.06.582 0 1.055.474 1.055 1.06M73.17 26.147c0 .586-.473 1.06-1.055 1.06-.584 0-1.056-.474-1.056-1.06 0-.586.47-1.06 1.055-1.06.582 0 1.055.474 1.055 1.06M61.462 26.147c0 .586-.473 1.06-1.056 1.06-.583 0-1.056-.474-1.056-1.06 0-.586.473-1.06 1.056-1.06.583 0 1.056.474 1.056 1.06M57.56 26.147c0 .586-.474 1.06-1.057 1.06s-1.056-.474-1.056-1.06c0-.586.473-1.06 1.056-1.06.583 0 1.056.474 1.056 1.06M49.753 26.147c0 .586-.473 1.06-1.056 1.06-.583 0-1.056-.474-1.056-1.06 0-.586.474-1.06 1.057-1.06s1.056.474 1.056 1.06M103.274 102.175c0 .586-.473 1.06-1.056 1.06-.583 0-1.056-.474-1.056-1.06 0-.586.473-1.06 1.056-1.06.583 0 1.056.474 1.056 1.06M99.37 106.223c0 .586-.472 1.06-1.055 1.06s-1.056-.474-1.056-1.06c0-.586.472-1.06 1.055-1.06s1.056.474 1.056 1.06M103.274 106.223c0 .586-.473 1.06-1.056 1.06-.583 0-1.056-.474-1.056-1.06 0-.586.473-1.06 1.056-1.06.583 0 1.056.474 1.056 1.06M95.468 110.272c0 .585-.473 1.06-1.056 1.06-.583 0-1.056-.475-1.056-1.06 0-.586.473-1.06 1.056-1.06.583 0 1.056.474 1.056 1.06M99.37 110.272c0 .585-.472 1.06-1.055 1.06s-1.056-.475-1.056-1.06c0-.586.472-1.06 1.055-1.06s1.056.474 1.056 1.06M103.274 110.272c0 .585-.473 1.06-1.056 1.06-.583 0-1.056-.475-1.056-1.06 0-.586.473-1.06 1.056-1.06.583 0 1.056.474 1.056 1.06M21.793 102.175c0 .586.473 1.06 1.055 1.06.584 0 1.056-.474 1.056-1.06 0-.586-.472-1.06-1.056-1.06-.582 0-1.055.474-1.055 1.06M25.696 106.223c0 .586.473 1.06 1.055 1.06.585 0 1.057-.474 1.057-1.06 0-.586-.472-1.06-1.056-1.06-.58 0-1.054.474-1.054 1.06M21.793 106.223c0 .586.473 1.06 1.055 1.06.584 0 1.056-.474 1.056-1.06 0-.586-.472-1.06-1.056-1.06-.582 0-1.055.474-1.055 1.06M29.6 110.272c0 .585.47 1.06 1.054 1.06.584 0 1.056-.475 1.056-1.06 0-.586-.472-1.06-1.056-1.06-.583 0-1.055.474-1.055 1.06M25.696 110.272c0 .585.473 1.06 1.055 1.06.585 0 1.057-.475 1.057-1.06 0-.586-.472-1.06-1.056-1.06-.58 0-1.054.474-1.054 1.06M21.793 110.272c0 .585.473 1.06 1.055 1.06.584 0 1.056-.475 1.056-1.06 0-.586-.472-1.06-1.056-1.06-.582 0-1.055.474-1.055 1.06" fill="#3D1E39"/></g></svg>