<svg width="125" height="140" xmlns="http://www.w3.org/2000/svg"><g fill="none" fill-rule="evenodd"><path d="M80.723 98.905c-11.006 4.062-24 4.074-34.94 0-3.48-1.297-4.98 4.29-1.53 5.576 11.783 4.39 26.14 4.38 38 0 3.45-1.27 1.96-6.86-1.53-5.57m5.763-39.12c2.165.02 4.34.2 6.474.44 4.653.53 11.15 1.34 11.467 7.11.236 4.31-.806 8.67-2.183 12.77-1.304 3.89-4.07 6.72-8.117 7.69-8.777 2.1-17.488-.09-21.693-8.83-5.16-10.72-4.907-15.91 7.63-18.57 2.102-.45 4.257-.6 6.422-.59m-45.77 0c2.165-.01 4.32.15 6.425.59 12.54 2.66 12.79 7.85 7.63 18.57-4.2 8.74-12.91 10.93-21.69 8.84-4.04-.96-6.81-3.8-8.11-7.68-1.37-4.1-2.42-8.46-2.18-12.77.32-5.77 6.82-6.58 11.47-7.1 2.14-.24 4.31-.43 6.48-.44m50.41-2.02c-7.62.05-14.97 2.45-22.45 3.41-3.12.4-6.34.5-9.47.13-4.16-.49-8.19-1.8-12.34-2.39-3.71-.52-7.47-1.07-11.21-1.09-6.53-.04-12.85 2.02-19.26 3.13 0 1.88-.38 4.29.58 5.62.99 1.36 2.65 2.61 3.09 4.46 1.03 4.38 2.48 8.68 4.34 12.8.9 2 2.61 3.4 4.51 4.36 4.59 2.32 10.02 2.66 15.06 1.93 7.17-1.04 11.06-6.44 14.03-12.61 1.11-2.51 1.24-5.4 2.7-7.7.87-1.36 2.89-.79 4.33-.79 2.15-.01 2.66 2.4 3.11 4 1.58 5.67 4.22 11.69 9.47 14.66 7.84 4.44 20.18 3.61 25.27-4.4 1.99-3.13 2.54-6.93 3.54-10.48.61-2.16 1.15-4.73 3.31-5.92.87-.48.26-2.39.39-3.5.14-1.21.41-2.28-1.3-2.52-2.99-.41-5.89-1.67-8.96-2.1-2.9-.4-5.74-.99-8.7-.97" fill="#3D1E39"/><path d="M86.484 60.037c1.94.013 3.97.16 6.448.44 3.568.403 5.458.76 7.288 1.567 2.452 1.08 3.82 2.766 3.958 5.304.208 3.817-.55 7.848-2.17 12.67-1.32 3.925-4.09 6.605-7.94 7.523-9.476 2.27-17.542-.66-21.41-8.69-5.53-11.49-4.113-15.76 7.456-18.22 1.966-.41 4.065-.6 6.37-.58zm.004-.5c-2.34-.016-4.474.17-6.477.596-11.92 2.533-13.46 7.17-7.8 18.93 3.98 8.267 12.29 11.28 21.98 8.967 4.02-.96 6.93-3.767 8.3-7.85 1.64-4.88 2.41-8.968 2.2-12.86-.15-2.743-1.64-4.584-4.25-5.735-1.89-.834-3.81-1.198-7.43-1.606-2.49-.29-4.54-.44-6.5-.45zm-45.77.5c2.306-.014 4.405.17 6.37.587 11.57 2.458 12.986 6.727 7.456 18.22-3.867 8.035-11.933 10.96-21.41 8.698-3.85-.92-6.62-3.6-7.94-7.523-1.618-4.83-2.378-8.86-2.17-12.68.14-2.54 1.507-4.23 3.96-5.31 1.83-.81 3.72-1.17 7.287-1.57 2.48-.28 4.51-.43 6.45-.44zm-.003-.5c-1.96.01-4.004.16-6.5.442-3.618.4-5.54.77-7.432 1.6-2.614 1.15-4.107 2.99-4.257 5.73-.213 3.89.558 7.98 2.196 12.86 1.372 4.08 4.275 6.89 8.296 7.85 9.69 2.31 17.998-.7 21.976-8.97 5.66-11.76 4.12-16.4-7.8-18.93-2.005-.43-4.14-.61-6.48-.6zm50.412-2.017c-3.962.026-7.085.5-14.007 1.9l-1.117.225c-3.22.647-5.245 1.008-7.364 1.28-3.3.42-6.46.476-9.42.125-1.77-.21-3.29-.51-6.23-1.176l-.29-.066c-2.89-.654-4.18-.92-5.82-1.152l-.47-.066c-3.42-.484-5.05-.69-7.02-.855-1.33-.11-2.57-.17-3.77-.178-3.78-.022-6.75.46-13.35 1.913l-.47.102c-2.52.552-3.93.845-5.49 1.114l-.21.036v.21c0 .342-.01.614-.04 1.3-.02.314-.02.474-.03.66-.06 1.88.09 2.984.69 3.81.15.21.32.427.54.675.17.196.34.392.7.784 1.08 1.22 1.58 1.96 1.8 2.91 1.03 4.41 2.49 8.73 4.36 12.85.86 1.91 2.46 3.39 4.63 4.48 4.3 2.18 9.61 2.76 15.2 1.96 6.4-.92 10.52-5.06 14.21-12.75.38-.85.62-1.65 1-3.1l.07-.27c.58-2.25.92-3.22 1.6-4.3.43-.67 1.16-.85 2.53-.77l.5.04c.58.05.8.06 1.08.06 1.24 0 1.95.84 2.5 2.53.06.2.12.41.19.67l.17.63c2 7.18 4.93 12.18 9.59 14.82 8.57 4.86 20.75 3.17 25.6-4.48 1.24-1.94 1.88-3.83 2.81-7.58l.1-.41c.31-1.25.46-1.85.66-2.55l.07-.25c.02-.08.14-.51.17-.64l.18-.64c.65-2.21 1.4-3.48 2.76-4.23.6-.33.68-.94.56-2.35l-.01-.1c-.06-.68-.07-.96-.04-1.25l.03-.22c.11-.89.12-1.21-.02-1.6-.2-.54-.68-.86-1.52-.97-.95-.13-1.91-.34-3.17-.69-.35-.09-.6-.16-1.28-.36-2.19-.62-3.22-.87-4.51-1.05-.56-.08-1.018-.15-1.99-.3l-.9-.14c-2.53-.38-4.14-.55-5.855-.53zm.003.5c1.684-.01 3.27.152 5.78.533l.894.138c.977.16 1.437.22 1.997.3 1.26.18 2.28.43 4.44 1.04.69.2.93.27 1.29.36 1.28.35 2.27.57 3.24.71.67.1 1 .31 1.12.66.11.29.1.57 0 1.37l-.02.23c-.03.33-.02.63.04 1.35l.01.11c.1 1.18.04 1.68-.3 1.86-1.5.83-2.31 2.2-3 4.53-.06.2-.12.41-.19.66l-.17.64-.07.25c-.2.71-.35 1.31-.66 2.57l-.1.41c-.91 3.71-1.54 5.56-2.74 7.44-4.7 7.4-16.57 9.05-24.93 4.31-4.52-2.56-7.38-7.46-9.35-14.52-.03-.09-.14-.52-.17-.63-.07-.26-.13-.47-.2-.68-.6-1.88-1.45-2.88-2.97-2.87-.27 0-.48-.01-1.05-.06-.24-.02-.36-.03-.51-.04-1.53-.09-2.42.13-2.98 1.01-.72 1.13-1.07 2.14-1.67 4.44l-.07.27c-.37 1.43-.61 2.2-.97 3.02-3.63 7.54-7.63 11.57-13.83 12.46-5.5.8-10.7.22-14.91-1.9-2.07-1.05-3.59-2.45-4.4-4.24-1.85-4.1-3.3-8.38-4.33-12.76-.25-1.06-.78-1.86-1.92-3.13-.36-.39-.53-.58-.69-.77-.2-.24-.37-.44-.51-.64-.51-.7-.65-1.73-.59-3.5 0-.18.01-.34.02-.65.03-.69.04-.97.04-1.32l-.21.25c1.57-.27 2.99-.56 5.51-1.12l.47-.1c6.57-1.44 9.52-1.92 13.24-1.9 1.18.01 2.41.07 3.73.18 1.95.17 3.58.37 6.98.85l.47.07c1.62.23 2.91.49 5.78 1.15l.3.06c2.96.67 4.49.97 6.28 1.19 3 .36 6.2.3 9.53-.122 2.14-.27 4.17-.634 7.4-1.283.31-.06.54-.11 1.12-.22 6.89-1.394 9.99-1.866 13.91-1.89z" fill="#3D1E39"/><path d="M34.24 60.232c4.272-.482 8.69-.743 12.898.15 12.536 2.664 12.79 7.85 7.628 18.575-4.205 8.738-12.91 10.928-21.688 8.833-4.046-.965-6.814-3.812-8.12-7.696-1.376-4.1-2.424-8.453-2.188-12.762.316-5.77 6.818-6.574 11.47-7.1z" fill="#3D1E39"/><path d="M34.24 60.232c4.272-.482 8.69-.743 12.898.15 12.536 2.664 12.79 7.85 7.628 18.575-4.205 8.738-12.91 10.928-21.688 8.833-4.046-.965-6.814-3.812-8.12-7.696-1.376-4.1-2.424-8.453-2.188-12.762.316-5.77 6.818-6.574 11.47-7.1z"/><path d="M92.957 60.232c-4.27-.482-8.69-.743-12.897.15-12.535 2.664-12.788 7.85-7.627 18.575 4.205 8.738 12.91 10.928 21.688 8.833 4.05-.965 6.82-3.812 8.12-7.696 1.38-4.1 2.43-8.453 2.19-12.762-.31-5.77-6.82-6.574-11.47-7.1z" fill="#3D1E39"/><path d="M92.957 60.232c-4.27-.482-8.69-.743-12.897.15-12.535 2.664-12.788 7.85-7.627 18.575 4.205 8.738 12.91 10.928 21.688 8.833 4.05-.965 6.82-3.812 8.12-7.696 1.38-4.1 2.43-8.453 2.19-12.762-.31-5.77-6.82-6.574-11.47-7.1z"/><path d="M62.357 134.983c-22.616 0-41.13-18.594-41.13-41.31v-47.81c0-22.714 18.514-41.31 41.13-41.31 22.617 0 41.13 18.596 41.13 41.31v47.81c0 22.716-18.513 41.31-41.13 41.31zm0 4.516c25.1 0 45.628-20.62 45.628-45.83V45.86c0-25.21-20.527-45.825-45.628-45.825-25.1 0-45.628 20.617-45.628 45.826v47.81c0 25.21 20.52 45.83 45.62 45.83z" fill="#3D1E39"/><path d="M107.665 63.76h4.136c.19 0 .37.02.54.053.37.076.76.115 1.45.165l.6.04.62.048c.47.04.87.082 1.24.136 1 .144 1.72.36 2.1.61 1.68 1.104 1.72 1.205 1.78 4.61.02.955.03 2.066.03 3.302.01 1.69 0 3.504-.01 5.285l-.01 1.28v.47l.02-.23c0 .04-.02.14-.05.3-.05.29-.11.61-.2.97-.24 1.01-.58 2.02-1.04 2.94-.79 1.6-1.81 2.74-3.07 3.29-.87.38-3 1.35-3.07 1.38-.82.36-1.32.57-1.8.72-.81.26-1.67.39-3.4.53l.36 4.5c2.04-.17 3.2-.35 4.4-.73.67-.21 1.31-.47 2.27-.9.1-.04 2.22-1 3.06-1.38 2.35-1.04 4.08-2.95 5.3-5.43.62-1.25 1.07-2.57 1.38-3.89.19-.8.3-1.43.34-1.83l.02-.11v-.59l.01-1.29c.02-1.8.02-3.63.02-5.34 0-1.26-.01-2.39-.03-3.37-.08-4.78-.75-6.3-3.8-8.31-1.05-.69-2.33-1.07-3.92-1.3-.47-.07-.96-.12-1.51-.17-.21-.02-.42-.03-.67-.05l-.59-.04c-.49-.04-.76-.07-.88-.09-.46-.09-.94-.14-1.42-.14h-4.14v4.52zm-90.662-4.515h-4.137c-.48 0-.957.047-1.424.142-.117.023-.385.05-.877.086l-.588.042c-.254.018-.462.033-.67.05-.547.047-1.032.1-1.502.167-1.593.23-2.88.613-3.928 1.305C.825 63.047.153 64.56.07 69.344c-.016.98-.026 2.11-.03 3.366-.005 1.708 0 3.537.014 5.333l.01 1.292.006.485.002.114.012.114c.045.397.15 1.03.34 1.824.317 1.317.766 2.636 1.382 3.887 1.222 2.47 2.948 4.39 5.295 5.42.85.37 2.97 1.33 3.07 1.37.96.43 1.6.68 2.27.89 1.2.38 2.36.56 4.4.73l.36-4.5c-1.72-.14-2.58-.28-3.4-.54-.47-.15-.97-.35-1.8-.72-.07-.04-2.2-1-3.07-1.39-1.25-.55-2.28-1.69-3.07-3.3-.45-.92-.79-1.93-1.04-2.94-.08-.35-.15-.68-.19-.97-.03-.16-.04-.27-.05-.31l.02.22v-.48l-.01-1.28c-.01-1.78-.02-3.6-.01-5.29.01-1.24.02-2.35.03-3.31.06-3.4.11-3.5 1.78-4.61.38-.25 1.11-.46 2.1-.61.37-.05.77-.09 1.24-.13.19-.01.38-.03.62-.05l.59-.04c.69-.05 1.07-.09 1.45-.16.17-.03.35-.05.54-.05h4.14V59.2z" fill="#3D1E39"/><path d="M110.544 82.86c2.115-.493 4.272-1.945 4.64-4.222.536-3.29-1.82-5.75-4.927-5.99l.545 2.02c.835-.498.896-1.77 1.392-2.533 1.602-2.458 4.463-1.067 4.726 1.474.142 1.37 2.303 1.38 2.16 0-.29-2.8-1.87-5.04-4.92-4.95-1.31.04-2.455.61-3.298 1.61-.424.5-.72 1.08-.982 1.67-.177.4-.73 1.18-.168.84-.968.57-.488 1.94.545 2.02 2.277.18 3.864 2.89 2.095 4.75-.597.63-1.55 1-2.382 1.2-1.353.31-.78 2.4.574 2.09m-96.228-2.09c-.834-.2-1.786-.57-2.382-1.2-1.763-1.85-.185-4.58 2.095-4.76 1.03-.08 1.51-1.44.54-2.02.52.31.01-.45-.17-.84-.25-.56-.52-1.09-.9-1.57-.85-1.07-2.02-1.68-3.39-1.72-3.05-.1-4.63 2.15-4.92 4.94-.15 1.38 2.01 1.37 2.16 0 .26-2.54 3.11-3.95 4.72-1.48.49.76.55 2.03 1.39 2.53l.54-2.02c-3.13.24-5.44 2.7-4.93 5.99.35 2.28 2.54 3.73 4.64 4.22 1.35.31 1.93-1.78.57-2.09m65.33-20.5c5.69-3.54 12.94-3.5 18.59 0 3.16 1.96 6.06-3.04 2.91-4.99-7.33-4.54-17.02-4.6-24.41 0-3.15 1.95-.26 6.96 2.9 4.99m-23.28 58.71c3.69-2.28 8.3-2.21 11.98 0 1.59.96 3.04-1.54 1.45-2.5-4.55-2.73-10.32-2.82-14.89 0-1.58.97-.13 3.47 1.45 2.5M27.6 60.26c5.69-3.54 12.94-3.5 18.59 0 3.164 1.96 6.06-3.046 2.907-4.997-7.33-4.54-17.02-4.594-24.402 0-3.14 1.955-.253 6.96 2.91 4.993m29.29 6.79l-3.64 18.02c-.334 1.658-.95 3.13-.06 4.66 2.14 3.674 5.94 5.644 10.085 5.896 1.85.12 1.846-2.78 0-2.89-2.42-.15-4.59-1-6.293-2.76-.51-.53-.84-1.14-1.3-1.7-.2-.24-.515-1.25-.29-.13.223 1.1.285-.54.39-1.05l.803-3.98 3.1-15.28c.37-1.82-2.406-2.597-2.775-.77" fill="#3D1E39"/><path d="M66.91 67.824l3.093 15.296c.144.713.478 5.192 1.125 5.56-.886-.503.74-1.542-.223-.402-.406.48-.7 1.04-1.132 1.513-1.715 1.88-3.954 2.8-6.466 2.95-1.84.11-1.854 3.01 0 2.89 4.103-.24 7.828-2.16 10-5.75.974-1.61.38-3.03.024-4.79l-3.64-18.03c-.36-1.82-3.14-1.05-2.77.77" fill="#3D1E39"/><path fill="#3D1E39" d="M54.093 89.318H72.52V87.31H54.093M17.538 61.503c.11 7.995.834 16.05 2.106 23.94.888 5.51 2.067 11.09 4.32 16.22 1.613 3.673 4.095 7.675 8.26 8.653-.288-.708-.574-1.416-.86-2.124l-5.663 7.84c-1.09 1.507 1.41 2.952 2.49 1.458l5.67-7.838c.54-.748-.02-1.926-.86-2.124-3.88-.913-5.86-5.433-7.13-8.816-1.89-5.05-2.91-10.43-3.7-15.752-1.04-7.08-1.64-14.295-1.74-21.457-.02-1.86-2.9-1.864-2.88 0m86.94 0c-.1 7.162-.69 14.376-1.74 21.457-.78 5.322-1.81 10.702-3.7 15.752-1.26 3.38-3.25 7.904-7.13 8.816-.84.198-1.4 1.376-.86 2.124l5.66 7.838c1.08 1.492 3.58.05 2.49-1.46l-5.66-7.838-.86 2.124c4.16-.978 6.65-4.98 8.26-8.652 2.25-5.13 3.43-10.71 4.32-16.222 1.27-7.89 2-15.944 2.11-23.94.03-1.86-2.85-1.86-2.88 0m-13.26-48.84c-5.88 7.902-16.79 12.916-28.86 12.916s-23-5.014-28.87-12.916l-2.81 2.102c6.57 8.83 18.53 14.327 31.67 14.327s25.1-5.49 31.67-14.32l-2.8-2.1zm-65.6 11.332c1.11 2.204 1 5.306-.4 8.134-1.41 2.827-3.82 4.775-6.23 5.214l.62 3.456c3.55-.644 6.85-3.32 8.73-7.1 1.88-3.782 2.02-8.044.4-11.282l-3.12 1.578zm70.4-1.578c-1.62 3.238-1.47 7.5.4 11.28 1.88 3.78 5.19 6.458 8.74 7.102l.62-3.456c-2.41-.44-4.82-2.387-6.22-5.214-1.4-2.828-1.51-5.93-.4-8.134l-3.12-1.578zm-43 116.21c2.04-5.842 5.63-9.364 9.33-9.364s7.29 3.522 9.33 9.365l3.31-1.16c-2.47-7.104-7.18-11.717-12.62-11.717s-10.15 4.613-12.62 11.717l3.3 1.16zm.63-132.72c0 .585-.47 1.06-1.05 1.06s-1.05-.475-1.05-1.06c0-.587.48-1.06 1.06-1.06s1.06.473 1.06 1.06m11.71 0c0 .585-.47 1.06-1.05 1.06-.59 0-1.06-.475-1.06-1.06 0-.587.47-1.06 1.05-1.06.58 0 1.05.473 1.05 1.06m3.91 0c0 .585-.47 1.06-1.05 1.06s-1.06-.475-1.06-1.06c0-.587.47-1.06 1.05-1.06.58 0 1.06.473 1.06 1.06m7.8 0c0 .585-.47 1.06-1.05 1.06-.58 0-1.06-.475-1.06-1.06 0-.587.47-1.06 1.06-1.06.58 0 1.05.473 1.05 1.06m-3.9 0c0 .585-.47 1.06-1.05 1.06s-1.05-.475-1.05-1.06c0-.587.47-1.06 1.05-1.06.58 0 1.055.473 1.055 1.06m-11.71 0c0 .585-.48 1.06-1.06 1.06s-1.06-.475-1.06-1.06c0-.587.477-1.06 1.06-1.06s1.058.473 1.058 1.06m-3.903 0c0 .585-.48 1.06-1.06 1.06s-1.06-.475-1.06-1.06c0-.587.48-1.06 1.06-1.06s1.06.473 1.06 1.06m-15.6 4.046c0 .586-.475 1.06-1.057 1.06s-1.053-.474-1.053-1.06c0-.586.48-1.06 1.06-1.06S42 9.366 42 9.952m11.71 0c0 .586-.475 1.06-1.06 1.06s-1.056-.474-1.056-1.06c0-.586.47-1.06 1.057-1.06.58 0 1.054.474 1.054 1.06m11.71 0c0 .586-.47 1.06-1.05 1.06s-1.058-.474-1.058-1.06c0-.586.47-1.06 1.05-1.06s1.05.474 1.05 1.06m3.91 0c0 .586-.47 1.06-1.06 1.06s-1.06-.474-1.06-1.06c0-.586.477-1.06 1.06-1.06s1.054.474 1.054 1.06m15.614 0c0 .586-.48 1.06-1.06 1.06s-1.055-.474-1.055-1.06c0-.586.47-1.06 1.052-1.06s1.055.474 1.055 1.06m-3.9 0c0 .586-.47 1.06-1.06 1.06s-1.055-.474-1.055-1.06c0-.586.472-1.06 1.06-1.06.58 0 1.052.474 1.052 1.06m-3.9 0c0 .586-.475 1.06-1.06 1.06S75 10.538 75 9.952c0-.586.47-1.06 1.056-1.06.58 0 1.05.474 1.05 1.06m-3.9 0c0 .586-.47 1.06-1.05 1.06s-1.06-.474-1.06-1.06c0-.586.47-1.06 1.05-1.06.58 0 1.05.474 1.05 1.06m-11.71 0c0 .586-.48 1.06-1.06 1.06s-1.06-.474-1.06-1.06c0-.586.47-1.06 1.056-1.06s1.06.474 1.06 1.06m-3.9 0c0 .586-.47 1.06-1.06 1.06s-1.06-.474-1.06-1.06c0-.586.47-1.06 1.05-1.06s1.06.474 1.06 1.06m-7.81 0c0 .586-.47 1.06-1.053 1.06s-1.06-.474-1.06-1.06c0-.586.47-1.06 1.05-1.06s1.05.474 1.05 1.06m0-3.47c0 .586-.47 1.06-1.06 1.06s-1.05-.474-1.05-1.06c0-.586.48-1.06 1.06-1.06s1.06.474 1.06 1.06m-3.9 3.47c0 .586-.47 1.06-1.06 1.06-.59 0-1.06-.474-1.06-1.06 0-.586.47-1.06 1.053-1.06.58 0 1.06.474 1.06 1.06"/><path d="M41.947 14.002c0 .585-.473 1.06-1.055 1.06-.584 0-1.056-.475-1.056-1.06 0-.586.472-1.06 1.056-1.06.582 0 1.055.474 1.055 1.06m11.71 0c0 .585-.474 1.06-1.057 1.06s-1.056-.475-1.056-1.06c0-.586.473-1.06 1.056-1.06.583 0 1.056.474 1.056 1.06m11.71 0c0 .585-.474 1.06-1.057 1.06-.59 0-1.06-.475-1.06-1.06 0-.586.47-1.06 1.05-1.06.58 0 1.05.474 1.05 1.06m3.9 0c0 .585-.47 1.06-1.06 1.06s-1.06-.475-1.06-1.06c0-.586.47-1.06 1.05-1.06.59 0 1.06.474 1.06 1.06m15.61 0c0 .585-.47 1.06-1.06 1.06s-1.06-.475-1.06-1.06c0-.586.47-1.06 1.06-1.06.58 0 1.05.474 1.05 1.06m3.9 0c0 .585-.47 1.06-1.06 1.06s-1.06-.475-1.06-1.06c0-.586.47-1.06 1.05-1.06s1.06.474 1.06 1.06m-7.81 0c0 .585-.47 1.06-1.05 1.06s-1.06-.475-1.06-1.06c0-.586.47-1.06 1.06-1.06s1.05.474 1.05 1.06m-3.91 0c0 .585-.48 1.06-1.06 1.06-.59 0-1.06-.475-1.06-1.06 0-.586.47-1.06 1.06-1.06.58 0 1.05.474 1.05 1.06m-3.91 0c0 .585-.478 1.06-1.06 1.06-.59 0-1.06-.475-1.06-1.06 0-.586.47-1.06 1.05-1.06s1.052.474 1.052 1.06m-11.71 0c0 .585-.47 1.06-1.05 1.06s-1.05-.475-1.05-1.06c0-.586.47-1.06 1.053-1.06s1.056.474 1.056 1.06m-3.9 0c0 .585-.477 1.06-1.06 1.06s-1.06-.475-1.06-1.06c0-.586.474-1.06 1.057-1.06.58 0 1.055.474 1.055 1.06m-7.81 0c0 .585-.47 1.06-1.05 1.06s-1.06-.475-1.06-1.06c0-.586.48-1.06 1.06-1.06s1.054.474 1.054 1.06m-3.907 0c0 .585-.47 1.06-1.058 1.06-.58 0-1.06-.475-1.06-1.06 0-.586.48-1.06 1.06-1.06.58 0 1.06.474 1.06 1.06m-7.81 0c0 .585-.47 1.06-1.05 1.06s-1.06-.475-1.06-1.06c0-.586.47-1.06 1.06-1.06.58 0 1.054.474 1.054 1.06m3.9 4.048c0 .586-.47 1.06-1.053 1.06s-1.05-.474-1.05-1.06c0-.586.47-1.06 1.054-1.06s1.057.474 1.057 1.06m11.71 0c0 .586-.47 1.06-1.06 1.06s-1.05-.474-1.05-1.06c0-.586.47-1.06 1.05-1.06s1.06.474 1.06 1.06m11.71 0c0 .586-.47 1.06-1.05 1.06-.588 0-1.06-.474-1.06-1.06 0-.586.47-1.06 1.053-1.06.59 0 1.06.474 1.06 1.06m3.91 0c0 .586-.47 1.06-1.05 1.06s-1.06-.474-1.06-1.06c0-.586.475-1.06 1.06-1.06s1.05.474 1.05 1.06m15.61 0c0 .586-.47 1.06-1.06 1.06s-1.05-.474-1.05-1.06c0-.586.475-1.06 1.06-1.06s1.05.474 1.05 1.06m3.9 0c0 .586-.47 1.06-1.05 1.06-.58 0-1.054-.474-1.054-1.06 0-.586.48-1.06 1.06-1.06.588 0 1.06.474 1.06 1.06m-7.804 0c0 .586-.47 1.06-1.058 1.06s-1.06-.474-1.06-1.06c0-.586.48-1.06 1.06-1.06s1.06.474 1.06 1.06m-3.908 0c0 .586-.48 1.06-1.06 1.06-.59 0-1.06-.474-1.06-1.06 0-.586.47-1.06 1.05-1.06.58 0 1.055.474 1.055 1.06m-3.9 0c0 .586-.478 1.06-1.06 1.06S71 18.636 71 18.05c0-.586.47-1.06 1.05-1.06.58 0 1.05.474 1.05 1.06m-11.71 0c0 .586-.47 1.06-1.056 1.06s-1.053-.474-1.053-1.06c0-.586.47-1.06 1.06-1.06s1.05.474 1.05 1.06m-3.9 0c0 .586-.47 1.06-1.05 1.06s-1.05-.474-1.05-1.06c0-.586.47-1.06 1.06-1.06s1.06.474 1.06 1.06m-7.81 0c0 .586-.47 1.06-1.05 1.06s-1.06-.474-1.06-1.06c0-.586.48-1.06 1.06-1.06s1.06.474 1.06 1.06m-3.9 0c0 .586-.473 1.06-1.055 1.06-.58 0-1.05-.474-1.05-1.06 0-.586.48-1.06 1.06-1.06.58 0 1.058.474 1.058 1.06m-7.81 0c0 .586-.47 1.06-1.052 1.06s-1.054-.474-1.054-1.06c0-.586.47-1.06 1.054-1.06.58 0 1.05.474 1.05 1.06m3.91 4.048c0 .586-.474 1.06-1.06 1.06-.58 0-1.05-.474-1.05-1.06 0-.586.47-1.06 1.055-1.06.59 0 1.06.474 1.06 1.06m11.71 0c0 .586-.47 1.06-1.06 1.06s-1.06-.474-1.06-1.06c0-.586.48-1.06 1.06-1.06.58 0 1.05.474 1.05 1.06m11.71 0c0 .586-.47 1.06-1.05 1.06s-1.05-.474-1.05-1.06c0-.586.476-1.06 1.06-1.06.58 0 1.06.474 1.06 1.06m3.905 0c0 .586-.47 1.06-1.052 1.06s-1.055-.474-1.055-1.06c0-.586.47-1.06 1.05-1.06.59 0 1.06.474 1.06 1.06m15.61 0c0 .586-.48 1.06-1.06 1.06s-1.06-.474-1.06-1.06c0-.586.478-1.06 1.06-1.06.58 0 1.05.474 1.05 1.06m-3.9 0c0 .586-.47 1.06-1.06 1.06s-1.054-.474-1.054-1.06c0-.586.472-1.06 1.06-1.06s1.052.474 1.052 1.06m-3.904 0c0 .586-.476 1.06-1.058 1.06-.58 0-1.055-.474-1.055-1.06 0-.586.47-1.06 1.06-1.06.58 0 1.05.474 1.05 1.06m-3.91 0c0 .586-.47 1.06-1.05 1.06S71 22.684 71 22.098c0-.586.47-1.06 1.053-1.06.58 0 1.055.474 1.055 1.06m-11.71 0c0 .586-.47 1.06-1.055 1.06s-1.055-.474-1.055-1.06c0-.586.47-1.06 1.057-1.06s1.06.474 1.06 1.06m-3.9 0c0 .586-.475 1.06-1.06 1.06s-1.054-.474-1.054-1.06c0-.586.48-1.06 1.06-1.06s1.06.474 1.06 1.06m-7.8 0c0 .586-.47 1.06-1.05 1.06s-1.05-.474-1.05-1.06c0-.586.47-1.06 1.06-1.06s1.056.474 1.056 1.06m-3.9 0c0 .586-.47 1.06-1.05 1.06s-1.06-.474-1.06-1.06c0-.586.477-1.06 1.06-1.06.58 0 1.054.474 1.054 1.06m7.805 4.05c0 .585-.48 1.06-1.06 1.06s-1.06-.475-1.06-1.06c0-.587.473-1.06 1.06-1.06.58 0 1.05.473 1.05 1.06m11.71 0c0 .585-.476 1.06-1.06 1.06s-1.06-.475-1.06-1.06c0-.587.474-1.06 1.06-1.06.58 0 1.05.473 1.05 1.06m3.91 0c0 .585-.47 1.06-1.05 1.06s-1.054-.475-1.054-1.06c0-.587.474-1.06 1.057-1.06.58 0 1.05.473 1.05 1.06m7.8 0c0 .585-.47 1.06-1.05 1.06s-1.05-.475-1.05-1.06c0-.587.474-1.06 1.06-1.06.58 0 1.05.473 1.05 1.06m-3.9 0c0 .585-.47 1.06-1.05 1.06-.584 0-1.056-.475-1.056-1.06 0-.587.47-1.06 1.057-1.06s1.06.473 1.06 1.06m-11.71 0c0 .585-.474 1.06-1.06 1.06s-1.053-.475-1.053-1.06c0-.587.47-1.06 1.05-1.06s1.057.473 1.057 1.06m-3.9 0c0 .585-.47 1.06-1.05 1.06s-1.06-.475-1.06-1.06c0-.587.475-1.06 1.06-1.06.58 0 1.05.473 1.05 1.06m-7.81 0c0 .585-.47 1.06-1.052 1.06s-1.055-.475-1.055-1.06c0-.587.48-1.06 1.06-1.06s1.06.473 1.06 1.06m53.52 76.027c0 .586-.47 1.06-1.05 1.06s-1.06-.474-1.06-1.06c0-.586.47-1.06 1.05-1.06s1.055.474 1.055 1.06m-3.9 4.048c0 .586-.47 1.06-1.06 1.06s-1.06-.474-1.06-1.06c0-.586.47-1.06 1.057-1.06s1.05.474 1.05 1.06m3.9 0c0 .586-.476 1.06-1.06 1.06s-1.055-.474-1.055-1.06c0-.586.47-1.06 1.05-1.06s1.054.474 1.054 1.06m-7.807 4.05c0 .584-.47 1.06-1.06 1.06s-1.05-.476-1.05-1.06c0-.587.48-1.06 1.06-1.06s1.06.473 1.06 1.06m3.9 0c0 .584-.47 1.06-1.057 1.06s-1.06-.476-1.06-1.06c0-.587.47-1.06 1.05-1.06s1.058.473 1.058 1.06m3.9 0c0 .584-.475 1.06-1.06 1.06s-1.05-.476-1.05-1.06c0-.587.48-1.06 1.06-1.06s1.06.473 1.06 1.06m-81.48-8.098c0 .586.478 1.06 1.06 1.06.587 0 1.06-.474 1.06-1.06 0-.586-.47-1.06-1.05-1.06-.58 0-1.06.474-1.06 1.06m3.9 4.048c0 .586.47 1.06 1.05 1.06.59 0 1.06-.474 1.06-1.06 0-.586-.47-1.06-1.06-1.06-.58 0-1.052.474-1.052 1.06m-3.9 0c0 .586.47 1.06 1.055 1.06s1.058-.474 1.058-1.06c0-.586-.47-1.06-1.06-1.06-.58 0-1.05.474-1.05 1.06m7.806 4.05c0 .584.47 1.06 1.05 1.06s1.057-.476 1.057-1.06c0-.587-.47-1.06-1.05-1.06s-1.053.473-1.053 1.06m-3.907 0c0 .584.47 1.06 1.06 1.06s1.06-.476 1.06-1.06c0-.587-.474-1.06-1.06-1.06-.58 0-1.05.473-1.05 1.06m-3.908 0c0 .584.48 1.06 1.06 1.06.586 0 1.06-.476 1.06-1.06 0-.587-.48-1.06-1.06-1.06-.58 0-1.06.473-1.06 1.06" fill="#3D1E39"/></g></svg>
