<?xml version="1.0" encoding="UTF-8" standalone="no"?>
<svg width="125px" height="140px" viewBox="0 0 125 140" version="1.1" xmlns="http://www.w3.org/2000/svg" xmlns:xlink="http://www.w3.org/1999/xlink">
    <!-- Generator: sketchtool 3.8.3 (29802) - http://www.bohemiancoding.com/sketch -->
    <title>2AC3D398-2F8F-47EA-B63F-F344906999DB</title>
    <desc>Created with sketchtool.</desc>
    <defs></defs>
    <g id="Page-1" stroke="none" stroke-width="1" fill="none" fill-rule="evenodd">
        <g id="Home" transform="translate(-241.000000, -309.000000)">
            <g id="Group" transform="translate(241.000000, 309.000000)">
                <path d="M80.722504,98.9045288 C69.7171284,102.967344 56.7228155,102.979489 45.7836609,98.9045288 C42.3044605,97.6084763 40.8032563,103.195787 44.2530891,104.481429 C56.0358433,108.871005 70.3931597,108.860016 82.2530758,104.481429 C85.7029087,103.207932 84.2120696,97.616573 80.722504,98.9045288" id="Fill-1" fill="#3D1E39"></path>
                <path d="M86.4860455,59.7865879 C88.6506127,59.800468 90.824969,59.9866924 92.9601685,60.2278588 C97.6129226,60.7529885 104.111231,61.5643949 104.427365,67.3344599 C104.662881,71.6436464 103.621194,75.9990999 102.244371,80.0989286 C100.939527,83.9836161 98.1726351,86.8203575 94.126812,87.7856014 C85.3499213,89.8803368 76.6392517,87.6907541 72.4339221,78.9526653 C67.2738566,68.2285684 67.5272244,63.0420451 80.0625961,60.3788047 C82.1661246,59.9317504 84.3214784,59.7727079 86.4860455,59.7865879 M40.7168809,59.7865879 C42.881448,59.7727079 45.0368018,59.9317504 47.1409062,60.3788047 C59.675702,63.0420451 59.9290698,68.2285684 54.7690043,78.9526653 C50.5642506,87.6907541 41.8535809,89.8803368 33.0761144,87.7856014 C29.0302913,86.8203575 26.2633999,83.9836161 24.9585557,80.0989286 C23.5817321,75.9990999 22.5400449,71.6436464 22.7755618,67.3344599 C23.0916957,61.5643949 29.5900038,60.7529885 34.2433337,60.2278588 C36.3785332,59.9866924 38.5523137,59.800468 40.7168809,59.7865879 M91.1284345,57.7705063 C83.5032156,57.8213999 76.1549737,60.2157137 68.6702587,61.1728609 C65.5463489,61.5719132 62.3268504,61.6702305 59.1977582,61.2989383 C55.0373438,60.8044605 51.0093717,59.4927929 46.8524124,58.9046245 C43.1365433,58.3789165 39.3746074,57.830075 35.6357049,57.8080982 C29.101695,57.7693496 22.7824719,59.8241798 16.3768733,60.9334296 C16.3768733,62.8153371 15.9968216,65.2304711 16.9544367,66.553127 C17.9419953,67.9174232 19.6084644,69.1648954 20.0409172,71.0138378 C21.0659051,75.3982081 22.5210424,79.6964063 24.3815681,83.8164768 C25.2862063,85.8186783 26.9924081,87.2147831 28.8984249,88.1759786 C33.4872612,90.4916387 38.9191212,90.832279 43.9542303,90.1041531 C51.1239631,89.0671954 55.0131587,83.6643742 57.9810169,77.4906302 C59.0918044,74.9812274 59.2156091,72.0849173 60.6782323,69.7918124 C61.5471686,68.4292512 63.5648976,69.0029612 65.0067907,68.9977562 C67.1540828,68.9902378 67.6706076,71.4013234 68.1180321,73.005051 C69.7021566,78.6791121 72.3423642,84.6990185 77.5905326,87.6722474 C85.4276591,92.112138 97.7741566,91.2816466 102.858788,83.2745753 C104.848876,80.1411472 105.3988,76.3385836 106.397299,72.7904881 C107.004806,70.6309789 107.547819,68.0556457 109.709507,66.8683205 C110.581899,66.3888794 109.969209,64.4768984 110.098196,63.3653353 C110.2387,62.1542983 110.509343,61.0832188 108.793352,60.844944 C105.800733,60.4302767 102.897944,59.1677677 99.8350733,58.7409552 C96.9328604,58.3361196 94.0893827,57.7508428 91.1284345,57.7705063" id="Fill-3" fill="#3D1E39"></path>
                <path d="M86.4844501,60.0374789 C88.4237685,60.0499146 90.4527337,60.1971273 92.9322431,60.4771828 C96.4998401,60.879837 98.3895568,61.2374941 100.219589,62.0440515 C102.672209,63.1250042 104.03884,64.8101976 104.177896,67.348243 C104.386494,71.1648986 103.627173,75.1961522 102.007624,80.0187538 C100.689344,83.9434416 97.9174957,86.6233484 94.0690612,87.5414998 C84.592448,89.8032344 76.5259897,86.8788173 72.658875,78.8434918 C67.1289574,67.3507361 68.5449362,63.0822739 80.114311,60.6242673 C82.080172,60.2064709 84.1787642,60.0226939 86.4844501,60.0374789 L86.4844501,60.0374789 Z M86.4876409,59.535697 C84.1481265,59.5206951 82.0143491,59.7075533 80.0108653,60.1333455 C68.0879164,62.6664717 66.5503216,67.3015451 72.2089605,79.0618207 C76.1879619,87.3296312 84.4966518,90.3418669 94.1845828,88.0296982 C98.2058357,87.0703162 101.109309,84.2631508 102.481112,80.1791184 C104.119184,75.3013594 104.889498,71.2117396 104.676835,67.3207103 C104.526511,64.5770055 103.033843,62.7363948 100.420409,61.5845657 C98.5285126,60.7507428 96.60585,60.3868503 92.9880735,59.9785326 C90.4925477,59.696668 88.4471363,59.5482621 86.4876409,59.535697 L86.4876409,59.535697 Z M40.7184763,60.0374789 C43.024108,60.0226942 45.1227605,60.2064642 47.089189,60.6242668 C58.658056,63.0822784 60.0739458,67.3507844 54.5440427,78.8435099 C50.6774572,86.8788361 42.6110703,89.8032272 33.1338816,87.5415037 C29.2854308,86.6233484 26.513582,83.9434416 25.1952969,80.0187389 C23.5757533,75.1961522 22.8164329,71.1648986 23.0250325,67.3482094 C23.1640874,64.8101845 24.530732,63.1249949 26.9834064,62.0440527 C28.8135203,61.2374852 30.7034441,60.8798118 34.2712353,60.4771855 C36.7511103,60.1970887 38.7792846,60.0499138 40.7184763,60.0374789 L40.7184763,60.0374789 Z M40.7152855,59.535697 C38.7559146,59.5482613 36.7112959,59.6966295 34.2154083,59.9785349 C30.5974412,60.3868236 28.6745703,60.7507323 26.7825922,61.5845645 C24.1691008,62.736382 22.6764158,64.5769902 22.526093,67.3206767 C22.3134285,71.2117396 23.0837427,75.3013594 24.7218095,80.1791034 C26.0936175,84.2631508 28.9970907,87.0703162 33.0183635,88.0297029 C42.7068763,90.3418588 51.015502,87.3296463 54.993963,79.0618268 C60.6525795,67.3015977 59.1150828,62.6664812 47.1926234,60.1333426 C45.1885693,59.7075458 43.0547391,59.5206955 40.7152855,59.535697 L40.7152855,59.535697 Z M91.126774,57.5196158 C87.1652811,57.5460563 84.0420724,58.0213499 77.1203252,59.4199662 C76.5440969,59.5363995 76.3116593,59.5832971 76.0032709,59.6452263 C72.7831236,60.2918828 70.7583756,60.6529098 68.6386969,60.9239748 C65.3459921,61.3445892 62.182934,61.4005121 59.2270764,61.0497757 C57.4618397,60.8399719 55.9404994,60.540294 52.9976118,59.8737942 C52.8515366,59.840701 52.8515366,59.840701 52.7054237,59.8075793 C49.8218734,59.1539271 48.5237613,58.8877295 46.8872709,58.6561824 C46.6528222,58.6229987 46.6528222,58.6229987 46.4181776,58.5897687 C42.9990569,58.1056373 41.3649994,57.8989516 39.4003813,57.735289 C38.0723327,57.6246559 36.831138,57.5642244 35.6371673,57.5572064 C31.8610627,57.534813 28.8929868,58.0168303 22.28637,59.4699024 C22.0535515,59.5211094 22.0535515,59.5211094 21.8207818,59.572263 C19.3074306,60.1243614 17.8912521,60.4165873 16.3344155,60.6861828 L16.1270272,60.7220959 L16.1270272,60.9334296 C16.1270272,61.2742581 16.1183822,61.5456725 16.0900318,62.2328832 C16.0771259,62.5457202 16.0709312,62.7062433 16.0651032,62.8920428 C16.0061712,64.770829 16.1551943,65.8758693 16.7523559,66.7006676 C16.9054607,66.9121794 17.0800356,67.1293344 17.2929022,67.3766741 C17.4615539,67.5726383 17.6374204,67.7689993 17.9911636,68.1614519 C19.0767031,69.3736501 19.5742258,70.11579 19.7976899,71.0712058 C20.8281672,75.4790569 22.2899864,79.7922462 24.1540248,83.9200953 C25.0142317,85.8239587 26.6167364,87.3060895 28.7863002,88.4001906 C33.0941381,90.5740507 38.3969005,91.1612813 43.989842,90.3524875 C50.3931286,89.4263808 54.5115999,85.2848387 58.2060177,77.5997041 C58.584733,76.7444463 58.8327674,75.9451462 59.2115283,74.4942855 C59.2465296,74.3600423 59.2465296,74.3600423 59.2813993,74.2260033 C59.8664792,71.9772724 60.2045103,70.9996873 60.8886213,69.9271361 C61.3210307,69.2490839 62.0582933,69.0693278 63.4187536,69.1533981 C63.560033,69.1621285 63.6858592,69.1714932 63.9210121,69.1901299 C64.5020781,69.2361815 64.723133,69.2496778 65.0076888,69.2486506 C66.2525976,69.2442918 66.9635075,70.0846643 67.5068484,71.7768205 C67.5707866,71.975947 67.6320209,72.1837546 67.7031597,72.4390183 C67.7340883,72.5499978 67.8497429,72.9734265 67.8774494,73.0727365 C69.8808345,80.2485168 72.8107215,85.2524244 77.467769,87.8907674 C86.039269,92.7466955 98.2147905,91.0543909 103.069447,83.4094743 C104.303562,81.4663388 104.947949,79.5799173 105.877124,75.8222635 C105.904536,75.711406 105.928126,75.6157944 105.978993,75.4095058 C106.289078,74.1521272 106.440173,73.5607208 106.637729,72.8587193 C106.659596,72.7809875 106.682342,72.6993113 106.707686,72.6076312 C106.73041,72.5254266 106.849276,72.0924772 106.883568,71.968771 C106.952375,71.7205544 107.009863,71.5183454 107.06727,71.3242963 C107.722647,69.1089499 108.468824,67.8357498 109.829401,67.0884416 C110.431373,66.757615 110.508838,66.1490521 110.391798,64.7454332 C110.387322,64.691973 110.387322,64.691973 110.382822,64.6387054 C110.32515,63.9561784 110.313307,63.6792409 110.346363,63.3943754 C110.353737,63.3308172 110.361292,63.2688507 110.373006,63.1748868 C110.484003,62.2845382 110.493585,61.9646656 110.349916,61.5723545 C110.152284,61.0326874 109.664723,60.7126554 108.827574,60.5964127 C107.882375,60.4654427 106.918047,60.2493943 105.65493,59.9052081 C105.304463,59.8097094 105.057605,59.7402854 104.376419,59.5469579 C102.186362,58.9253969 101.154864,58.6715684 99.8694147,58.4924405 C99.3132708,58.4148628 98.854345,58.3456634 97.8799357,58.1949034 C97.4084702,58.1219586 97.2300957,58.0944773 96.9832798,58.0569866 C94.4518606,57.6724702 92.8433705,57.508216 91.1267823,57.5196157 L91.126774,57.5196158 Z M91.1300868,58.0213969 C92.8142582,58.0102124 94.4010192,58.1722477 96.9085455,58.5531349 C97.1547456,58.590532 97.3328504,58.6179717 97.803845,58.6908437 C98.7806618,58.8419762 99.2412841,58.9114314 99.8006976,58.9894652 C101.056085,59.164404 102.072275,59.4144654 104.240518,60.0298354 C104.923473,60.223665 105.1713,60.2933616 105.524071,60.389488 C106.805979,60.7387944 107.789233,60.9590832 108.759201,61.0934852 C109.428535,61.1864259 109.754538,61.4004127 109.880931,61.7455486 C109.985301,62.0305479 109.976834,62.3132276 109.877184,63.1125534 C109.865306,63.2078266 109.857605,63.2709999 109.850029,63.3363005 C109.811547,63.6679213 109.824092,63.9612597 109.884919,64.6811314 C109.889408,64.7342776 109.889408,64.7342776 109.893848,64.7873044 C109.992036,65.9648245 109.928774,66.4618069 109.589561,66.6482283 C108.083746,67.4753098 107.277863,68.8503869 106.588268,71.1813971 C106.529926,71.3786062 106.471695,71.5834301 106.40218,71.8342036 C106.36768,71.9586579 106.248749,72.391843 106.2262,72.473412 C106.201047,72.5644059 106.1785,72.6453681 106.156863,72.7222796 C105.957356,73.4312135 105.805329,74.0262674 105.493953,75.2888819 C105.443092,75.4951474 105.419535,75.5906233 105.392159,75.7013338 C104.475573,79.4080819 103.844173,81.2564845 102.648138,83.1396615 C97.9503201,90.5375946 86.0712749,92.1886913 77.713295,87.4537267 C73.1976395,84.8954861 70.3296597,79.9973087 68.3586024,72.9373212 C68.3313925,72.8397913 68.2157628,72.4164535 68.1843631,72.3037835 C68.1116158,72.0427483 68.0486498,71.8290637 67.982429,71.6228285 C67.3797916,69.7460019 66.5300584,68.7415251 65.0059196,68.7468616 C64.7403019,68.7478205 64.5266325,68.7347751 63.9603266,68.6898933 C63.7224235,68.6710386 63.5944427,68.6615136 63.449445,68.6525534 C61.9230757,68.5582307 61.0292493,68.7761594 60.4678325,69.6565056 C59.7459453,70.7882824 59.3962089,71.7997193 58.7979364,74.0991554 C58.7630754,74.2331609 58.7630754,74.2331609 58.7281697,74.3670374 C58.3559047,75.7930151 58.1140418,76.5724274 57.7527102,77.3887191 C54.1264437,84.9317995 50.1220592,88.9586158 43.9186138,89.8558194 C38.4196602,90.6510217 33.2180479,90.0749925 29.0106089,87.9517966 C26.9355102,86.9053338 25.4169696,85.50086 24.6090904,83.7128115 C22.7585163,79.6147786 21.3072032,75.3325884 20.2841504,70.9564953 C20.0357729,69.8945629 19.5014245,69.0974911 18.3627156,67.8259199 C18.0078584,67.432199 17.8358502,67.2401459 17.6709677,67.0485612 C17.4665732,66.8110657 17.3004297,66.6043987 17.1565321,66.4056064 C16.6472276,65.7021562 16.50904,64.6774632 16.5645478,62.9078408 C16.570308,62.7242022 16.5764561,62.5648882 16.5892959,62.2536534 C16.6179469,61.5591553 16.6267195,61.2837346 16.6267195,60.9334296 L16.4193312,61.1806764 C17.9855387,60.9094581 19.4073366,60.6160727 21.9275631,60.062464 C22.1604412,60.0112866 22.1604412,60.0112866 22.3932792,59.9600753 C28.9638536,58.5149304 31.9074481,58.036889 35.6342295,58.0589899 C36.8146444,58.0659282 38.0431864,58.1257436 39.3590706,58.2353634 C41.3111189,58.3979789 42.9386006,58.6038328 46.3484097,59.0866458 C46.5830416,59.119874 46.5830416,59.119874 46.8175571,59.1530671 C48.4360146,59.3820627 49.72515,59.6464195 52.5953944,60.2970554 C52.7415205,60.3301802 52.7415205,60.3301802 52.8876772,60.3632918 C55.8468781,61.0334863 57.3806983,61.3356225 59.1683924,61.5480954 C62.1671358,61.9039206 65.3705838,61.8472836 68.7017867,61.4217514 C70.836084,61.1488169 72.8703819,60.7860871 76.1012571,60.1372763 C76.4099085,60.0752942 76.6424676,60.0283722 77.2188954,59.9118985 C84.1093847,58.5195982 87.2112501,58.0475527 91.1300951,58.0213968 L91.1300868,58.0213969 Z" id="Stroke-5" fill="#3D1E39"></path>
                <path d="M34.2414335,60.2319072 C38.5118325,59.7495744 42.9307972,59.4887445 47.1384301,60.3822747 C59.6738017,63.0455151 59.9265937,68.2326167 54.7659524,78.9567137 C50.5611986,87.6948025 41.8551357,89.8849635 33.0776691,87.7902281 C29.0318461,86.8249841 26.2638029,83.978411 24.9589588,80.0937236 C23.5815593,75.9938949 22.5341138,71.6407548 22.7702066,67.3315682 C23.0857646,61.5615032 29.5881036,60.7576152 34.2414335,60.2319072 L34.2414335,60.2319072 Z" id="Fill-7" fill="#3D1E39"></path>
                <path d="M34.2414335,60.2319072 C38.5118325,59.7495744 42.9307972,59.4887445 47.1384301,60.3822747 C59.6738017,63.0455151 59.9265937,68.2326167 54.7659524,78.9567137 C50.5611986,87.6948025 41.8551357,89.8849635 33.0776691,87.7902281 C29.0318461,86.8249841 26.2638029,83.978411 24.9589588,80.0937236 C23.5815593,75.9938949 22.5341138,71.6407548 22.7702066,67.3315682 C23.0857646,61.5615032 29.5881036,60.7576152 34.2414335,60.2319072 L34.2414335,60.2319072 L34.2414335,60.2319072 Z" id="Stroke-9"></path>
                <path d="M92.9574621,60.2319072 C88.6870631,59.7495744 84.2680984,59.4887445 80.0604655,60.3822747 C67.5250938,63.0455151 67.2723019,68.2326167 72.4329432,78.9567137 C76.6376969,87.6948025 85.3437599,89.8849635 94.1212264,87.7902281 C98.1670495,86.8249841 100.935093,83.978411 102.239937,80.0937236 C103.617336,75.9938949 104.664782,71.6407548 104.428689,67.3315682 C104.113131,61.5615032 97.610792,60.7576152 92.9574621,60.2319072 L92.9574621,60.2319072 Z" id="Fill-12" fill="#3D1E39"></path>
                <path d="M92.9574621,60.2319072 C88.6870631,59.7495744 84.2680984,59.4887445 80.0604655,60.3822747 C67.5250938,63.0455151 67.2723019,68.2326167 72.4329432,78.9567137 C76.6376969,87.6948025 85.3437599,89.8849635 94.1212264,87.7902281 C98.1670495,86.8249841 100.935093,83.978411 102.239937,80.0937236 C103.617336,75.9938949 104.664782,71.6407548 104.428689,67.3315682 C104.113131,61.5615032 97.610792,60.7576152 92.9574621,60.2319072 L92.9574621,60.2319072 L92.9574621,60.2319072 Z" id="Stroke-14"></path>
                <path d="M62.3573697,134.983304 C39.7407075,134.983304 21.2265395,116.388731 21.2265395,93.6735314 L21.2265395,45.8641735 C21.2265395,23.1489739 39.7407075,4.55440131 62.3573697,4.55440131 C84.974032,4.55440131 103.4882,23.1489739 103.4882,45.8641735 L103.4882,93.6735314 C103.4882,116.388731 84.974032,134.983304 62.3573697,134.983304 L62.3573697,134.983304 Z M62.3573697,139.499433 C87.457925,139.499433 107.985431,118.882779 107.985431,93.6735314 L107.985431,45.8641735 C107.985431,20.6549263 87.457925,0.0382722799 62.3573697,0.0382722799 C37.2568145,0.0382722799 16.7293087,20.6549263 16.7293087,45.8641735 L16.7293087,93.6735314 C16.7293087,118.882779 37.2568145,139.499433 62.3573697,139.499433 L62.3573697,139.499433 Z" id="Stroke-17" fill="#3D1E39"></path>
                <path d="M107.664656,63.7614449 L111.801461,63.7614449 C111.987213,63.7614449 112.165062,63.7788502 112.335549,63.8134015 C112.708065,63.8885812 113.092311,63.9278986 113.77951,63.9775558 C113.892342,63.9857091 114.299655,64.0141761 114.371878,64.0193234 C114.609157,64.0362342 114.800059,64.0507305 114.986403,64.0663139 C115.451403,64.1052004 115.851529,64.1483142 116.223777,64.2019635 C117.22061,64.3456295 117.940925,64.5609039 118.323031,64.8127354 C119.996927,65.9159999 120.041729,66.0166301 120.10019,69.4221385 C120.11658,70.3768718 120.126285,71.4880481 120.13005,72.7238838 C120.1352,74.4141771 120.129153,76.2276401 120.115914,78.0092894 C120.112429,78.4783683 120.108695,78.9088607 120.104963,79.2912048 C120.102727,79.520221 120.100993,79.6820125 120.100008,79.7670266 L120.114156,79.5390291 C120.10978,79.5778034 120.09517,79.683548 120.067995,79.8461633 C120.01966,80.1354049 119.954116,80.4622992 119.869281,80.8165645 C119.627311,81.8270124 119.283876,82.8348399 118.830073,83.7558597 C118.03889,85.3616134 117.01449,86.4972889 115.757881,87.0515012 C114.889479,87.434501 112.756586,88.4009018 112.681953,88.4341386 C111.860001,88.8001848 111.356049,89.0024913 110.884674,89.1519565 C110.068886,89.4106293 109.210714,89.5483501 107.484679,89.6875279 L107.844634,94.1891678 C109.879131,94.0251174 111.038728,93.8390237 112.238804,93.4584993 C112.903129,93.2478526 113.543,92.9909829 114.50512,92.5625145 C114.600529,92.5200252 116.723388,91.5581709 117.566306,91.1864107 C119.913023,90.1514196 121.639623,88.2372665 122.860886,85.7586404 C123.477138,84.5079222 123.926622,83.1888878 124.24186,81.8724736 C124.432211,81.0775823 124.537966,80.4447363 124.582788,80.0475263 L124.595611,79.9338873 L124.596935,79.8195288 C124.59795,79.7318451 124.599715,79.5673181 124.601978,79.3354723 C124.605743,78.949713 124.609507,78.5157126 124.61302,78.0429862 C124.626367,76.2467448 124.632465,74.4182354 124.62726,72.7100665 C124.623435,71.4544619 124.613551,70.3227813 124.596753,69.3442966 C124.514611,64.5593721 123.841805,63.048173 120.790657,61.0371614 C119.74112,60.3454511 118.455324,59.9611762 116.86267,59.7316391 C116.391927,59.6637945 115.90681,59.6115229 115.359626,59.5657636 C115.152337,59.5484287 114.94431,59.5326319 114.690251,59.5145253 C114.612943,59.5090155 114.208676,59.4807614 114.102287,59.4730737 C113.610609,59.4375449 113.341682,59.4100274 113.223427,59.3861618 C112.758203,59.2918779 112.282429,59.2453158 111.801461,59.2453158 L107.664656,59.2453158 L107.664656,63.7614449 L107.664656,63.7614449 Z" id="Stroke-19" fill="#3D1E39"></path>
                <path d="M17.002519,59.2453158 L12.865714,59.2453158 C12.3847462,59.2453158 11.9089721,59.2918779 11.4419593,59.3865237 C11.3254932,59.4100274 11.0565664,59.4375449 10.5648886,59.4730737 C10.4584997,59.4807614 10.0542328,59.5090155 9.97692451,59.5145253 C9.72286545,59.5326319 9.51483823,59.5484287 9.30754899,59.5657636 C8.7603656,59.6115229 8.27524893,59.6637945 7.80450582,59.7316391 C6.21185171,59.9611762 4.92605577,60.3454511 3.876568,61.0371284 C0.825369985,63.048173 0.152564287,64.5593721 0.0704223202,69.3442966 C0.053624844,70.3227813 0.0437407462,71.4544619 0.0399152406,72.7100665 C0.0347108875,74.4182354 0.0408086003,76.2467448 0.0541554236,78.0429862 C0.0576679776,78.5157126 0.0614321221,78.949713 0.0651977222,79.3354723 C0.0674608919,79.5673181 0.0692250593,79.7318451 0.0702402284,79.8195288 L0.0715642284,79.9338873 L0.0843874982,80.0475263 C0.129209555,80.4447363 0.234964554,81.0775823 0.425315149,81.8724736 C0.740553491,83.1888878 1.19003776,84.5079222 1.80628903,85.7586404 C3.02755262,88.2372665 4.75415289,90.1514196 7.10087201,91.1864119 C7.94378709,91.5581709 10.066646,92.5200252 10.1620551,92.5625145 C11.124175,92.9909829 11.7640466,93.2478526 12.4283719,93.4584993 C13.6284476,93.8390237 14.7880445,94.0251174 16.8225413,94.1891678 L17.1824967,89.6875279 C15.4564617,89.5483501 14.598289,89.4106293 13.7825016,89.1519565 C13.3111269,89.0024913 12.8071742,88.8001848 11.9852225,88.4341386 C11.9105897,88.4009018 9.77769658,87.434501 8.90929699,87.0515024 C7.65268533,86.4972889 6.62828578,85.3616134 5.83710212,83.7558597 C5.38329914,82.8348399 5.03986411,81.8270124 4.79789473,80.8165645 C4.71305973,80.4622992 4.6475155,80.1354049 4.5991803,79.8461633 C4.57200562,79.683548 4.55739518,79.5778034 4.55301981,79.5390291 L4.56716708,79.7670266 C4.56618282,79.6820125 4.56444799,79.520221 4.56221244,79.2912048 C4.55848017,78.9088607 4.55474646,78.4783683 4.551261,78.0092894 C4.53802261,76.2276401 4.53197507,74.4141771 4.53712496,72.7238838 C4.54089024,71.4880481 4.55059525,70.3768718 4.56698499,69.4221385 C4.62544676,66.0166301 4.67024864,65.9159999 6.34419419,64.8127024 C6.72625017,64.5609039 7.44656526,64.3456295 8.4433987,64.2019635 C8.8156467,64.1483142 9.21577245,64.1052004 9.68077264,64.0663139 C9.8671165,64.0507305 10.0580186,64.0362342 10.2952979,64.0193234 C10.3675203,64.0141761 10.7748333,63.9857091 10.8876653,63.9775558 C11.574864,63.9278986 11.9591103,63.8885812 12.3298372,63.8137634 C12.5021138,63.7788502 12.6799627,63.7614449 12.865714,63.7614449 L17.002519,63.7614449 L17.002519,59.2453158 L17.002519,59.2453158 Z" id="Stroke-21" fill="#3D1E39"></path>
                <path d="M110.544124,82.8593874 C112.659169,82.3666446 114.815675,80.9150195 115.185361,78.638108 C115.719737,75.348529 113.363992,72.8882848 110.257358,72.6471184 C110.438746,73.3208806 110.620134,73.9940645 110.802098,74.6678267 C111.63706,74.1698789 111.697523,72.8975382 112.193894,72.1352904 C113.795869,69.6773596 116.657198,71.0682593 116.919779,73.6088923 C117.06201,74.9835986 119.223122,74.998057 119.079163,73.6088923 C118.79067,70.8172612 117.209424,68.5750499 114.159797,68.6670054 C112.851498,68.7069106 111.705009,69.2794639 110.861985,70.2770947 C110.43817,70.7785126 110.143342,71.3545359 109.879609,71.9513794 C109.702828,72.3504317 109.151177,73.1300295 109.712041,72.7951726 C108.744061,73.3723526 109.223732,74.7354921 110.257358,74.8158809 C112.533637,74.992852 114.121216,77.710456 112.352249,79.5709651 C111.755107,80.199617 110.80325,80.5738009 109.970015,80.768122 C108.616801,81.0833155 109.189758,83.1745809 110.544124,82.8593874" id="Fill-23" fill="#3D1E39"></path>
                <path d="M14.316187,80.7680642 C13.4823766,80.573743 12.529944,80.1960892 11.9339539,79.5709072 C10.1707444,77.7225432 11.7485347,74.9927941 14.0294207,74.8158231 C15.0607428,74.7354343 15.5438691,73.3734514 14.5741615,72.7951148 C15.0918379,73.1039465 14.582799,72.3486388 14.4065932,71.9513215 C14.1595596,71.3932267 13.8917959,70.8669403 13.5088651,70.3869208 C12.6606588,69.3250947 11.4894086,68.7097445 10.1269808,68.6669476 C7.07792976,68.571522 5.49553272,70.8195167 5.20703893,73.6088345 C5.06365579,74.9956858 7.22419208,74.9858541 7.36642355,73.6088345 C7.62900472,71.0699365 10.4834233,69.665735 12.0923088,72.1352326 C12.5904068,72.8997937 12.6479904,74.1686644 13.4841041,74.6677689 C13.6660683,73.9940067 13.8474566,73.3208228 14.0294207,72.6470606 C10.9014801,72.889962 8.59640903,75.3467362 9.10084127,78.6380502 C9.44979783,80.91554 11.6408534,82.3700567 13.7420786,82.8593296 C15.0941413,83.1739447 15.6717047,81.083836 14.316187,80.7680642" id="Fill-25" fill="#3D1E39"></path>
                <path d="M79.6459788,60.2668387 C85.3381167,56.7268399 92.5855873,56.7690585 98.2374166,60.2668387 C101.401059,62.2245084 104.296938,57.2242095 101.14366,55.2729015 C93.8115419,50.7358503 84.1248304,50.6797517 76.739735,55.2729015 C73.5950952,57.2288362 76.4834881,62.2337617 79.6459788,60.2668387" id="Fill-27" fill="#3D1E39"></path>
                <path d="M56.3657397,118.972638 C60.0643336,116.69457 64.6658383,116.759343 68.3488847,118.972638 C69.9427984,119.930363 71.3921774,117.431371 69.8022945,116.475958 C65.2589493,113.745631 59.4798602,113.662351 54.9123298,116.475958 C53.3356912,117.446986 54.7804634,119.949449 56.3657397,118.972638" id="Fill-29" fill="#3D1E39"></path>
                <path d="M27.6288219,60.2668387 C33.3209598,56.7268399 40.5684304,56.7690585 46.2202597,60.2668387 C49.3839021,62.2245084 52.2797809,57.2242095 49.1265035,55.2729015 C41.794385,50.7358503 32.1076736,50.6797517 24.7225782,55.2729015 C21.5779383,57.2288362 24.4663312,62.2337617 27.6288219,60.2668387" id="Fill-31" fill="#3D1E39"></path>
                <path d="M56.9278131,67.0551811 C55.7127993,73.0623641 54.4972097,79.0701255 53.282196,85.0773085 C52.9470595,86.7325081 52.3303393,88.2072666 53.2217332,89.7375455 C55.3598119,93.4088267 59.1620564,95.3792197 63.3063473,95.6307962 C65.1570839,95.7435718 65.1507497,92.8513101 63.3063473,92.7391128 C60.8838057,92.5922153 58.7180869,91.7409037 57.0124609,89.9775552 C56.5011187,89.4489555 56.1654063,88.8364969 55.7076168,88.2778237 C55.5095293,88.0366573 55.1928195,87.0315082 55.4179713,88.1471196 C55.6408198,89.250586 55.7030101,87.6040615 55.8055089,87.0968602 L56.6099517,83.1202172 L59.7039179,67.8237905 C60.0718771,66.007235 57.2969239,65.2299505 56.9278131,67.0551811" id="Fill-33" fill="#3D1E39"></path>
                <path d="M66.9089494,67.8239062 L70.0034915,83.1203329 C70.1474505,83.8328437 70.4808595,88.3120612 71.1275232,88.6787267 C70.2424634,88.1767305 71.8668965,87.1380378 70.9052506,88.2779394 C70.4992863,88.7591155 70.2050341,89.316632 69.7725813,89.7908681 C68.0583179,91.6704623 65.8188921,92.5865476 63.3065201,92.7392285 C61.4655727,92.8514258 61.4529043,95.7436875 63.3065201,95.6309119 C67.4099267,95.3816487 71.1350091,93.465041 73.3070621,89.8735703 C74.2808006,88.2640593 73.6871138,86.8378811 73.3312472,85.0774242 C72.1156576,79.0696628 70.9006439,73.0624798 69.6850543,67.0552968 C69.3165193,65.2329579 66.5409903,66.0038807 66.9089494,67.8239062" id="Fill-35" fill="#3D1E39"></path>
                <polygon id="Stroke-37" fill="#3D1E39" points="54.0932033 89.3177853 72.519952 89.3177853 72.519952 87.3106169 54.0932033 87.3106169"></polygon>
                <path d="M17.538104,61.5033804 C17.6475128,69.4977282 18.3719144,77.5539581 19.6439359,85.441892 C20.5324507,90.9528622 21.7106109,96.5343894 23.9644326,101.664236 C25.5767731,105.335517 28.0592017,109.337607 32.2230711,110.316152 C31.9363048,109.608268 31.6495385,108.900384 31.3627722,108.1925 L25.7005779,116.030697 C24.6105205,117.538999 27.107345,118.983684 28.1864614,117.48984 C30.0740515,114.877494 31.9616416,112.264569 33.8486558,109.651644 C34.3887899,108.904433 33.8296532,107.725782 32.988357,107.527991 C29.1077989,106.615376 27.1234684,102.095097 25.8572052,98.7124053 C23.9673118,93.6623695 22.9417481,88.2815251 22.1563079,82.9602493 C21.1111658,75.8790951 20.5151756,68.6649234 20.4172835,61.5033804 C20.3919467,59.6440279 17.5127672,59.6388229 17.538104,61.5033804" id="Fill-39" fill="#3D1E39"></path>
                <path d="M104.473086,61.5033804 C104.375194,68.6649234 103.779204,75.8790951 102.734062,82.9602493 C101.948621,88.2815251 100.922482,93.6623695 99.0331642,98.7124053 C97.7686286,102.091627 95.7808431,106.615954 91.9020125,107.527991 C91.0607162,107.725782 90.5015796,108.904433 91.0417136,109.651644 C92.9287279,112.264569 94.8163179,114.877494 96.703908,117.48984 C97.7818728,118.981949 100.280425,117.540156 99.1897916,116.030697 C97.3027774,113.417772 95.4151873,110.804847 93.5275972,108.1925 C93.2408309,108.900384 92.9540647,109.608268 92.6672984,110.316152 C96.8311678,109.337607 99.3135963,105.335517 100.925937,101.664236 C103.179759,96.5343894 104.357343,90.9534405 105.246434,85.441892 C106.518455,77.5533797 107.242857,69.4977282 107.352265,61.5033804 C107.377602,59.6417146 104.498423,59.6411363 104.473086,61.5033804" id="Fill-41" fill="#3D1E39"></path>
                <path d="M91.2211039,12.6622353 C85.3436805,20.5635015 74.4332881,25.577994 62.3574849,25.577994 C50.2813785,25.577994 39.3714206,20.5637012 33.4932424,12.6621712 L30.6910096,14.764391 C37.2587814,23.5928824 49.2204283,29.0905388 62.3574849,29.0905388 C75.4942689,29.0905388 87.4564035,23.5926583 94.0234321,14.7643268 L91.2211039,12.6622353 L91.2211039,12.6622353 Z" id="Stroke-43" fill="#3D1E39"></path>
                <path d="M25.6352688,23.994038 C26.7391462,26.1983886 26.6344705,29.300404 25.228759,32.1278993 C23.8234558,34.9550575 21.4174801,36.9033242 19.000335,37.3416084 L19.6218704,40.7982558 C23.1729285,40.1543669 26.4792497,37.4770353 28.3583232,33.6967561 C30.2377972,29.9163191 30.3816347,25.6537648 28.7602336,22.4159629 L25.6352688,23.994038 L25.6352688,23.994038 Z" id="Stroke-45" fill="#3D1E39"></path>
                <path d="M96.0294221,22.4159629 C94.4080211,25.6537648 94.5518585,29.9163191 96.431386,33.6968637 C98.3104061,37.4770353 101.616727,40.1543669 105.167785,40.7982558 L105.789321,37.3416084 C103.372176,36.9033242 100.9662,34.9550575 99.5609502,32.1280069 C98.1551852,29.300404 98.0505095,26.1983886 99.154387,23.994038 L96.0294221,22.4159629 L96.0294221,22.4159629 Z" id="Stroke-47" fill="#3D1E39"></path>
                <path d="M53.033556,138.627229 C55.0705246,132.784112 58.6608097,129.262441 62.3571394,129.262441 C66.0539808,129.262441 69.6442921,132.784003 71.6812986,138.627229 L74.9826929,137.466637 C72.5062891,130.362984 67.8031422,125.749897 62.3571394,125.749897 C56.9116116,125.749897 52.2085246,130.363102 49.7321617,137.466637 L53.033556,138.627229 L53.033556,138.627229 Z" id="Stroke-49" fill="#3D1E39"></path>
                <path d="M53.6557983,5.90492631 C53.6557983,6.49078136 53.1830371,6.96501744 52.6002911,6.96501744 C52.0169694,6.96501744 51.5442081,6.49078136 51.5442081,5.90492631 C51.5442081,5.31907126 52.0169694,4.84483519 52.6002911,4.84483519 C53.1830371,4.84483519 53.6557983,5.31907126 53.6557983,5.90492631" id="Fill-51" fill="#3D1E39"></path>
                <path d="M65.3645,5.90492631 C65.3645,6.49078136 64.8917387,6.96501744 64.3089928,6.96501744 C63.725671,6.96501744 63.2529097,6.49078136 63.2529097,5.90492631 C63.2529097,5.31907126 63.725671,4.84483519 64.3089928,4.84483519 C64.8917387,4.84483519 65.3645,5.31907126 65.3645,5.90492631" id="Fill-53" fill="#3D1E39"></path>
                <path d="M69.2673429,5.90492631 C69.2673429,6.49078136 68.7945817,6.96501744 68.2118357,6.96501744 C67.628514,6.96501744 67.1557527,6.49078136 67.1557527,5.90492631 C67.1557527,5.31907126 67.628514,4.84483519 68.2118357,4.84483519 C68.7945817,4.84483519 69.2673429,5.31907126 69.2673429,5.90492631" id="Fill-55" fill="#3D1E39"></path>
                <path d="M77.073144,5.90492631 C77.073144,6.49078136 76.6003828,6.96501744 76.0176368,6.96501744 C75.4343151,6.96501744 74.9615538,6.49078136 74.9615538,5.90492631 C74.9615538,5.31907126 75.4343151,4.84483519 76.0176368,4.84483519 C76.6003828,4.84483519 77.073144,5.31907126 77.073144,5.90492631" id="Fill-57" fill="#3D1E39"></path>
                <path d="M73.1702435,5.90492631 C73.1702435,6.49078136 72.6974822,6.96501744 72.1147363,6.96501744 C71.5314145,6.96501744 71.0586532,6.49078136 71.0586532,5.90492631 C71.0586532,5.31907126 71.5314145,4.84483519 72.1147363,4.84483519 C72.6974822,4.84483519 73.1702435,5.31907126 73.1702435,5.90492631" id="Fill-59" fill="#3D1E39"></path>
                <path d="M61.4615994,5.90492631 C61.4615994,6.49078136 60.9888382,6.96501744 60.4060922,6.96501744 C59.8227705,6.96501744 59.3500092,6.49078136 59.3500092,5.90492631 C59.3500092,5.31907126 59.8227705,4.84483519 60.4060922,4.84483519 C60.9888382,4.84483519 61.4615994,5.31907126 61.4615994,5.90492631" id="Fill-61" fill="#3D1E39"></path>
                <path d="M57.5586989,5.90492631 C57.5586989,6.49078136 57.0859376,6.96501744 56.5031917,6.96501744 C55.9198699,6.96501744 55.4471086,6.49078136 55.4471086,5.90492631 C55.4471086,5.31907126 55.9198699,4.84483519 56.5031917,4.84483519 C57.0859376,4.84483519 57.5586989,5.31907126 57.5586989,5.90492631" id="Fill-63" fill="#3D1E39"></path>
                <path d="M41.9471543,9.95328303 C41.9471543,10.5391381 41.474393,11.0133742 40.8916471,11.0133742 C40.3083253,11.0133742 39.835564,10.5391381 39.835564,9.95328303 C39.835564,9.36742798 40.3083253,8.89319191 40.8916471,8.89319191 C41.474393,8.89319191 41.9471543,9.36742798 41.9471543,9.95328303" id="Fill-65" fill="#3D1E39"></path>
                <path d="M53.6557983,9.95328303 C53.6557983,10.5391381 53.1830371,11.0133742 52.6002911,11.0133742 C52.0169694,11.0133742 51.5442081,10.5391381 51.5442081,9.95328303 C51.5442081,9.36742798 52.0169694,8.89319191 52.6002911,8.89319191 C53.1830371,8.89319191 53.6557983,9.36742798 53.6557983,9.95328303" id="Fill-67" fill="#3D1E39"></path>
                <path d="M65.3645,9.95328303 C65.3645,10.5391381 64.8917387,11.0133742 64.3089928,11.0133742 C63.725671,11.0133742 63.2529097,10.5391381 63.2529097,9.95328303 C63.2529097,9.36742798 63.725671,8.89319191 64.3089928,8.89319191 C64.8917387,8.89319191 65.3645,9.36742798 65.3645,9.95328303" id="Fill-69" fill="#3D1E39"></path>
                <path d="M69.2673429,9.95328303 C69.2673429,10.5391381 68.7945817,11.0133742 68.2118357,11.0133742 C67.628514,11.0133742 67.1557527,10.5391381 67.1557527,9.95328303 C67.1557527,9.36742798 67.628514,8.89319191 68.2118357,8.89319191 C68.7945817,8.89319191 69.2673429,9.36742798 69.2673429,9.95328303" id="Fill-71" fill="#3D1E39"></path>
                <path d="M84.8789451,9.95328303 C84.8789451,10.5391381 84.4061838,11.0133742 83.8234379,11.0133742 C83.2401162,11.0133742 82.7673549,10.5391381 82.7673549,9.95328303 C82.7673549,9.36742798 83.2401162,8.89319191 83.8234379,8.89319191 C84.4061838,8.89319191 84.8789451,9.36742798 84.8789451,9.95328303" id="Fill-73" fill="#3D1E39"></path>
                <path d="M80.9760446,9.95328303 C80.9760446,10.5391381 80.5032833,11.0133742 79.9205374,11.0133742 C79.3372156,11.0133742 78.8644543,10.5391381 78.8644543,9.95328303 C78.8644543,9.36742798 79.3372156,8.89319191 79.9205374,8.89319191 C80.5032833,8.89319191 80.9760446,9.36742798 80.9760446,9.95328303" id="Fill-75" fill="#3D1E39"></path>
                <path d="M77.073144,9.95328303 C77.073144,10.5391381 76.6003828,11.0133742 76.0176368,11.0133742 C75.4343151,11.0133742 74.9615538,10.5391381 74.9615538,9.95328303 C74.9615538,9.36742798 75.4343151,8.89319191 76.0176368,8.89319191 C76.6003828,8.89319191 77.073144,9.36742798 77.073144,9.95328303" id="Fill-77" fill="#3D1E39"></path>
                <path d="M73.1702435,9.95328303 C73.1702435,10.5391381 72.6974822,11.0133742 72.1147363,11.0133742 C71.5314145,11.0133742 71.0586532,10.5391381 71.0586532,9.95328303 C71.0586532,9.36742798 71.5314145,8.89319191 72.1147363,8.89319191 C72.6974822,8.89319191 73.1702435,9.36742798 73.1702435,9.95328303" id="Fill-79" fill="#3D1E39"></path>
                <path d="M61.4615994,9.95328303 C61.4615994,10.5391381 60.9888382,11.0133742 60.4060922,11.0133742 C59.8227705,11.0133742 59.3500092,10.5391381 59.3500092,9.95328303 C59.3500092,9.36742798 59.8227705,8.89319191 60.4060922,8.89319191 C60.9888382,8.89319191 61.4615994,9.36742798 61.4615994,9.95328303" id="Fill-81" fill="#3D1E39"></path>
                <path d="M57.5586989,9.95328303 C57.5586989,10.5391381 57.0859376,11.0133742 56.5031917,11.0133742 C55.9198699,11.0133742 55.4471086,10.5391381 55.4471086,9.95328303 C55.4471086,9.36742798 55.9198699,8.89319191 56.5031917,8.89319191 C57.0859376,8.89319191 57.5586989,9.36742798 57.5586989,9.95328303" id="Fill-83" fill="#3D1E39"></path>
                <path d="M49.7529554,9.95328303 C49.7529554,10.5391381 49.2801941,11.0133742 48.6974482,11.0133742 C48.1141264,11.0133742 47.6413651,10.5391381 47.6413651,9.95328303 C47.6413651,9.36742798 48.1141264,8.89319191 48.6974482,8.89319191 C49.2801941,8.89319191 49.7529554,9.36742798 49.7529554,9.95328303" id="Fill-85" fill="#3D1E39"></path>
                <path d="M49.7529554,6.48326299 C49.7529554,7.06911804 49.2801941,7.54335411 48.6974482,7.54335411 C48.1141264,7.54335411 47.6413651,7.06911804 47.6413651,6.48326299 C47.6413651,5.89740793 48.1141264,5.42317186 48.6974482,5.42317186 C49.2801941,5.42317186 49.7529554,5.89740793 49.7529554,6.48326299" id="Fill-87" fill="#3D1E39"></path>
                <path d="M45.8500548,9.95328303 C45.8500548,10.5391381 45.3772936,11.0133742 44.7945476,11.0133742 C44.2112259,11.0133742 43.7384646,10.5391381 43.7384646,9.95328303 C43.7384646,9.36742798 44.2112259,8.89319191 44.7945476,8.89319191 C45.3772936,8.89319191 45.8500548,9.36742798 45.8500548,9.95328303" id="Fill-89" fill="#3D1E39"></path>
                <path d="M41.9471543,14.0016398 C41.9471543,14.5874948 41.474393,15.0617309 40.8916471,15.0617309 C40.3083253,15.0617309 39.835564,14.5874948 39.835564,14.0016398 C39.835564,13.4157847 40.3083253,12.9415486 40.8916471,12.9415486 C41.474393,12.9415486 41.9471543,13.4157847 41.9471543,14.0016398" id="Fill-91" fill="#3D1E39"></path>
                <path d="M53.6557983,14.0016398 C53.6557983,14.5874948 53.1830371,15.0617309 52.6002911,15.0617309 C52.0169694,15.0617309 51.5442081,14.5874948 51.5442081,14.0016398 C51.5442081,13.4157847 52.0169694,12.9415486 52.6002911,12.9415486 C53.1830371,12.9415486 53.6557983,13.4157847 53.6557983,14.0016398" id="Fill-93" fill="#3D1E39"></path>
                <path d="M65.3645,14.0016398 C65.3645,14.5874948 64.8917387,15.0617309 64.3089928,15.0617309 C63.725671,15.0617309 63.2529097,14.5874948 63.2529097,14.0016398 C63.2529097,13.4157847 63.725671,12.9415486 64.3089928,12.9415486 C64.8917387,12.9415486 65.3645,13.4157847 65.3645,14.0016398" id="Fill-95" fill="#3D1E39"></path>
                <path d="M69.2673429,14.0016398 C69.2673429,14.5874948 68.7945817,15.0617309 68.2118357,15.0617309 C67.628514,15.0617309 67.1557527,14.5874948 67.1557527,14.0016398 C67.1557527,13.4157847 67.628514,12.9415486 68.2118357,12.9415486 C68.7945817,12.9415486 69.2673429,13.4157847 69.2673429,14.0016398" id="Fill-97" fill="#3D1E39"></path>
                <path d="M84.8789451,14.0016398 C84.8789451,14.5874948 84.4061838,15.0617309 83.8234379,15.0617309 C83.2401162,15.0617309 82.7673549,14.5874948 82.7673549,14.0016398 C82.7673549,13.4157847 83.2401162,12.9415486 83.8234379,12.9415486 C84.4061838,12.9415486 84.8789451,13.4157847 84.8789451,14.0016398" id="Fill-99" fill="#3D1E39"></path>
                <path d="M88.7817881,14.0016398 C88.7817881,14.5874948 88.3090268,15.0617309 87.7262809,15.0617309 C87.1429591,15.0617309 86.6701978,14.5874948 86.6701978,14.0016398 C86.6701978,13.4157847 87.1429591,12.9415486 87.7262809,12.9415486 C88.3090268,12.9415486 88.7817881,13.4157847 88.7817881,14.0016398" id="Fill-101" fill="#3D1E39"></path>
                <path d="M80.9760446,14.0016398 C80.9760446,14.5874948 80.5032833,15.0617309 79.9205374,15.0617309 C79.3372156,15.0617309 78.8644543,14.5874948 78.8644543,14.0016398 C78.8644543,13.4157847 79.3372156,12.9415486 79.9205374,12.9415486 C80.5032833,12.9415486 80.9760446,13.4157847 80.9760446,14.0016398" id="Fill-103" fill="#3D1E39"></path>
                <path d="M77.073144,14.0016398 C77.073144,14.5874948 76.6003828,15.0617309 76.0176368,15.0617309 C75.4343151,15.0617309 74.9615538,14.5874948 74.9615538,14.0016398 C74.9615538,13.4157847 75.4343151,12.9415486 76.0176368,12.9415486 C76.6003828,12.9415486 77.073144,13.4157847 77.073144,14.0016398" id="Fill-105" fill="#3D1E39"></path>
                <path d="M73.1702435,14.0016398 C73.1702435,14.5874948 72.6974822,15.0617309 72.1147363,15.0617309 C71.5314145,15.0617309 71.0586532,14.5874948 71.0586532,14.0016398 C71.0586532,13.4157847 71.5314145,12.9415486 72.1147363,12.9415486 C72.6974822,12.9415486 73.1702435,13.4157847 73.1702435,14.0016398" id="Fill-107" fill="#3D1E39"></path>
                <path d="M61.4615994,14.0016398 C61.4615994,14.5874948 60.9888382,15.0617309 60.4060922,15.0617309 C59.8227705,15.0617309 59.3500092,14.5874948 59.3500092,14.0016398 C59.3500092,13.4157847 59.8227705,12.9415486 60.4060922,12.9415486 C60.9888382,12.9415486 61.4615994,13.4157847 61.4615994,14.0016398" id="Fill-109" fill="#3D1E39"></path>
                <path d="M57.5586989,14.0016398 C57.5586989,14.5874948 57.0859376,15.0617309 56.5031917,15.0617309 C55.9198699,15.0617309 55.4471086,14.5874948 55.4471086,14.0016398 C55.4471086,13.4157847 55.9198699,12.9415486 56.5031917,12.9415486 C57.0859376,12.9415486 57.5586989,13.4157847 57.5586989,14.0016398" id="Fill-111" fill="#3D1E39"></path>
                <path d="M49.7529554,14.0016398 C49.7529554,14.5874948 49.2801941,15.0617309 48.6974482,15.0617309 C48.1141264,15.0617309 47.6413651,14.5874948 47.6413651,14.0016398 C47.6413651,13.4157847 48.1141264,12.9415486 48.6974482,12.9415486 C49.2801941,12.9415486 49.7529554,13.4157847 49.7529554,14.0016398" id="Fill-113" fill="#3D1E39"></path>
                <path d="M45.8500548,14.0016398 C45.8500548,14.5874948 45.3772936,15.0617309 44.7945476,15.0617309 C44.2112259,15.0617309 43.7384646,14.5874948 43.7384646,14.0016398 C43.7384646,13.4157847 44.2112259,12.9415486 44.7945476,12.9415486 C45.3772936,12.9415486 45.8500548,13.4157847 45.8500548,14.0016398" id="Fill-115" fill="#3D1E39"></path>
                <path d="M38.0442537,14.0016398 C38.0442537,14.5874948 37.5714925,15.0617309 36.9887465,15.0617309 C36.4054248,15.0617309 35.9326635,14.5874948 35.9326635,14.0016398 C35.9326635,13.4157847 36.4054248,12.9415486 36.9887465,12.9415486 C37.5714925,12.9415486 38.0442537,13.4157847 38.0442537,14.0016398" id="Fill-117" fill="#3D1E39"></path>
                <path d="M41.9471543,18.0499965 C41.9471543,18.6358515 41.474393,19.1100876 40.8916471,19.1100876 C40.3083253,19.1100876 39.835564,18.6358515 39.835564,18.0499965 C39.835564,17.4641414 40.3083253,16.9899054 40.8916471,16.9899054 C41.474393,16.9899054 41.9471543,17.4641414 41.9471543,18.0499965" id="Fill-119" fill="#3D1E39"></path>
                <path d="M53.6557983,18.0499965 C53.6557983,18.6358515 53.1830371,19.1100876 52.6002911,19.1100876 C52.0169694,19.1100876 51.5442081,18.6358515 51.5442081,18.0499965 C51.5442081,17.4641414 52.0169694,16.9899054 52.6002911,16.9899054 C53.1830371,16.9899054 53.6557983,17.4641414 53.6557983,18.0499965" id="Fill-121" fill="#3D1E39"></path>
                <path d="M65.3645,18.0499965 C65.3645,18.6358515 64.8917387,19.1100876 64.3089928,19.1100876 C63.725671,19.1100876 63.2529097,18.6358515 63.2529097,18.0499965 C63.2529097,17.4641414 63.725671,16.9899054 64.3089928,16.9899054 C64.8917387,16.9899054 65.3645,17.4641414 65.3645,18.0499965" id="Fill-123" fill="#3D1E39"></path>
                <path d="M69.2673429,18.0499965 C69.2673429,18.6358515 68.7945817,19.1100876 68.2118357,19.1100876 C67.628514,19.1100876 67.1557527,18.6358515 67.1557527,18.0499965 C67.1557527,17.4641414 67.628514,16.9899054 68.2118357,16.9899054 C68.7945817,16.9899054 69.2673429,17.4641414 69.2673429,18.0499965" id="Fill-125" fill="#3D1E39"></path>
                <path d="M84.8789451,18.0499965 C84.8789451,18.6358515 84.4061838,19.1100876 83.8234379,19.1100876 C83.2401162,19.1100876 82.7673549,18.6358515 82.7673549,18.0499965 C82.7673549,17.4641414 83.2401162,16.9899054 83.8234379,16.9899054 C84.4061838,16.9899054 84.8789451,17.4641414 84.8789451,18.0499965" id="Fill-127" fill="#3D1E39"></path>
                <path d="M88.7817881,18.0499965 C88.7817881,18.6358515 88.3090268,19.1100876 87.7262809,19.1100876 C87.1429591,19.1100876 86.6701978,18.6358515 86.6701978,18.0499965 C86.6701978,17.4641414 87.1429591,16.9899054 87.7262809,16.9899054 C88.3090268,16.9899054 88.7817881,17.4641414 88.7817881,18.0499965" id="Fill-129" fill="#3D1E39"></path>
                <path d="M80.9760446,18.0499965 C80.9760446,18.6358515 80.5032833,19.1100876 79.9205374,19.1100876 C79.3372156,19.1100876 78.8644543,18.6358515 78.8644543,18.0499965 C78.8644543,17.4641414 79.3372156,16.9899054 79.9205374,16.9899054 C80.5032833,16.9899054 80.9760446,17.4641414 80.9760446,18.0499965" id="Fill-131" fill="#3D1E39"></path>
                <path d="M77.073144,18.0499965 C77.073144,18.6358515 76.6003828,19.1100876 76.0176368,19.1100876 C75.4343151,19.1100876 74.9615538,18.6358515 74.9615538,18.0499965 C74.9615538,17.4641414 75.4343151,16.9899054 76.0176368,16.9899054 C76.6003828,16.9899054 77.073144,17.4641414 77.073144,18.0499965" id="Fill-133" fill="#3D1E39"></path>
                <path d="M73.1702435,18.0499965 C73.1702435,18.6358515 72.6974822,19.1100876 72.1147363,19.1100876 C71.5314145,19.1100876 71.0586532,18.6358515 71.0586532,18.0499965 C71.0586532,17.4641414 71.5314145,16.9899054 72.1147363,16.9899054 C72.6974822,16.9899054 73.1702435,17.4641414 73.1702435,18.0499965" id="Fill-135" fill="#3D1E39"></path>
                <path d="M61.4615994,18.0499965 C61.4615994,18.6358515 60.9888382,19.1100876 60.4060922,19.1100876 C59.8227705,19.1100876 59.3500092,18.6358515 59.3500092,18.0499965 C59.3500092,17.4641414 59.8227705,16.9899054 60.4060922,16.9899054 C60.9888382,16.9899054 61.4615994,17.4641414 61.4615994,18.0499965" id="Fill-137" fill="#3D1E39"></path>
                <path d="M57.5586989,18.0499965 C57.5586989,18.6358515 57.0859376,19.1100876 56.5031917,19.1100876 C55.9198699,19.1100876 55.4471086,18.6358515 55.4471086,18.0499965 C55.4471086,17.4641414 55.9198699,16.9899054 56.5031917,16.9899054 C57.0859376,16.9899054 57.5586989,17.4641414 57.5586989,18.0499965" id="Fill-139" fill="#3D1E39"></path>
                <path d="M49.7529554,18.0499965 C49.7529554,18.6358515 49.2801941,19.1100876 48.6974482,19.1100876 C48.1141264,19.1100876 47.6413651,18.6358515 47.6413651,18.0499965 C47.6413651,17.4641414 48.1141264,16.9899054 48.6974482,16.9899054 C49.2801941,16.9899054 49.7529554,17.4641414 49.7529554,18.0499965" id="Fill-141" fill="#3D1E39"></path>
                <path d="M45.8500548,18.0499965 C45.8500548,18.6358515 45.3772936,19.1100876 44.7945476,19.1100876 C44.2112259,19.1100876 43.7384646,18.6358515 43.7384646,18.0499965 C43.7384646,17.4641414 44.2112259,16.9899054 44.7945476,16.9899054 C45.3772936,16.9899054 45.8500548,17.4641414 45.8500548,18.0499965" id="Fill-143" fill="#3D1E39"></path>
                <path d="M38.0442537,18.0499965 C38.0442537,18.6358515 37.5714925,19.1100876 36.9887465,19.1100876 C36.4054248,19.1100876 35.9326635,18.6358515 35.9326635,18.0499965 C35.9326635,17.4641414 36.4054248,16.9899054 36.9887465,16.9899054 C37.5714925,16.9899054 38.0442537,17.4641414 38.0442537,18.0499965" id="Fill-145" fill="#3D1E39"></path>
                <path d="M41.9471543,22.0983532 C41.9471543,22.6842082 41.474393,23.1584443 40.8916471,23.1584443 C40.3083253,23.1584443 39.835564,22.6842082 39.835564,22.0983532 C39.835564,21.5124981 40.3083253,21.0382621 40.8916471,21.0382621 C41.474393,21.0382621 41.9471543,21.5124981 41.9471543,22.0983532" id="Fill-147" fill="#3D1E39"></path>
                <path d="M53.6557983,22.0983532 C53.6557983,22.6842082 53.1830371,23.1584443 52.6002911,23.1584443 C52.0169694,23.1584443 51.5442081,22.6842082 51.5442081,22.0983532 C51.5442081,21.5124981 52.0169694,21.0382621 52.6002911,21.0382621 C53.1830371,21.0382621 53.6557983,21.5124981 53.6557983,22.0983532" id="Fill-149" fill="#3D1E39"></path>
                <path d="M65.3645,22.0983532 C65.3645,22.6842082 64.8917387,23.1584443 64.3089928,23.1584443 C63.725671,23.1584443 63.2529097,22.6842082 63.2529097,22.0983532 C63.2529097,21.5124981 63.725671,21.0382621 64.3089928,21.0382621 C64.8917387,21.0382621 65.3645,21.5124981 65.3645,22.0983532" id="Fill-151" fill="#3D1E39"></path>
                <path d="M69.2673429,22.0983532 C69.2673429,22.6842082 68.7945817,23.1584443 68.2118357,23.1584443 C67.628514,23.1584443 67.1557527,22.6842082 67.1557527,22.0983532 C67.1557527,21.5124981 67.628514,21.0382621 68.2118357,21.0382621 C68.7945817,21.0382621 69.2673429,21.5124981 69.2673429,22.0983532" id="Fill-153" fill="#3D1E39"></path>
                <path d="M84.8789451,22.0983532 C84.8789451,22.6842082 84.4061838,23.1584443 83.8234379,23.1584443 C83.2401162,23.1584443 82.7673549,22.6842082 82.7673549,22.0983532 C82.7673549,21.5124981 83.2401162,21.0382621 83.8234379,21.0382621 C84.4061838,21.0382621 84.8789451,21.5124981 84.8789451,22.0983532" id="Fill-155" fill="#3D1E39"></path>
                <path d="M80.9760446,22.0983532 C80.9760446,22.6842082 80.5032833,23.1584443 79.9205374,23.1584443 C79.3372156,23.1584443 78.8644543,22.6842082 78.8644543,22.0983532 C78.8644543,21.5124981 79.3372156,21.0382621 79.9205374,21.0382621 C80.5032833,21.0382621 80.9760446,21.5124981 80.9760446,22.0983532" id="Fill-157" fill="#3D1E39"></path>
                <path d="M77.073144,22.0983532 C77.073144,22.6842082 76.6003828,23.1584443 76.0176368,23.1584443 C75.4343151,23.1584443 74.9615538,22.6842082 74.9615538,22.0983532 C74.9615538,21.5124981 75.4343151,21.0382621 76.0176368,21.0382621 C76.6003828,21.0382621 77.073144,21.5124981 77.073144,22.0983532" id="Fill-159" fill="#3D1E39"></path>
                <path d="M73.1702435,22.0983532 C73.1702435,22.6842082 72.6974822,23.1584443 72.1147363,23.1584443 C71.5314145,23.1584443 71.0586532,22.6842082 71.0586532,22.0983532 C71.0586532,21.5124981 71.5314145,21.0382621 72.1147363,21.0382621 C72.6974822,21.0382621 73.1702435,21.5124981 73.1702435,22.0983532" id="Fill-161" fill="#3D1E39"></path>
                <path d="M61.4615994,22.0983532 C61.4615994,22.6842082 60.9888382,23.1584443 60.4060922,23.1584443 C59.8227705,23.1584443 59.3500092,22.6842082 59.3500092,22.0983532 C59.3500092,21.5124981 59.8227705,21.0382621 60.4060922,21.0382621 C60.9888382,21.0382621 61.4615994,21.5124981 61.4615994,22.0983532" id="Fill-163" fill="#3D1E39"></path>
                <path d="M57.5586989,22.0983532 C57.5586989,22.6842082 57.0859376,23.1584443 56.5031917,23.1584443 C55.9198699,23.1584443 55.4471086,22.6842082 55.4471086,22.0983532 C55.4471086,21.5124981 55.9198699,21.0382621 56.5031917,21.0382621 C57.0859376,21.0382621 57.5586989,21.5124981 57.5586989,22.0983532" id="Fill-165" fill="#3D1E39"></path>
                <path d="M49.7529554,22.0983532 C49.7529554,22.6842082 49.2801941,23.1584443 48.6974482,23.1584443 C48.1141264,23.1584443 47.6413651,22.6842082 47.6413651,22.0983532 C47.6413651,21.5124981 48.1141264,21.0382621 48.6974482,21.0382621 C49.2801941,21.0382621 49.7529554,21.5124981 49.7529554,22.0983532" id="Fill-167" fill="#3D1E39"></path>
                <path d="M45.8500548,22.0983532 C45.8500548,22.6842082 45.3772936,23.1584443 44.7945476,23.1584443 C44.2112259,23.1584443 43.7384646,22.6842082 43.7384646,22.0983532 C43.7384646,21.5124981 44.2112259,21.0382621 44.7945476,21.0382621 C45.3772936,21.0382621 45.8500548,21.5124981 45.8500548,22.0983532" id="Fill-169" fill="#3D1E39"></path>
                <path d="M53.6557983,26.1467099 C53.6557983,26.732565 53.1830371,27.206801 52.6002911,27.206801 C52.0169694,27.206801 51.5442081,26.732565 51.5442081,26.1467099 C51.5442081,25.5608549 52.0169694,25.0866188 52.6002911,25.0866188 C53.1830371,25.0866188 53.6557983,25.5608549 53.6557983,26.1467099" id="Fill-171" fill="#3D1E39"></path>
                <path d="M65.3645,26.1467099 C65.3645,26.732565 64.8917387,27.206801 64.3089928,27.206801 C63.725671,27.206801 63.2529097,26.732565 63.2529097,26.1467099 C63.2529097,25.5608549 63.725671,25.0866188 64.3089928,25.0866188 C64.8917387,25.0866188 65.3645,25.5608549 65.3645,26.1467099" id="Fill-173" fill="#3D1E39"></path>
                <path d="M69.2673429,26.1467099 C69.2673429,26.732565 68.7945817,27.206801 68.2118357,27.206801 C67.628514,27.206801 67.1557527,26.732565 67.1557527,26.1467099 C67.1557527,25.5608549 67.628514,25.0866188 68.2118357,25.0866188 C68.7945817,25.0866188 69.2673429,25.5608549 69.2673429,26.1467099" id="Fill-175" fill="#3D1E39"></path>
                <path d="M77.073144,26.1467099 C77.073144,26.732565 76.6003828,27.206801 76.0176368,27.206801 C75.4343151,27.206801 74.9615538,26.732565 74.9615538,26.1467099 C74.9615538,25.5608549 75.4343151,25.0866188 76.0176368,25.0866188 C76.6003828,25.0866188 77.073144,25.5608549 77.073144,26.1467099" id="Fill-177" fill="#3D1E39"></path>
                <path d="M73.1702435,26.1467099 C73.1702435,26.732565 72.6974822,27.206801 72.1147363,27.206801 C71.5314145,27.206801 71.0586532,26.732565 71.0586532,26.1467099 C71.0586532,25.5608549 71.5314145,25.0866188 72.1147363,25.0866188 C72.6974822,25.0866188 73.1702435,25.5608549 73.1702435,26.1467099" id="Fill-179" fill="#3D1E39"></path>
                <path d="M61.4615994,26.1467099 C61.4615994,26.732565 60.9888382,27.206801 60.4060922,27.206801 C59.8227705,27.206801 59.3500092,26.732565 59.3500092,26.1467099 C59.3500092,25.5608549 59.8227705,25.0866188 60.4060922,25.0866188 C60.9888382,25.0866188 61.4615994,25.5608549 61.4615994,26.1467099" id="Fill-181" fill="#3D1E39"></path>
                <path d="M57.5586989,26.1467099 C57.5586989,26.732565 57.0859376,27.206801 56.5031917,27.206801 C55.9198699,27.206801 55.4471086,26.732565 55.4471086,26.1467099 C55.4471086,25.5608549 55.9198699,25.0866188 56.5031917,25.0866188 C57.0859376,25.0866188 57.5586989,25.5608549 57.5586989,26.1467099" id="Fill-183" fill="#3D1E39"></path>
                <path d="M49.7529554,26.1467099 C49.7529554,26.732565 49.2801941,27.206801 48.6974482,27.206801 C48.1141264,27.206801 47.6413651,26.732565 47.6413651,26.1467099 C47.6413651,25.5608549 48.1141264,25.0866188 48.6974482,25.0866188 C49.2801941,25.0866188 49.7529554,25.5608549 49.7529554,26.1467099" id="Fill-185" fill="#3D1E39"></path>
                <path d="M103.273677,102.174849 C103.273677,102.760704 102.800916,103.23494 102.21817,103.23494 C101.634848,103.23494 101.162087,102.760704 101.162087,102.174849 C101.162087,101.588994 101.634848,101.114758 102.21817,101.114758 C102.800916,101.114758 103.273677,101.588994 103.273677,102.174849" id="Fill-187" fill="#3D1E39"></path>
                <path d="M99.3707768,106.223206 C99.3707768,106.809061 98.8980155,107.283297 98.3152696,107.283297 C97.7319478,107.283297 97.2591866,106.809061 97.2591866,106.223206 C97.2591866,105.637351 97.7319478,105.163115 98.3152696,105.163115 C98.8980155,105.163115 99.3707768,105.637351 99.3707768,106.223206" id="Fill-189" fill="#3D1E39"></path>
                <path d="M103.273677,106.223206 C103.273677,106.809061 102.800916,107.283297 102.21817,107.283297 C101.634848,107.283297 101.162087,106.809061 101.162087,106.223206 C101.162087,105.637351 101.634848,105.163115 102.21817,105.163115 C102.800916,105.163115 103.273677,105.637351 103.273677,106.223206" id="Fill-191" fill="#3D1E39"></path>
                <path d="M95.4678763,110.271563 C95.4678763,110.857418 94.995115,111.331654 94.4123691,111.331654 C93.8290473,111.331654 93.356286,110.857418 93.356286,110.271563 C93.356286,109.685708 93.8290473,109.211471 94.4123691,109.211471 C94.995115,109.211471 95.4678763,109.685708 95.4678763,110.271563" id="Fill-193" fill="#3D1E39"></path>
                <path d="M99.3707768,110.271563 C99.3707768,110.857418 98.8980155,111.331654 98.3152696,111.331654 C97.7319478,111.331654 97.2591866,110.857418 97.2591866,110.271563 C97.2591866,109.685708 97.7319478,109.211471 98.3152696,109.211471 C98.8980155,109.211471 99.3707768,109.685708 99.3707768,110.271563" id="Fill-195" fill="#3D1E39"></path>
                <path d="M103.273677,110.271563 C103.273677,110.857418 102.800916,111.331654 102.21817,111.331654 C101.634848,111.331654 101.162087,110.857418 101.162087,110.271563 C101.162087,109.685708 101.634848,109.211471 102.21817,109.211471 C102.800916,109.211471 103.273677,109.685708 103.273677,110.271563" id="Fill-197" fill="#3D1E39"></path>
                <path d="M21.7928979,102.174849 C21.7928979,102.760704 22.2656591,103.23494 22.8484051,103.23494 C23.4317268,103.23494 23.9044881,102.760704 23.9044881,102.174849 C23.9044881,101.588994 23.4317268,101.114758 22.8484051,101.114758 C22.2656591,101.114758 21.7928979,101.588994 21.7928979,102.174849" id="Fill-199" fill="#3D1E39"></path>
                <path d="M25.6957984,106.223206 C25.6957984,106.809061 26.1685597,107.283297 26.7513056,107.283297 C27.3346274,107.283297 27.8073887,106.809061 27.8073887,106.223206 C27.8073887,105.637351 27.3346274,105.163115 26.7513056,105.163115 C26.1685597,105.163115 25.6957984,105.637351 25.6957984,106.223206" id="Fill-201" fill="#3D1E39"></path>
                <path d="M21.7928979,106.223206 C21.7928979,106.809061 22.2656591,107.283297 22.8484051,107.283297 C23.4317268,107.283297 23.9044881,106.809061 23.9044881,106.223206 C23.9044881,105.637351 23.4317268,105.163115 22.8484051,105.163115 C22.2656591,105.163115 21.7928979,105.637351 21.7928979,106.223206" id="Fill-203" fill="#3D1E39"></path>
                <path d="M29.598699,110.271563 C29.598699,110.857418 30.0714602,111.331654 30.6542062,111.331654 C31.2375279,111.331654 31.7102892,110.857418 31.7102892,110.271563 C31.7102892,109.685708 31.2375279,109.211471 30.6542062,109.211471 C30.0714602,109.211471 29.598699,109.685708 29.598699,110.271563" id="Fill-205" fill="#3D1E39"></path>
                <path d="M25.6957984,110.271563 C25.6957984,110.857418 26.1685597,111.331654 26.7513056,111.331654 C27.3346274,111.331654 27.8073887,110.857418 27.8073887,110.271563 C27.8073887,109.685708 27.3346274,109.211471 26.7513056,109.211471 C26.1685597,109.211471 25.6957984,109.685708 25.6957984,110.271563" id="Fill-207" fill="#3D1E39"></path>
                <path d="M21.7928979,110.271563 C21.7928979,110.857418 22.2656591,111.331654 22.8484051,111.331654 C23.4317268,111.331654 23.9044881,110.857418 23.9044881,110.271563 C23.9044881,109.685708 23.4317268,109.211471 22.8484051,109.211471 C22.2656591,109.211471 21.7928979,109.685708 21.7928979,110.271563" id="Fill-209" fill="#3D1E39"></path>
            </g>
        </g>
    </g>
</svg>