<?xml version="1.0" encoding="UTF-8" standalone="no"?>
<svg width="21px" height="32px" viewBox="0 0 21 32" version="1.1" xmlns="http://www.w3.org/2000/svg" xmlns:xlink="http://www.w3.org/1999/xlink">
    <!-- Generator: sketchtool 3.8.3 (29802) - http://www.bohemiancoding.com/sketch -->
    <title>780D7172-C2A1-4161-B5AF-BACBFC2B14DF</title>
    <desc>Created with sketchtool.</desc>
    <defs></defs>
    <g id="Page-1" stroke="none" stroke-width="1" fill="none" fill-rule="evenodd">
        <g id="Home" transform="translate(-292.000000, -554.000000)" fill="#EFF4D6">
            <path d="M303.099135,561.272718 C303.099135,560.704056 303.09029,560.135277 303.101966,559.566851 C303.111046,559.124612 302.897828,558.904199 302.470211,558.901605 C302.063586,558.899246 301.869473,559.117418 301.871242,559.529114 C301.876549,560.705472 301.872775,561.882065 301.873246,563.058541 C301.873364,563.453373 302.037996,563.689588 302.465612,563.692418 C302.912333,563.695484 303.104442,563.470591 303.100432,563.037432 C303.09489,562.449194 303.099017,561.860956 303.099135,561.272718 M301.827371,555.314391 C297.460283,554.853401 293.405239,558.270558 293.316673,562.566535 C293.218672,567.320082 293.242612,572.077757 293.304998,576.832365 C293.348396,580.143385 295.720688,583.063465 298.907409,583.988985 C300.488269,584.448089 302.105452,584.33287 303.708129,584.29242 C308.247396,584.178145 311.699697,580.616287 311.706891,576.093766 C311.713613,571.849089 311.712316,567.604295 311.706301,563.3595 C311.703235,561.244886 310.989283,559.391253 309.536024,557.857565 C307.80952,556.035537 305.672853,555.186201 303.093003,555.280074 C303.093003,556.045679 303.082035,556.767768 303.104206,557.488914 C303.107744,557.604014 303.235345,557.758975 303.34679,557.819827 C304.082559,558.221263 304.387055,558.84205 304.374791,559.662965 C304.359813,560.665021 304.339058,561.668729 304.380215,562.669252 C304.422553,563.697843 304.105555,564.482082 303.091588,564.892126 C303.091588,565.850902 303.079913,566.793758 303.096777,567.736023 C303.104796,568.18699 302.990167,568.556584 302.490613,568.564486 C301.957331,568.572977 301.824659,568.180622 301.828551,567.71338 C301.835273,566.907678 301.852373,566.100915 301.814517,565.296982 C301.804847,565.094259 301.649886,564.835166 301.481127,564.714759 C300.909046,564.306601 300.597827,563.800443 300.608676,563.081656 C300.626602,561.883245 300.621413,560.684244 300.610681,559.485597 C300.604313,558.769405 300.906215,558.249213 301.512851,557.878675 C301.643046,557.799072 301.808267,557.64187 301.813338,557.514741 C301.842231,556.793005 301.827371,556.069619 301.827371,555.314391 M313,562.619839 L313,577.007374 C312.963088,577.115753 312.908486,577.221654 312.891504,577.333099 C312.284043,581.320569 310.013289,583.894876 306.213919,585.139634 C304.381159,585.740018 302.4754,585.56041 300.597945,585.49602 C295.870342,585.333629 292.039956,581.368802 292.016134,576.6366 C291.993255,572.057119 291.99585,567.477283 292.016724,562.897802 C292.034531,558.996539 294.777597,555.448832 298.52496,554.365286 C300.243327,553.868444 301.994715,554.021046 303.736078,554.025528 C307.877566,554.036142 311.597215,556.944428 312.651161,560.958551 C312.794683,561.505159 312.885018,562.065683 313,562.619839" id="Fill-1"></path>
        </g>
    </g>
</svg>