<svg width="21" height="32" viewBox="0 0 21 32" xmlns="http://www.w3.org/2000/svg"><title>780D7172-C2A1-4161-B5AF-BACBFC2B14DF</title><path d="M11.1 7.273c0-.569-.01-1.138.002-1.706.009-.442-.204-.663-.632-.665-.406-.003-.6.215-.599.627.006 1.176.002 2.353.002 3.53 0 .394.165.63.593.633.446.003.638-.221.634-.655-.005-.588-.001-1.176 0-1.764M9.826 1.314C5.46.854 1.405 4.271 1.317 8.567c-.098 4.753-.074 9.51-.012 14.265.043 3.311 2.416 6.231 5.602 7.157 1.581.46 3.198.344 4.801.303 4.54-.114 7.992-3.676 7.999-8.198.007-4.245.005-8.49 0-12.734-.004-2.115-.718-3.969-2.171-5.502-1.726-1.822-3.863-2.672-6.443-2.578 0 .766-.011 1.488.011 2.209.004.115.131.27.243.33.736.402 1.04 1.023 1.028 1.844-.015 1.002-.036 2.006.005 3.006.043 1.029-.274 1.813-1.288 2.223 0 .959-.012 1.902.005 2.844.008.451-.107.82-.606.828-.534.009-.666-.383-.662-.85.006-.806.023-1.613-.014-2.417-.01-.203-.165-.462-.334-.582-.572-.408-.883-.915-.872-1.633.018-1.199.012-2.398.002-3.596-.007-.717.295-1.237.902-1.607.13-.08.295-.237.3-.364.03-.722.014-1.445.014-2.2M21 8.62v14.387c-.037.109-.092.215-.108.326-.608 3.988-2.879 6.562-6.678 7.807-1.833.6-3.739.42-5.616.356C3.87 31.334.04 27.369.016 22.636c-.023-4.579-.02-9.159 0-13.738.019-3.901 2.762-7.45 6.509-8.533 1.718-.497 3.47-.344 5.211-.34 4.142.011 7.861 2.92 8.915 6.934.144.546.234 1.107.349 1.66" fill="#EFF4D6" fill-rule="evenodd"/></svg>