<?xml version="1.0" encoding="utf-8"?>
<!-- Generator: Adobe Illustrator 16.0.0, SVG Export Plug-In . SVG Version: 6.00 Build 0)  -->
<!DOCTYPE svg PUBLIC "-//W3C//DTD SVG 1.1//EN" "http://www.w3.org/Graphics/SVG/1.1/DTD/svg11.dtd">
<svg version="1.1" id="Layer_1" xmlns="http://www.w3.org/2000/svg" xmlns:xlink="http://www.w3.org/1999/xlink" x="0px" y="0px"
	 width="111px" height="75px" viewBox="0 0 111 75" enable-background="new 0 0 111 75" xml:space="preserve">
<g>
	<path fill="#ECF1D4" d="M50.403,28.255c5.253,5.014,7.88,11.262,7.88,18.748s-2.627,13.734-7.88,18.747
		c-5.254,5.015-11.983,7.521-20.188,7.521c-8.205,0-14.934-2.507-20.187-7.521c-5.253-5.013-7.88-11.262-7.88-18.747
		s2.627-13.733,7.88-18.748c5.253-5.013,11.982-7.521,20.187-7.521C38.42,20.735,45.149,23.242,50.403,28.255z M35.829,53.192
		c1.535-1.631,2.304-3.694,2.304-6.189c0-2.494-0.769-4.558-2.304-6.189c-1.536-1.63-3.407-2.446-5.613-2.446
		c-2.207,0-4.078,0.816-5.613,2.446c-1.536,1.632-2.303,3.695-2.303,6.189c0,2.495,0.767,4.559,2.303,6.189
		c1.535,1.631,3.406,2.446,5.613,2.446C32.422,55.639,34.293,54.823,35.829,53.192z"/>
	<path fill="#ECF1D4" d="M62.601,29.731V16.057h17.272v13.674H62.601z M62.601,34.048h17.272v38.143H62.601V34.048z"/>
	<path fill="#ECF1D4" d="M87.421,57.798h12.042L92.583,75h-9.175L87.421,57.798z"/>
</g>
</svg>
