<svg xmlns="http://www.w3.org/2000/svg" width="335" height="89" viewBox="0 0 335 89"><g fill="#ECF1D4"><path d="M18.649 53.091v3.397h20.387V70.08H.981V22.51h36.696v13.591H18.649V39.5h17.669v13.591H18.649zM54.666 71.1c-3.625 0-6.569-1.506-8.834-4.52-2.266-3.012-3.398-7.509-3.398-13.489V34.063h16.31v19.028c0 1.269.272 2.266.815 2.99.543.726 1.178 1.087 1.903 1.087.724 0 1.359-.361 1.903-1.087.543-.725.815-1.722.815-2.99V34.063h16.31V70.08H64.86l-1.36-4.077c-.091.136-.204.317-.34.543-.136.228-.476.636-1.019 1.224a12.471 12.471 0 0 1-1.733 1.563c-.612.453-1.439.859-2.48 1.223a9.877 9.877 0 0 1-3.262.544zm72.373-11.893c0 3.397-1.393 6.229-4.179 8.494-2.787 2.267-6.717 3.398-11.791 3.398-2.084 0-4.101-.228-6.048-.68-1.948-.452-3.557-.985-4.825-1.597a30.087 30.087 0 0 1-3.364-1.869c-.975-.634-1.665-1.178-2.072-1.631l-.68-.68 5.097-8.155c.272.272.634.59 1.087.952.452.363 1.427.86 2.922 1.495s2.99.951 4.485.951c.498 0 .906-.136 1.223-.408.316-.271.476-.588.476-.951 0-.407-.691-.905-2.073-1.495a440.567 440.567 0 0 1-4.553-1.971c-1.654-.724-3.172-1.971-4.553-3.737-1.382-1.768-2.073-3.896-2.073-6.388 0-3.398 1.393-6.229 4.179-8.495 2.787-2.265 6.716-3.398 11.791-3.398a21.3 21.3 0 0 1 7.815 1.461c2.491.975 4.304 1.937 5.437 2.888l1.699 1.427-5.097 8.155c-1.813-1.812-3.965-2.718-6.456-2.718-.499 0-.907.136-1.223.408-.317.272-.476.59-.476.951 0 .408.69.907 2.073 1.495a579.9 579.9 0 0 1 4.553 1.971c1.653.726 3.171 1.971 4.553 3.738 1.382 1.768 2.073 3.898 2.073 6.389zm7.203 6.388c-3.896-3.67-5.844-8.177-5.844-13.523 0-5.345 1.948-9.854 5.844-13.523 3.896-3.67 8.857-5.505 14.883-5.505 6.025 0 10.985 1.835 14.882 5.505 3.896 3.669 5.844 8.178 5.844 13.523 0 5.347-1.948 9.854-5.844 13.523-3.897 3.67-8.857 5.505-14.882 5.505-6.026 0-10.987-1.835-14.883-5.505zm18.009-9.854c.86-.951 1.291-2.175 1.291-3.67s-.431-2.718-1.291-3.669c-.861-.952-1.903-1.428-3.126-1.428s-2.266.476-3.126 1.428c-.861.951-1.292 2.174-1.292 3.669s.43 2.719 1.292 3.67c.86.951 1.903 1.427 3.126 1.427s2.265-.476 3.126-1.427zm33.23 15.359c-3.625 0-6.569-1.506-8.834-4.52-2.267-3.012-3.398-7.509-3.398-13.489V34.063h16.31v19.028c0 1.269.272 2.266.816 2.99.543.726 1.177 1.087 1.902 1.087.725 0 1.359-.361 1.902-1.087.544-.725.815-1.722.815-2.99V34.063h16.311V70.08h-15.631l-1.358-4.077c-.092.136-.204.317-.34.543-.137.228-.476.636-1.02 1.224a12.414 12.414 0 0 1-1.733 1.563c-.611.453-1.438.859-2.48 1.223a9.872 9.872 0 0 1-3.262.544zm68.601-8.939c1.953 0 3.797.108 5.533.325.722.146 2.023.65 3.905 1.519l.542.543-.65.217c-.941 0-1.7.362-2.278 1.085 0 .146-.146.217-.434.217-1.158-.071-2.387.146-3.688.65a5.95 5.95 0 0 1-2.495.543c-1.953.217-3.979.867-6.075 1.952-.651.363-2.785 1.338-6.4 2.93-.29.144-.724.342-1.302.597-.58.252-.977.45-1.193.597-.58.36-.905.613-.977.759-1.085 1.085-3.11 2.566-6.075 4.448l-.542.434.108-.108c.361-.073.434-.037.217.108-.073.071-.217.18-.434.325-1.953 1.085-3.11 1.698-3.472 1.845-.724.288-1.88.65-3.472 1.085-.144 0-.252-.038-.325-.108a94.514 94.514 0 0 1-2.17-1.52c-.217-.146-.469-.615-.759-1.41 0-.217-.071-.542-.217-.977a15.702 15.702 0 0 1-.326-1.084v-1.845c.146-1.014.182-1.664.108-1.952-.144-.797.218-1.267 1.085-1.411.941-.724 1.573-1.284 1.898-1.681.325-.397.724-1.193 1.193-2.387.472-1.193.995-3.055 1.573-5.587a434.28 434.28 0 0 0 1.465-5.37c.687-2.566 1.247-4.537 1.681-5.912 2.097-7.16 3.651-12.221 4.665-15.188.651-1.88 1.771-5.623 3.363-11.228 1.59-5.604 2.712-9.347 3.362-11.228.218-.434.524-1.121.923-2.061.396-.939.668-1.663.813-2.17.505-.868 1.12-1.302 1.844-1.302.435 0 1.229-.559 2.387-1.681 1.156-1.121 1.953-1.682 2.387-1.682 1.953.217 3.108 1.302 3.472 3.254.217.797.18 1.844-.108 3.146-.073.507-1.483 6.655-4.231 18.442a1333.974 1333.974 0 0 1-4.339 17.682c-.217.797-.597 2.045-1.139 3.743-.543 1.7-.923 3.021-1.14 3.96-.579 1.881-.868 3.417-.868 4.61s.163 2.044.488 2.549c.326.507.958.814 1.898.923.939.108 1.861.108 2.767 0 .903-.108 2.097-.234 3.58-.38 1.483-.144 2.768-.216 3.852-.216z"/><path d="M270.137 43.719c0 .146-.091.398-.271.759-.182.363-.271.651-.271.868s-.146.398-.434.543c-.218.217-.326.398-.326.543-.072.361-.254.579-.542.65-.146.072-.254.362-.325.867.217 0 .36.038.434.109v.108h-.76c.071-.218.109-.506.109-.868h-.218l-.325 2.278.434.217c.071.507.109 1.23.109 2.17 0 .579.144 1.23.434 1.952.071.146.307.688.705 1.627.396.941.668 1.483.813 1.628 2.313 2.315 4.014 3.509 5.099 3.58.505.072 1.915-.108 4.23-.543 2.458-.722 4.953-2.061 7.485-4.014.723-.505 1.718-1.318 2.983-2.44 1.265-1.121 2.078-1.826 2.441-2.116l.325-.325c.217-.217.542-.578.977-1.085.434-.505.759-.867.977-1.085 1.372-1.373 2.457-2.639 3.254-3.797.434-.722.868-1.156 1.302-1.301-.29 1.158-.579 2.061-.868 2.711-.146.363-.325.651-.542.868-.797.941-1.339 1.7-1.627 2.278-.146.146-.345.362-.597.651-.255.289-.417.507-.488.65a1.249 1.249 0 0 0-.217.325 1.27 1.27 0 0 1-.217.326c.144 0 .307-.036.487-.109.18-.07.308-.144.38-.217-.072.217-.217.453-.434.705-.217.255-.325.453-.325.597l.325.326c-.217.362-.58.796-1.085 1.302a21.977 21.977 0 0 0-1.844 1.844c-.651.724-1.7 1.665-3.146 2.82-.94.724-1.447 1.122-1.519 1.193a4.735 4.735 0 0 0-.651.435 4.967 4.967 0 0 1-.65.434c-.868.434-1.519.797-1.953 1.085-1.23.724-2.387 1.193-3.471 1.41l-.977.325c-1.158.363-2.46.615-3.905.76-.725.072-2.262-.09-4.611-.488-2.351-.396-3.924-.741-4.719-1.03-1.157-.435-2.099-.923-2.82-1.465a13.015 13.015 0 0 1-2.062-1.953c-.65-.759-1.122-1.247-1.41-1.464-.65-.506-1.156-1.265-1.519-2.278-.361-.939-.613-2.458-.76-4.557 0-3.182.76-6.4 2.278-9.655.217-.434.288-.976.217-1.627-.577.363-.938.759-1.084 1.193-.289.796-.723 1.735-1.302 2.82 0-.434.254-1.229.759-2.387.94-2.097 1.953-3.941 3.038-5.532a29.501 29.501 0 0 1 4.014-4.99c1.59-1.736 3.217-3.109 4.882-4.123l1.084-.542c.723-.288 1.193-.217 1.411.217a.958.958 0 0 0 .542.271c.217.037.361.091.434.163.145.073.271.217.38.434s.198.363.271.434c.288.146 1.302.507 3.037 1.084 1.736.58 2.783.977 3.146 1.193.217.146.47.507.759 1.085.868 1.592 1.446 2.495 1.736 2.712.144.073.288.398.434.977.217 1.519.217 2.82 0 3.905-.217 1.302-.76 2.712-1.627 4.231-.651 1.158-1.05 1.917-1.193 2.278-.073.362-.434 1.084-1.085 2.169a3.347 3.347 0 0 1-1.953 1.628 2.925 2.925 0 0 1-2.061.325c-.507-.145-.797-.288-.868-.434l-.108-.109c-.362.073-.778-.108-1.247-.542-.472-.434-.743-.65-.814-.65a.733.733 0 0 1-.217-.543c.071-.144.036-.469-.108-.977-.724-1.519-1.193-2.422-1.41-2.712-.145-.43-.398-.466-.759-.105zm-10.631 11.282l-.217.108c0 .073.037.2.108.38.073.182.144.344.217.488 0 .072.055.235.163.488.108.254.09.417-.055.488l-.217-.218c-.361-.722-.687-2.023-.977-3.905v-.325c0-2.097.146-3.688.435-4.773.146-.434.217-.76.217-.977v-.759c-.361.724-.578 1.23-.651 1.519-.071.217-.144.472-.217.76-.071.29-.108.542-.108.759-.505 3.11-.217 5.679.868 7.702 0 .073.289.472.867 1.193.145.146.397.29.76.435h.325c-.507-.868-.797-1.373-.867-1.519a17.36 17.36 0 0 1-.271-.923c-.109-.396-.236-.704-.38-.921zm0-7.16c-.145.146-.217.255-.217.326-.435 1.302-.505 2.966-.217 4.99l.217.217c.072-.795.182-1.916.325-3.363.145-1.012.109-1.736-.108-2.17zm16.489-11.824c-.29.217-1.302 1.375-3.037 3.472-.435.651-.688 1.049-.76 1.193-.434.724-.362 1.267.217 1.627.578.363.903.615.977.759.434.507 1.229.688 2.387.542.578-.144 1.156-.722 1.735-1.736.217-.505.524-1.139.923-1.898.396-.759.705-1.464.922-2.115.578-1.373.668-2.241.271-2.604-.397-.361-.959-.451-1.681-.271a4.648 4.648 0 0 0-1.954 1.031z"/><path d="M296.172 42.309c0-.144-.037-.252-.108-.326-1.014-1.59-1.7-3.868-2.061-6.834-.29-1.59.108-3.363 1.193-5.316.144-.288.396-.469.759-.542.651-.578 1.736-1.302 3.255-2.169.938-.578 2.097-.759 3.472-.542.36 0 1.627.868 3.797 2.604 1.155.941 1.844 1.483 2.061 1.627.939.796 1.663 1.881 2.17 3.254.505 1.302.83 2.099.977 2.387.071.073.288 1.122.65 3.146.145 1.591.253 2.459.325 2.604.071.073.109.181.109.325-.073-.505-.073-.469 0 .108v.977c0 .29.017.922.054 1.898.036.977-.019 1.573-.163 1.79-.146.29-.091.597.163.922.253.325.597.488 1.03.488 1.229-.071 3.345-.071 6.347 0 3 .073 5.08-.071 6.237-.434l1.736-.868c.071-.071.198-.145.38-.217.18-.071.307-.144.379-.218.218.29.218.616 0 .977-.072.146 0 .345.218.597.217.255.252.453.108.597-2.099 2.243-7.812 3.363-17.141 3.363h-.325c-.435 0-.651.108-.651.325 0 .073-.072.255-.217.543-.073.507-.76 2.315-2.062 5.424-.362.868-1.049 1.953-2.061 3.255-.651 1.014-1.158 1.627-1.519 1.844-.073.073-.2.163-.38.271-.182.108-.309.2-.38.271-.362.146-.58.362-.65.65-.941 1.085-1.953 1.773-3.038 2.062-.29 0-.65.146-1.085.434-1.23.362-2.712.398-4.447.108-1.665-.217-3.109-1.373-4.34-3.472l-.976-2.929c-.218-2.241-.253-4.23-.109-5.967.218-1.952.833-3.94 1.845-5.966.868-2.098 2.205-4.231 4.014-6.401.145-.071.288-.288.434-.65zm12.91-2.061c.217-1.012.18-1.88-.108-2.604a61.978 61.978 0 0 0-.76-3.472c-.362-1.156-.868-2.024-1.519-2.604-.797-.795-1.267-1.229-1.41-1.302-.725-.651-1.375-1.121-1.953-1.41-.94-.722-2.424-.071-4.447 1.953-1.014 1.302-1.43 2.785-1.248 4.448.18 1.665.613 3.183 1.302 4.556a15.504 15.504 0 0 0 2.55 3.688c1.59 3.11 3.417 4.249 5.478 3.417 2.06-.83 2.765-3.053 2.115-6.67zm-7.702 13.885c-.651.941-1.34 2.495-2.062 4.665-.073.363-.108.94-.108 1.735-.073.073-.037.255.108.543.288.65.687 1.085 1.193 1.302.071 0 .144-.036.217-.108.071-.071.217-.18.434-.325 1.52-1.591 2.93-3.906 4.231-6.943l.434-.868a6.02 6.02 0 0 0 .38-.976c.108-.361.198-.614.271-.76-1.302-.434-2.278-.505-2.93-.217-.65.29-1.373.94-2.168 1.952zm33.304 6.726c0 .289-.037.507-.108.65a55.792 55.792 0 0 0-.597 1.953 28.844 28.844 0 0 1-.759 2.278 7.986 7.986 0 0 1-.923 1.735c-.362.507-.724.797-1.085.868-1.447.434-2.495.398-3.146-.108l-.217-.109c-.868 0-1.592-.469-2.17-1.41a5.673 5.673 0 0 1-.868-3.037c.071-2.241.939-4.375 2.604-6.4.288-.288.47-.361.543-.217 2.892.579 4.882 1.339 5.967 2.277.577.581.83 1.086.759 1.52z"/></g></svg>