<svg xmlns="http://www.w3.org/2000/svg" width="335" height="89" viewBox="0 0 335 89"><g fill="#ECF1D4"><path d="M24.053 13.446v61.425H1.238V13.446h22.815zm47.822 13.601c7.371 0 13.527 2.384 18.471 7.152 4.943 4.769 7.415 10.574 7.415 17.418v23.254H77.579l-1.755-5.265c-.118.176-.263.41-.439.702-.175.293-.614.82-1.316 1.58a15.932 15.932 0 0 1-2.238 2.018c-.79.585-1.858 1.111-3.203 1.58-1.347.468-2.75.702-4.212.702-4.738 0-8.556-1.36-11.451-4.081-2.896-2.72-4.344-6.187-4.344-10.398 0-4.387 1.725-7.897 5.177-10.53 3.451-2.633 8.745-3.949 15.883-3.949h7.02c0-.117-.044-.292-.132-.527-.087-.233-.307-.628-.658-1.185a6.09 6.09 0 0 0-1.272-1.448c-.498-.409-1.272-.79-2.326-1.141-1.053-.351-2.224-.526-3.51-.526-1.288 0-2.589.293-3.905.877-1.316.585-2.297 1.171-2.94 1.755l-1.053.877-7.459-11.846c.176-.175.439-.424.79-.746.351-.321 1.11-.891 2.281-1.711 1.17-.818 2.413-1.536 3.729-2.15s3.027-1.169 5.133-1.667a28.314 28.314 0 0 1 6.496-.745zm.438 35.1c1.229 0 2.267-.628 3.115-1.887.848-1.257 1.272-3.115 1.272-5.572-2.281 0-4.023.454-5.221 1.36-1.2.908-1.799 2.062-1.799 3.466 0 .645.277 1.244.833 1.799.557.558 1.156.834 1.8.834zm94.77-35.1c4.68 0 8.481 1.946 11.407 5.835 2.925 3.891 4.388 9.696 4.388 17.418v24.57h-21.06V50.3c0-1.637-.351-2.925-1.053-3.861-.702-.935-1.522-1.404-2.457-1.404-.937 0-1.755.469-2.457 1.404-.702.937-1.053 2.224-1.053 3.861v24.57h-21.06V50.3c0-1.637-.351-2.925-1.053-3.861-.702-.935-1.522-1.404-2.457-1.404-.937 0-1.755.469-2.457 1.404-.702.937-1.053 2.224-1.053 3.861v24.57h-21.06V28.364h20.182l1.755 5.265c.116-.175.263-.408.438-.702.176-.292.628-.819 1.36-1.58a15.43 15.43 0 0 1 2.369-2.018c.847-.584 2.003-1.111 3.466-1.58a15.168 15.168 0 0 1 4.651-.702c1.637 0 3.217.293 4.739.877 1.521.585 2.764 1.272 3.729 2.062.965.79 1.813 1.595 2.545 2.413.731.82 1.272 1.522 1.624 2.106l.526.877c.117-.233.321-.541.614-.921.292-.38.891-1.038 1.799-1.975a21.192 21.192 0 0 1 2.896-2.501c1.022-.73 2.325-1.404 3.905-2.018s3.189-.92 4.827-.92zm67.231 38.918c2.196 0 4.271.122 6.222.366.813.164 2.276.732 4.393 1.708l.609.61-.731.244c-1.058 0-1.912.408-2.563 1.22 0 .164-.163.244-.487.244-1.303-.08-2.685.164-4.148.732a6.69 6.69 0 0 1-2.806.61c-2.196.244-4.475.976-6.832 2.196-.732.408-3.132 1.504-7.198 3.294-.326.162-.813.385-1.464.671-.652.284-1.098.507-1.342.671-.652.406-1.019.69-1.099.854-1.22 1.22-3.498 2.886-6.832 5.002l-.609.488.122-.122c.405-.082.487-.042.244.122-.082.08-.244.202-.488.366-2.196 1.22-3.498 1.91-3.904 2.074-.813.324-2.114.732-3.904 1.22-.161 0-.283-.042-.365-.122-1.301-.896-2.114-1.464-2.44-1.708-.244-.164-.528-.692-.854-1.586 0-.244-.08-.61-.244-1.098a18.13 18.13 0 0 1-.366-1.22v-2.074c.164-1.14.204-1.872.122-2.196-.162-.896.244-1.424 1.22-1.586 1.059-.814 1.77-1.445 2.135-1.891.366-.446.814-1.342 1.343-2.684s1.118-3.435 1.769-6.283c.324-1.138.873-3.151 1.647-6.039.771-2.886 1.402-5.103 1.891-6.649 2.358-8.052 4.106-13.744 5.246-17.08.731-2.114 1.992-6.323 3.782-12.627 1.788-6.302 3.05-10.511 3.781-12.627.244-.488.59-1.26 1.037-2.318.446-1.056.751-1.87.915-2.44.568-.976 1.261-1.464 2.074-1.464.488 0 1.382-.629 2.684-1.891 1.301-1.26 2.196-1.891 2.685-1.891 2.196.244 3.496 1.464 3.904 3.66.243.896.201 2.074-.122 3.538-.082.57-1.668 7.484-4.759 20.74a1502.474 1502.474 0 0 1-4.88 19.886c-.244.896-.671 2.299-1.28 4.209-.61 1.912-1.037 3.397-1.281 4.453-.652 2.116-.977 3.843-.977 5.185 0 1.342.184 2.299.55 2.867.365.57 1.076.915 2.135 1.037 1.056.122 2.093.122 3.111 0 1.016-.122 2.357-.263 4.025-.427 1.664-.162 3.11-.244 4.329-.244z"/><path d="M255.543 45.225c0 .164-.103.448-.305.854-.204.408-.306.732-.306.976s-.164.448-.487.61c-.244.244-.366.448-.366.61-.082.408-.286.652-.61.732-.164.082-.286.408-.366.976.244 0 .406.042.488.122v.122h-.854c.08-.244.122-.568.122-.976h-.244l-.366 2.562.488.244c.08.57.122 1.384.122 2.44 0 .652.161 1.384.487 2.196.08.164.346.774.793 1.83.446 1.058.751 1.668.915 1.83 2.603 2.604 4.515 3.946 5.734 4.026.568.082 2.154-.122 4.758-.61 2.764-.812 5.57-2.318 8.418-4.514.813-.568 1.931-1.483 3.355-2.745 1.422-1.26 2.337-2.053 2.744-2.379l.366-.366c.244-.244.61-.65 1.099-1.22.487-.568.854-.976 1.098-1.22 1.544-1.544 2.764-2.968 3.66-4.27.488-.812.976-1.3 1.464-1.464-.326 1.302-.652 2.318-.976 3.05-.164.408-.366.732-.61.976-.896 1.058-1.506 1.912-1.83 2.562-.164.164-.387.408-.671.732-.286.326-.469.57-.549.732a1.392 1.392 0 0 0-.244.366 1.423 1.423 0 0 1-.244.366c.162 0 .345-.04.549-.122.202-.08.345-.162.427-.244-.082.244-.243.509-.487.793-.244.286-.366.509-.366.671l.366.366c-.244.408-.652.896-1.221 1.464a25.043 25.043 0 0 0-2.073 2.074c-.732.814-1.912 1.872-3.538 3.172-1.059.814-1.628 1.262-1.708 1.342-.164.082-.408.244-.732.488-.326.244-.57.408-.731.488-.977.488-1.708.896-2.196 1.22-1.384.814-2.685 1.342-3.904 1.586l-1.098.366c-1.302.408-2.767.692-4.393.854-.813.082-2.543-.101-5.185-.549-2.644-.446-4.413-.833-5.307-1.159-1.303-.488-2.36-1.037-3.173-1.647a14.582 14.582 0 0 1-2.317-2.196c-.732-.854-1.262-1.403-1.586-1.647-.732-.568-1.3-1.422-1.708-2.562-.406-1.056-.69-2.764-.854-5.124 0-3.578.854-7.198 2.563-10.858.244-.488.324-1.098.244-1.83-.65.408-1.057.854-1.221 1.342-.323.896-.812 1.952-1.464 3.172 0-.488.286-1.382.854-2.684 1.058-2.358 2.195-4.432 3.416-6.222a33.285 33.285 0 0 1 4.514-5.612c1.788-1.952 3.618-3.496 5.49-4.636l1.22-.61c.813-.324 1.342-.244 1.586.244.162.164.366.265.61.305.244.042.406.103.487.183.162.082.306.244.428.488s.223.408.305.488c.324.164 1.464.57 3.416 1.22 1.952.652 3.13 1.098 3.538 1.342.244.164.528.57.854 1.22.977 1.79 1.627 2.806 1.952 3.05.162.082.324.448.488 1.098.244 1.708.244 3.172 0 4.392-.244 1.464-.854 3.05-1.83 4.758-.731 1.302-1.18 2.156-1.342 2.562-.082.408-.488 1.22-1.22 2.44a3.767 3.767 0 0 1-2.196 1.83 3.287 3.287 0 0 1-2.318.366c-.569-.162-.896-.324-.976-.488l-.122-.122c-.408.082-.875-.122-1.403-.61-.529-.488-.835-.732-.915-.732a.821.821 0 0 1-.244-.61c.08-.162.04-.528-.121-1.098-.814-1.708-1.343-2.724-1.587-3.05-.164-.488-.448-.528-.854-.122zm-11.956 12.688l-.244.122c0 .082.042.225.122.427.082.204.162.387.244.549 0 .082.061.265.183.549.122.286.102.469-.061.549l-.244-.244c-.406-.812-.772-2.276-1.098-4.392v-.366c0-2.358.164-4.148.487-5.368.164-.488.244-.854.244-1.098v-.854c-.406.814-.649 1.384-.731 1.708-.08.244-.162.53-.244.854-.08.326-.122.61-.122.854-.568 3.498-.244 6.386.976 8.662 0 .082.326.53.977 1.342.162.164.445.326.854.488h.366c-.57-.976-.896-1.544-.976-1.708a19.705 19.705 0 0 1-.306-1.037c-.122-.446-.265-.793-.427-1.037zm0-8.052c-.162.164-.244.286-.244.366-.488 1.464-.568 3.336-.244 5.612l.244.244c.082-.894.204-2.154.366-3.782.162-1.138.122-1.952-.122-2.44zm18.544-13.298c-.326.244-1.464 1.546-3.416 3.904-.488.732-.773 1.18-.854 1.342-.488.814-.408 1.424.243 1.83.65.408 1.017.692 1.099.854.487.57 1.382.774 2.684.61.65-.162 1.3-.812 1.952-1.952.244-.568.589-1.281 1.037-2.135.446-.854.793-1.647 1.037-2.379.649-1.544.751-2.52.305-2.928-.448-.406-1.079-.507-1.891-.305a5.232 5.232 0 0 0-2.196 1.159z"/><path d="M287.994 43.639c0-.162-.042-.284-.122-.366-1.14-1.788-1.912-4.35-2.318-7.686-.325-1.788.122-3.782 1.343-5.978.162-.324.445-.528.854-.61.732-.65 1.952-1.464 3.66-2.44 1.056-.65 2.358-.854 3.904-.61.405 0 1.83.976 4.27 2.928 1.3 1.058 2.074 1.668 2.318 1.83 1.056.896 1.87 2.116 2.439 3.66.568 1.464.935 2.36 1.099 2.684.08.082.324 1.262.731 3.538.162 1.79.284 2.766.366 2.928.08.082.122.204.122.366-.082-.568-.082-.528 0 .122v1.098c0 .326.019 1.037.061 2.135.04 1.098-.021 1.769-.183 2.013-.164.326-.103.671.183 1.037.284.366.672.549 1.159.549 1.382-.08 3.762-.08 7.138 0 3.374.082 5.713-.08 7.015-.488l1.952-.976c.08-.08.223-.162.427-.244.202-.08.345-.162.427-.244.244.326.244.692 0 1.098-.082.164 0 .387.244.671.244.286.284.509.122.671-2.36 2.522-8.784 3.782-19.276 3.782h-.365c-.488 0-.732.122-.732.366 0 .082-.082.286-.244.61-.082.57-.854 2.604-2.317 6.1-.408.976-1.181 2.196-2.318 3.66-.732 1.14-1.302 1.83-1.708 2.074a2.401 2.401 0 0 1-.427.305 2.368 2.368 0 0 0-.428.305c-.407.164-.651.408-.731.732-1.058 1.22-2.196 1.994-3.416 2.318-.326 0-.732.164-1.22.488-1.385.408-3.051.448-5.002.122-1.872-.244-3.496-1.544-4.881-3.904l-1.098-3.294c-.244-2.52-.284-4.758-.122-6.71.244-2.196.937-4.432 2.074-6.71.976-2.358 2.479-4.758 4.514-7.198.16-.08.322-.324.486-.732zm14.518-2.318c.244-1.138.202-2.114-.122-2.928a66.827 66.827 0 0 0-.854-3.904c-.408-1.3-.976-2.276-1.708-2.928-.896-.894-1.424-1.382-1.586-1.464-.814-.732-1.546-1.26-2.196-1.586-1.058-.812-2.726-.08-5.002 2.196-1.14 1.464-1.606 3.132-1.402 5.002.201 1.872.689 3.58 1.464 5.124a17.45 17.45 0 0 0 2.866 4.148c1.788 3.498 3.844 4.779 6.161 3.843 2.318-.934 3.111-3.435 2.379-7.503zm-8.661 15.616c-.732 1.058-1.507 2.806-2.318 5.246-.082.408-.122 1.058-.122 1.952-.082.082-.042.286.122.61.324.732.771 1.22 1.342 1.464.08 0 .162-.04.244-.122.08-.08.244-.202.488-.366 1.708-1.788 3.294-4.392 4.758-7.808l.488-.976c.161-.324.305-.69.427-1.098.122-.406.223-.69.305-.854-1.464-.488-2.562-.568-3.294-.244-.732.326-1.547 1.058-2.44 2.196zm40.625 7.564c0 .326-.042.57-.122.732a61.44 61.44 0 0 0-.671 2.196c-.286.976-.57 1.83-.854 2.562a8.93 8.93 0 0 1-1.037 1.952c-.408.57-.814.896-1.221.976-1.628.488-2.806.448-3.537-.122l-.244-.122c-.977 0-1.79-.528-2.44-1.586a6.396 6.396 0 0 1-.976-3.416c.08-2.52 1.056-4.92 2.928-7.198.324-.324.528-.406.61-.244 3.252.652 5.489 1.506 6.71 2.562.649.652.934 1.22.854 1.708z"/></g></svg>