<?xml version="1.0" encoding="utf-8"?>
<!-- Generator: Adobe Illustrator 16.0.0, SVG Export Plug-In . SVG Version: 6.00 Build 0)  -->
<!DOCTYPE svg PUBLIC "-//W3C//DTD SVG 1.1//EN" "http://www.w3.org/Graphics/SVG/1.1/DTD/svg11.dtd">
<svg version="1.1" id="Layer_1" xmlns="http://www.w3.org/2000/svg" xmlns:xlink="http://www.w3.org/1999/xlink" x="0px" y="0px"
	 width="263px" height="75px" viewBox="0 0 263 75" enable-background="new 0 0 263 75" xml:space="preserve">
<g>
	<path fill="#eff4d6" d="M24.053,4.446v21.06h14.04V4.446h22.815v61.425H38.093v-21.06h-14.04v21.06H1.238V4.446H24.053z"/>
	<path fill="#eff4d6" d="M76,25.243c4.796-4.796,10.587-7.195,17.375-7.195c6.785,0,12.577,2.399,17.375,7.195
		c4.796,4.798,7.195,10.589,7.195,17.375v4.388h-28.08c0,0.118,0.044,0.293,0.132,0.526c0.087,0.234,0.307,0.629,0.658,1.185
		c0.351,0.557,0.774,1.04,1.272,1.448c0.497,0.41,1.272,0.79,2.326,1.141c1.053,0.351,2.223,0.526,3.51,0.526
		c1.286,0,2.589-0.292,3.905-0.877c1.316-0.584,2.295-1.169,2.94-1.755l1.053-0.877l7.459,11.846
		c-0.176,0.175-0.439,0.425-0.79,0.746c-0.351,0.322-1.112,0.893-2.281,1.711c-1.171,0.82-2.413,1.536-3.729,2.15
		c-1.316,0.614-3.027,1.169-5.133,1.667c-2.106,0.497-4.271,0.746-6.494,0.746c-7.371,0-13.528-2.383-18.471-7.152
		c-4.944-4.767-7.415-10.574-7.415-17.418C68.804,35.832,71.202,30.041,76,25.243z M89.425,38.668h7.897
		c0-1.696-0.366-2.997-1.097-3.905c-0.732-0.906-1.682-1.36-2.852-1.36c-1.171,0-2.121,0.454-2.852,1.36
		C89.79,35.671,89.425,36.973,89.425,38.668z"/>
	<path fill="#eff4d6" d="M124.085,65.871V0.936h21.06v64.935H124.085z"/>
	<path fill="#eff4d6" d="M153.92,65.871V0.936h21.06v64.935H153.92z"/>
	<path fill="#eff4d6" d="M189.546,60.08C184.514,55.341,182,49.521,182,42.617c0-6.902,2.515-12.724,7.546-17.462
		c5.031-4.739,11.437-7.108,19.218-7.108c7.779,0,14.186,2.369,19.217,7.108c5.03,4.738,7.547,10.56,7.547,17.462
		c0,6.904-2.517,12.724-7.547,17.462c-5.031,4.738-11.438,7.108-19.217,7.108C200.982,67.188,194.577,64.818,189.546,60.08z
		 M212.8,47.356c1.11-1.229,1.667-2.808,1.667-4.739c0-1.93-0.557-3.51-1.667-4.738c-1.112-1.229-2.457-1.843-4.036-1.843
		c-1.58,0-2.926,0.614-4.037,1.843s-1.667,2.808-1.667,4.738c0,1.931,0.556,3.51,1.667,4.739s2.457,1.843,4.037,1.843
		C210.343,49.199,211.688,48.584,212.8,47.356z"/>
	<path fill="#eff4d6" d="M244.302,48.321h18.428l-10.53,26.325h-14.04L244.302,48.321z"/>
</g>
</svg>
