<svg xmlns="http://www.w3.org/2000/svg" width="263" height="75" viewBox="0 0 263 75"><path d="M24.053 4.446v21.06h14.04V4.446h22.815v61.425H38.093v-21.06h-14.04v21.06H1.238V4.446h22.815zM76 25.243c4.796-4.796 10.587-7.195 17.375-7.195 6.785 0 12.577 2.399 17.375 7.195 4.796 4.798 7.195 10.589 7.195 17.375v4.388h-28.08c0 .118.044.293.132.526.087.234.307.629.658 1.185a5.97 5.97 0 0 0 1.272 1.448c.497.41 1.272.79 2.326 1.141 1.053.351 2.223.526 3.51.526 1.286 0 2.589-.292 3.905-.877 1.316-.584 2.295-1.169 2.94-1.755l1.053-.877 7.459 11.846c-.176.175-.439.425-.79.746-.351.322-1.112.893-2.281 1.711a24.663 24.663 0 0 1-3.729 2.15c-1.316.614-3.027 1.169-5.133 1.667a28.18 28.18 0 0 1-6.494.746c-7.371 0-13.528-2.383-18.471-7.152-4.944-4.767-7.415-10.574-7.415-17.418-.003-6.787 2.395-12.578 7.193-17.376zm13.425 13.425h7.897c0-1.696-.366-2.997-1.097-3.905-.732-.906-1.682-1.36-2.852-1.36-1.171 0-2.121.454-2.852 1.36-.731.908-1.096 2.21-1.096 3.905zm34.66 27.203V.936h21.06v64.935h-21.06zm29.835 0V.936h21.06v64.935h-21.06zm35.626-5.791C184.514 55.341 182 49.521 182 42.617c0-6.902 2.515-12.724 7.546-17.462 5.031-4.739 11.437-7.108 19.218-7.108 7.779 0 14.186 2.369 19.217 7.108 5.03 4.738 7.547 10.56 7.547 17.462 0 6.904-2.517 12.724-7.547 17.462-5.031 4.738-11.438 7.108-19.217 7.108-7.782.001-14.187-2.369-19.218-7.107zM212.8 47.356c1.11-1.229 1.667-2.808 1.667-4.739 0-1.93-.557-3.51-1.667-4.738-1.112-1.229-2.457-1.843-4.036-1.843-1.58 0-2.926.614-4.037 1.843s-1.667 2.808-1.667 4.738c0 1.931.556 3.51 1.667 4.739s2.457 1.843 4.037 1.843c1.579 0 2.924-.615 4.036-1.843zm31.502.965h18.428L252.2 74.646h-14.04l6.142-26.325z" fill="#eff4d6"/></svg>