<?xml version="1.0" encoding="utf-8"?>
<!-- Generator: Adobe Illustrator 16.0.0, SVG Export Plug-In . SVG Version: 6.00 Build 0)  -->
<!DOCTYPE svg PUBLIC "-//W3C//DTD SVG 1.1//EN" "http://www.w3.org/Graphics/SVG/1.1/DTD/svg11.dtd">
<svg version="1.1" id="Layer_1" xmlns="http://www.w3.org/2000/svg" xmlns:xlink="http://www.w3.org/1999/xlink" x="0px" y="0px"
	 width="335px" height="89px" viewBox="0 0 335 89" enable-background="new 0 0 335 89" xml:space="preserve">
<g>
	<path fill="#ECF1D4" d="M18.649,53.091v3.397h20.387V70.08H0.981V22.51h36.696v13.591H18.649V39.5h17.669v13.591H18.649z"/>
	<path fill="#ECF1D4" d="M54.666,71.1c-3.625,0-6.569-1.506-8.834-4.52c-2.266-3.012-3.398-7.509-3.398-13.489V34.063h16.31v19.028
		c0,1.269,0.272,2.266,0.815,2.99c0.543,0.726,1.178,1.087,1.903,1.087c0.724,0,1.359-0.361,1.903-1.087
		c0.543-0.725,0.815-1.722,0.815-2.99V34.063h16.31V70.08H64.86L63.5,66.003c-0.091,0.136-0.204,0.317-0.34,0.543
		c-0.136,0.228-0.476,0.636-1.019,1.224c-0.544,0.589-1.122,1.11-1.733,1.563c-0.612,0.453-1.439,0.859-2.48,1.223
		C56.885,70.918,55.798,71.1,54.666,71.1z"/>
	<path fill="#ECF1D4" d="M127.039,59.207c0,3.397-1.393,6.229-4.179,8.494c-2.787,2.267-6.717,3.398-11.791,3.398
		c-2.084,0-4.101-0.228-6.048-0.68c-1.948-0.452-3.557-0.985-4.825-1.597c-1.269-0.612-2.391-1.234-3.364-1.869
		c-0.975-0.634-1.665-1.178-2.072-1.631l-0.68-0.68l5.097-8.155c0.272,0.272,0.634,0.59,1.087,0.952
		c0.452,0.363,1.427,0.86,2.922,1.495s2.99,0.951,4.485,0.951c0.498,0,0.906-0.136,1.223-0.408c0.316-0.271,0.476-0.588,0.476-0.951
		c0-0.407-0.691-0.905-2.073-1.495c-1.382-0.588-2.899-1.245-4.553-1.971c-1.654-0.724-3.172-1.971-4.553-3.737
		c-1.382-1.768-2.073-3.896-2.073-6.388c0-3.398,1.393-6.229,4.179-8.495c2.787-2.265,6.716-3.398,11.791-3.398
		c2.718,0,5.323,0.488,7.815,1.461c2.491,0.975,4.304,1.937,5.437,2.888l1.699,1.427l-5.097,8.155
		c-1.813-1.812-3.965-2.718-6.456-2.718c-0.499,0-0.907,0.136-1.223,0.408c-0.317,0.272-0.476,0.59-0.476,0.951
		c0,0.408,0.69,0.907,2.073,1.495c1.381,0.59,2.898,1.247,4.553,1.971c1.653,0.726,3.171,1.971,4.553,3.738
		C126.348,54.586,127.039,56.716,127.039,59.207z"/>
	<path fill="#ECF1D4" d="M134.242,65.595c-3.896-3.67-5.844-8.177-5.844-13.523c0-5.345,1.948-9.854,5.844-13.523
		c3.896-3.67,8.857-5.505,14.883-5.505c6.025,0,10.985,1.835,14.882,5.505c3.896,3.669,5.844,8.178,5.844,13.523
		c0,5.347-1.948,9.854-5.844,13.523c-3.897,3.67-8.857,5.505-14.882,5.505C143.099,71.1,138.138,69.265,134.242,65.595z
		 M152.251,55.741c0.86-0.951,1.291-2.175,1.291-3.67s-0.431-2.718-1.291-3.669c-0.861-0.952-1.903-1.428-3.126-1.428
		s-2.266,0.476-3.126,1.428c-0.861,0.951-1.292,2.174-1.292,3.669s0.43,2.719,1.292,3.67c0.86,0.951,1.903,1.427,3.126,1.427
		S151.39,56.692,152.251,55.741z"/>
	<path fill="#ECF1D4" d="M185.481,71.1c-3.625,0-6.569-1.506-8.834-4.52c-2.267-3.012-3.398-7.509-3.398-13.489V34.063h16.31v19.028
		c0,1.269,0.272,2.266,0.816,2.99c0.543,0.726,1.177,1.087,1.902,1.087c0.725,0,1.359-0.361,1.902-1.087
		c0.544-0.725,0.815-1.722,0.815-2.99V34.063h16.311V70.08h-15.631l-1.358-4.077c-0.092,0.136-0.204,0.317-0.34,0.543
		c-0.137,0.228-0.476,0.636-1.02,1.224c-0.544,0.589-1.121,1.11-1.733,1.563c-0.611,0.453-1.438,0.859-2.48,1.223
		C187.701,70.918,186.613,71.1,185.481,71.1z"/>
	<path fill="#ECF1D4" d="M254.082,62.161c1.953,0,3.797,0.108,5.533,0.325c0.722,0.146,2.023,0.65,3.905,1.519l0.542,0.543
		l-0.65,0.217c-0.941,0-1.7,0.362-2.278,1.085c0,0.146-0.146,0.217-0.434,0.217c-1.158-0.071-2.387,0.146-3.688,0.65
		c-0.797,0.363-1.628,0.543-2.495,0.543c-1.953,0.217-3.979,0.867-6.075,1.952c-0.651,0.363-2.785,1.338-6.4,2.93
		c-0.29,0.144-0.724,0.342-1.302,0.597c-0.58,0.252-0.977,0.45-1.193,0.597c-0.58,0.36-0.905,0.613-0.977,0.759
		c-1.085,1.085-3.11,2.566-6.075,4.448l-0.542,0.434l0.108-0.108c0.361-0.073,0.434-0.037,0.217,0.108
		c-0.073,0.071-0.217,0.18-0.434,0.325c-1.953,1.085-3.11,1.698-3.472,1.845c-0.724,0.288-1.88,0.65-3.472,1.085
		c-0.144,0-0.252-0.038-0.325-0.108c-1.156-0.797-1.88-1.302-2.17-1.52c-0.217-0.146-0.469-0.615-0.759-1.41
		c0-0.217-0.071-0.542-0.217-0.977c-0.145-0.434-0.253-0.796-0.326-1.084v-1.845c0.146-1.014,0.182-1.664,0.108-1.952
		c-0.144-0.797,0.218-1.267,1.085-1.411c0.941-0.724,1.573-1.284,1.898-1.681c0.325-0.397,0.724-1.193,1.193-2.387
		c0.472-1.193,0.995-3.055,1.573-5.587c0.288-1.012,0.776-2.802,1.465-5.37c0.687-2.566,1.247-4.537,1.681-5.912
		c2.097-7.16,3.651-12.221,4.665-15.188c0.651-1.88,1.771-5.623,3.363-11.228c1.59-5.604,2.712-9.347,3.362-11.228
		c0.218-0.434,0.524-1.121,0.923-2.061c0.396-0.939,0.668-1.663,0.813-2.17c0.505-0.868,1.12-1.302,1.844-1.302
		c0.435,0,1.229-0.559,2.387-1.681c1.156-1.121,1.953-1.682,2.387-1.682c1.953,0.217,3.108,1.302,3.472,3.254
		c0.217,0.797,0.18,1.844-0.108,3.146c-0.073,0.507-1.483,6.655-4.231,18.442c-1.519,6.365-2.966,12.259-4.339,17.682
		c-0.217,0.797-0.597,2.045-1.139,3.743c-0.543,1.7-0.923,3.021-1.14,3.96c-0.579,1.881-0.868,3.417-0.868,4.61
		s0.163,2.044,0.488,2.549c0.326,0.507,0.958,0.814,1.898,0.923c0.939,0.108,1.861,0.108,2.767,0c0.903-0.108,2.097-0.234,3.58-0.38
		C251.713,62.233,252.998,62.161,254.082,62.161z"/>
	<path fill="#ECF1D4" d="M270.137,43.719c0,0.146-0.091,0.398-0.271,0.759c-0.182,0.363-0.271,0.651-0.271,0.868
		s-0.146,0.398-0.434,0.543c-0.218,0.217-0.326,0.398-0.326,0.543c-0.072,0.361-0.254,0.579-0.542,0.65
		c-0.146,0.072-0.254,0.362-0.325,0.867c0.217,0,0.36,0.038,0.434,0.109v0.108h-0.76c0.071-0.218,0.109-0.506,0.109-0.868h-0.218
		l-0.325,2.278l0.434,0.217c0.071,0.507,0.109,1.23,0.109,2.17c0,0.579,0.144,1.23,0.434,1.952c0.071,0.146,0.307,0.688,0.705,1.627
		c0.396,0.941,0.668,1.483,0.813,1.628c2.313,2.315,4.014,3.509,5.099,3.58c0.505,0.072,1.915-0.108,4.23-0.543
		c2.458-0.722,4.953-2.061,7.485-4.014c0.723-0.505,1.718-1.318,2.983-2.44c1.265-1.121,2.078-1.826,2.441-2.116l0.325-0.325
		c0.217-0.217,0.542-0.578,0.977-1.085c0.434-0.505,0.759-0.867,0.977-1.085c1.372-1.373,2.457-2.639,3.254-3.797
		c0.434-0.722,0.868-1.156,1.302-1.301c-0.29,1.158-0.579,2.061-0.868,2.711c-0.146,0.363-0.325,0.651-0.542,0.868
		c-0.797,0.941-1.339,1.7-1.627,2.278c-0.146,0.146-0.345,0.362-0.597,0.651c-0.255,0.289-0.417,0.507-0.488,0.65
		c-0.073,0.073-0.146,0.182-0.217,0.325c-0.073,0.146-0.146,0.255-0.217,0.326c0.144,0,0.307-0.036,0.487-0.109
		c0.18-0.07,0.308-0.144,0.38-0.217c-0.072,0.217-0.217,0.453-0.434,0.705c-0.217,0.255-0.325,0.453-0.325,0.597l0.325,0.326
		c-0.217,0.362-0.58,0.796-1.085,1.302c-0.651,0.579-1.267,1.193-1.844,1.844c-0.651,0.724-1.7,1.665-3.146,2.82
		c-0.94,0.724-1.447,1.122-1.519,1.193c-0.146,0.073-0.363,0.217-0.651,0.435c-0.289,0.217-0.507,0.362-0.65,0.434
		c-0.868,0.434-1.519,0.797-1.953,1.085c-1.23,0.724-2.387,1.193-3.471,1.41l-0.977,0.325c-1.158,0.363-2.46,0.615-3.905,0.76
		c-0.725,0.072-2.262-0.09-4.611-0.488c-2.351-0.396-3.924-0.741-4.719-1.03c-1.157-0.435-2.099-0.923-2.82-1.465
		c-0.724-0.543-1.41-1.193-2.062-1.953c-0.65-0.759-1.122-1.247-1.41-1.464c-0.65-0.506-1.156-1.265-1.519-2.278
		c-0.361-0.939-0.613-2.458-0.76-4.557c0-3.182,0.76-6.4,2.278-9.655c0.217-0.434,0.288-0.976,0.217-1.627
		c-0.577,0.363-0.938,0.759-1.084,1.193c-0.289,0.796-0.723,1.735-1.302,2.82c0-0.434,0.254-1.229,0.759-2.387
		c0.94-2.097,1.953-3.941,3.038-5.532c1.155-1.807,2.495-3.472,4.014-4.99c1.59-1.736,3.217-3.109,4.882-4.123l1.084-0.542
		c0.723-0.288,1.193-0.217,1.411,0.217c0.144,0.146,0.325,0.235,0.542,0.271c0.217,0.037,0.361,0.091,0.434,0.163
		c0.145,0.073,0.271,0.217,0.38,0.434s0.198,0.363,0.271,0.434c0.288,0.146,1.302,0.507,3.037,1.084
		c1.736,0.58,2.783,0.977,3.146,1.193c0.217,0.146,0.47,0.507,0.759,1.085c0.868,1.592,1.446,2.495,1.736,2.712
		c0.144,0.073,0.288,0.398,0.434,0.977c0.217,1.519,0.217,2.82,0,3.905c-0.217,1.302-0.76,2.712-1.627,4.231
		c-0.651,1.158-1.05,1.917-1.193,2.278c-0.073,0.362-0.434,1.084-1.085,2.169c-0.434,0.797-1.085,1.34-1.953,1.628
		c-0.65,0.362-1.339,0.471-2.061,0.325c-0.507-0.145-0.797-0.288-0.868-0.434l-0.108-0.109c-0.362,0.073-0.778-0.108-1.247-0.542
		c-0.472-0.434-0.743-0.65-0.814-0.65c-0.146-0.145-0.217-0.326-0.217-0.543c0.071-0.144,0.036-0.469-0.108-0.977
		c-0.724-1.519-1.193-2.422-1.41-2.712C270.751,43.394,270.498,43.358,270.137,43.719z M259.506,55.001l-0.217,0.108
		c0,0.073,0.037,0.2,0.108,0.38c0.073,0.182,0.144,0.344,0.217,0.488c0,0.072,0.055,0.235,0.163,0.488
		c0.108,0.254,0.09,0.417-0.055,0.488l-0.217-0.218c-0.361-0.722-0.687-2.023-0.977-3.905v-0.325c0-2.097,0.146-3.688,0.435-4.773
		c0.146-0.434,0.217-0.76,0.217-0.977v-0.759c-0.361,0.724-0.578,1.23-0.651,1.519c-0.071,0.217-0.144,0.472-0.217,0.76
		c-0.071,0.29-0.108,0.542-0.108,0.759c-0.505,3.11-0.217,5.679,0.868,7.702c0,0.073,0.289,0.472,0.867,1.193
		c0.145,0.146,0.397,0.29,0.76,0.435h0.325c-0.507-0.868-0.797-1.373-0.867-1.519c-0.073-0.218-0.163-0.524-0.271-0.923
		C259.777,55.526,259.65,55.218,259.506,55.001z M259.506,47.841c-0.145,0.146-0.217,0.255-0.217,0.326
		c-0.435,1.302-0.505,2.966-0.217,4.99l0.217,0.217c0.072-0.795,0.182-1.916,0.325-3.363
		C259.759,48.999,259.723,48.275,259.506,47.841z M275.995,36.017c-0.29,0.217-1.302,1.375-3.037,3.472
		c-0.435,0.651-0.688,1.049-0.76,1.193c-0.434,0.724-0.362,1.267,0.217,1.627c0.578,0.363,0.903,0.615,0.977,0.759
		c0.434,0.507,1.229,0.688,2.387,0.542c0.578-0.144,1.156-0.722,1.735-1.736c0.217-0.505,0.524-1.139,0.923-1.898
		c0.396-0.759,0.705-1.464,0.922-2.115c0.578-1.373,0.668-2.241,0.271-2.604c-0.397-0.361-0.959-0.451-1.681-0.271
		C277.224,35.167,276.573,35.512,275.995,36.017z"/>
	<path fill="#ECF1D4" d="M296.172,42.309c0-0.144-0.037-0.252-0.108-0.326c-1.014-1.59-1.7-3.868-2.061-6.834
		c-0.29-1.59,0.108-3.363,1.193-5.316c0.144-0.288,0.396-0.469,0.759-0.542c0.651-0.578,1.736-1.302,3.255-2.169
		c0.938-0.578,2.097-0.759,3.472-0.542c0.36,0,1.627,0.868,3.797,2.604c1.155,0.941,1.844,1.483,2.061,1.627
		c0.939,0.796,1.663,1.881,2.17,3.254c0.505,1.302,0.83,2.099,0.977,2.387c0.071,0.073,0.288,1.122,0.65,3.146
		c0.145,1.591,0.253,2.459,0.325,2.604c0.071,0.073,0.109,0.181,0.109,0.325c-0.073-0.505-0.073-0.469,0,0.108
		c0,0.58,0,0.905,0,0.977c0,0.29,0.017,0.922,0.054,1.898c0.036,0.977-0.019,1.573-0.163,1.79c-0.146,0.29-0.091,0.597,0.163,0.922
		c0.253,0.325,0.597,0.488,1.03,0.488c1.229-0.071,3.345-0.071,6.347,0c3,0.073,5.08-0.071,6.237-0.434l1.736-0.868
		c0.071-0.071,0.198-0.145,0.38-0.217c0.18-0.071,0.307-0.144,0.379-0.218c0.218,0.29,0.218,0.616,0,0.977
		c-0.072,0.146,0,0.345,0.218,0.597c0.217,0.255,0.252,0.453,0.108,0.597c-2.099,2.243-7.812,3.363-17.141,3.363h-0.325
		c-0.435,0-0.651,0.108-0.651,0.325c0,0.073-0.072,0.255-0.217,0.543c-0.073,0.507-0.76,2.315-2.062,5.424
		c-0.362,0.868-1.049,1.953-2.061,3.255c-0.651,1.014-1.158,1.627-1.519,1.844c-0.073,0.073-0.2,0.163-0.38,0.271
		c-0.182,0.108-0.309,0.2-0.38,0.271c-0.362,0.146-0.58,0.362-0.65,0.65c-0.941,1.085-1.953,1.773-3.038,2.062
		c-0.29,0-0.65,0.146-1.085,0.434c-1.23,0.362-2.712,0.398-4.447,0.108c-1.665-0.217-3.109-1.373-4.34-3.472l-0.976-2.929
		c-0.218-2.241-0.253-4.23-0.109-5.967c0.218-1.952,0.833-3.94,1.845-5.966c0.868-2.098,2.205-4.231,4.014-6.401
		C295.883,42.888,296.026,42.671,296.172,42.309z M309.082,40.248c0.217-1.012,0.18-1.88-0.108-2.604
		c-0.218-1.156-0.472-2.314-0.76-3.472c-0.362-1.156-0.868-2.024-1.519-2.604c-0.797-0.795-1.267-1.229-1.41-1.302
		c-0.725-0.651-1.375-1.121-1.953-1.41c-0.94-0.722-2.424-0.071-4.447,1.953c-1.014,1.302-1.43,2.785-1.248,4.448
		c0.18,1.665,0.613,3.183,1.302,4.556c0.687,1.375,1.536,2.604,2.55,3.688c1.59,3.11,3.417,4.249,5.478,3.417
		C309.027,46.088,309.732,43.865,309.082,40.248z M301.38,54.133c-0.651,0.941-1.34,2.495-2.062,4.665
		c-0.073,0.363-0.108,0.94-0.108,1.735c-0.073,0.073-0.037,0.255,0.108,0.543c0.288,0.65,0.687,1.085,1.193,1.302
		c0.071,0,0.144-0.036,0.217-0.108c0.071-0.071,0.217-0.18,0.434-0.325c1.52-1.591,2.93-3.906,4.231-6.943
		c0.144-0.288,0.288-0.578,0.434-0.868c0.145-0.288,0.271-0.613,0.38-0.976c0.108-0.361,0.198-0.614,0.271-0.76
		c-1.302-0.434-2.278-0.505-2.93-0.217C302.898,52.471,302.175,53.121,301.38,54.133z"/>
	<path fill="#ECF1D4" d="M334.684,60.859c0,0.289-0.037,0.507-0.108,0.65c-0.146,0.435-0.344,1.085-0.597,1.953
		c-0.254,0.867-0.507,1.627-0.759,2.278c-0.255,0.65-0.562,1.23-0.923,1.735c-0.362,0.507-0.724,0.797-1.085,0.868
		c-1.447,0.434-2.495,0.398-3.146-0.108l-0.217-0.109c-0.868,0-1.592-0.469-2.17-1.41c-0.58-0.938-0.868-1.952-0.868-3.037
		c0.071-2.241,0.939-4.375,2.604-6.4c0.288-0.288,0.47-0.361,0.543-0.217c2.892,0.579,4.882,1.339,5.967,2.277
		C334.502,59.92,334.755,60.425,334.684,60.859z"/>
</g>
</svg>
