<svg xmlns="http://www.w3.org/2000/svg" width="111" height="75" viewBox="0 0 111 75"><path d="M50.403 28.255c5.253 5.014 7.88 11.262 7.88 18.748s-2.627 13.734-7.88 18.747c-5.254 5.015-11.983 7.521-20.188 7.521-8.205 0-14.934-2.507-20.187-7.521-5.253-5.013-7.88-11.262-7.88-18.747s2.627-13.733 7.88-18.748c5.253-5.013 11.982-7.521 20.187-7.521 8.205.001 14.934 2.508 20.188 7.521zM35.829 53.192c1.535-1.631 2.304-3.694 2.304-6.189 0-2.494-.769-4.558-2.304-6.189-1.536-1.63-3.407-2.446-5.613-2.446-2.207 0-4.078.816-5.613 2.446-1.536 1.632-2.303 3.695-2.303 6.189 0 2.495.767 4.559 2.303 6.189 1.535 1.631 3.406 2.446 5.613 2.446 2.206.001 4.077-.815 5.613-2.446zm26.772-23.461V16.057h17.272v13.674H62.601zm0 4.317h17.272v38.143H62.601V34.048zm24.82 23.75h12.042L92.583 75h-9.175l4.013-17.202z" fill="#ECF1D4"/></svg>