<svg id="Layer_1" enable-background="new 0 0 511.003 511.003" height="512" viewBox="0 0 511.003 511.003" width="512" xmlns="http://www.w3.org/2000/svg"><path d="m404.051 495.003h-39.847l-14.542-83.43c-.759-4.353-4.903-7.27-9.255-6.507-4.353.759-7.266 4.902-6.507 9.255l14.063 80.682h-113.965v-44.289c0-11.856 9.646-21.503 21.504-21.503s21.504 9.646 21.504 21.503v25.787c0 4.418 3.582 8 8 8s8-3.582 8-8v-25.787c0-20.679-16.824-37.503-37.504-37.503s-37.504 16.824-37.504 37.503v44.289h-54.957l3.519-20.185c.759-4.353-2.154-8.496-6.507-9.255-4.346-.758-8.496 2.153-9.255 6.507l-3.997 22.933h-39.847c-4.418 0-8 3.582-8 8s3.582 8 8 8h297.098c4.418 0 8-3.582 8-8s-3.583-8-8.001-8z"/><path d="m468.589 78.87-38.264-38.264c-3.124-3.121-8.188-3.123-11.314 0l-117.713 117.712-26.923-30.512c-6.918-7.839-17.621-11.679-28.271-9.617l-115.847-115.847c-3.124-3.122-8.188-3.124-11.314 0l-38.264 38.264c-3.124 3.125-3.124 8.189 0 11.314l19.703 19.703c1.563 1.562 3.609 2.343 5.657 2.343 7.065 0 10.711-8.602 5.657-13.657l-14.045-14.046 26.949-26.95 106.563 106.562c-.894.847-26.007 27.893-26.007 27.893l-52.961-52.961c-3.125-3.123-8.189-3.123-11.314 0-3.124 3.125-3.124 8.189 0 11.314l55.553 55.553-40.604 49.305c-4.061 4.93-6.414 10.89-6.817 17.099l-106.598 106.595c-3.124 3.125-3.124 8.189 0 11.314 3.125 3.123 8.189 3.124 11.314 0l113.162-113.162 26.949 26.949-107.504 107.506-14.556-14.557c-3.125-3.123-8.189-3.123-11.314 0-3.124 3.125-3.124 8.189 0 11.314l20.214 20.214c3.126 3.124 8.189 3.123 11.314 0l90.162-90.161-20.023 106.952c-.85 4.878 2.896 9.375 7.891 9.375 3.815 0 7.193-2.739 7.871-6.627l22.255-127.694 17.529-17.53 76.856 1.209-32.607 32.607c-1.5 1.501-2.343 3.535-2.343 5.657 0 4.218 2.336 5.651 8.384 11.698-24.31-8.595-49.971 9.508-49.971 35.365v30.008c0 4.418 3.582 8 8 8h59.008c4.418 0 8-3.582 8-8 0-31.287.701-34.443-2.139-42.475l89.88 89.879c3.126 3.124 8.189 3.123 11.314 0l38.264-38.264c3.177-3 3.552-7.625 0-11.314l-113.271-113.27 12.774.49c25.86 0 39.692-30.521 22.544-49.955l-4.931-5.589c.843-.386 80.043-79.322 80.043-79.322 3.124-3.124 3.124-8.189 0-11.314-3.123-3.122-8.188-3.123-11.314 0l-72.057 72.057-26.949-26.949 107.505-107.507 26.95 26.95-16.281 16.279c-3.124 3.124-3.124 8.189 0 11.314 3.125 3.123 8.19 3.124 11.313 0l21.938-21.937c3.122-3.121 3.124-8.187 0-11.313zm-191.583 294.241h-43.008v-22.008c0-11.857 9.646-21.504 21.504-21.504s21.504 9.646 21.504 21.504zm-14.628-234.72 27.585 31.263-34.46 34.46-37.483-37.483 29.081-32.18c5.384-1.922 11.444-.405 15.277 3.94zm-61.528 111.765c-16.765-16.765-12.042-12.041-28.305-28.305l35.256-42.81 36.388 36.388-34.727 34.727zm31.24 0 23.413-23.413 23.413 23.413zm154.315 161.388-107.506-107.504 26.95-26.95 107.505 107.505zm-56.577-161.388h-28.284l-34.727-34.727 33.753-33.753 39.804 45.111c8.033 9.104 1.601 23.369-10.546 23.369z"/><path d="m130.039 97.966c7.063 0 10.711-8.603 5.657-13.656l-5.252-5.253c-3.124-3.124-8.189-3.124-11.313-.001-3.125 3.124-3.125 8.189-.001 11.313 5.057 5.058 6.71 7.597 10.909 7.597z"/><path d="m162.653 458.702c3.815 0 7.193-2.739 7.871-6.627l1.707-9.791c.759-4.353-2.154-8.496-6.507-9.255-4.347-.759-8.496 2.153-9.255 6.507l-1.707 9.791c-.849 4.868 2.887 9.375 7.891 9.375z"/></svg>