<svg width="512" height="512" xmlns="http://www.w3.org/2000/svg">

 <g>
  <title>background</title>
  <rect fill="none" id="canvas_background" height="402" width="582" y="-1" x="-1"/>
 </g>
 <g>
  <title>Layer 1</title>
  <path id="svg_1" d="m27.29,327.89a240.045,240.045 0 0 1 384.51,-254.741a8,8 0 1 0 10.37,-12.179a255.037,255.037 0 0 0 -165.84,-60.97a257.974,257.974 0 0 0 -51.59,5.2a254.836,254.836 0 0 0 -91.54,38.52a256.741,256.741 0 0 0 -92.75,112.63a257.048,257.048 0 0 0 -8.43,176.33a7.974,7.974 0 0 0 7.63,5.61a8.176,8.176 0 0 0 2.4,-0.37a8.027,8.027 0 0 0 5.24,-10.03z"/>
  <path id="svg_2" d="m433.95,94.59l0.08,0.09a8,8 0 0 0 11.84,-10.76l-0.08,-0.09a8,8 0 0 0 -11.22,-0.45a7.985,7.985 0 0 0 -0.61,11.21l-0.01,0z"/>
  <path id="svg_3" d="m38.44,356.74a8,8 0 1 0 -7.26,11.369a7.878,7.878 0 0 0 3.36,-0.75a8.009,8.009 0 0 0 3.9,-10.619z"/>
  <path id="svg_4" d="m500.24,178.02a254.45,254.45 0 0 0 -33.8,-68.31a8,8 0 0 0 -6.56,-3.42a8,8 0 0 0 -6.56,12.569a240.323,240.323 0 0 1 -101.32,357.369l0,-12.228a96.042,96.042 0 0 0 -36.141,-75.044a8,8 0 0 0 -9.978,12.508a80.015,80.015 0 0 1 30.119,62.536l0,16a7.982,7.982 0 0 0 0.361,2.382a237.574,237.574 0 0 1 -24.361,7.145l0,-41.527a8,8 0 0 0 -16,0l0,44.741a243.146,243.146 0 0 1 -80,-0.108l0,-44.633a8,8 0 0 0 -16,0l0,41.38a238.437,238.437 0 0 1 -24.308,-7.2a7.979,7.979 0 0 0 0.308,-2.18l0,-16a79.637,79.637 0 0 1 30.122,-62.538a8,8 0 0 0 -9.984,-12.5a95.56,95.56 0 0 0 -36.138,75.038l0,11.977a239.713,239.713 0 0 1 -106.79,-92.077a8,8 0 1 0 -13.53,8.54a257.149,257.149 0 0 0 91.11,86.71a254.791,254.791 0 0 0 125.54,32.85a256.249,256.249 0 0 0 212.28,-112.87a254.656,254.656 0 0 0 38.52,-91.54a257.918,257.918 0 0 0 -6.89,-129.57z"/>
  <path id="svg_5" d="m408,200a151.3,151.3 0 0 0 -25.96,-84.98a152.448,152.448 0 0 0 -66.87,-55.07a152.668,152.668 0 0 0 -104.17,-5.18a8,8 0 0 0 2.36,15.65a8.157,8.157 0 0 0 2.3,-0.34l0.07,-0.02a136.034,136.034 0 0 1 176.27,129.94l0,8l-16.585,0a55.968,55.968 0 0 0 -47.615,-47.46a8.436,8.436 0 0 0 -1.12,-0.08a8,8 0 0 0 -1.09,15.93l0.05,0a39.976,39.976 0 1 1 -42.83,24.85a8.009,8.009 0 0 0 -4.48,-10.39a7.9,7.9 0 0 0 -2.95,-0.57a7.978,7.978 0 0 0 -7.44,5.05a55.729,55.729 0 0 0 -3.372,12.67l-17.153,0a55.968,55.968 0 0 0 -47.615,-47.46a8.436,8.436 0 0 0 -1.12,-0.08a8,8 0 0 0 -1.09,15.93l0.06,0a39.978,39.978 0 1 1 -42.84,24.85a8.009,8.009 0 0 0 -4.48,-10.39a7.9,7.9 0 0 0 -2.95,-0.57a7.978,7.978 0 0 0 -7.44,5.05a55.322,55.322 0 0 0 -3.374,12.67l-16.566,0l0,-8a136.487,136.487 0 0 1 43.82,-100a8,8 0 0 0 0.46,-11.3a8.026,8.026 0 0 0 -5.88,-2.58a7.943,7.943 0 0 0 -5.42,2.12a151.608,151.608 0 0 0 -48.98,111.76l0,8a48,48 0 1 0 0,96l0.12,0a68,68 0 0 0 67.88,64l52,0l0,16a32,32 0 0 0 64,0l0,-16l52,0a68,68 0 0 0 67.88,-64l0.12,0a48,48 0 1 0 0,-96l0,-8zm-136,184a16,16 0 0 1 -32,0l0,-16l32,0l0,16zm158.63,-150.63a32,32 0 0 1 -22.63,54.63l-15.95,0l-0.05,12a52,52 0 0 1 -52,52l-168,0a52,52 0 0 1 -52,-52l0,-11.95l-16,-0.05a32,32 0 1 1 0,-64l0,8a8,8 0 0 0 16,0l0,-8l16.572,0a55.994,55.994 0 0 0 110.856,0l17.144,0a55.994,55.994 0 0 0 110.856,0l16.572,0l0,8a8,8 0 0 0 16,0l0,-8a31.851,31.851 0 0 1 22.63,9.37z"/>
  <path id="svg_6" d="m184.12,83.2a8,8 0 1 0 -6.94,-4a8.034,8.034 0 0 0 6.94,4z"/>
  <circle id="svg_7" r="8" cy="264" cx="112"/>
  <circle id="svg_8" r="8" cy="264" cx="400"/>
  <path id="svg_9" d="m275.563,290.077a35.176,35.176 0 0 1 -39.125,0a8,8 0 1 0 -8.875,13.313a51.134,51.134 0 0 0 56.875,0a8,8 0 0 0 -8.875,-13.313z"/>
  <path id="svg_10" d="m167.87,166.49a8.006,8.006 0 0 0 -4.02,1.09a8,8 0 0 0 -2.89,10.94a8.039,8.039 0 0 0 6.93,3.97a7.888,7.888 0 0 0 4.01,-1.091a8,8 0 0 0 -4.03,-14.909z"/>
  <path id="svg_11" d="m295.87,166.49a8.006,8.006 0 0 0 -4.02,1.09a8,8 0 0 0 -2.89,10.94a8.035,8.035 0 0 0 6.92,3.97a7.9,7.9 0 0 0 4.02,-1.091a8,8 0 0 0 -4.03,-14.909z"/>
  <ellipse stroke="null" ry="55.500002" rx="53.499995" id="svg_14" cy="214.953124" cx="190.999996" fill-opacity="null" stroke-opacity="null" stroke-width="null" fill="null"/>
  <ellipse stroke="null" ry="55.500002" rx="53.499995" id="svg_15" cy="215.953124" cx="314.999996" fill-opacity="null" stroke-opacity="null" stroke-width="null" fill="null"/>
 </g>
</svg>