<?xml version="1.0"?><svg xmlns="http://www.w3.org/2000/svg" xmlns:xlink="http://www.w3.org/1999/xlink" version="1.1" id="Layer_1" x="0px" y="0px" viewBox="0 0 512 512" style="enable-background:new 0 0 512 512;" xml:space="preserve" width="512px" height="512px" class=""><g transform="matrix(-1 0 0 -1 512 512)"><g><path style="fill:#FFFFFF" d="M63,159c-34.738,0-63-28.262-63-63s28.262-63,63-63s63,28.262,63,63S97.738,159,63,159z" data-original="#44A4EC" class="" data-old_color="#44A4EC"/><path style="fill:#FFFFFF" d="M63,319c-34.738,0-63-28.262-63-63s28.262-63,63-63s63,28.262,63,63S97.738,319,63,319z" data-original="#44A4EC" class="" data-old_color="#44A4EC"/><path style="fill:#FFFFFF" d="M63,479c-34.738,0-63-28.262-63-63s28.262-63,63-63s63,28.262,63,63S97.738,479,63,479z" data-original="#44A4EC" class="" data-old_color="#44A4EC"/></g><g><path style="fill:#FFFFFF" d="M465,143H207c-25.916,0-47-21.084-47-47s21.084-47,47-47h258c25.916,0,47,21.084,47,47   S490.916,143,465,143z" data-original="#4DB5FF" class="active-path" data-old_color="#4DB5FF"/><path style="fill:#FFFFFF" d="M465,303H207c-25.916,0-47-21.084-47-47s21.084-47,47-47h258c25.916,0,47,21.084,47,47   S490.916,303,465,303z" data-original="#4DB5FF" class="active-path" data-old_color="#4DB5FF"/><path style="fill:#FFFFFF" d="M465,463H207c-25.916,0-47-21.084-47-47s21.084-47,47-47h258c25.916,0,47,21.084,47,47   S490.916,463,465,463z" data-original="#4DB5FF" class="active-path" data-old_color="#4DB5FF"/></g></g></svg>
